<?xml version="1.0" encoding="UTF-8"?>
<svg version="1.1" xmlns="http://www.w3.org/2000/svg" width="1720" height="1233">
<path d="M0 0 C2.04002104 -0.00417626 4.08003976 -0.00965538 6.12005419 -0.01631981 C11.70831919 -0.03075434 17.29643646 -0.0265359 22.88470948 -0.019153 C28.91817931 -0.01441882 34.95161731 -0.02693329 40.9850769 -0.03717041 C52.11516859 -0.05336511 63.24522166 -0.05580513 74.37532023 -0.05086542 C84.65772516 -0.04630428 94.94011264 -0.04691239 105.22251701 -0.05270576 C106.6029724 -0.05346264 107.98342779 -0.05421862 109.36388318 -0.05497371 C111.44420625 -0.05611893 113.52452933 -0.05726881 115.60485239 -0.05843295 C134.93805969 -0.06913342 154.27126118 -0.0738677 173.60447025 -0.06596279 C174.33282486 -0.06566562 175.06117947 -0.06536844 175.81160543 -0.06506227 C181.72599412 -0.06261344 187.64038274 -0.0600018 193.55477135 -0.05737813 C216.63008333 -0.04727319 239.70532255 -0.05563762 262.78062439 -0.07887268 C288.71860968 -0.10494812 314.65655119 -0.11779275 340.59455007 -0.11068493 C343.36036042 -0.10996889 346.12617077 -0.1092945 348.89198112 -0.10864449 C349.91346703 -0.10838977 349.91346703 -0.10838977 350.95558901 -0.10812991 C361.23123349 -0.10582781 371.50683726 -0.11379952 381.78247261 -0.12693596 C393.46762411 -0.14184789 405.15269689 -0.14231479 416.83784945 -0.12486505 C422.79958801 -0.11633982 428.76114451 -0.11424295 434.72287369 -0.1295166 C440.18120831 -0.14332757 445.63920424 -0.13864654 451.09751909 -0.11927737 C453.0711092 -0.11550611 455.04472621 -0.11847163 457.01829243 -0.12888902 C475.08996462 -0.2174902 475.08996462 -0.2174902 483.99034119 4.38768005 C485.52321487 4.91402062 487.06439982 5.41723667 488.61534119 5.88768005 C499.67321638 9.52868774 510.99145605 15.95295822 518.99034119 24.38768005 C519.873349 25.24748474 520.75635681 26.10728943 521.66612244 26.9931488 C522.97129822 28.27125427 522.97129822 28.27125427 524.30284119 29.57518005 C525.185849 30.43498474 526.06885681 31.29478943 526.97862244 32.1806488 C528.99034119 34.38768005 528.99034119 34.38768005 528.99034119 36.38768005 C529.65034119 36.38768005 530.31034119 36.38768005 530.99034119 36.38768005 C532.00900348 38.04300628 533.00844931 39.71028144 533.99034119 41.38768005 C534.65034119 41.71768005 535.31034119 42.04768005 535.99034119 42.38768005 C535.99034119 43.37768005 535.99034119 44.36768005 535.99034119 45.38768005 C536.65034119 45.71768005 537.31034119 46.04768005 537.99034119 46.38768005 C540.29940093 49.90146661 542.14409201 53.61490999 543.99034119 57.38768005 C544.38221619 58.10955505 544.77409119 58.83143005 545.17784119 59.57518005 C545.99034119 61.38768005 545.99034119 61.38768005 545.99034119 64.38768005 C546.65034119 64.38768005 547.31034119 64.38768005 547.99034119 64.38768005 C550.29474132 68.68224393 551.77218681 72.70247091 552.99034119 77.38768005 C553.65034119 77.38768005 554.31034119 77.38768005 554.99034119 77.38768005 C555.48534119 78.54268005 555.98034119 79.69768005 556.49034119 80.88768005 C558.87873082 86.29389053 561.55514983 91.54852681 564.25987244 96.80174255 C565.87452866 99.97558971 567.2211566 102.91321932 567.99034119 106.38768005 C568.65034119 106.38768005 569.31034119 106.38768005 569.99034119 106.38768005 C570.21850525 107.01932068 570.44666931 107.6509613 570.68174744 108.30174255 C572.86920211 113.46021775 575.62155075 118.3288347 578.26963806 123.26268005 C584.99034119 135.88277832 584.99034119 135.88277832 584.99034119 139.38768005 C585.65034119 139.71768005 586.31034119 140.04768005 586.99034119 140.38768005 C588.01014629 142.2087606 588.95741373 144.07081725 589.86534119 145.95018005 C590.35776306 146.96209412 590.85018494 147.97400818 591.35752869 149.0165863 C591.89635681 150.12904724 592.43518494 151.24150818 592.99034119 152.38768005 C593.98201195 154.38014739 594.97946156 156.36965938 595.97715759 158.3591156 C596.94359333 160.29408295 597.89852537 162.23424438 598.84971619 164.17674255 C602.74196264 172.09084094 606.84480761 179.80232333 611.32627869 187.3993988 C612.79470956 190.03636973 613.91043317 192.57812683 614.99034119 195.38768005 C618.59446262 202.97530412 622.5671472 210.34626222 626.67002869 217.6728363 C627.99034119 220.38768005 627.99034119 220.38768005 627.99034119 223.38768005 C628.65034119 223.38768005 629.31034119 223.38768005 629.99034119 223.38768005 C632.36190311 229.70730383 634.69063088 236.0415747 636.99034119 242.38768005 C637.34096619 243.3415863 637.69159119 244.29549255 638.05284119 245.27830505 C647.546497 273.56148801 641.70762648 305.91156643 629.29112244 332.21873474 C625.73829895 339.34089113 621.11868916 345.32234191 615.99034119 351.38768005 C615.54738708 351.94664978 615.10443298 352.50561951 614.64805603 353.08152771 C613.47266199 354.5530298 612.23568972 355.9748897 610.99034119 357.38768005 C610.33034119 357.38768005 609.67034119 357.38768005 608.99034119 357.38768005 C608.33034119 358.70768005 607.67034119 360.02768005 606.99034119 361.38768005 C606.33034119 361.38768005 605.67034119 361.38768005 604.99034119 361.38768005 C604.99034119 362.04768005 604.99034119 362.70768005 604.99034119 363.38768005 C603.67034119 363.71768005 602.35034119 364.04768005 600.99034119 364.38768005 C600.99034119 365.04768005 600.99034119 365.70768005 600.99034119 366.38768005 C593.76367575 372.00681069 585.35641154 375.80380642 576.99034119 379.38768005 C576.20014587 379.73959412 575.40995056 380.09150818 574.59580994 380.4540863 C556.2579675 387.0249174 533.80880899 386.20094179 515.74424744 379.11424255 C514.19121813 378.33418217 512.65517203 377.51683558 511.15830994 376.6337738 C508.85336264 375.245905 508.85336264 375.245905 505.64659119 374.01268005 C501.89210929 372.4374748 498.61296412 370.30221284 495.30284119 367.95018005 C494.74789978 367.56797302 494.19295837 367.18576599 493.62120056 366.79197693 C490.44925343 364.57048244 487.54131331 362.31105687 484.99034119 359.38768005 C484.99034119 358.72768005 484.99034119 358.06768005 484.99034119 357.38768005 C484.33034119 357.38768005 483.67034119 357.38768005 482.99034119 357.38768005 C480.86534119 355.51268005 480.86534119 355.51268005 478.99034119 353.38768005 C478.99034119 352.72768005 478.99034119 352.06768005 478.99034119 351.38768005 C478.33034119 351.38768005 477.67034119 351.38768005 476.99034119 351.38768005 C473.99034119 347.00306467 473.99034119 347.00306467 473.99034119 344.38768005 C473.33034119 344.38768005 472.67034119 344.38768005 471.99034119 344.38768005 C470.3632646 342.04110722 468.88066778 339.71389459 467.42784119 337.26268005 C466.81005798 336.26494568 466.81005798 336.26494568 466.17979431 335.24705505 C463.81215503 331.2945312 462.40591629 328.06836809 461.99034119 323.38768005 C461.33034119 323.38768005 460.67034119 323.38768005 459.99034119 323.38768005 C458.99034119 321.38768005 457.99034119 319.38768005 456.99034119 317.38768005 C456.51830261 316.44469055 456.51830261 316.44469055 456.03672791 315.48265076 C454.37188419 312.15583234 452.71121421 308.82707917 451.06065369 305.4931488 C447.64204729 298.59980836 444.15868623 291.74767467 440.55284119 284.95018005 C440.18368591 284.25328064 439.81453064 283.55638123 439.43418884 282.83836365 C437.46369819 279.12865257 435.47122931 275.43221455 433.45518494 271.74705505 C433.04260437 270.98578308 432.6300238 270.22451111 432.2049408 269.44017029 C431.41742387 267.98781495 430.62306344 266.53914144 429.82066345 265.09495544 C427.7071346 261.18170305 426.43838653 257.88913566 425.99034119 253.38768005 C425.33034119 253.38768005 424.67034119 253.38768005 423.99034119 253.38768005 C423.66034119 251.73768005 423.33034119 250.08768005 422.99034119 248.38768005 C422.33034119 248.38768005 421.67034119 248.38768005 420.99034119 248.38768005 C419.98049389 246.47618338 418.98279624 244.55826436 417.99034119 242.63768005 C417.15502869 241.03666443 417.15502869 241.03666443 416.30284119 239.40330505 C414.99034119 236.38768005 414.99034119 236.38768005 414.99034119 232.38768005 C414.33034119 232.38768005 413.67034119 232.38768005 412.99034119 232.38768005 C412.36413202 230.99238877 411.73943487 229.59641885 411.11534119 228.20018005 C410.74666931 227.3803363 410.37799744 226.56049255 409.99815369 225.71580505 C408.99034119 223.38768005 408.99034119 223.38768005 407.99034119 220.45018005 C406.71370826 217.81712465 405.66626759 217.47067649 402.99034119 216.38768005 C401.00090332 216.08882215 401.00090332 216.08882215 398.90615463 216.12596703 C398.09700946 216.11850153 397.28786428 216.11103604 396.45419955 216.10334432 C395.57093281 216.10527906 394.68766607 216.10721379 393.77763367 216.10920715 C392.83499892 216.10341475 391.89236418 216.09762235 390.92116475 216.09165442 C387.75506154 216.07461698 384.58910376 216.07177468 381.42295837 216.0688324 C379.15638368 216.05953681 376.88981241 216.0493687 374.62324524 216.03839111 C368.46252886 216.01103541 362.30183541 215.99592518 356.14107418 215.98296309 C349.70548807 215.96735691 343.26994897 215.9405587 336.83439636 215.91493225 C326.03027088 215.87342433 315.2261466 215.83884261 304.42198181 215.80955505 C293.29370783 215.77936997 282.16545956 215.7450199 271.03721619 215.70506287 C270.3512581 215.70260132 269.66530001 215.70013977 268.95855531 215.69760363 C265.51730121 215.68522903 262.07604741 215.6727725 258.63479376 215.66027522 C230.08667921 215.55670573 201.53853104 215.46765042 172.99034119 215.38768005 C172.99034119 216.04768005 172.99034119 216.70768005 172.99034119 217.38768005 C172.33034119 217.38768005 171.67034119 217.38768005 170.99034119 217.38768005 C170.99034119 218.04768005 170.99034119 218.70768005 170.99034119 219.38768005 C170.33034119 219.38768005 169.67034119 219.38768005 168.99034119 219.38768005 C169.27185206 220.70239573 169.56587457 222.01443773 169.86534119 223.32518005 C170.02776306 224.05607849 170.19018494 224.78697693 170.35752869 225.5400238 C170.81995642 227.594683 170.81995642 227.594683 172.99034119 228.38768005 C174.09572214 230.37437826 175.12358323 232.40439097 176.11534119 234.45018005 C176.74279309 235.73150463 177.37040338 237.01275165 177.99815369 238.29393005 C178.32460876 238.96553162 178.65106384 239.63713318 178.9874115 240.3290863 C180.63573768 243.71240819 182.31069525 247.08231855 183.99034119 250.45018005 C184.32195251 251.11573914 184.65356384 251.78129822 184.995224 252.46702576 C187.73779977 257.94349826 190.61105758 263.33913242 193.54502869 268.71580505 C194.02198181 269.5975238 194.49893494 270.47924255 194.99034119 271.38768005 C195.38479431 272.1043988 195.77924744 272.82111755 196.18565369 273.55955505 C196.99034119 275.38768005 196.99034119 275.38768005 196.99034119 278.38768005 C197.65034119 278.71768005 198.31034119 279.04768005 198.99034119 279.38768005 C200.02974138 281.36748995 201.01921868 283.37350005 201.99034119 285.38768005 C203.31328592 287.71273561 204.65044727 290.02839222 206.00205994 292.3368988 C206.99034119 294.38768005 206.99034119 294.38768005 206.99034119 297.38768005 C207.65034119 297.71768005 208.31034119 298.04768005 208.99034119 298.38768005 C209.72318889 300.05324301 210.44945788 301.72232474 211.12705994 303.41111755 C212.00840812 305.42904597 213.04272089 307.25249794 214.17784119 309.13768005 C215.99034119 312.38768005 215.99034119 312.38768005 215.99034119 315.38768005 C216.65034119 315.38768005 217.31034119 315.38768005 217.99034119 315.38768005 C218.48534119 316.54268005 218.98034119 317.69768005 219.49034119 318.88768005 C223.52683538 327.94862156 228.05695724 336.7941276 232.73252869 345.5400238 C233.19062927 346.39870056 233.64872986 347.25737732 234.12071228 348.14207458 C235.02151654 349.8245393 235.92794372 351.50400764 236.84043884 353.18016052 C237.25084412 353.94602478 237.66124939 354.71188904 238.08409119 355.5009613 C238.6361322 356.51863586 238.6361322 356.51863586 239.19932556 357.55686951 C239.99034119 359.38768005 239.99034119 359.38768005 239.99034119 362.38768005 C240.65034119 362.38768005 241.31034119 362.38768005 241.99034119 362.38768005 C242.316474 363.12373474 242.64260681 363.85978943 242.97862244 364.6181488 C243.41561462 365.59396912 243.85260681 366.56978943 244.30284119 367.57518005 C244.732099 368.53810974 245.16135681 369.50103943 245.60362244 370.4931488 C246.92339782 373.24794756 248.39403401 375.78569936 249.99034119 378.38768005 C251.23553247 380.5660982 252.46402959 382.7541226 253.67784119 384.95018005 C254.30045837 386.06521912 254.92307556 387.18025818 255.56455994 388.3290863 C256.99034119 391.38768005 256.99034119 391.38768005 256.99034119 395.38768005 C257.65034119 395.38768005 258.31034119 395.38768005 258.99034119 395.38768005 C259.28166931 396.0425238 259.57299744 396.69736755 259.87315369 397.37205505 C265.28021181 409.72945959 265.28021181 409.72945959 271.99034119 421.38768005 C271.99034119 422.37768005 271.99034119 423.36768005 271.99034119 424.38768005 C272.65034119 424.38768005 273.31034119 424.38768005 273.99034119 424.38768005 C274.32034119 426.36768005 274.65034119 428.34768005 274.99034119 430.38768005 C275.65034119 430.38768005 276.31034119 430.38768005 276.99034119 430.38768005 C276.99034119 431.37768005 276.99034119 432.36768005 276.99034119 433.38768005 C277.65034119 433.71768005 278.31034119 434.04768005 278.99034119 434.38768005 C280.04759372 436.35801431 281.03469131 438.36611301 281.99034119 440.38768005 C282.3474115 441.07088318 282.70448181 441.7540863 283.07237244 442.45799255 C283.61957947 443.50600037 283.61957947 443.50600037 284.17784119 444.57518005 C284.52202087 445.22873474 284.86620056 445.88228943 285.22080994 446.5556488 C285.99034119 448.38768005 285.99034119 448.38768005 285.99034119 451.38768005 C286.65034119 451.38768005 287.31034119 451.38768005 287.99034119 451.38768005 C288.25846619 452.48080505 288.52659119 453.57393005 288.80284119 454.70018005 C289.93912326 458.22863493 290.49317862 459.00402488 292.99034119 461.38768005 C292.99034119 462.70768005 292.99034119 464.02768005 292.99034119 465.38768005 C293.65034119 465.38768005 294.31034119 465.38768005 294.99034119 465.38768005 C295.23268494 465.95615662 295.47502869 466.52463318 295.72471619 467.1103363 C297.36570582 470.89092396 299.02680652 474.58088982 301.11534119 478.13768005 C302.68978234 480.86671138 303.82653155 483.47815596 304.99034119 486.38768005 C305.65034119 487.04768005 306.31034119 487.70768005 306.99034119 488.38768005 C306.99034119 489.70768005 306.99034119 491.02768005 306.99034119 492.38768005 C307.65034119 492.38768005 308.31034119 492.38768005 308.99034119 492.38768005 C310.16408291 494.82199644 311.32949882 497.25972187 312.49034119 499.70018005 C312.82420837 500.39047302 313.15807556 501.08076599 313.50205994 501.79197693 C315.99034119 507.0478363 315.99034119 507.0478363 315.99034119 510.38768005 C316.65034119 510.38768005 317.31034119 510.38768005 317.99034119 510.38768005 C323.99034119 522.38768005 323.99034119 522.38768005 325.43565369 525.3134613 C327.5813266 529.55628689 329.84741095 533.73174605 332.11729431 537.90916443 C333.96685717 541.34606479 335.56902702 544.74712095 336.99034119 548.38768005 C337.69430261 549.71386955 338.42434611 551.02649401 339.17784119 552.32518005 C341.48574695 556.42274927 343.67256908 560.5708194 345.80284119 564.76268005 C346.1169696 565.36974792 346.43109802 565.9768158 346.75474548 566.60227966 C348.17020026 569.41080893 348.99034119 571.19568746 348.99034119 574.38768005 C349.65034119 574.38768005 350.31034119 574.38768005 350.99034119 574.38768005 C353.87950375 580.91969976 353.87950375 580.91969976 354.55284119 583.76268005 C354.69721619 584.29893005 354.84159119 584.83518005 354.99034119 585.38768005 C355.65034119 585.71768005 356.31034119 586.04768005 356.99034119 586.38768005 C358.06846619 588.2509613 358.06846619 588.2509613 359.24034119 590.70018005 C359.67733337 591.60123474 360.11432556 592.50228943 360.56455994 593.4306488 C361.27032166 594.89437927 361.27032166 594.89437927 361.99034119 596.38768005 C363.0080339 598.43091401 364.02889833 600.47257111 365.05284119 602.51268005 C365.55170837 603.51299255 366.05057556 604.51330505 366.56455994 605.54393005 C367.45454616 607.31902587 368.35177546 609.0905307 369.25987244 610.85643005 C371.99034119 616.18229136 371.99034119 616.18229136 371.99034119 618.38768005 C372.65034119 618.38768005 373.31034119 618.38768005 373.99034119 618.38768005 C374.11940857 618.97629822 374.24847595 619.56491638 374.38145447 620.17137146 C375.33057913 623.62612436 377.15000104 626.6394084 378.86534119 629.76268005 C379.57181113 631.06175664 380.27754995 632.36123112 380.98252869 633.66111755 C381.32477478 634.29179138 381.66702087 634.92246521 382.01963806 635.57225037 C383.39825846 638.15057565 384.69718067 640.76563636 385.99034119 643.38768005 C386.43893494 644.28486755 386.88752869 645.18205505 387.34971619 646.10643005 C387.80862244 647.02424255 388.26752869 647.94205505 388.74034119 648.88768005 C389.25596619 649.91764099 389.77159119 650.94760193 390.30284119 652.0087738 C391.49449271 654.39483529 392.68210074 656.78261756 393.86534119 659.1728363 C394.17761658 659.8018988 394.48989197 660.4309613 394.81163025 661.0790863 C395.70060332 662.87011933 396.58770376 664.66208146 397.47471619 666.4540863 C398.96090012 669.46365976 398.96090012 669.46365976 400.99034119 672.38768005 C401.72039848 673.70924361 402.42794269 675.0434341 403.11534119 676.38768005 C403.46854431 677.06830505 403.82174744 677.74893005 404.18565369 678.45018005 C404.99034119 680.38768005 404.99034119 680.38768005 404.99034119 683.38768005 C405.65034119 683.38768005 406.31034119 683.38768005 406.99034119 683.38768005 C408.99034119 687.38768005 410.99034119 691.38768005 412.99034119 695.38768005 C413.55108337 696.44728943 414.11182556 697.5068988 414.68955994 698.59861755 C415.99034119 701.38768005 415.99034119 701.38768005 415.99034119 704.38768005 C416.65034119 704.71768005 417.31034119 705.04768005 417.99034119 705.38768005 C418.96722093 707.14724056 419.87218169 708.94701315 420.74034119 710.76268005 C422.76999452 714.94604866 424.88402128 719.03096392 427.17784119 723.07518005 C429.75920351 727.73653775 431.48376911 732.28207468 432.99034119 737.38768005 C433.65034119 737.38768005 434.31034119 737.38768005 434.99034119 737.38768005 C436.24699096 740.29368267 436.99034119 742.1837259 436.99034119 745.38768005 C437.65034119 745.38768005 438.31034119 745.38768005 438.99034119 745.38768005 C439.25846619 745.99611755 439.52659119 746.60455505 439.80284119 747.23143005 C444.85362548 758.52923703 450.11436519 769.81736025 456.76377869 780.2743988 C458.10013804 782.57685234 459.01659234 784.91257342 459.99034119 787.38768005 C460.73568243 788.79729034 461.50699005 790.19345805 462.30284119 791.57518005 C466.64563518 799.2999729 470.4598028 806.87025817 472.99034119 815.38768005 C473.65034119 815.38768005 474.31034119 815.38768005 474.99034119 815.38768005 C475.316474 816.19592224 475.64260681 817.00416443 475.97862244 817.8368988 C476.63411072 819.43984802 476.63411072 819.43984802 477.30284119 821.07518005 C477.732099 822.13092224 478.16135681 823.18666443 478.60362244 824.2743988 C479.88876311 827.15963011 481.33386578 829.7040275 482.99034119 832.38768005 C484.41777559 834.91243479 485.7997041 837.46075893 487.17784119 840.01268005 C487.7298822 841.01428162 487.7298822 841.01428162 488.29307556 842.03611755 C490.99034119 847.04032094 490.99034119 847.04032094 490.99034119 850.38768005 C491.65034119 850.71768005 492.31034119 851.04768005 492.99034119 851.38768005 C494.18374063 853.58047804 495.29196169 855.76231411 496.36534119 858.01268005 C499.1479227 863.75060614 499.1479227 863.75060614 502.24034119 869.32518005 C503.76711269 871.99703019 504.95257994 874.66185443 506.14707947 877.48997498 C507.53159977 880.60574691 509.17040828 883.58475567 510.80284119 886.57518005 C514.83342271 894.04535145 518.66062901 901.60356689 522.37705994 909.2353363 C525.64293186 915.88339888 529.15744505 922.35238688 532.83140564 928.78123474 C538.99034119 939.57667233 538.99034119 939.57667233 538.99034119 943.38768005 C539.65034119 943.38768005 540.31034119 943.38768005 540.99034119 943.38768005 C541.26748962 944.1043988 541.54463806 944.82111755 541.83018494 945.55955505 C542.96376126 948.32288589 544.21423185 950.96808879 545.55284119 953.63768005 C546.07233337 954.6740863 546.59182556 955.71049255 547.12705994 956.77830505 C548.50539935 959.4784131 549.93606453 962.14663352 551.38487244 964.80955505 C551.79471375 965.56720154 552.20455505 966.32484802 552.6268158 967.10545349 C553.44194299 968.60748563 554.26420023 970.10567388 555.09410095 971.59959412 C555.4697821 972.29278748 555.84546326 972.98598083 556.23252869 973.70018005 C556.74082214 974.62250427 556.74082214 974.62250427 557.25938416 975.5634613 C557.99034119 977.38768005 557.99034119 977.38768005 557.99034119 981.38768005 C558.65034119 981.38768005 559.31034119 981.38768005 559.99034119 981.38768005 C561.31036675 983.9465451 562.621479 986.50935074 563.92784119 989.07518005 C564.30102478 989.79641052 564.67420837 990.51764099 565.05870056 991.26072693 C566.92999358 994.95273748 568.47303675 998.22461101 568.99034119 1002.38768005 C569.65034119 1002.38768005 570.31034119 1002.38768005 570.99034119 1002.38768005 C571.82824908 1004.17721191 572.66053515 1005.969377 573.49034119 1007.76268005 C573.95440369 1008.76041443 574.41846619 1009.7581488 574.89659119 1010.78611755 C575.99034119 1013.38768005 575.99034119 1013.38768005 575.99034119 1015.38768005 C579.27624371 1016.48298089 581.69319498 1016.51817583 585.15352917 1016.52634525 C586.45184207 1016.5318197 587.75015498 1016.53729414 589.0878107 1016.54293448 C590.53710689 1016.54401076 591.98640315 1016.54499543 593.43569946 1016.54589844 C594.96859088 1016.55046251 596.50148106 1016.5554623 598.03436977 1016.560862 C602.25757288 1016.57447018 606.48076792 1016.58186921 610.70398724 1016.58828866 C615.25408892 1016.59628085 619.80417374 1016.60998269 624.35426331 1016.6230011 C632.24124309 1016.64478063 640.12822457 1016.66291971 648.01521873 1016.67860603 C659.41857457 1016.70129122 670.82191174 1016.72943592 682.22525177 1016.75892531 C700.7251464 1016.8066178 719.22504864 1016.84987749 737.72496033 1016.8903656 C755.69892469 1016.9297121 773.67288228 1016.97113629 791.64683533 1017.0153656 C793.30791611 1017.01945201 793.30791611 1017.01945201 795.00255408 1017.02362097 C800.5578327 1017.03730031 806.11311121 1017.05102061 811.66838968 1017.06476128 C857.77569273 1017.17875209 903.88301043 1017.28555568 949.99034119 1017.38768005 C950.65034119 1015.73768005 951.31034119 1014.08768005 951.99034119 1012.38768005 C952.65034119 1012.38768005 953.31034119 1012.38768005 953.99034119 1012.38768005 C954.14309509 1011.34547302 954.14309509 1011.34547302 954.29893494 1010.2822113 C955.10751125 1006.89715453 956.45709832 1004.16480986 958.05284119 1001.07518005 C958.60069275 1000.00654724 959.14854431 998.93791443 959.71299744 997.8368988 C960.13452087 997.02865662 960.55604431 996.22041443 960.99034119 995.38768005 C961.65034119 995.38768005 962.31034119 995.38768005 962.99034119 995.38768005 C962.66034119 994.39768005 962.33034119 993.40768005 961.99034119 992.38768005 C963.31846619 989.6806488 963.31846619 989.6806488 965.24034119 986.57518005 C967.69146025 982.57945083 969.91892192 978.59189397 971.99034119 974.38768005 C972.78932739 972.86323084 973.59314005 971.34130617 974.40049744 969.8212738 C974.83297791 969.00594177 975.26545837 968.19060974 975.71104431 967.35057068 C976.60805441 965.66231149 977.50650042 963.97481448 978.40635681 962.28807068 C980.474329 958.38396175 982.48309016 954.55178036 983.99034119 950.38768005 C984.65034119 950.38768005 985.31034119 950.38768005 985.99034119 950.38768005 C986.07284119 949.54205505 986.15534119 948.69643005 986.24034119 947.82518005 C986.96341941 944.51107151 988.13117607 942.25544222 989.83604431 939.36106873 C991.85943626 935.90187306 993.72969926 932.36075867 995.61534119 928.82518005 C996.00979431 928.09621521 996.40424744 927.36725037 996.81065369 926.61619568 C998.94260922 922.61517778 1000.70575791 918.75940701 1001.99034119 914.38768005 C1002.65034119 914.38768005 1003.31034119 914.38768005 1003.99034119 914.38768005 C1004.39252869 913.08830505 1004.39252869 913.08830505 1004.80284119 911.76268005 C1006.70482662 906.35703725 1009.49889206 901.41058423 1012.20152283 896.37181091 C1016.06923243 889.15484492 1019.75468909 881.91585553 1022.99034119 874.38768005 C1023.65034119 874.38768005 1024.31034119 874.38768005 1024.99034119 874.38768005 C1024.99034119 873.06768005 1024.99034119 871.74768005 1024.99034119 870.38768005 C1025.65034119 870.38768005 1026.31034119 870.38768005 1026.99034119 870.38768005 C1027.07541931 869.71607849 1027.16049744 869.04447693 1027.24815369 868.3525238 C1028.20037629 864.54864508 1029.97371082 861.35036869 1031.86534119 857.95018005 C1032.5717858 856.66020702 1033.27752434 855.36984704 1033.98252869 854.0790863 C1034.32638611 853.4521991 1034.67024353 852.82531189 1035.02452087 852.1794281 C1036.40797888 849.61289667 1037.68921601 846.99674258 1038.99034119 844.38768005 C1040.64887247 841.26111859 1042.3368746 838.15024933 1044.02940369 835.04197693 C1046.25587118 830.90771572 1048.16618572 826.71942113 1049.99034119 822.38768005 C1050.869663 820.56711235 1051.76379686 818.75356481 1052.67784119 816.95018005 C1053.11483337 816.08521912 1053.55182556 815.22025818 1054.00205994 814.3290863 C1054.32819275 813.68842224 1054.65432556 813.04775818 1054.99034119 812.38768005 C1055.65034119 812.38768005 1056.31034119 812.38768005 1056.99034119 812.38768005 C1057.048349 811.59748474 1057.10635681 810.80728943 1057.16612244 809.9931488 C1058.30049729 805.03093084 1060.66052793 801.0922195 1063.17784119 796.70018005 C1064.19682381 794.90112744 1065.2150605 793.10165211 1066.23252869 791.30174255 C1066.96101013 790.0183197 1066.96101013 790.0183197 1067.70420837 788.70896912 C1069.17923721 786.04674926 1070.48528 783.31802756 1071.80284119 780.57518005 C1075.83554189 773.08416925 1082.50770093 765.88854209 1088.99034119 760.38768005 C1089.65034119 760.38768005 1090.31034119 760.38768005 1090.99034119 760.38768005 C1090.99034119 759.72768005 1090.99034119 759.06768005 1090.99034119 758.38768005 C1091.65034119 758.38768005 1092.31034119 758.38768005 1092.99034119 758.38768005 C1092.99034119 757.72768005 1092.99034119 757.06768005 1092.99034119 756.38768005 C1095.25332572 754.75100456 1097.50301231 753.24202495 1099.86534119 751.76268005 C1100.51631775 751.34244568 1101.16729431 750.9222113 1101.83799744 750.48924255 C1106.72195137 747.38768005 1106.72195137 747.38768005 1108.99034119 747.38768005 C1108.99034119 746.72768005 1108.99034119 746.06768005 1108.99034119 745.38768005 C1110.31034119 745.38768005 1111.63034119 745.38768005 1112.99034119 745.38768005 C1112.99034119 744.72768005 1112.99034119 744.06768005 1112.99034119 743.38768005 C1115.82063199 742.39889256 1118.65406872 741.42153669 1121.49034119 740.45018005 C1122.28182556 740.17238708 1123.07330994 739.89459412 1123.88877869 739.60838318 C1142.3792795 733.31858167 1166.30131858 734.3598525 1183.99034119 742.38768005 C1184.98034119 742.71768005 1185.97034119 743.04768005 1186.99034119 743.38768005 C1186.99034119 744.04768005 1186.99034119 744.70768005 1186.99034119 745.38768005 C1187.75346619 745.53205505 1188.51659119 745.67643005 1189.30284119 745.82518005 C1191.99034119 746.38768005 1191.99034119 746.38768005 1194.99034119 747.38768005 C1194.99034119 748.04768005 1194.99034119 748.70768005 1194.99034119 749.38768005 C1195.71608337 749.64291443 1196.44182556 749.8981488 1197.18955994 750.16111755 C1208.23238763 754.99716762 1221.38213307 768.02748543 1226.18565369 779.1572113 C1226.45120056 779.89326599 1226.71674744 780.62932068 1226.99034119 781.38768005 C1227.65034119 781.38768005 1228.31034119 781.38768005 1228.99034119 781.38768005 C1229.99034119 783.38768005 1230.99034119 785.38768005 1231.99034119 787.38768005 C1232.29923279 787.97428406 1232.60812439 788.56088806 1232.92637634 789.16526794 C1235.48444658 794.08920195 1237.40457806 799.05258998 1239.11534119 804.32518005 C1239.36670837 805.07219177 1239.61807556 805.81920349 1239.87705994 806.58885193 C1248.76299789 833.54906681 1247.32838781 865.24962548 1235.21299744 891.0009613 C1233.22163448 894.88825448 1231.14660649 898.73082575 1229.06895447 902.57249451 C1225.2866628 909.60522073 1221.51892733 916.80192162 1218.99034119 924.38768005 C1218.33034119 924.71768005 1217.67034119 925.04768005 1216.99034119 925.38768005 C1216.031752 927.12478788 1216.031752 927.12478788 1215.17784119 929.26268005 C1213.57695113 933.01419976 1211.93475974 936.73973943 1210.24034119 940.45018005 C1209.81237244 941.38990662 1209.38440369 942.32963318 1208.94346619 943.2978363 C1208.62893494 943.98748474 1208.31440369 944.67713318 1207.99034119 945.38768005 C1207.33034119 945.38768005 1206.67034119 945.38768005 1205.99034119 945.38768005 C1205.8612738 945.9710614 1205.73220642 946.55444275 1205.59922791 947.15550232 C1205.0097043 949.31669491 1204.2531271 951.10586201 1203.24815369 953.1025238 C1202.903974 953.78894958 1202.55979431 954.47537537 1202.20518494 955.18260193 C1201.66571228 956.2431781 1201.66571228 956.2431781 1201.11534119 957.32518005 C1200.76342712 958.02836365 1200.41151306 958.73154724 1200.04893494 959.45603943 C1198.16331057 963.19574426 1196.161063 966.80376105 1193.99034119 970.38768005 C1193.25289253 972.05495528 1192.51727644 973.72337596 1191.81846619 975.4072113 C1190.84758805 977.72907552 1189.8276272 980.02662832 1188.80284119 982.32518005 C1188.4586615 983.09732849 1188.11448181 983.86947693 1187.75987244 984.6650238 C1187.37895447 985.51773865 1187.37895447 985.51773865 1186.99034119 986.38768005 C1186.33034119 986.38768005 1185.67034119 986.38768005 1184.99034119 986.38768005 C1184.84338806 986.92135193 1184.69643494 987.4550238 1184.54502869 988.00486755 C1182.90831332 993.44177262 1180.61354835 997.85052372 1177.60362244 1002.64549255 C1175.19743306 1006.73543189 1173.30801087 1011.02960841 1171.36143494 1015.3525238 C1169.67431619 1019.08725675 1167.84836579 1022.7361954 1165.99034119 1026.38768005 C1165.07261678 1028.22048413 1164.15598178 1030.05383404 1163.24034119 1031.88768005 C1162.49034119 1033.38768005 1161.74034119 1034.88768005 1160.99034119 1036.38768005 C1160.33034119 1036.38768005 1159.67034119 1036.38768005 1158.99034119 1036.38768005 C1158.87690369 1037.10697693 1158.76346619 1037.8262738 1158.64659119 1038.56736755 C1157.95622243 1041.53430949 1156.90546765 1043.82229428 1155.49034119 1046.51268005 C1154.10815001 1049.15652248 1152.93582432 1051.55123065 1151.99034119 1054.38768005 C1151.33034119 1054.38768005 1150.67034119 1054.38768005 1149.99034119 1054.38768005 C1149.66034119 1056.36768005 1149.33034119 1058.34768005 1148.99034119 1060.38768005 C1148.33034119 1060.38768005 1147.67034119 1060.38768005 1146.99034119 1060.38768005 C1146.33034119 1063.02768005 1145.67034119 1065.66768005 1144.99034119 1068.38768005 C1144.33034119 1068.38768005 1143.67034119 1068.38768005 1142.99034119 1068.38768005 C1142.862724 1068.96961121 1142.73510681 1069.55154236 1142.60362244 1070.15110779 C1142.00101899 1072.34873921 1141.21641599 1074.14973603 1140.17784119 1076.1728363 C1139.82463806 1076.86828552 1139.47143494 1077.56373474 1139.10752869 1078.28025818 C1138.55452087 1079.35436951 1138.55452087 1079.35436951 1137.99034119 1080.45018005 C1137.25936014 1081.8776378 1136.53012235 1083.30598994 1135.80284119 1084.7353363 C1135.4792865 1085.36447937 1135.15573181 1085.99362244 1134.82237244 1086.64183044 C1133.86552605 1088.55766937 1133.86552605 1088.55766937 1132.99034119 1091.38768005 C1132.33034119 1091.38768005 1131.67034119 1091.38768005 1130.99034119 1091.38768005 C1130.84596619 1091.98580505 1130.70159119 1092.58393005 1130.55284119 1093.20018005 C1130.10309729 1094.9491841 1129.56141778 1096.67445028 1128.99034119 1098.38768005 C1128.33034119 1098.38768005 1127.67034119 1098.38768005 1126.99034119 1098.38768005 C1126.83758728 1099.67545349 1126.83758728 1099.67545349 1126.68174744 1100.98924255 C1125.93236706 1104.67263761 1124.66410888 1107.43791213 1122.92784119 1110.76268005 C1122.37998962 1111.82228943 1121.83213806 1112.8818988 1121.26768494 1113.97361755 C1120.8461615 1114.77025818 1120.42463806 1115.5668988 1119.99034119 1116.38768005 C1119.33034119 1116.38768005 1118.67034119 1116.38768005 1117.99034119 1116.38768005 C1117.86659119 1117.65611755 1117.86659119 1117.65611755 1117.74034119 1118.95018005 C1116.82217643 1123.15843521 1115.32706568 1125.77637856 1112.99034119 1129.38768005 C1112.33034119 1129.71768005 1111.67034119 1130.04768005 1110.99034119 1130.38768005 C1110.84596619 1131.31580505 1110.70159119 1132.24393005 1110.55284119 1133.20018005 C1109.96032336 1136.55778109 1109.11419011 1137.82136261 1106.99034119 1140.38768005 C1106.66034119 1141.37768005 1106.33034119 1142.36768005 1105.99034119 1143.38768005 C1105.33034119 1143.38768005 1104.67034119 1143.38768005 1103.99034119 1143.38768005 C1103.86788025 1144.12244568 1103.74541931 1144.8572113 1103.61924744 1145.61424255 C1103.00828578 1148.30854552 1102.19260086 1150.31890713 1100.92784119 1152.76268005 C1100.48698181 1153.61990662 1100.04612244 1154.47713318 1099.59190369 1155.3603363 C1098.3845683 1157.64249466 1097.1712328 1159.92087282 1095.95127869 1162.1962738 C1095.41966125 1163.1884491 1095.41966125 1163.1884491 1094.87730408 1164.20066833 C1094.17403973 1165.50940159 1093.46761596 1166.8164432 1092.75767517 1168.12156677 C1090.94547714 1171.47814596 1089.31897415 1174.81059129 1087.99034119 1178.38768005 C1087.33034119 1178.38768005 1086.67034119 1178.38768005 1085.99034119 1178.38768005 C1085.90784119 1179.25393005 1085.82534119 1180.12018005 1085.74034119 1181.01268005 C1084.87671196 1184.89901156 1083.40084302 1187.24672311 1080.99034119 1190.38768005 C1080.33034119 1190.71768005 1079.67034119 1191.04768005 1078.99034119 1191.38768005 C1078.26874694 1193.03131139 1077.59682698 1194.69818391 1076.99034119 1196.38768005 C1076.33034119 1196.38768005 1075.67034119 1196.38768005 1074.99034119 1196.38768005 C1074.68096619 1197.00643005 1074.37159119 1197.62518005 1074.05284119 1198.26268005 C1073.36534119 1199.63768005 1072.67784119 1201.01268005 1071.99034119 1202.38768005 C1071.33034119 1202.38768005 1070.67034119 1202.38768005 1069.99034119 1202.38768005 C1069.66034119 1203.37768005 1069.33034119 1204.36768005 1068.99034119 1205.38768005 C1068.33034119 1205.38768005 1067.67034119 1205.38768005 1066.99034119 1205.38768005 C1066.99034119 1206.04768005 1066.99034119 1206.70768005 1066.99034119 1207.38768005 C1065.02229143 1209.12688681 1063.05269458 1210.7690008 1060.99034119 1212.38768005 C1060.12409119 1213.08893005 1059.25784119 1213.79018005 1058.36534119 1214.51268005 C1057.58159119 1215.13143005 1056.79784119 1215.75018005 1055.99034119 1216.38768005 C1055.28909119 1216.96518005 1054.58784119 1217.54268005 1053.86534119 1218.13768005 C1051.99034119 1219.38768005 1051.99034119 1219.38768005 1048.99034119 1219.38768005 C1048.66034119 1220.04768005 1048.33034119 1220.70768005 1047.99034119 1221.38768005 C1035.76008287 1228.11816812 1022.4275969 1232.54339366 1008.44211197 1232.52748775 C1007.57867693 1232.53043918 1006.7152419 1232.5333906 1005.82564217 1232.53643146 C1002.91839471 1232.54512675 1000.01118702 1232.5467035 997.10392761 1232.54830933 C995.00395417 1232.55304004 992.90398163 1232.55819091 990.80401015 1232.56372696 C985.02192521 1232.57764084 979.23984656 1232.58521888 973.45774913 1232.59169996 C968.50093447 1232.59806937 963.54413017 1232.60813975 958.58732197 1232.61826061 C942.25424852 1232.65159272 925.92117197 1232.6731499 909.58807623 1232.69146046 C905.33464038 1232.69623009 901.08120483 1232.70123848 896.82776928 1232.70626569 C870.4125552 1232.73731735 843.99733858 1232.76392794 817.58211136 1232.78068447 C811.46281683 1232.78462154 805.34352235 1232.78863342 799.22422791 1232.79270935 C798.46400062 1232.79321102 797.70377334 1232.79371269 796.92050887 1232.79422956 C772.28827627 1232.810637 747.65614319 1232.84907905 723.02395952 1232.89999645 C697.68906992 1232.95227071 672.35423329 1232.98500673 647.01928867 1232.992262 C643.43738145 1232.99329052 639.85547432 1232.99452683 636.2735672 1232.99588203 C635.568656 1232.99614007 634.86374479 1232.99639811 634.13747265 1232.99666397 C622.81474723 1233.00135034 611.49215337 1233.02624959 600.16947711 1233.05863346 C588.77611812 1233.09074292 577.38294956 1233.100118 565.9895353 1233.08820152 C559.82232534 1233.08238306 553.65552628 1233.08618226 547.48837852 1233.11637115 C541.83380134 1233.14382419 536.17992523 1233.14316618 530.52533183 1233.1208607 C528.48816976 1233.11765028 526.45095998 1233.12443228 524.41387692 1233.14265793 C501.00514298 1233.33926572 479.17478594 1225.12360869 461.61534119 1209.23924255 C459.99034119 1207.38768005 459.99034119 1207.38768005 459.99034119 1205.38768005 C459.33034119 1205.38768005 458.67034119 1205.38768005 457.99034119 1205.38768005 C456.36534119 1204.01268005 456.36534119 1204.01268005 454.99034119 1202.38768005 C454.99034119 1201.72768005 454.99034119 1201.06768005 454.99034119 1200.38768005 C454.33034119 1200.38768005 453.67034119 1200.38768005 452.99034119 1200.38768005 C452.99034119 1199.72768005 452.99034119 1199.06768005 452.99034119 1198.38768005 C452.33034119 1198.38768005 451.67034119 1198.38768005 450.99034119 1198.38768005 C449.70127869 1196.92674255 449.70127869 1196.92674255 448.36534119 1195.01268005 C447.69631775 1194.07295349 447.69631775 1194.07295349 447.01377869 1193.11424255 C445.99034119 1191.38768005 445.99034119 1191.38768005 445.99034119 1189.38768005 C445.33034119 1189.38768005 444.67034119 1189.38768005 443.99034119 1189.38768005 C443.99034119 1188.39768005 443.99034119 1187.40768005 443.99034119 1186.38768005 C443.33034119 1186.38768005 442.67034119 1186.38768005 441.99034119 1186.38768005 C438.21718138 1179.85486291 435.12800289 1173.63197806 432.99034119 1166.38768005 C432.33034119 1166.38768005 431.67034119 1166.38768005 430.99034119 1166.38768005 C430.66034119 1164.40768005 430.33034119 1162.42768005 429.99034119 1160.38768005 C429.33034119 1160.38768005 428.67034119 1160.38768005 427.99034119 1160.38768005 C427.72479431 1159.67869568 427.45924744 1158.9697113 427.18565369 1158.23924255 C425.52348313 1154.2739337 423.36663888 1150.6381521 421.23252869 1146.91111755 C419.99034119 1144.38768005 419.99034119 1144.38768005 419.99034119 1141.38768005 C419.33034119 1141.38768005 418.67034119 1141.38768005 417.99034119 1141.38768005 C417.55721619 1140.35643005 417.12409119 1139.32518005 416.67784119 1138.26268005 C415.63769986 1135.8158714 414.53172959 1133.5044281 413.30284119 1131.13768005 C411.99034119 1128.38768005 411.99034119 1128.38768005 411.99034119 1125.38768005 C411.33034119 1125.38768005 410.67034119 1125.38768005 409.99034119 1125.38768005 C409.72092712 1124.68643005 409.45151306 1123.98518005 409.17393494 1123.26268005 C407.92504076 1120.22906251 406.52288268 1117.32028191 405.05284119 1114.38768005 C404.54881775 1113.37705505 404.04479431 1112.36643005 403.52549744 1111.32518005 C402.10688447 1108.610684 400.58126067 1106.00356167 398.99034119 1103.38768005 C397.97186633 1101.39702464 396.97516141 1099.3951982 395.99034119 1097.38768005 C395.34645447 1096.15018005 395.34645447 1096.15018005 394.68955994 1094.88768005 C394.23194275 1094.00080505 393.77432556 1093.11393005 393.30284119 1092.20018005 C392.865849 1091.36100037 392.42885681 1090.52182068 391.97862244 1089.6572113 C390.99034119 1087.38768005 390.99034119 1087.38768005 390.99034119 1084.38768005 C390.33034119 1084.38768005 389.67034119 1084.38768005 388.99034119 1084.38768005 C388.51596619 1083.41830505 388.04159119 1082.44893005 387.55284119 1081.45018005 C386.28840172 1078.58290568 386.28840172 1078.58290568 384.99034119 1077.38768005 C384.94970287 1075.7215089 384.94762019 1074.05379911 384.99034119 1072.38768005 C384.33034119 1072.38768005 383.67034119 1072.38768005 382.99034119 1072.38768005 C381.81368115 1070.1424206 380.64893379 1067.89223863 379.49034119 1065.63768005 C379.156474 1065.0034613 378.82260681 1064.36924255 378.47862244 1063.71580505 C376.71858586 1060.26757012 375.99034119 1058.33927937 375.99034119 1054.38768005 C375.00034119 1054.05768005 374.01034119 1053.72768005 372.99034119 1053.38768005 C372.26578484 1051.74535234 371.61259723 1050.07143171 370.99034119 1048.38768005 C370.04728964 1046.72921009 369.10286562 1045.07144842 368.14268494 1043.4228363 C366.783427 1041.02224856 365.50114797 1038.59143151 364.24034119 1036.13768005 C363.81237244 1035.3075238 363.38440369 1034.47736755 362.94346619 1033.62205505 C361.99034119 1031.38768005 361.99034119 1031.38768005 361.99034119 1028.38768005 C361.33034119 1028.38768005 360.67034119 1028.38768005 359.99034119 1028.38768005 C359.57784119 1027.37705505 359.16534119 1026.36643005 358.74034119 1025.32518005 C357.61897749 1022.69449271 356.37491178 1020.22866178 354.92784119 1017.76268005 C352.99034119 1014.38768005 352.99034119 1014.38768005 352.05284119 1012.01268005 C350.69691566 1008.66274639 348.87029067 1005.66724899 347.01377869 1002.5712738 C345.99034119 1000.38768005 345.99034119 1000.38768005 345.99034119 996.38768005 C345.33034119 996.38768005 344.67034119 996.38768005 343.99034119 996.38768005 C343.3191457 994.93142555 342.65352311 993.47260138 341.99034119 992.01268005 C341.61909119 991.20057068 341.24784119 990.3884613 340.86534119 989.55174255 C339.99034119 987.38768005 339.99034119 987.38768005 339.99034119 985.38768005 C339.33034119 985.05768005 338.67034119 984.72768005 337.99034119 984.38768005 C337.66034119 983.39768005 337.33034119 982.40768005 336.99034119 981.38768005 C336.33034119 980.72768005 335.67034119 980.06768005 334.99034119 979.38768005 C334.2500474 977.98211269 333.55795016 976.55081879 332.89659119 975.10643005 C332.50600525 974.26467224 332.11541931 973.42291443 331.71299744 972.5556488 C330.89789327 970.77700297 330.0827891 968.99835714 329.26768494 967.2197113 C328.877099 966.37795349 328.48651306 965.53619568 328.08409119 964.66893005 C327.73024353 963.89613708 327.37639587 963.12334412 327.01182556 962.32713318 C326.02899592 960.22892028 326.02899592 960.22892028 323.99034119 958.38768005 C320.99034119 952.04152621 320.99034119 952.04152621 320.99034119 948.38768005 C320.33034119 948.05768005 319.67034119 947.72768005 318.99034119 947.38768005 C315.99034119 942.07998775 315.99034119 942.07998775 315.99034119 938.38768005 C315.33034119 938.38768005 314.67034119 938.38768005 313.99034119 938.38768005 C312.98573588 936.26485336 311.98678517 934.13934984 310.99034119 932.01268005 C310.15502869 930.23764099 310.15502869 930.23764099 309.30284119 928.42674255 C307.99034119 925.38768005 307.99034119 925.38768005 307.99034119 923.38768005 C307.33034119 923.05768005 306.67034119 922.72768005 305.99034119 922.38768005 C304.92002869 920.64549255 304.92002869 920.64549255 303.86534119 918.51268005 C303.51213806 917.81400818 303.15893494 917.1153363 302.79502869 916.39549255 C301.99034119 914.38768005 301.99034119 914.38768005 301.99034119 911.38768005 C301.33034119 911.38768005 300.67034119 911.38768005 299.99034119 911.38768005 C299.67580994 910.68643005 299.36127869 909.98518005 299.03721619 909.26268005 C296.13494862 902.8287375 293.13596945 896.47248438 289.85362244 890.22361755 C289.48623962 889.51463318 289.11885681 888.8056488 288.74034119 888.07518005 C288.40518494 887.43967224 288.07002869 886.80416443 287.72471619 886.1493988 C286.99034119 884.38768005 286.99034119 884.38768005 286.99034119 881.38768005 C286.33034119 881.38768005 285.67034119 881.38768005 284.99034119 881.38768005 C284.66034119 879.73768005 284.33034119 878.08768005 283.99034119 876.38768005 C283.33034119 876.38768005 282.67034119 876.38768005 281.99034119 876.38768005 C281.7286615 875.7018988 281.46698181 875.01611755 281.19737244 874.30955505 C279.83182411 871.00395586 278.28018187 867.83525571 276.67784119 864.63768005 C276.37096375 864.02368347 276.0640863 863.40968689 275.74790955 862.77708435 C273.58642499 858.48282993 271.29483686 854.28880944 268.83799744 850.1572113 C267.99034119 848.38768005 267.99034119 848.38768005 267.99034119 845.38768005 C267.33034119 845.38768005 266.67034119 845.38768005 265.99034119 845.38768005 C265.31679619 843.95339004 264.65174418 842.51510949 263.99034119 841.07518005 C263.61909119 840.27467224 263.24784119 839.47416443 262.86534119 838.6493988 C261.99034119 836.38768005 261.99034119 836.38768005 261.99034119 833.38768005 C261.33034119 833.38768005 260.67034119 833.38768005 259.99034119 833.38768005 C259.99034119 832.06768005 259.99034119 830.74768005 259.99034119 829.38768005 C259.33034119 829.38768005 258.67034119 829.38768005 257.99034119 829.38768005 C257.67580994 828.66322693 257.36127869 827.9387738 257.03721619 827.19236755 C254.30888482 820.8922982 254.30888482 820.8922982 250.80284119 815.01268005 C249.0460439 812.46835295 248.12229294 810.24843086 246.99034119 807.38768005 C246.00876083 805.35783588 245.00783013 803.33726445 243.99034119 801.32518005 C243.21690369 799.79184021 243.21690369 799.79184021 242.42784119 798.2275238 C241.57457767 796.54186463 240.70546197 794.86383966 239.80284119 793.2040863 C238.99034119 791.38768005 238.99034119 791.38768005 238.99034119 788.38768005 C238.33034119 788.38768005 237.67034119 788.38768005 236.99034119 788.38768005 C235.80387797 786.01475363 234.61806185 783.64153756 233.43565369 781.2665863 C232.48462165 779.37223331 231.52136903 777.48395803 230.54502869 775.6025238 C229.86827087 774.28961365 229.86827087 774.28961365 229.17784119 772.95018005 C228.75889587 772.14709412 228.33995056 771.34400818 227.90830994 770.5165863 C226.99034119 768.38768005 226.99034119 768.38768005 226.99034119 765.38768005 C226.33034119 765.38768005 225.67034119 765.38768005 224.99034119 765.38768005 C220.42355418 756.41656092 220.42355418 756.41656092 218.49034119 751.82518005 C217.32473753 749.15400502 216.10466219 746.72769154 214.67784119 744.20018005 C206.38129979 729.49267485 206.38129979 729.49267485 204.74034119 723.20018005 C204.36909119 721.80799255 204.36909119 721.80799255 203.99034119 720.38768005 C203.33034119 720.05768005 202.67034119 719.72768005 201.99034119 719.38768005 C201.65700785 718.05434672 201.32367452 716.72101339 200.99034119 715.38768005 C200.33034119 715.05768005 199.67034119 714.72768005 198.99034119 714.38768005 C198.36534119 711.82518005 198.36534119 711.82518005 197.99034119 709.38768005 C197.33034119 709.38768005 196.67034119 709.38768005 195.99034119 709.38768005 C191.58259631 699.97765727 191.58259631 699.97765727 190.99034119 695.38768005 C190.33034119 695.38768005 189.67034119 695.38768005 188.99034119 695.38768005 C186.11054152 689.00203732 186.11054152 689.00203732 185.42784119 685.51268005 C185.28346619 684.81143005 185.13909119 684.11018005 184.99034119 683.38768005 C184.33034119 683.05768005 183.67034119 682.72768005 182.99034119 682.38768005 C180.66275593 679.65608389 179.3371582 677.05747371 178.11534119 673.70018005 C176.50992456 669.53821319 174.61797529 665.77144968 172.39659119 661.91111755 C170.40287473 658.33350414 168.61259114 654.66062434 166.80332947 650.98704529 C165.18023052 647.71131246 163.51024171 644.47066848 161.76377869 641.2587738 C161.39550964 640.58088806 161.0272406 639.90300232 160.64781189 639.20457458 C159.9304277 637.89136963 159.20778977 636.58101798 158.47935486 635.27391052 C156.92398502 632.42529017 155.99034119 630.68800262 155.99034119 627.38768005 C155.33034119 627.38768005 154.67034119 627.38768005 153.99034119 627.38768005 C153.55721619 626.35643005 153.12409119 625.32518005 152.67784119 624.26268005 C151.63769986 621.8158714 150.53172959 619.5044281 149.30284119 617.13768005 C147.99034119 614.38768005 147.99034119 614.38768005 147.99034119 611.38768005 C147.33034119 611.38768005 146.67034119 611.38768005 145.99034119 611.38768005 C144.40815633 608.22816367 142.83124545 605.06624906 141.26377869 601.8993988 C137.33619908 593.97788132 133.30712298 586.12043249 129.13633728 578.32395935 C127.31902258 574.9224149 125.52261743 571.51139271 123.77159119 568.07518005 C123.44739197 567.43967224 123.12319275 566.80416443 122.78916931 566.1493988 C121.78787719 563.94117021 121.29046791 561.78869385 120.99034119 559.38768005 C120.33034119 559.38768005 119.67034119 559.38768005 118.99034119 559.38768005 C118.73639587 558.7122113 118.48245056 558.03674255 118.22080994 557.34080505 C117.87663025 556.4487738 117.53245056 555.55674255 117.17784119 554.63768005 C116.84139587 553.7559613 116.50495056 552.87424255 116.15830994 551.96580505 C115.10028122 549.35667767 115.10028122 549.35667767 113.35362244 547.30955505 C111.99034119 545.38768005 111.99034119 545.38768005 111.99034119 541.38768005 C111.33034119 541.38768005 110.67034119 541.38768005 109.99034119 541.38768005 C105.17784119 531.76268005 105.17784119 531.76268005 104.17393494 529.7431488 C103.26143513 527.92718384 102.33407381 526.11868146 101.40049744 524.3134613 C100.57872009 522.71051208 100.57872009 522.71051208 99.74034119 521.07518005 C99.21955994 520.06842224 98.69877869 519.06166443 98.16221619 518.0243988 C96.99034119 515.38768005 96.99034119 515.38768005 96.99034119 512.38768005 C96.33034119 512.05768005 95.67034119 511.72768005 94.99034119 511.38768005 C94.36534119 509.32518005 94.36534119 509.32518005 93.99034119 507.38768005 C93.33034119 507.38768005 92.67034119 507.38768005 91.99034119 507.38768005 C91.61909119 506.48018005 91.24784119 505.57268005 90.86534119 504.63768005 C88.95387663 500.16557431 86.73315289 495.85801109 84.53721619 491.52049255 C83.06888874 488.54675868 81.70445729 485.54635666 80.36534119 482.51268005 C78.57263099 478.50206559 76.46822583 475.02191087 73.99034119 471.38768005 C73.28170268 469.74492714 72.57520095 468.1009322 71.90440369 466.44236755 C69.90333562 461.94424018 67.36806331 457.69486521 64.99034119 453.38768005 C61.99034119 447.78768005 61.99034119 447.78768005 61.99034119 444.38768005 C61.33034119 444.38768005 60.67034119 444.38768005 59.99034119 444.38768005 C59.53659119 443.31518005 59.08284119 442.24268005 58.61534119 441.13768005 C57.11423243 437.64444567 55.56349677 434.30971294 53.55284119 431.07518005 C51.73381655 427.94645769 50.39420578 424.72185846 48.99034119 421.38768005 C48.43346619 420.29455505 47.87659119 419.20143005 47.30284119 418.07518005 C45.99034119 415.38768005 45.99034119 415.38768005 45.99034119 413.38768005 C45.33034119 413.05768005 44.67034119 412.72768005 43.99034119 412.38768005 C43.65700785 411.05434672 43.32367452 409.72101339 42.99034119 408.38768005 C42.33034119 408.05768005 41.67034119 407.72768005 40.99034119 407.38768005 C39.70988039 404.88386821 38.52029633 402.38632514 37.36534119 399.82518005 C36.64808383 398.26980336 35.92929519 396.71513203 35.20909119 395.16111755 C34.84170837 394.36673279 34.47432556 393.57234802 34.09580994 392.75389099 C29.88588816 383.7427245 25.4979166 374.84112456 20.21690369 366.40330505 C19.02181528 364.43940181 17.99156274 362.45604721 16.99034119 360.38768005 C16.69514587 359.79728943 16.39995056 359.2068988 16.09580994 358.59861755 C15.4432053 357.29340829 14.79234605 355.98732569 14.14268494 354.6806488 C13.31375695 353.0312226 12.47090614 351.3887665 11.61924744 349.7509613 C11.16420837 348.86795349 10.70916931 347.98494568 10.24034119 347.07518005 C9.81237244 346.25404724 9.38440369 345.43291443 8.94346619 344.5868988 C7.99034119 342.38768005 7.99034119 342.38768005 7.99034119 339.38768005 C7.33034119 339.38768005 6.67034119 339.38768005 5.99034119 339.38768005 C5.72221619 338.77924255 5.45409119 338.17080505 5.17784119 337.54393005 C2.535708 331.63389529 -0.24631255 325.80535973 -3.13465881 320.01268005 C-3.47110413 319.33527771 -3.80754944 318.65787537 -4.15419006 317.95994568 C-5.5945192 315.0878269 -7.04749937 312.32710123 -8.75184631 309.59861755 C-10.00965881 307.38768005 -10.00965881 307.38768005 -10.00965881 304.38768005 C-10.66965881 304.38768005 -11.32965881 304.38768005 -12.00965881 304.38768005 C-12.33965881 302.40768005 -12.66965881 300.42768005 -13.00965881 298.38768005 C-13.66965881 298.38768005 -14.32965881 298.38768005 -15.00965881 298.38768005 C-15.33965881 296.40768005 -15.66965881 294.42768005 -16.00965881 292.38768005 C-16.66965881 292.38768005 -17.32965881 292.38768005 -18.00965881 292.38768005 C-18.25200256 291.81920349 -18.49434631 291.25072693 -18.74403381 290.6650238 C-20.41149136 286.82345816 -22.10428611 283.10753382 -24.25965881 279.51268005 C-26.00965881 276.38768005 -26.00965881 276.38768005 -26.00965881 273.38768005 C-26.66965881 273.38768005 -27.32965881 273.38768005 -28.00965881 273.38768005 C-28.00965881 272.06768005 -28.00965881 270.74768005 -28.00965881 269.38768005 C-28.66965881 269.38768005 -29.32965881 269.38768005 -30.00965881 269.38768005 C-42.19715881 245.01268005 -42.19715881 245.01268005 -43.09950256 243.1962738 C-43.76704679 241.86978034 -44.44880519 240.55041482 -45.13856506 239.2353363 C-45.508526 238.52248474 -45.87848694 237.80963318 -46.25965881 237.07518005 C-46.59481506 236.43967224 -46.92997131 235.80416443 -47.27528381 235.1493988 C-48.00965881 233.38768005 -48.00965881 233.38768005 -48.00965881 230.38768005 C-48.66965881 230.38768005 -49.32965881 230.38768005 -50.00965881 230.38768005 C-50.38090881 229.48018005 -50.75215881 228.57268005 -51.13465881 227.63768005 C-53.96152228 221.03715675 -57.02393798 214.3662613 -61.00965881 208.38768005 C-61.00965881 207.39768005 -61.00965881 206.40768005 -61.00965881 205.38768005 C-61.66965881 205.05768005 -62.32965881 204.72768005 -63.00965881 204.38768005 C-63.33965881 203.39768005 -63.66965881 202.40768005 -64.00965881 201.38768005 C-64.66965881 201.05768005 -65.32965881 200.72768005 -66.00965881 200.38768005 C-66.67201473 198.60977733 -67.32793395 196.82931518 -67.95887756 195.0400238 C-70.22841369 189.3113434 -73.21068764 183.87111903 -76.00965881 178.38768005 C-76.51497131 177.35900818 -77.02028381 176.3303363 -77.54090881 175.27049255 C-78.94317839 172.42871502 -78.94317839 172.42871502 -80.47840881 169.97361755 C-82.38418917 166.75518235 -83.9489655 163.40667686 -85.50965881 160.01268005 C-85.95245178 159.06135193 -85.95245178 159.06135193 -86.40419006 158.09080505 C-87.28280811 156.19422865 -88.14657574 154.2913667 -89.00965881 152.38768005 C-89.31387756 151.73895935 -89.61809631 151.09023865 -89.93153381 150.42185974 C-90.6843687 148.76990046 -91.35430488 147.08067771 -92.00965881 145.38768005 C-91.51465881 144.39768005 -91.51465881 144.39768005 -91.00965881 143.38768005 C-91.66965881 143.05768005 -92.32965881 142.72768005 -93.00965881 142.38768005 C-93.79573242 140.00869503 -94.46372745 137.6871518 -95.07215881 135.26268005 C-95.24553772 134.61041443 -95.41891663 133.9581488 -95.59754944 133.28611755 C-97.40393885 126.30971707 -98.1736487 119.45143654 -98.24794006 112.2431488 C-98.25601181 111.4744899 -98.26408356 110.70583099 -98.2723999 109.91387939 C-98.28616498 108.28936461 -98.29692063 106.66482182 -98.30482483 105.04026794 C-98.31624296 103.41648067 -98.33652958 101.79272781 -98.36634827 100.16917419 C-98.65111752 84.60231885 -96.64853811 69.76605162 -90.19715881 55.45018005 C-89.85386536 54.6636908 -89.5105719 53.87720154 -89.15687561 53.06687927 C-85.28292711 44.41354595 -80.84508212 37.0082173 -74.00965881 30.38768005 C-73.17305725 29.55107849 -72.33645569 28.71447693 -71.47450256 27.8525238 C-68.98622131 25.36424255 -66.49794006 22.8759613 -64.00965881 20.38768005 C-62.99645569 19.3203363 -62.99645569 19.3203363 -61.96278381 18.23143005 C-59.99988782 16.37845623 -58.20316071 15.20356721 -55.82215881 13.95018005 C-53.45386225 12.6945579 -51.10715237 11.44638399 -48.81044006 10.0634613 C-43.07606033 6.6351876 -37.46460204 4.96555506 -31.00965881 3.38768005 C-30.34577276 3.15069002 -29.68188671 2.91369998 -28.9978829 2.66952842 C-19.48694284 -0.47800425 -9.8956579 -0.03296665 0 0 Z " fill="#FE6A3D" transform="translate(98.00965881347656,0.6123199462890625)"/>
<path d="M0 0 C2.02626403 -0.0043362 4.05252434 -0.01085869 6.07877517 -0.01936007 C11.61057949 -0.03626413 17.14192747 -0.02223145 22.67370749 -0.00284529 C28.65327739 0.01263861 34.63279344 -0.00083471 40.61236572 -0.0105896 C51.63588723 -0.02425206 62.6592684 -0.0154429 73.6827733 0.00482657 C83.8658357 0.02341749 94.04884658 0.0318025 104.23192596 0.03025818 C105.24694965 0.03012066 105.24694965 0.03012066 106.28247886 0.02998037 C109.02962968 0.02958719 111.77678048 0.02913755 114.52393128 0.02860898 C140.26540583 0.02374372 166.00678904 0.04636262 191.74823521 0.08256521 C214.60266317 0.11457031 237.45701315 0.12660589 260.3114624 0.1204834 C261.77961144 0.12009655 263.24776047 0.1197101 264.71590951 0.11932403 C265.44174652 0.11913268 266.16758352 0.11894134 266.91541559 0.11874419 C270.56942546 0.11778981 274.22343533 0.11687544 277.87744522 0.11600494 C278.59837692 0.11583115 279.31930862 0.11565736 280.06208673 0.1154783 C299.18034302 0.11112103 318.29859093 0.12114157 337.41684127 0.1358428 C338.0971019 0.13636294 338.77736253 0.13688308 339.47823712 0.13741899 C340.15723343 0.13793833 340.83622974 0.13845768 341.53580169 0.13899276 C342.21353055 0.1395105 342.89125941 0.14002824 343.58952551 0.14056167 C344.95435531 0.14160975 346.3191851 0.14266996 347.68401488 0.14374239 C357.18808459 0.1511151 366.6921424 0.15321266 376.19621462 0.15174838 C388.44260265 0.14990095 400.68892282 0.15832698 412.93528822 0.18338984 C418.83841065 0.19524153 424.74143564 0.20238037 430.6445694 0.19655228 C436.0503289 0.19137293 441.45588271 0.20009546 446.86160704 0.21982688 C448.81490242 0.22455851 450.76821788 0.22427706 452.7215102 0.21841651 C471.46466506 0.16762323 471.46466506 0.16762323 480.66790771 3.62145996 C481.56806114 3.9532074 482.46821457 4.28495484 483.39564538 4.62675524 C488.66354571 6.62319266 493.66986051 9.02987993 498.66790771 11.62145996 C498.66790771 12.28145996 498.66790771 12.94145996 498.66790771 13.62145996 C499.55760254 13.79910889 499.55760254 13.79910889 500.465271 13.98034668 C504.03602222 15.01967197 506.68231147 17.45533777 509.54290771 19.74645996 C510.1669751 20.24202393 510.79104248 20.73758789 511.434021 21.24816895 C515.70604328 24.70046119 519.43277151 28.14935991 522.66790771 32.62145996 C522.66790771 33.28145996 522.66790771 33.94145996 522.66790771 34.62145996 C523.32790771 34.62145996 523.98790771 34.62145996 524.66790771 34.62145996 C526.17572021 36.51989746 526.17572021 36.51989746 527.79290771 38.99645996 C528.33173584 39.80856934 528.87056396 40.62067871 529.42572021 41.45739746 C530.66790771 43.62145996 530.66790771 43.62145996 530.66790771 45.62145996 C531.32790771 45.62145996 531.98790771 45.62145996 532.66790771 45.62145996 C533.85932749 48.00429951 535.04960927 50.3876138 536.23431396 52.77380371 C537.13776589 54.56839894 538.05981817 56.35386405 539.00775146 58.12536621 C543.52093285 66.6716033 545.85663024 75.06540177 546.35931396 84.72302246 C546.51206787 85.66274902 546.51206787 85.66274902 546.66790771 86.62145996 C547.32790771 86.95145996 547.98790771 87.28145996 548.66790771 87.62145996 C551.4680653 101.51658154 550.07774485 117.59861556 548.66790771 131.62145996 C548.00790771 131.62145996 547.34790771 131.62145996 546.66790771 131.62145996 C546.89478271 132.28145996 547.12165771 132.94145996 547.35540771 133.62145996 C547.71186998 137.04349769 546.87283828 139.2125144 545.57025146 142.35192871 C543.98174045 146.34727459 542.86048311 150.49396497 541.66790771 154.62145996 C541.00790771 154.62145996 540.34790771 154.62145996 539.66790771 154.62145996 C539.53255615 155.88989746 539.53255615 155.88989746 539.39447021 157.18395996 C538.5680728 161.09379722 536.98994613 164.18420226 535.04290771 167.62145996 C534.31476129 168.94480842 533.58823539 170.26904966 532.86322021 171.59411621 C532.49615967 172.26201172 532.12909912 172.92990723 531.75091553 173.61804199 C530.06874384 176.72983208 528.48797762 179.88948112 526.91790771 183.05895996 C526.34943115 184.20493652 525.78095459 185.35091309 525.19525146 186.53161621 C524.69122803 187.55126465 524.18720459 188.57091309 523.66790771 189.62145996 C522.63826498 191.68414359 521.60658703 193.74572595 520.57025146 195.80505371 C519.90439626 197.1454116 519.25286066 198.49290562 518.60931396 199.84411621 C518.2573999 200.57501465 517.90548584 201.30591309 517.54290771 202.05895996 C517.23095459 202.7176709 516.91900146 203.37638184 516.59759521 204.05505371 C515.66790771 205.62145996 515.66790771 205.62145996 513.66790771 206.62145996 C513.44103271 207.54958496 513.21415771 208.47770996 512.98040771 209.43395996 C511.74469576 214.16606621 509.18268774 217.99756757 506.67572021 222.15661621 C503.29293549 227.87322125 500.45771259 233.88972269 497.53704834 239.85095215 C496.26193562 242.44845704 494.96463532 245.03468891 493.66790771 247.62145996 C493.02332821 248.91180044 492.37880029 250.20216669 491.73431396 251.49255371 C490.37257308 254.216683 489.0050383 256.9377853 487.63275146 259.65661621 C487.29823975 260.32112793 486.96372803 260.98563965 486.61907959 261.67028809 C485.94093932 263.01742223 485.2612402 264.36377275 484.58001709 265.70935059 C482.44690858 269.95493793 480.4982829 274.23654246 478.66790771 278.62145996 C478.00790771 278.62145996 477.34790771 278.62145996 476.66790771 278.62145996 C476.42040771 279.4451709 476.17290771 280.26888184 475.91790771 281.11755371 C474.47387751 285.16535088 472.63366043 288.86997235 470.66790771 292.68395996 C468.4863955 296.94027999 466.34727961 301.13438818 464.66790771 305.62145996 C464.00790771 305.62145996 463.34790771 305.62145996 462.66790771 305.62145996 C462.54415771 306.36395996 462.42040771 307.10645996 462.29290771 307.87145996 C461.7130407 310.42287481 460.93082032 312.34821726 459.66790771 314.62145996 C459.00790771 314.62145996 458.34790771 314.62145996 457.66790771 314.62145996 C457.57509521 315.48513184 457.48228271 316.34880371 457.38665771 317.23864746 C456.58356101 321.01843956 455.20722069 323.47854449 453.16790771 326.74645996 C450.23112746 331.40671122 450.23112746 331.40671122 448.66790771 336.62145996 C448.00790771 336.62145996 447.34790771 336.62145996 446.66790771 336.62145996 C446.56478271 337.32270996 446.46165771 338.02395996 446.35540771 338.74645996 C445.56697203 342.04355463 444.25547097 344.62951382 442.66790771 347.62145996 C441.83259521 349.29208496 441.83259521 349.29208496 440.98040771 350.99645996 C440.54728271 351.86270996 440.11415771 352.72895996 439.66790771 353.62145996 C439.00790771 353.62145996 438.34790771 353.62145996 437.66790771 353.62145996 C437.54415771 354.58052246 437.54415771 354.58052246 437.41790771 355.55895996 C436.372704 359.82687514 434.52698945 363.65253663 432.66790771 367.62145996 C432.00790771 367.62145996 431.34790771 367.62145996 430.66790771 367.62145996 C430.54713867 368.18300781 430.42636963 368.74455566 430.30194092 369.32312012 C429.07507916 373.77043493 426.84219912 377.84665245 424.85540771 381.99645996 C424.41648193 382.92974121 423.97755615 383.86302246 423.52532959 384.82458496 C421.19784658 389.7078034 418.73819796 394.17552019 415.66790771 398.62145996 C414.93548571 400.07890577 414.24195051 401.55715986 413.60540771 403.05895996 C413.2792749 403.81950684 412.95314209 404.58005371 412.61712646 405.36364746 C412.14726318 406.48126465 412.14726318 406.48126465 411.66790771 407.62145996 C411.08499286 408.97580682 410.50170338 410.32999255 409.91790771 411.68395996 C409.29915771 413.13802246 409.29915771 413.13802246 408.66790771 414.62145996 C408.00790771 414.62145996 407.34790771 414.62145996 406.66790771 414.62145996 C406.41267334 415.45935059 406.15743896 416.29724121 405.89447021 417.16052246 C404.55637653 420.93616262 402.86703871 424.44072635 401.04290771 427.99645996 C400.32649643 429.40778358 399.61035884 430.81924615 398.89447021 432.23083496 C398.52740967 432.95206543 398.16034912 433.6732959 397.78216553 434.41638184 C396.67471213 436.60799425 395.58619982 438.80798159 394.50384521 441.01208496 C394.15402588 441.721875 393.80420654 442.43166504 393.44378662 443.16296387 C392.77914979 444.51279983 392.11719224 445.86395968 391.45843506 447.2166748 C389.46785656 451.23854107 387.20467983 454.92379213 384.66790771 458.62145996 C383.97361393 459.94061816 383.29260276 461.26795402 382.66790771 462.62145996 C382.00790771 462.62145996 381.34790771 462.62145996 380.66790771 462.62145996 C380.66790771 463.61145996 380.66790771 464.60145996 380.66790771 465.62145996 C380.00790771 465.62145996 379.34790771 465.62145996 378.66790771 465.62145996 C378.66790771 466.61145996 378.66790771 467.60145996 378.66790771 468.62145996 C377.04952053 470.33504639 375.37119091 471.99223256 373.66790771 473.62145996 C372.8077427 474.70003678 371.9539494 475.78371513 371.10540771 476.87145996 C360.75028241 489.04929865 344.96512825 497.77859024 329.66790771 501.62145996 C328.68822021 501.9192334 327.70853271 502.21700684 326.69915771 502.52380371 C305.36191666 508.4905322 284.62808363 504.09608114 265.29290771 494.55895996 C264.60229248 494.21848633 263.91167725 493.8780127 263.20013428 493.52722168 C256.42359589 490.11571105 256.42359589 490.11571105 253.66790771 487.62145996 C253.66790771 486.96145996 253.66790771 486.30145996 253.66790771 485.62145996 C253.11103271 485.55958496 252.55415771 485.49770996 251.98040771 485.43395996 C248.71694284 484.28733717 247.02735866 482.10190839 244.66790771 479.62145996 C243.67790771 478.96145996 242.68790771 478.30145996 241.66790771 477.62145996 C241.66790771 476.63145996 241.66790771 475.64145996 241.66790771 474.62145996 C240.77072021 474.25020996 240.77072021 474.25020996 239.85540771 473.87145996 C237.35163852 472.44073471 236.18718384 471.05230176 234.66790771 468.62145996 C234.66790771 467.96145996 234.66790771 467.30145996 234.66790771 466.62145996 C234.00790771 466.62145996 233.34790771 466.62145996 232.66790771 466.62145996 C232.01822021 465.22927246 232.01822021 465.22927246 231.35540771 463.80895996 C229.93856519 460.74159553 229.93856519 460.74159553 228.21087646 459.19567871 C218.63575936 449.42663518 214.26023712 429.81504646 212.66790771 416.62145996 C212.50290771 415.67786621 212.33790771 414.73427246 212.16790771 413.76208496 C210.13847802 401.98011812 210.34096524 391.21813553 212.23040771 379.42224121 C212.71935266 376.76457801 212.71935266 376.76457801 212.66790771 374.62145996 C213.32790771 374.62145996 213.98790771 374.62145996 214.66790771 374.62145996 C214.77103271 373.36333496 214.87415771 372.10520996 214.98040771 370.80895996 C216.06886307 361.26633767 218.71157822 347.57778946 225.66790771 340.62145996 C226.70431969 338.64008412 227.70045129 336.63740343 228.66790771 334.62145996 C232.47863531 326.89607584 236.41705645 319.25318597 240.50823975 311.67297363 C242.79656735 307.39911122 244.82178863 303.10489203 246.66790771 298.62145996 C247.32790771 298.62145996 247.98790771 298.62145996 248.66790771 298.62145996 C248.80519287 297.59472168 248.80519287 297.59472168 248.94525146 296.54724121 C249.82994297 292.96543615 251.44426263 290.00145219 253.23040771 286.80895996 C253.95483738 285.48310448 254.67743154 284.15624477 255.39837646 282.82849121 C255.77139893 282.14222656 256.14442139 281.45596191 256.52874756 280.74890137 C258.43074455 277.19682212 260.2415723 273.60038608 262.04290771 269.99645996 C262.54286255 269.00295532 262.54286255 269.00295532 263.05291748 267.98937988 C264.75024324 264.58557719 266.31876908 261.17828001 267.66790771 257.62145996 C268.32790771 257.62145996 268.98790771 257.62145996 269.66790771 257.62145996 C269.85159912 256.50190918 269.85159912 256.50190918 270.03900146 255.35974121 C270.63994023 252.74323142 271.36145337 251.08745686 272.73040771 248.80895996 C275.72506766 243.63636551 278.354081 238.30439119 280.98846436 232.94250488 C283.56696238 227.7224053 283.56696238 227.7224053 284.66790771 226.62145996 C285.18145814 221.99366203 285.18145814 221.99366203 283.39915556 217.91884184 C280.29332314 215.5913584 276.33946589 216.20451307 272.60237122 216.22705078 C271.19393413 216.21791413 271.19393413 216.21791413 269.75704378 216.20859289 C266.59708338 216.19188611 263.43752256 216.19674966 260.27752686 216.20153809 C258.0175891 216.19420223 255.7576551 216.18561743 253.49772644 216.1758728 C247.34903828 216.1535976 241.20048389 216.15072912 235.05176091 216.15262032 C229.92474304 216.15273974 224.79775381 216.14418729 219.67074388 216.1358428 C206.8866866 216.11548522 194.10272859 216.11446661 181.31866693 216.12164992 C170.21197263 216.12722622 159.10550893 216.10639775 147.99886853 216.07328945 C136.59916224 216.03957084 125.19959951 216.02485672 113.79983038 216.02900648 C107.39786138 216.03107852 100.99612202 216.02552454 94.59419441 216.00111389 C88.57523318 215.9789229 82.55675332 215.98066104 76.5377903 216.00104141 C74.32542297 216.00446497 72.11302372 215.99930492 69.90069962 215.98505783 C66.88670724 215.9669835 63.87436849 215.97952668 60.86042786 216 C59.97920747 215.98748215 59.09798709 215.9749643 58.19006306 215.96206713 C55.90306363 215.99551066 53.88621517 216.06353888 51.66790771 216.62145996 C49.19516475 219.01170048 49.19516475 219.01170048 47.66790771 221.62145996 C47.00790771 221.62145996 46.34790771 221.62145996 45.66790771 221.62145996 C45.58540771 222.46708496 45.50290771 223.31270996 45.41790771 224.18395996 C44.71625172 227.39988328 43.69064912 229.56348234 41.98822021 232.34411621 C40.15307642 235.50946778 38.54227481 238.78234668 36.91790771 242.05895996 C36.59999268 242.69897949 36.28207764 243.33899902 35.95452881 243.99841309 C35.19067328 245.53861224 34.4290559 247.07992107 33.66790771 248.62145996 C33.00790771 248.62145996 32.34790771 248.62145996 31.66790771 248.62145996 C31.50741943 249.68106934 31.50741943 249.68106934 31.34368896 250.76208496 C30.58824857 253.95851484 29.37534061 256.46242385 27.85540771 259.37145996 C25.27936409 264.38698585 22.89177566 269.44115582 20.66790771 274.62145996 C20.00790771 274.62145996 19.34790771 274.62145996 18.66790771 274.62145996 C18.54190186 275.19348145 18.415896 275.76550293 18.28607178 276.3548584 C17.18182986 280.40374545 15.21735067 284.09204742 13.41790771 287.87145996 C13.03505615 288.69259277 12.65220459 289.51372559 12.25775146 290.35974121 C10.01966764 295.08292146 7.55862211 299.49316009 4.72894287 303.8848877 C3.41239701 306.03964855 2.57238344 308.26620518 1.66790771 310.62145996 C-0.22339485 314.33591846 -2.23681725 317.98661453 -4.23052979 321.64685059 C-4.62756104 322.38483887 -5.02459229 323.12282715 -5.43365479 323.88317871 C-5.98013672 324.88804321 -5.98013672 324.88804321 -6.53765869 325.91320801 C-7.47265434 327.60971638 -7.47265434 327.60971638 -7.33209229 329.62145996 C-7.99209229 329.62145996 -8.65209229 329.62145996 -9.33209229 329.62145996 C-9.49064697 330.17833496 -9.64920166 330.73520996 -9.81256104 331.30895996 C-11.27731716 336.09976451 -13.05223231 339.96958036 -15.80865479 344.12927246 C-21.10649082 352.79598885 -25.33689027 362.29932193 -29.33209229 371.62145996 C-29.99209229 371.62145996 -30.65209229 371.62145996 -31.33209229 371.62145996 C-31.44681885 372.33817871 -31.56154541 373.05489746 -31.67974854 373.79333496 C-32.36641852 376.77027547 -33.39562559 379.14798889 -34.76959229 381.87145996 C-35.41734619 383.17856934 -35.41734619 383.17856934 -36.07818604 384.51208496 C-37.33209229 386.62145996 -37.33209229 386.62145996 -39.33209229 387.62145996 C-39.33209229 388.94145996 -39.33209229 390.26145996 -39.33209229 391.62145996 C-39.99209229 391.62145996 -40.65209229 391.62145996 -41.33209229 391.62145996 C-41.62084229 392.67333496 -41.90959229 393.72520996 -42.20709229 394.80895996 C-43.10434422 397.84964707 -44.09632647 400.7085834 -45.33209229 403.62145996 C-45.99209229 403.62145996 -46.65209229 403.62145996 -47.33209229 403.62145996 C-49.080589 407.92545186 -50.70912839 412.26896587 -52.33209229 416.62145996 C-52.99209229 416.62145996 -53.65209229 416.62145996 -54.33209229 416.62145996 C-54.43521729 417.34333496 -54.53834229 418.06520996 -54.64459229 418.80895996 C-55.40785419 421.93139501 -56.66687688 423.87173937 -58.33209229 426.62145996 C-59.60049713 429.11415121 -60.84999027 431.61107475 -62.08209229 434.12145996 C-65.2102286 440.44846201 -68.47553984 446.67203123 -71.88677979 452.85192871 C-73.21890236 455.4045636 -74.30665583 457.93410926 -75.33209229 460.62145996 C-76.31851901 462.96082977 -77.32646261 465.29022753 -78.33209229 467.62145996 C-78.99209229 467.62145996 -79.65209229 467.62145996 -80.33209229 467.62145996 C-80.39396729 468.28145996 -80.45584229 468.94145996 -80.51959229 469.62145996 C-81.2707874 472.39510346 -81.99191635 473.78750295 -83.55084229 476.11755371 C-86.72475061 481.09029373 -89.16110545 486.34180239 -91.64459229 491.68395996 C-96.39712895 501.767001 -101.22546858 511.81260038 -106.98834229 521.36755371 C-108.39419387 523.72562453 -109.33505263 526.06654585 -110.33209229 528.62145996 C-111.74233832 531.56458212 -113.19535124 534.39720465 -114.89459229 537.18395996 C-116.36427799 539.51790144 -116.36427799 539.51790144 -117.16412354 541.82067871 C-118.63507149 545.34800208 -120.53869297 548.5757691 -122.45709229 551.87145996 C-126.14875662 558.3096088 -129.41810354 564.86004059 -132.51544189 571.60144043 C-134.79182367 576.53807564 -137.2860371 581.29633825 -139.94537354 586.03942871 C-142.31636671 590.45415121 -144.32584659 595.03195099 -146.33209229 599.62145996 C-146.99209229 599.62145996 -147.65209229 599.62145996 -148.33209229 599.62145996 C-148.66209229 601.60145996 -148.99209229 603.58145996 -149.33209229 605.62145996 C-149.99209229 605.62145996 -150.65209229 605.62145996 -151.33209229 605.62145996 C-151.57701416 606.44903809 -151.82193604 607.27661621 -152.07427979 608.12927246 C-153.52487567 612.15670327 -155.40984987 615.74765278 -157.45709229 619.49645996 C-161.61463303 627.22472365 -165.58496819 635.03074189 -169.47711182 642.89538574 C-170.65123977 645.2657697 -171.83513037 647.63122605 -173.01959229 649.99645996 C-173.40631104 650.76989746 -173.79302979 651.54333496 -174.19146729 652.34020996 C-177.76959229 659.49645996 -177.76959229 659.49645996 -179.02349854 662.00036621 C-179.93127236 663.81862364 -180.83461263 665.63909866 -181.73443604 667.46130371 C-184.93652662 673.92494015 -188.28896176 680.28984716 -191.72271729 686.63317871 C-195.731814 693.84380112 -195.731814 693.84380112 -198.33209229 701.62145996 C-198.99209229 701.62145996 -199.65209229 701.62145996 -200.33209229 701.62145996 C-200.60021729 702.48770996 -200.86834229 703.35395996 -201.14459229 704.24645996 C-202.30321216 707.5393796 -203.71419068 710.53273871 -205.33209229 713.62145996 C-205.99209229 713.62145996 -206.65209229 713.62145996 -207.33209229 713.62145996 C-207.00209229 714.61145996 -206.67209229 715.60145996 -206.33209229 716.62145996 C-206.66209229 717.28145996 -206.99209229 717.94145996 -207.33209229 718.62145996 C-207.99209229 718.62145996 -208.65209229 718.62145996 -209.33209229 718.62145996 C-209.60021729 719.46708496 -209.86834229 720.31270996 -210.14459229 721.18395996 C-211.37995179 724.76000063 -212.80908028 728.16006904 -214.33209229 731.62145996 C-214.99209229 731.62145996 -215.65209229 731.62145996 -216.33209229 731.62145996 C-216.41459229 732.46708496 -216.49709229 733.31270996 -216.58209229 734.18395996 C-217.50025705 738.39221511 -218.99536779 741.01015846 -221.33209229 744.62145996 C-221.99209229 744.95145996 -222.65209229 745.28145996 -223.33209229 745.62145996 C-223.70385739 746.94459245 -224.02973239 748.28076336 -224.33209229 749.62145996 C-224.98998871 751.21732117 -225.67856571 752.80082103 -226.39459229 754.37145996 C-226.75681885 755.17067871 -227.11904541 755.96989746 -227.49224854 756.79333496 C-227.76939697 757.39661621 -228.04654541 757.99989746 -228.33209229 758.62145996 C-228.99209229 758.62145996 -229.65209229 758.62145996 -230.33209229 758.62145996 C-230.43779541 759.32399902 -230.54349854 760.02653809 -230.65240479 760.75036621 C-231.42273997 764.0043683 -232.67152186 766.59095445 -234.20709229 769.55895996 C-234.72013916 770.5579834 -235.23318604 771.55700684 -235.76177979 772.58630371 C-236.27998291 773.58790527 -236.79818604 774.58950684 -237.33209229 775.62145996 C-238.33523405 777.61988599 -239.33520069 779.61990878 -240.33209229 781.62145996 C-242.33209229 785.62145996 -244.33209229 789.62145996 -246.33209229 793.62145996 C-246.99209229 793.62145996 -247.65209229 793.62145996 -248.33209229 793.62145996 C-248.41459229 794.46708496 -248.49709229 795.31270996 -248.58209229 796.18395996 C-249.49686458 800.37666633 -251.09556152 802.96168234 -253.33209229 806.62145996 C-254.003425 807.95245005 -254.66918942 809.28625136 -255.33209229 810.62145996 C-256.21820887 812.27961835 -257.10472558 813.93756841 -257.9956665 815.59313965 C-261.5933007 822.28058749 -265.0494347 829.02208333 -268.41802979 835.82849121 C-270.64344897 840.28051964 -272.99489206 844.66493592 -275.33209229 849.05895996 C-279.08071415 856.11443975 -282.57366382 863.23791579 -285.85943604 870.51989746 C-287.20091446 873.34518623 -288.71908656 875.94690345 -290.33209229 878.62145996 C-290.66209229 879.61145996 -290.99209229 880.60145996 -291.33209229 881.62145996 C-291.99209229 881.62145996 -292.65209229 881.62145996 -293.33209229 881.62145996 C-293.43392822 882.32657715 -293.53576416 883.03169434 -293.64068604 883.75817871 C-294.4312404 887.03205641 -295.73732963 889.50730463 -297.39459229 892.43395996 C-298.21636963 893.89769043 -298.21636963 893.89769043 -299.05474854 895.39099121 C-299.68703369 896.49507324 -299.68703369 896.49507324 -300.33209229 897.62145996 C-300.99209229 897.62145996 -301.65209229 897.62145996 -302.33209229 897.62145996 C-302.33209229 898.28145996 -302.33209229 898.94145996 -302.33209229 899.62145996 C-310.21920895 901.0476706 -310.21920895 901.0476706 -314.26959229 899.49645996 C-316.61952039 897.36016168 -317.43428406 895.64136035 -318.33209229 892.62145996 C-318.99209229 892.62145996 -319.65209229 892.62145996 -320.33209229 892.62145996 C-320.6582251 891.88540527 -320.98435791 891.14935059 -321.32037354 890.39099121 C-321.97586182 888.92726074 -321.97586182 888.92726074 -322.64459229 887.43395996 C-323.0738501 886.47103027 -323.50310791 885.50810059 -323.94537354 884.51599121 C-325.26200669 881.7677513 -326.75361655 879.22486377 -328.33209229 876.62145996 C-329.3473877 874.29474131 -330.34697426 871.96111526 -331.33209229 869.62145996 C-333.9909796 864.15131356 -336.94712929 858.85906434 -339.90631104 853.54724121 C-341.33209229 850.62145996 -341.33209229 850.62145996 -341.33209229 847.62145996 C-341.99209229 847.62145996 -342.65209229 847.62145996 -343.33209229 847.62145996 C-343.66982666 846.87380371 -344.00756104 846.12614746 -344.35552979 845.35583496 C-344.80154541 844.37099121 -345.24756104 843.38614746 -345.70709229 842.37145996 C-346.14795166 841.39692871 -346.58881104 840.42239746 -347.04302979 839.41833496 C-347.81618429 837.74082398 -348.62358545 836.07760023 -349.49615479 834.44958496 C-350.33209229 832.62145996 -350.33209229 832.62145996 -350.33209229 829.62145996 C-350.99209229 829.62145996 -351.65209229 829.62145996 -352.33209229 829.62145996 C-352.59248291 828.91505371 -352.85287354 828.20864746 -353.12115479 827.48083496 C-354.41713999 824.42063764 -355.98563224 821.71299663 -357.70709229 818.87145996 C-360.64422382 813.90326852 -363.12164667 808.94398031 -365.33209229 803.62145996 C-368.34294666 796.55088801 -371.74441886 789.833461 -375.76959229 783.28161621 C-377.58600274 780.1891774 -379.17849813 777.02304103 -380.76959229 773.80895996 C-381.07961182 773.18585937 -381.38963135 772.56275879 -381.70904541 771.92077637 C-382.9608611 769.40336715 -384.20563145 766.88293237 -385.42974854 764.35192871 C-387.9260146 759.21891407 -390.80901345 754.34658911 -393.74615479 749.45349121 C-395.1878366 746.87905939 -396.25504966 744.3606054 -397.33209229 741.62145996 C-398.16469028 740.1300461 -399.01887011 738.65046785 -399.89459229 737.18395996 C-401.8996429 733.65742977 -403.01641248 730.72529743 -403.33209229 726.62145996 C-403.99209229 726.62145996 -404.65209229 726.62145996 -405.33209229 726.62145996 C-405.62084229 725.83770996 -405.90959229 725.05395996 -406.20709229 724.24645996 C-407.18121482 721.52474364 -407.18121482 721.52474364 -409.33209229 719.62145996 C-410.01260918 718.02224526 -410.68952843 716.42139918 -411.34771729 714.81286621 C-412.53772707 712.16367776 -413.92148883 709.65984787 -415.33209229 707.12145996 C-419.29991439 699.88486132 -422.89100095 693.09014118 -422.33209229 684.62145996 C-420.27777419 678.12649467 -417.20824259 672.2496488 -414.01959229 666.24645996 C-413.55875244 665.36474121 -413.0979126 664.48302246 -412.62310791 663.57458496 C-409.80283821 658.22430975 -406.8188025 653.01429381 -403.63995361 647.86877441 C-401.97123342 645.00139166 -400.69220027 642.03581204 -399.40240479 638.98474121 C-397.72012786 635.27022465 -395.70224207 631.74887564 -393.69927979 628.19958496 C-392.38514294 625.72149833 -391.3224154 623.24345831 -390.33209229 620.62145996 C-389.67209229 620.62145996 -389.01209229 620.62145996 -388.33209229 620.62145996 C-388.10521729 619.64435059 -387.87834229 618.66724121 -387.64459229 617.66052246 C-386.30785848 612.98430754 -383.87444115 609.10780127 -381.33209229 604.99645996 C-377.37680575 598.5400701 -377.37680575 598.5400701 -374.33209229 591.62145996 C-373.64075581 590.17570886 -372.93343933 588.73744249 -372.20709229 587.30895996 C-371.6772876 586.26288574 -371.6772876 586.26288574 -371.13677979 585.19567871 C-370.87123291 584.67618652 -370.60568604 584.15669434 -370.33209229 583.62145996 C-369.67209229 583.62145996 -369.01209229 583.62145996 -368.33209229 583.62145996 C-368.22896729 582.89958496 -368.12584229 582.17770996 -368.01959229 581.43395996 C-367.2685723 578.36160548 -365.9807438 576.30051867 -364.33209229 573.62145996 C-363.63629774 571.43015462 -363.63629774 571.43015462 -363.33209229 569.62145996 C-362.67209229 569.62145996 -362.01209229 569.62145996 -361.33209229 569.62145996 C-361.06396729 568.59020996 -360.79584229 567.55895996 -360.51959229 566.49645996 C-359.52210332 562.97295576 -358.06590248 559.85265169 -356.33209229 556.62145996 C-355.67209229 556.62145996 -355.01209229 556.62145996 -354.33209229 556.62145996 C-354.06396729 555.76036621 -353.79584229 554.89927246 -353.51959229 554.01208496 C-352.33957778 550.64283302 -350.93410468 547.55946463 -349.33209229 544.37145996 C-348.81646729 543.33505371 -348.30084229 542.29864746 -347.76959229 541.23083496 C-346.33209229 538.62145996 -346.33209229 538.62145996 -344.33209229 536.62145996 C-343.44430536 534.65657165 -343.44430536 534.65657165 -342.70709229 532.49645996 C-342.44670166 531.77200684 -342.18631104 531.04755371 -341.91802979 530.30114746 C-341.62799072 529.46970215 -341.62799072 529.46970215 -341.33209229 528.62145996 C-340.67209229 528.62145996 -340.01209229 528.62145996 -339.33209229 528.62145996 C-339.23799072 528.10712402 -339.14388916 527.59278809 -339.04693604 527.06286621 C-338.06099484 523.6955807 -336.48234784 520.67288865 -334.89459229 517.55895996 C-334.36877563 516.51808228 -334.36877563 516.51808228 -333.83233643 515.45617676 C-327.20805978 502.4030085 -320.30878573 489.48907006 -313.33209229 476.62145996 C-312.67209229 476.62145996 -312.01209229 476.62145996 -311.33209229 476.62145996 C-311.2766626 475.82353027 -311.22123291 475.02560059 -311.16412354 474.20349121 C-310.02692964 469.30768461 -307.62320171 465.56971795 -305.01959229 461.30895996 C-301.33783059 455.22795753 -298.05736795 449.19464745 -295.33209229 442.62145996 C-294.67209229 442.62145996 -294.01209229 442.62145996 -293.33209229 442.62145996 C-293.22638916 441.74489746 -293.12068604 440.86833496 -293.01177979 439.96520996 C-292.30688567 436.497455 -291.21882131 434.17161767 -289.45709229 431.12145996 C-287.79815879 428.20252698 -286.18642988 425.32453276 -284.70709229 422.30895996 C-283.33209229 419.62145996 -283.33209229 419.62145996 -281.50006104 416.95349121 C-279.11574763 413.28895187 -277.18321275 409.54456628 -275.26959229 405.62145996 C-274.76202393 404.59278809 -274.76202393 404.59278809 -274.24420166 403.54333496 C-273.74436768 402.53013184 -273.74436768 402.53013184 -273.23443604 401.49645996 C-272.91200928 400.84290527 -272.58958252 400.18935059 -272.25738525 399.51599121 C-271.39300345 397.74617517 -270.55111918 395.96542061 -269.71099854 394.18395996 C-268.33209229 391.62145996 -268.33209229 391.62145996 -266.33209229 390.62145996 C-266.33209229 389.30145996 -266.33209229 387.98145996 -266.33209229 386.62145996 C-265.67209229 386.62145996 -265.01209229 386.62145996 -264.33209229 386.62145996 C-264.22381104 386.07876465 -264.11552979 385.53606934 -264.00396729 384.97692871 C-261.84839973 377.41990991 -257.21991276 370.34891578 -253.36724854 363.53552246 C-252.156755 361.29725139 -251.18284845 359.01904551 -250.33209229 356.62145996 C-249.67209229 356.62145996 -249.01209229 356.62145996 -248.33209229 356.62145996 C-248.00209229 354.97145996 -247.67209229 353.32145996 -247.33209229 351.62145996 C-246.67209229 351.62145996 -246.01209229 351.62145996 -245.33209229 351.62145996 C-245.23025635 350.92665527 -245.12842041 350.23185059 -245.02349854 349.51599121 C-244.21492222 346.13093444 -242.86533515 343.39858977 -241.26959229 340.30895996 C-240.72174072 339.24032715 -240.17388916 338.17169434 -239.60943604 337.07067871 C-239.1879126 336.26243652 -238.76638916 335.45419434 -238.33209229 334.62145996 C-237.67209229 334.62145996 -237.01209229 334.62145996 -236.33209229 334.62145996 C-236.18771729 333.85833496 -236.04334229 333.09520996 -235.89459229 332.30895996 C-235.33209229 329.62145996 -235.33209229 329.62145996 -234.33209229 326.62145996 C-233.67209229 326.62145996 -233.01209229 326.62145996 -232.33209229 326.62145996 C-232.20084961 326.03300293 -232.06960693 325.4445459 -231.93438721 324.83825684 C-230.99481913 321.38009787 -229.27142693 318.29708922 -227.64459229 315.12145996 C-226.9218961 313.69439685 -226.19924029 312.26731329 -225.47662354 310.84020996 C-225.1164917 310.13251465 -224.75635986 309.42481934 -224.38531494 308.69567871 C-222.85308517 305.67810242 -221.34271275 302.64991148 -219.83209229 299.62145996 C-218.99875895 297.95479329 -218.16542562 296.28812663 -217.33209229 294.62145996 C-216.67209229 294.62145996 -216.01209229 294.62145996 -215.33209229 294.62145996 C-215.25345947 293.95114746 -215.17482666 293.28083496 -215.09381104 292.59020996 C-214.09731048 288.70641292 -212.17045988 285.53916069 -210.14459229 282.12145996 C-206.09120747 275.12229659 -202.57108002 268.03937696 -199.33209229 260.62145996 C-198.67209229 260.62145996 -198.01209229 260.62145996 -197.33209229 260.62145996 C-197.17740479 259.81708496 -197.17740479 259.81708496 -197.01959229 258.99645996 C-195.33464503 253.17573308 -191.85572408 247.78043139 -189.01959229 242.43395996 C-188.62006348 241.67929443 -188.22053467 240.92462891 -187.80889893 240.14709473 C-185.66173412 236.09903337 -183.48774663 232.06870051 -181.26959229 228.05895996 C-178.82663559 223.61968132 -176.57250193 219.10229009 -174.33209229 214.55895996 C-172.1500787 210.13803744 -169.93432557 205.81473262 -167.33209229 201.62145996 C-163.56588818 195.53837691 -160.50119902 189.11004757 -157.35211182 182.69372559 C-155.69541025 179.32798052 -154.01287463 175.97522519 -152.33209229 172.62145996 C-151.75459229 171.46645996 -151.17709229 170.31145996 -150.58209229 169.12145996 C-150.16959229 168.29645996 -149.75709229 167.47145996 -149.33209229 166.62145996 C-148.67209229 166.62145996 -148.01209229 166.62145996 -147.33209229 166.62145996 C-147.18771729 165.85833496 -147.04334229 165.09520996 -146.89459229 164.30895996 C-146.33209229 161.62145996 -146.33209229 161.62145996 -145.33209229 158.62145996 C-144.67209229 158.62145996 -144.01209229 158.62145996 -143.33209229 158.62145996 C-143.20834229 158.06458496 -143.08459229 157.50770996 -142.95709229 156.93395996 C-142.27232373 154.40031632 -141.34075465 152.04224964 -140.33209229 149.62145996 C-139.67209229 149.62145996 -139.01209229 149.62145996 -138.33209229 149.62145996 C-138.24830322 148.95630371 -138.16451416 148.29114746 -138.07818604 147.60583496 C-137.09455947 143.67132869 -135.32515622 140.41823052 -133.39459229 136.87145996 C-133.03429932 136.18696777 -132.67400635 135.50247559 -132.30279541 134.79724121 C-129.58931766 129.75007265 -129.58931766 129.75007265 -127.33209229 128.62145996 C-126.98072804 126.95850114 -126.65006637 125.29112501 -126.33209229 123.62145996 C-125.31646729 121.44909668 -125.31646729 121.44909668 -124.08209229 119.30114746 C-123.63865479 118.51868652 -123.19521729 117.73622559 -122.73834229 116.93005371 C-122.04224854 115.7254248 -122.04224854 115.7254248 -121.33209229 114.49645996 C-120.41320429 112.89095844 -119.49644392 111.28423682 -118.58209229 109.67614746 C-117.97107666 108.61629639 -117.97107666 108.61629639 -117.34771729 107.53503418 C-116.19918714 105.49845712 -116.19918714 105.49845712 -115.33209229 102.62145996 C-114.67209229 102.62145996 -114.01209229 102.62145996 -113.33209229 102.62145996 C-113.18771729 101.67270996 -113.04334229 100.72395996 -112.89459229 99.74645996 C-112.33209229 96.62145996 -112.33209229 96.62145996 -111.33209229 94.62145996 C-110.67209229 94.62145996 -110.01209229 94.62145996 -109.33209229 94.62145996 C-109.18320557 93.5560498 -109.18320557 93.5560498 -109.03131104 92.46911621 C-108.22769639 89.19629455 -106.91117485 86.92526942 -105.14459229 84.05895996 C-101.12760448 77.36672412 -97.6687639 70.46853343 -94.28131104 63.44177246 C-89.5883596 53.82411891 -83.74026953 45.17480528 -77.33209229 36.62145996 C-76.79970947 35.85575684 -76.26732666 35.09005371 -75.71881104 34.30114746 C-75.26119385 33.74685059 -74.80357666 33.19255371 -74.33209229 32.62145996 C-73.67209229 32.62145996 -73.01209229 32.62145996 -72.33209229 32.62145996 C-72.33209229 31.96145996 -72.33209229 31.30145996 -72.33209229 30.62145996 C-71.67209229 30.62145996 -71.01209229 30.62145996 -70.33209229 30.62145996 C-70.33209229 29.96145996 -70.33209229 29.30145996 -70.33209229 28.62145996 C-69.67209229 28.62145996 -69.01209229 28.62145996 -68.33209229 28.62145996 C-68.00209229 27.63145996 -67.67209229 26.64145996 -67.33209229 25.62145996 C-65.94024658 24.29040527 -65.94024658 24.29040527 -64.15631104 22.94958496 C-63.49856689 22.4530542 -62.84082275 21.95652344 -62.16314697 21.44494629 C-61.45577393 20.9256958 -60.74840088 20.40644531 -60.01959229 19.87145996 C-59.30061768 19.33867432 -58.58164307 18.80588867 -57.84088135 18.25695801 C-43.17933372 7.54062266 -43.17933372 7.54062266 -37.58372474 6.20374918 C-35.17942808 5.63132686 -35.17942808 5.63132686 -32.3750174 4.45190191 C-21.48033592 0.26343327 -11.57707925 -0.08082998 0 0 Z " fill="#FE6A3D" transform="translate(1170.3320922851563,0.3785400390625)"/>
<path d="" fill="#FF0000" transform="translate(0,0)"/>
<path d="" fill="#FFFFFF" transform="translate(0,0)"/>
</svg>
