<?xml version="1.0" encoding="UTF-8"?>
<!DOCTYPE svg PUBLIC "-//W3C//DTD SVG 1.1//EN" "http://www.w3.org/Graphics/SVG/1.1/DTD/svg11.dtd">
<svg xmlns="http://www.w3.org/2000/svg" version="1.1" width="1831px" height="1831px" style="shape-rendering:geometricPrecision; text-rendering:geometricPrecision; image-rendering:optimizeQuality; fill-rule:evenodd; clip-rule:evenodd" xmlns:xlink="http://www.w3.org/1999/xlink">
<g><path style="opacity:1" fill="#00696a" d="M -0.5,383.5 C -0.5,372.5 -0.5,361.5 -0.5,350.5C 4.19759,316.582 20.8643,290.416 49.5,272C 60.8513,266.16 72.8513,262.16 85.5,260C 258.833,259.333 432.167,259.333 605.5,260C 636.978,267.656 661.312,285.156 678.5,312.5C 710.813,375.965 743.313,439.299 776,502.5C 790.266,538.402 789.932,574.069 775,609.5C 748.087,658.47 707.587,675.97 653.5,662C 630.296,651.798 612.463,635.631 600,613.5C 578.736,572.639 557.736,531.639 537,490.5C 535.745,489.789 534.579,488.956 533.5,488C 452.167,487.333 370.833,487.333 289.5,488C 285.911,489.216 283.911,491.716 283.5,495.5C 427.71,776.589 571.877,1057.59 716,1338.5C 717.167,1339.67 718.333,1340.83 719.5,1342C 785.419,1343.16 851.419,1343.66 917.5,1343.5C 983.581,1343.66 1049.58,1343.16 1115.5,1342C 1117.36,1340.44 1118.86,1338.61 1120,1336.5C 1162.23,1253.71 1204.73,1171.04 1247.5,1088.5C 1276.77,1047.8 1315.43,1034.97 1363.5,1050C 1396.49,1066 1417.33,1091.83 1426,1127.5C 1431.53,1153.74 1429.53,1179.41 1420,1204.5C 1366.73,1308.38 1313.39,1412.38 1260,1516.5C 1243.78,1545.71 1219.28,1563.87 1186.5,1571C 1006.5,1571.67 826.5,1571.67 646.5,1571C 614.094,1563.27 589.26,1545.1 572,1516.5C 388.238,1157.65 203.905,798.979 19,440.5C 9.20472,422.614 2.70472,403.614 -0.5,383.5 Z"/></g>
<g><path style="opacity:1" fill="#00696a" d="M 1830.5,364.5 C 1830.5,371.833 1830.5,379.167 1830.5,386.5C 1828.9,400.237 1825.4,413.57 1820,426.5C 1764.36,534.442 1708.69,642.442 1653,750.5C 1619.72,795.147 1577.56,806.313 1526.5,784C 1495.07,763.66 1476.9,734.827 1472,697.5C 1469.73,676.173 1472.4,655.507 1480,635.5C 1503.28,590.195 1526.62,544.862 1550,499.5C 1551.78,493.891 1549.94,490.057 1544.5,488C 1462.75,487.006 1381.09,487.339 1299.5,489C 1298.33,490.167 1297.17,491.333 1296,492.5C 1172.57,734.181 1048.4,975.347 923.5,1216C 917.33,1218.79 912.163,1217.63 908,1212.5C 871.387,1141.2 834.72,1069.86 798,998.5C 796.622,991.061 797.622,984.061 801,977.5C 918.31,756.304 1035.64,534.971 1153,313.5C 1170.15,285.515 1194.65,267.681 1226.5,260C 1399.17,259.333 1571.83,259.333 1744.5,260C 1768.12,265.136 1787.62,276.969 1803,295.5C 1818.54,315.949 1827.71,338.949 1830.5,364.5 Z"/></g>
</svg>
