<?xml version="1.0" encoding="UTF-8"?>
<svg version="1.1" xmlns="http://www.w3.org/2000/svg" width="1720" height="1233">
<path d="M0 0 C2.04448928 -0.0043379 4.08897488 -0.01086191 6.1334511 -0.01936007 C11.70634223 -0.03623864 17.27877932 -0.02224957 22.85164618 -0.00284529 C28.87889751 0.01265616 34.90609588 -0.00083913 40.93334961 -0.0105896 C52.04132269 -0.02424357 63.1491657 -0.01545289 74.25711823 0.00482657 C84.51743824 0.02342513 94.7777071 0.03180188 105.03804398 0.03025818 C105.72013434 0.0301665 106.4022247 0.03007483 107.10498447 0.02998037 C109.87414044 0.02958718 112.6432964 0.02913755 115.41245235 0.02860898 C141.35238747 0.02374524 167.29223189 0.04635323 193.23213883 0.08256521 C216.26143691 0.11457671 239.29065759 0.12660462 262.31997681 0.1204834 C263.79966376 0.12009655 265.27935071 0.1197101 266.75903766 0.11932403 C267.85635186 0.11903701 267.85635186 0.11903701 268.97583402 0.11874419 C272.65858912 0.1177898 276.34134423 0.11687544 280.02409935 0.11600494 C280.75070775 0.11583115 281.47731615 0.11565736 282.22594298 0.1154783 C301.49386194 0.11112123 320.76177257 0.12114097 340.02968562 0.1358428 C341.05801833 0.13662301 341.05801833 0.13662301 342.10712544 0.13741899 C342.79140349 0.13793833 343.47568155 0.13845768 344.1806953 0.13899276 C344.86369302 0.1395105 345.54669075 0.14002824 346.25038537 0.14056167 C347.62581591 0.14160975 349.00124645 0.14266996 350.37667698 0.14374239 C359.95403007 0.15111475 369.53137135 0.15321274 379.10872692 0.15174838 C391.44805473 0.14990106 403.78732223 0.15832541 416.12662928 0.18338984 C422.07432126 0.19524186 428.02191653 0.20238012 433.96961975 0.19655228 C439.41600816 0.1913733 444.8621924 0.20009413 450.3085459 0.21982688 C452.27658629 0.22455885 454.24464661 0.22427663 456.21268396 0.21841651 C475.11136574 0.16758858 475.11136574 0.16758858 484.27554321 3.62145996 C484.27554321 4.28145996 484.27554321 4.94145996 484.27554321 5.62145996 C485.32741821 5.74520996 486.37929321 5.86895996 487.46304321 5.99645996 C492.54801332 6.83006162 496.30193502 8.4618632 500.52554321 11.37145996 C501.29898071 11.89868652 502.07241821 12.42591309 502.86929321 12.96911621 C503.66335571 13.51438965 504.45741821 14.05966309 505.27554321 14.62145996 C506.85693587 15.68684625 508.440218 16.74943428 510.02554321 17.80895996 C510.77062134 18.31040527 511.51569946 18.81185059 512.28335571 19.32849121 C514.33918424 20.70666793 514.33918424 20.70666793 516.90054321 21.99645996 C520.69913827 24.59549869 523.34804644 28.10062732 526.27554321 31.62145996 C527.1531224 32.63953248 528.03211107 33.65639118 528.91226196 34.67224121 C529.82551897 35.73822222 530.73828135 36.80462719 531.65054321 37.87145996 C532.50390259 38.86661621 533.35726196 39.86177246 534.23648071 40.88708496 C536.04363612 43.31047344 536.89725201 44.67919506 537.27554321 47.62145996 C537.93554321 47.62145996 538.59554321 47.62145996 539.27554321 47.62145996 C539.61327759 48.30853027 539.95101196 48.99560059 540.29898071 49.70349121 C540.96800415 51.05507324 540.96800415 51.05507324 541.65054321 52.43395996 C542.09140259 53.32728027 542.53226196 54.22060059 542.98648071 55.14099121 C544.29421226 57.76702377 544.29421226 57.76702377 546.27554321 60.62145996 C546.27554321 61.94145996 546.27554321 63.26145996 546.27554321 64.62145996 C546.93554321 64.62145996 547.59554321 64.62145996 548.27554321 64.62145996 C548.66093262 65.44553345 548.66093262 65.44553345 549.05410767 66.28625488 C550.2293236 68.79512797 551.40864396 71.30205086 552.58804321 73.80895996 C552.99216431 74.67327637 553.3962854 75.53759277 553.81265259 76.42810059 C555.44974649 79.90193398 557.0601312 83.26994885 559.06851196 86.54724121 C560.27554321 88.62145996 560.27554321 88.62145996 560.27554321 91.62145996 C560.93554321 91.62145996 561.59554321 91.62145996 562.27554321 91.62145996 C562.547052 92.20524414 562.81856079 92.78902832 563.09829712 93.39050293 C569.49656672 107.47163645 569.49656672 107.47163645 577.31460571 120.78161621 C578.27554321 122.62145996 578.27554321 122.62145996 578.27554321 126.62145996 C578.93554321 126.95145996 579.59554321 127.28145996 580.27554321 127.62145996 C581.32244938 129.59731104 582.3130066 131.60316284 583.27554321 133.62145996 C584.54031195 135.99998027 585.81084916 138.37466056 587.08804321 140.74645996 C590.60652799 147.31273731 593.97639516 153.94203727 597.27554321 160.62145996 C598.77345575 163.62120626 600.2744987 166.61937366 601.77554321 169.61755371 C602.77970878 171.62849985 603.77967858 173.64154636 604.77554321 175.65661621 C607.16933189 180.48783033 609.6073274 185.27575996 612.21304321 189.99645996 C615.05493877 195.15152632 617.67434093 200.40013979 620.28335571 205.67614746 C622.14919709 209.40974784 624.11119655 213.08878098 626.07901001 216.76940918 C633.6938423 231.04247189 639.1675919 244.4604999 641.27554321 260.62145996 C641.60554321 261.61145996 641.93554321 262.60145996 642.27554321 263.62145996 C642.370798 265.78518134 642.40627448 267.95173762 642.40835571 270.11755371 C642.40964478 271.3982373 642.41093384 272.6789209 642.41226196 273.99841309 C642.40911987 274.9982019 642.40911987 274.9982019 642.40591431 276.01818848 C642.40057171 278.04813138 642.40586226 280.07785213 642.41226196 282.10778809 C642.4109729 283.38976074 642.40968384 284.6717334 642.40835571 285.99255371 C642.40666382 287.75490356 642.40666382 287.75490356 642.40493774 289.55285645 C642.29590175 292.13865545 642.00119596 294.16413587 641.27554321 296.62145996 C641.03577759 297.85251465 640.79601196 299.08356934 640.54898071 300.35192871 C637.5868278 315.32876361 632.93151 328.72739228 623.97476196 341.20349121 C622.5046761 343.2954065 621.33971528 345.30404973 620.27554321 347.62145996 C619.61554321 347.62145996 618.95554321 347.62145996 618.27554321 347.62145996 C618.00741821 348.20411621 617.73929321 348.78677246 617.46304321 349.38708496 C616.26073331 351.64932597 614.93728409 353.42722314 613.27554321 355.37145996 C612.75991821 355.98505371 612.24429321 356.59864746 611.71304321 357.23083496 C610.27554321 358.62145996 610.27554321 358.62145996 608.27554321 358.62145996 C608.27554321 359.28145996 608.27554321 359.94145996 608.27554321 360.62145996 C602.30758114 366.25927945 595.42950026 370.66083074 588.27554321 374.62145996 C587.14245728 375.28468262 587.14245728 375.28468262 585.98648071 375.96130371 C578.51284171 380.07305494 570.54100375 381.81033864 562.27554321 383.62145996 C561.4750354 383.81739746 560.67452759 384.01333496 559.84976196 384.21520996 C539.49624703 387.42729729 518.69239326 382.23587989 501.27554321 371.62145996 C500.53046509 371.17415527 499.78538696 370.72685059 499.01773071 370.26599121 C493.6237575 366.96967425 493.6237575 366.96967425 491.27554321 364.62145996 C490.32679321 363.85833496 489.37804321 363.09520996 488.40054321 362.30895996 C485.61048319 360.00530265 483.49591758 357.48645914 481.27554321 354.62145996 C480.51241821 353.89185059 479.74929321 353.16224121 478.96304321 352.41052246 C475.97638179 349.31099302 473.68199172 346.08910546 471.33804321 342.49645996 C470.90636841 341.84064941 470.4746936 341.18483887 470.02993774 340.50915527 C460.27554321 325.52541268 460.27554321 325.52541268 460.27554321 320.62145996 C459.61554321 320.62145996 458.95554321 320.62145996 458.27554321 320.62145996 C458.06929321 319.83770996 457.86304321 319.05395996 457.65054321 318.24645996 C456.4820034 315.1657641 455.27004743 312.87789148 453.53726196 310.11755371 C450.18635732 304.60717718 447.42787773 298.90301885 444.71304321 293.05895996 C441.75354023 286.71716786 438.75976731 280.49914576 435.1781311 274.4810791 C434.27554321 272.62145996 434.27554321 272.62145996 434.27554321 269.62145996 C433.61554321 269.29145996 432.95554321 268.96145996 432.27554321 268.62145996 C428.27554321 262.38616584 428.27554321 262.38616584 428.27554321 257.62145996 C427.61554321 257.62145996 426.95554321 257.62145996 426.27554321 257.62145996 C425.68773071 256.19833496 425.68773071 256.19833496 425.08804321 254.74645996 C421.56255751 246.24596552 421.56255751 246.24596552 416.61929321 238.57067871 C415.27554321 236.62145996 415.27554321 236.62145996 415.27554321 232.62145996 C414.61554321 232.29145996 413.95554321 231.96145996 413.27554321 231.62145996 C411.99604863 229.27957961 410.80566549 226.96005985 409.65054321 224.55895996 C409.06657063 223.35692379 408.48211433 222.15512255 407.89727783 220.95350647 C407.36210541 219.85393112 406.82693298 218.75435577 406.27554321 217.62145996 C391.73220431 216.84741177 377.23445389 216.46818575 362.67178345 216.46032715 C360.61756302 216.45568132 358.56334342 216.45065441 356.50912476 216.44528198 C351.00820144 216.43234938 345.50729018 216.42575449 340.00635409 216.42127132 C336.56320016 216.418317 333.12004937 216.41420868 329.67689705 216.40976715 C318.88237859 216.39616008 308.08786752 216.38645322 297.2933411 216.38256526 C284.86564274 216.37806216 272.43805312 216.36038239 260.01038784 216.33156466 C250.36663159 216.30998083 240.72290609 216.29986321 231.07912594 216.29852414 C225.33194291 216.29747633 219.58486308 216.29156977 213.83770561 216.27370453 C208.45059155 216.25727496 203.06365907 216.25504331 197.67652893 216.26384354 C195.69999773 216.26461591 193.72345691 216.26024499 191.74695015 216.25038528 C189.05215622 216.23772745 186.35801218 216.24350812 183.66322327 216.25396729 C182.87958591 216.24591088 182.09594856 216.23785448 181.28856462 216.22955394 C176.76880842 216.27066902 173.91632512 216.8997108 170.27554321 219.62145996 C170.82704556 224.55476176 172.43765089 228.46068853 174.71304321 232.80895996 C175.23342163 233.82542603 175.23342163 233.82542603 175.76431274 234.86242676 C176.92497193 237.12062694 178.09928514 239.37134856 179.27554321 241.62145996 C179.71237427 242.46225098 180.14920532 243.30304199 180.59927368 244.16931152 C182.77946856 248.3637403 184.9680779 252.55377055 187.17398071 256.73474121 C187.53153442 257.41319092 187.88908813 258.09164063 188.25747681 258.79064941 C189.18022313 260.45004383 190.22233557 262.0416485 191.27554321 263.62145996 C191.27554321 264.94145996 191.27554321 266.26145996 191.27554321 267.62145996 C191.93554321 267.62145996 192.59554321 267.62145996 193.27554321 267.62145996 C193.55639771 268.3528418 193.8372522 269.08422363 194.12661743 269.83776855 C195.17700361 272.38271187 196.34366855 274.74429859 197.65835571 277.16052246 C198.10308228 277.98810059 198.54780884 278.81567871 199.00601196 279.66833496 C199.94073838 281.3964006 200.8782705 283.12295136 201.81851196 284.84802246 C202.2606604 285.67302246 202.70280884 286.49802246 203.15835571 287.34802246 C203.56457153 288.09648437 203.97078735 288.84494629 204.38931274 289.61608887 C205.27554321 291.62145996 205.27554321 291.62145996 205.27554321 294.62145996 C205.93554321 294.62145996 206.59554321 294.62145996 207.27554321 294.62145996 C207.90396118 296.12192871 207.90396118 296.12192871 208.54507446 297.65270996 C210.21567107 301.54718444 212.05830646 305.33702392 213.96304321 309.12145996 C214.30464478 309.80490479 214.64624634 310.48834961 214.99819946 311.19250488 C216.80630001 314.78767197 218.65664906 318.3540606 220.57632446 321.89099121 C220.94475464 322.57032715 221.31318481 323.24966309 221.69277954 323.94958496 C222.4014895 325.24843379 223.11596118 326.54415936 223.83682251 327.83630371 C225.38014202 330.65801851 226.27554321 332.3495395 226.27554321 335.62145996 C226.93554321 335.62145996 227.59554321 335.62145996 228.27554321 335.62145996 C228.7950354 336.75583496 229.31452759 337.89020996 229.84976196 339.05895996 C234.42178349 349.24463174 234.42178349 349.24463174 240.17007446 358.78552246 C241.49961567 360.99359444 242.43053173 363.32074755 243.42129517 365.69519043 C245.20570596 369.71891182 247.43295864 373.52777094 249.57827759 377.36755371 C252.27554321 382.30169825 252.27554321 382.30169825 252.27554321 385.62145996 C252.93554321 385.62145996 253.59554321 385.62145996 254.27554321 385.62145996 C254.60554321 387.60145996 254.93554321 389.58145996 255.27554321 391.62145996 C255.93554321 391.62145996 256.59554321 391.62145996 257.27554321 391.62145996 C257.68417603 392.78677246 258.09280884 393.95208496 258.51382446 395.15270996 C260.11128858 399.40762902 262.16319238 403.21265795 264.46304321 407.12145996 C268.72598487 414.52611679 272.59633997 422.07955793 276.3565979 429.74914551 C279.5840943 436.3250408 282.95101132 442.80601008 286.45132446 449.24060059 C287.83372194 451.80677522 289.16274993 454.32947089 290.21401978 457.05090332 C291.28704753 459.6493185 292.56710349 461.86283607 294.06460571 464.23864746 C297.32010174 469.574976 300.0122297 475.08510889 302.65054321 480.74645996 C303.60109197 482.76398785 304.5529236 484.7809118 305.50601196 486.79724121 C305.97055786 487.7803125 306.43510376 488.76338379 306.91372681 489.77624512 C309.19066723 494.53340964 311.57222547 499.23763855 313.98989868 503.92468262 C316.27554321 508.41006339 316.27554321 508.41006339 316.27554321 510.62145996 C316.93554321 510.62145996 317.59554321 510.62145996 318.27554321 510.62145996 C318.7228479 511.5998584 319.17015259 512.57825684 319.63101196 513.58630371 C322.66264108 520.17234356 325.6795273 526.66794159 329.42788696 532.88708496 C330.27554321 534.62145996 330.27554321 534.62145996 330.27554321 537.62145996 C330.93554321 537.62145996 331.59554321 537.62145996 332.27554321 537.62145996 C332.55752563 538.22095459 332.83950806 538.82044922 333.1300354 539.43811035 C334.42559516 542.18812428 335.72553383 544.93604687 337.02554321 547.68395996 C337.46898071 548.62690918 337.91241821 549.5698584 338.36929321 550.54138184 C340.31920948 554.65627867 342.26933766 558.70538862 344.60366821 562.61755371 C346.27554321 565.62145996 346.27554321 565.62145996 346.27554321 568.62145996 C346.93554321 568.95145996 347.59554321 569.28145996 348.27554321 569.62145996 C348.27554321 570.61145996 348.27554321 571.60145996 348.27554321 572.62145996 C348.93554321 572.95145996 349.59554321 573.28145996 350.27554321 573.62145996 C351.38283776 575.54344791 352.41428304 577.50964599 353.40054321 579.49645996 C353.93937134 580.56638184 354.47819946 581.63630371 355.03335571 582.73864746 C356.27554321 585.62145996 356.27554321 585.62145996 356.27554321 588.62145996 C356.93554321 588.62145996 357.59554321 588.62145996 358.27554321 588.62145996 C358.81823853 589.79063965 359.36093384 590.95981934 359.92007446 592.16442871 C360.64258815 593.71267233 361.36525235 595.26084572 362.08804321 596.80895996 C362.44446899 597.57788574 362.80089478 598.34681152 363.16812134 599.13903809 C365.02368087 603.10550938 366.95670047 606.89945386 369.27554321 610.62145996 C370.02309379 611.98655232 370.75400099 613.36097515 371.46304321 614.74645996 C371.8072229 615.40903809 372.15140259 616.07161621 372.50601196 616.75427246 C373.27554321 618.62145996 373.27554321 618.62145996 373.27554321 621.62145996 C373.93554321 621.62145996 374.59554321 621.62145996 375.27554321 621.62145996 C375.53246948 622.17084229 375.78939575 622.72022461 376.05410767 623.28625488 C377.2293236 625.79512797 378.40864396 628.30205086 379.58804321 630.80895996 C379.99216431 631.67327637 380.3962854 632.53759277 380.81265259 633.42810059 C382.79341118 637.63117369 384.84520261 641.65721586 387.27554321 645.62145996 C388.48165334 647.98911264 389.66787485 650.36128806 390.83804321 652.74645996 C393.96580887 659.06053037 397.18026434 665.3240862 400.46304321 671.55895996 C400.86660034 672.32675781 401.27015747 673.09455566 401.6859436 673.88562012 C402.08031616 674.6324707 402.47468872 675.37932129 402.88101196 676.14880371 C403.26821411 676.88211914 403.65541626 677.61543457 404.05435181 678.37097168 C404.90766059 679.94350274 405.78794615 681.50156026 406.68814087 683.04772949 C407.14624146 683.83647461 407.60434204 684.62521973 408.07632446 685.43786621 C408.49696167 686.14499756 408.91759888 686.85212891 409.35098267 687.58068848 C410.27554321 689.62145996 410.27554321 689.62145996 410.27554321 693.62145996 C410.93554321 693.62145996 411.59554321 693.62145996 412.27554321 693.62145996 C412.68417603 694.61661621 413.09280884 695.61177246 413.51382446 696.63708496 C415.54906933 701.38957914 418.05906381 705.85855813 420.57827759 710.36755371 C423.27554321 715.30169825 423.27554321 715.30169825 423.27554321 718.62145996 C423.93554321 718.95145996 424.59554321 719.28145996 425.27554321 719.62145996 C426.63462718 722.14547304 427.91229421 724.66408937 429.15054321 727.24645996 C429.83339647 728.65630527 430.5182815 730.06516837 431.20523071 731.47302246 C431.54264282 732.16557129 431.88005493 732.85812012 432.22769165 733.57165527 C433.2569419 735.58507212 434.37444081 737.51634263 435.53335571 739.45739746 C437.27554321 742.62145996 437.27554321 742.62145996 437.27554321 745.62145996 C437.93554321 745.62145996 438.59554321 745.62145996 439.27554321 745.62145996 C439.44827759 746.13450684 439.62101196 746.64755371 439.79898071 747.17614746 C442.3154271 754.0328867 445.75804338 760.19459306 449.35464478 766.52233887 C452.27823228 771.7097284 454.92807701 776.95567 457.40054321 782.37145996 C459.79938508 787.62117771 462.35364671 792.64172974 465.27554321 797.62145996 C468.63346871 803.34698527 471.49544405 809.18702506 474.26675415 815.21496582 C477.09130618 821.3258022 480.19776393 827.2451257 483.41616821 833.15661621 C485.07176132 836.24172354 486.64804861 839.35053227 488.20425415 842.48596191 C490.17438919 846.4132115 492.22797653 850.29668565 494.27554321 854.18395996 C494.70093384 854.9954248 495.12632446 855.80688965 495.56460571 856.64294434 C497.49313355 860.30773879 499.44283488 863.95066414 501.50991821 867.53942871 C503.68039462 871.32815854 505.27554321 874.22671338 505.27554321 878.62145996 C505.93554321 878.62145996 506.59554321 878.62145996 507.27554321 878.62145996 C508.44961342 880.8887333 509.6149406 883.1598062 510.77554321 885.43395996 C511.27634399 886.39785645 511.27634399 886.39785645 511.78726196 887.38122559 C513.27793406 890.31693695 514.27554321 892.28272513 514.27554321 895.62145996 C514.93554321 895.62145996 515.59554321 895.62145996 516.27554321 895.62145996 C516.60554321 897.60145996 516.93554321 899.58145996 517.27554321 901.62145996 C517.93554321 901.62145996 518.59554321 901.62145996 519.27554321 901.62145996 C519.76023071 902.66302246 520.24491821 903.70458496 520.74429321 904.77770996 C527.21105011 918.62876009 533.78605592 932.33718349 541.51382446 945.53552246 C546.27554321 953.87644887 546.27554321 953.87644887 546.27554321 957.62145996 C546.93554321 957.62145996 547.59554321 957.62145996 548.27554321 957.62145996 C548.46116821 959.07552246 548.46116821 959.07552246 548.65054321 960.55895996 C548.85679321 961.56958496 549.06304321 962.58020996 549.27554321 963.62145996 C549.93554321 963.95145996 550.59554321 964.28145996 551.27554321 964.62145996 C552.63746064 967.12420432 553.91361211 969.62043175 555.15054321 972.18395996 C555.48956665 972.87554199 555.82859009 973.56712402 556.17788696 974.27966309 C556.86809303 975.68763097 557.55646167 977.09650095 558.24307251 978.50622559 C561.11979731 984.39980413 564.10157818 990.22359201 567.21304321 995.99645996 C576.27554321 1012.92512526 576.27554321 1012.92512526 576.27554321 1015.62145996 C579.57446219 1016.72109962 581.9954862 1016.74567333 585.46996593 1016.74450779 C586.77524563 1016.74649884 588.08052533 1016.74848989 589.42535895 1016.75054127 C590.88251589 1016.74768802 592.33967264 1016.74474242 593.79682922 1016.74171448 C595.33796911 1016.74215029 596.87910892 1016.74302537 598.42024833 1016.74430364 C602.66626673 1016.74654671 606.91226005 1016.74252987 611.15827525 1016.73752558 C615.73290738 1016.73321858 620.30753804 1016.73466768 624.88217163 1016.73542786 C632.81172205 1016.73595293 640.74126425 1016.73280783 648.67081261 1016.72719002 C660.13569561 1016.71907281 671.60057462 1016.71645957 683.06546018 1016.71520203 C701.66519389 1016.71301186 720.26492321 1016.70635271 738.86465454 1016.69689941 C756.93561786 1016.6877244 775.00657999 1016.680644 793.07754517 1016.6763916 C794.19090635 1016.67612888 795.30426753 1016.67586615 796.45136692 1016.67559547 C802.03661359 1016.67429046 807.62186027 1016.67302674 813.20710695 1016.67178357 C859.5632554 1016.66141204 905.91939908 1016.64379466 952.27554321 1016.62145996 C952.27554321 1015.30145996 952.27554321 1013.98145996 952.27554321 1012.62145996 C952.93554321 1012.62145996 953.59554321 1012.62145996 954.27554321 1012.62145996 C954.35675415 1011.96790527 954.43796509 1011.31435059 954.52163696 1010.64099121 C955.54534414 1006.54085832 957.40293307 1003.04883603 959.33804321 999.30895996 C959.71509399 998.56839355 960.09214478 997.82782715 960.48062134 997.06481934 C961.40682478 995.24758474 962.3404495 993.43413592 963.27554321 991.62145996 C963.93554321 991.62145996 964.59554321 991.62145996 965.27554321 991.62145996 C965.38898071 990.90474121 965.50241821 990.18802246 965.61929321 989.44958496 C966.31768543 986.43984709 967.3635569 984.1169889 968.77554321 981.37145996 C969.30792603 980.33118652 969.84030884 979.29091309 970.38882446 978.21911621 C971.76924375 975.57424782 973.1671086 972.93885573 974.56851196 970.30505371 C975.16212524 969.18888672 975.16212524 969.18888672 975.76773071 968.0501709 C976.54683827 966.58934422 977.32923427 965.13026517 978.11538696 963.67321777 C980.40437121 959.39950686 982.42936487 955.10503595 984.27554321 950.62145996 C984.93554321 950.62145996 985.59554321 950.62145996 986.27554321 950.62145996 C986.31679321 949.83770996 986.35804321 949.05395996 986.40054321 948.24645996 C987.43155848 943.97511098 989.31812832 941.05659664 991.64273071 937.36755371 C994.256798 932.97116782 996.25888943 928.31508779 998.27554321 923.62145996 C998.93554321 923.62145996 999.59554321 923.62145996 1000.27554321 923.62145996 C1000.38124634 922.74618652 1000.48694946 921.87091309 1000.59585571 920.96911621 C1001.30193555 917.4914701 1002.39652249 915.12631461 1004.15054321 912.05895996 C1004.66359009 911.1501709 1005.17663696 910.24138184 1005.70523071 909.30505371 C1006.76083946 907.50106562 1007.83547773 905.7080916 1008.92788696 903.92614746 C1010.18610465 901.77441286 1010.82486311 900.0551325 1011.27554321 897.62145996 C1011.93554321 897.62145996 1012.59554321 897.62145996 1013.27554321 897.62145996 C1014.26554321 894.65145996 1015.25554321 891.68145996 1016.27554321 888.62145996 C1016.93554321 888.62145996 1017.59554321 888.62145996 1018.27554321 888.62145996 C1018.33741821 887.81708496 1018.39929321 887.01270996 1018.46304321 886.18395996 C1019.36148881 882.24462159 1020.88555384 879.41677939 1022.92398071 875.96520996 C1024.49637097 873.23852166 1025.87344726 870.43949973 1027.27554321 867.62145996 C1028.57266953 865.15486102 1029.89347084 862.70110806 1031.21304321 860.24645996 C1033.98223004 855.07542099 1036.69034139 849.88761182 1039.27554321 844.62145996 C1039.83241821 843.52833496 1040.38929321 842.43520996 1040.96304321 841.30895996 C1042.34919695 838.62077161 1042.34919695 838.62077161 1043.27554321 835.62145996 C1043.93554321 835.62145996 1044.59554321 835.62145996 1045.27554321 835.62145996 C1045.60554321 833.64145996 1045.93554321 831.66145996 1046.27554321 829.62145996 C1046.93554321 829.62145996 1047.59554321 829.62145996 1048.27554321 829.62145996 C1048.38769165 828.62565918 1048.38769165 828.62565918 1048.50210571 827.60974121 C1049.5463901 823.57500608 1051.53170961 820.37275763 1053.65054321 816.80895996 C1056.41675276 812.14655838 1058.71856957 807.66073475 1060.52896118 802.54797363 C1061.74654272 799.40607175 1063.44411715 796.58222836 1065.15054321 793.68395996 C1065.85797934 792.47195661 1066.56501039 791.25971673 1067.27163696 790.04724121 C1067.93292603 788.9167334 1068.59421509 787.78622559 1069.27554321 786.62145996 C1070.26084126 784.87490475 1071.24110401 783.12548435 1072.21304321 781.37145996 C1072.59331665 780.68567871 1072.97359009 779.99989746 1073.36538696 779.29333496 C1074.02505206 778.08158964 1074.65853677 776.85547285 1075.27554321 775.62145996 C1075.93554321 775.62145996 1076.59554321 775.62145996 1077.27554321 775.62145996 C1077.53464478 775.04524902 1077.79374634 774.46903809 1078.06069946 773.87536621 C1079.37153704 771.44336209 1080.87152155 769.61433575 1082.71304321 767.55895996 C1083.30987915 766.8873584 1083.90671509 766.21575684 1084.52163696 765.52380371 C1085.10042603 764.89603027 1085.67921509 764.26825684 1086.27554321 763.62145996 C1086.80276978 763.04524902 1087.32999634 762.46903809 1087.87319946 761.87536621 C1089.27554321 760.62145996 1089.27554321 760.62145996 1091.27554321 760.62145996 C1091.27554321 759.96145996 1091.27554321 759.30145996 1091.27554321 758.62145996 C1091.93554321 758.62145996 1092.59554321 758.62145996 1093.27554321 758.62145996 C1093.27554321 757.96145996 1093.27554321 757.30145996 1093.27554321 756.62145996 C1095.63816555 754.83537691 1097.99303305 753.18342246 1100.46304321 751.55895996 C1101.13657837 751.09940918 1101.81011353 750.6398584 1102.50405884 750.16638184 C1106.05173231 747.80934219 1108.93050508 746.03487136 1113.27554321 745.62145996 C1113.27554321 744.96145996 1113.27554321 744.30145996 1113.27554321 743.62145996 C1126.83944919 737.71823178 1138.97950586 736.46631397 1153.58804321 736.37145996 C1154.69752319 736.36203369 1155.80700317 736.35260742 1156.95010376 736.34289551 C1165.96081105 736.378757 1173.27615538 737.35511979 1181.27554321 741.62145996 C1183.26422035 742.32117969 1185.26162373 742.99810393 1187.27554321 743.62145996 C1187.27554321 744.28145996 1187.27554321 744.94145996 1187.27554321 745.62145996 C1187.81694946 745.7232959 1188.35835571 745.82513184 1188.91616821 745.93005371 C1191.88150902 746.79903603 1194.33079268 748.17618288 1197.02554321 749.68395996 C1198.50280884 750.5057373 1198.50280884 750.5057373 1200.00991821 751.34411621 C1200.75757446 751.76563965 1201.50523071 752.18716309 1202.27554321 752.62145996 C1202.27554321 753.28145996 1202.27554321 753.94145996 1202.27554321 754.62145996 C1203.26554321 754.62145996 1204.25554321 754.62145996 1205.27554321 754.62145996 C1205.27554321 755.28145996 1205.27554321 755.94145996 1205.27554321 756.62145996 C1206.13792603 756.99851074 1206.13792603 756.99851074 1207.01773071 757.38317871 C1220.21794999 764.62274534 1229.38211621 781.35822457 1235.38052368 794.64245605 C1235.9580377 795.91941422 1236.547404 797.19110913 1237.15103149 798.45593262 C1247.21295078 819.58306342 1249.21575699 850.04458151 1242.37710571 872.58239746 C1242.01359009 873.58528809 1241.65007446 874.58817871 1241.27554321 875.62145996 C1240.84086083 876.93838158 1240.40874826 878.25615313 1239.97866821 879.57458496 C1237.54984608 886.82580238 1235.11275346 893.46416132 1230.91226196 899.90270996 C1228.73429484 903.52052646 1226.98529997 907.29206032 1225.21304321 911.12145996 C1224.87208618 911.85622559 1224.53112915 912.59099121 1224.17984009 913.34802246 C1223.51647819 914.77996033 1222.85385738 916.2122418 1222.19204712 917.64489746 C1220.95335182 920.31630853 1219.68996036 922.97416103 1218.40054321 925.62145996 C1218.03187134 926.38458496 1217.66319946 927.14770996 1217.28335571 927.93395996 C1216.27554321 929.62145996 1216.27554321 929.62145996 1214.27554321 930.62145996 C1213.57479089 932.60977347 1212.91336688 934.61207562 1212.27554321 936.62145996 C1211.43760863 938.43075819 1210.56050273 940.22229308 1209.65054321 941.99645996 C1207.79713704 945.62566663 1205.95765099 949.25833252 1204.17398071 952.92224121 C1203.81771606 953.64943359 1203.46145142 954.37662598 1203.09439087 955.12585449 C1202.38923086 956.56613334 1201.68828651 958.00848485 1200.99185181 959.45300293 C1198.50038089 964.50904112 1198.50038089 964.50904112 1196.27554321 965.62145996 C1195.90429321 966.83833496 1195.53304321 968.05520996 1195.15054321 969.30895996 C1193.52443426 974.57687541 1190.88796568 979.05492457 1188.05630493 983.74719238 C1186.314925 986.66054475 1184.82595331 989.24394345 1184.27554321 992.62145996 C1183.61554321 992.62145996 1182.95554321 992.62145996 1182.27554321 992.62145996 C1182.14405884 993.63659668 1182.14405884 993.63659668 1182.00991821 994.67224121 C1181.08487708 998.38716702 1179.37453398 1001.49182666 1177.52554321 1004.80895996 C1176.80055768 1006.13652452 1176.07660182 1007.4646519 1175.35366821 1008.79333496 C1174.99982056 1009.44108887 1174.6459729 1010.08884277 1174.28140259 1010.75622559 C1172.17676019 1014.65900906 1170.22448068 1018.63925601 1168.27554321 1022.62145996 C1167.61554321 1022.62145996 1166.95554321 1022.62145996 1166.27554321 1022.62145996 C1165.94554321 1024.93145996 1165.61554321 1027.24145996 1165.27554321 1029.62145996 C1164.61554321 1029.62145996 1163.95554321 1029.62145996 1163.27554321 1029.62145996 C1163.20335571 1030.2801709 1163.13116821 1030.93888184 1163.05679321 1031.61755371 C1161.98522019 1035.73775198 1159.93359014 1039.03933272 1157.77554321 1042.68395996 C1156.94819643 1044.08891263 1156.12512094 1045.49639125 1155.30679321 1046.90661621 C1154.94134399 1047.52415771 1154.57589478 1048.14169922 1154.19937134 1048.7779541 C1153.23219468 1050.70796228 1152.72010445 1052.51474011 1152.27554321 1054.62145996 C1151.61554321 1054.62145996 1150.95554321 1054.62145996 1150.27554321 1054.62145996 C1149.94554321 1056.60145996 1149.61554321 1058.58145996 1149.27554321 1060.62145996 C1148.61554321 1060.62145996 1147.95554321 1060.62145996 1147.27554321 1060.62145996 C1147.15179321 1061.36395996 1147.02804321 1062.10645996 1146.90054321 1062.87145996 C1145.96945645 1066.96824173 1143.90671219 1070.30573369 1141.83804321 1073.93395996 C1139.7038704 1077.7476889 1137.91266759 1081.57173124 1136.27554321 1085.62145996 C1135.61554321 1085.62145996 1134.95554321 1085.62145996 1134.27554321 1085.62145996 C1134.15308228 1086.18349121 1134.03062134 1086.74552246 1133.90444946 1087.32458496 C1133.22355632 1089.81132515 1132.28201997 1092.02660773 1131.21304321 1094.37145996 C1130.85081665 1095.17067871 1130.48859009 1095.96989746 1130.11538696 1096.79333496 C1129.69966431 1097.69825684 1129.69966431 1097.69825684 1129.27554321 1098.62145996 C1128.61554321 1098.62145996 1127.95554321 1098.62145996 1127.27554321 1098.62145996 C1127.12278931 1099.9092334 1127.12278931 1099.9092334 1126.96694946 1101.22302246 C1126.21756909 1104.90641751 1124.94931091 1107.67169204 1123.21304321 1110.99645996 C1122.66519165 1112.05606934 1122.11734009 1113.11567871 1121.55288696 1114.20739746 C1121.13136353 1115.00403809 1120.70984009 1115.80067871 1120.27554321 1116.62145996 C1119.61554321 1116.62145996 1118.95554321 1116.62145996 1118.27554321 1116.62145996 C1118.21366821 1117.44645996 1118.15179321 1118.27145996 1118.08804321 1119.12145996 C1117.25892706 1122.69303724 1115.87027916 1125.00393843 1113.86538696 1128.03161621 C1108.1429209 1137.35347124 1103.67809024 1147.63106479 1099.27554321 1157.62145996 C1098.61554321 1157.62145996 1097.95554321 1157.62145996 1097.27554321 1157.62145996 C1097.19433228 1158.27501465 1097.11312134 1158.92856934 1097.02944946 1159.60192871 C1096.00574229 1163.7020616 1094.14815335 1167.19408389 1092.21304321 1170.93395996 C1091.83599243 1171.67452637 1091.45894165 1172.41509277 1091.07046509 1173.17810059 C1090.14426165 1174.99533518 1089.21063692 1176.808784 1088.27554321 1178.62145996 C1087.61554321 1178.62145996 1086.95554321 1178.62145996 1086.27554321 1178.62145996 C1086.17241821 1179.50833496 1086.06929321 1180.39520996 1085.96304321 1181.30895996 C1085.25838415 1184.70413546 1084.32008661 1186.84088094 1082.27554321 1189.62145996 C1081.61554321 1189.62145996 1080.95554321 1189.62145996 1080.27554321 1189.62145996 C1080.15179321 1190.21958496 1080.02804321 1190.81770996 1079.90054321 1191.43395996 C1079.27554321 1193.62145996 1079.27554321 1193.62145996 1077.27554321 1196.62145996 C1076.61554321 1196.62145996 1075.95554321 1196.62145996 1075.27554321 1196.62145996 C1075.00355103 1197.20927246 1074.73155884 1197.79708496 1074.45132446 1198.40270996 C1071.63819406 1203.71120853 1067.18316571 1208.21338878 1062.27554321 1211.62145996 C1061.61554321 1211.62145996 1060.95554321 1211.62145996 1060.27554321 1211.62145996 C1060.27554321 1212.28145996 1060.27554321 1212.94145996 1060.27554321 1213.62145996 C1058.22866821 1215.27770996 1058.22866821 1215.27770996 1055.52554321 1217.12145996 C1054.64382446 1217.72989746 1053.76210571 1218.33833496 1052.85366821 1218.96520996 C1047.16233567 1222.62145996 1047.16233567 1222.62145996 1043.27554321 1222.62145996 C1043.27554321 1223.28145996 1043.27554321 1223.94145996 1043.27554321 1224.62145996 C1040.61049882 1225.5845101 1037.9436557 1226.54197712 1035.27554321 1227.49645996 C1034.53175415 1227.76587402 1033.78796509 1228.03528809 1033.02163696 1228.31286621 C1032.28042603 1228.57712402 1031.53921509 1228.84138184 1030.77554321 1229.11364746 C1030.10523071 1229.35454102 1029.43491821 1229.59543457 1028.74429321 1229.84362793 C1022.09892178 1231.9373931 1016.30174158 1232.91467543 1009.36540794 1232.87872887 C1008.49930096 1232.88223494 1007.63319398 1232.88574102 1006.74084133 1232.88935333 C1003.84254389 1232.8986472 1000.94444827 1232.89374918 998.04614258 1232.8888855 C995.94556599 1232.89262277 993.84499078 1232.89722461 991.74441779 1232.90261614 C985.97470259 1232.91485209 980.20504535 1232.91458496 974.43532014 1232.91222739 C968.21154019 1232.91181937 961.98777885 1232.922857 955.76400757 1232.93234253 C943.57091696 1232.94895712 931.37785273 1232.95447822 919.18475311 1232.95556729 C909.27277967 1232.95648681 899.3608125 1232.96060579 889.44884109 1232.96696854 C886.59436501 1232.96876367 883.73988891 1232.97054329 880.88541281 1232.97231829 C880.17575105 1232.97276039 879.46608928 1232.97320248 878.73492262 1232.97365798 C858.77549372 1232.985965 838.816067 1232.99385926 818.85663414 1232.99297142 C818.10425659 1232.99294026 817.35187905 1232.99290911 816.57670218 1232.992877 C812.76346014 1232.99271079 808.95021809 1232.99251271 805.13697605 1232.99230759 C804.3796723 1232.9922677 803.62236855 1232.99222781 802.84211621 1232.99218671 C801.31066297 1232.99210583 799.77920974 1232.99202224 798.24775651 1232.99193593 C774.42773 1232.99071077 750.60776046 1233.00571763 726.78775024 1233.03308105 C700.01656947 1233.0638221 673.24542613 1233.0810123 646.47422659 1233.07915461 C643.61786437 1233.07900535 640.76150215 1233.07890794 637.90513992 1233.07884598 C636.85020369 1233.07881101 636.85020369 1233.07881101 635.77395562 1233.07877535 C624.4703679 1233.07871387 613.16682975 1233.09146992 601.86325676 1233.10871051 C590.49609924 1233.12568907 579.12903369 1233.12728125 567.7618634 1233.11449187 C561.6072482 1233.10796321 555.4528121 1233.1078416 549.29821396 1233.12519836 C543.65883557 1233.14093831 538.01977813 1233.13805564 532.38040753 1233.1206301 C530.34541633 1233.11756227 528.31040111 1233.12118433 526.27543823 1233.13235025 C504.4378344 1233.2441929 484.67764164 1227.43264919 467.27554321 1213.62145996 C467.27554321 1212.96145996 467.27554321 1212.30145996 467.27554321 1211.62145996 C466.28554321 1211.62145996 465.29554321 1211.62145996 464.27554321 1211.62145996 C462.40054321 1209.93395996 462.40054321 1209.93395996 460.27554321 1207.62145996 C458.91429321 1206.32208496 458.91429321 1206.32208496 457.52554321 1204.99645996 C455.27554321 1202.62145996 455.27554321 1202.62145996 455.27554321 1200.62145996 C454.61554321 1200.62145996 453.95554321 1200.62145996 453.27554321 1200.62145996 C453.27554321 1199.96145996 453.27554321 1199.30145996 453.27554321 1198.62145996 C452.61554321 1198.62145996 451.95554321 1198.62145996 451.27554321 1198.62145996 C450.61554321 1196.97145996 449.95554321 1195.32145996 449.27554321 1193.62145996 C448.61554321 1193.62145996 447.95554321 1193.62145996 447.27554321 1193.62145996 C446.94554321 1192.30145996 446.61554321 1190.98145996 446.27554321 1189.62145996 C445.61554321 1189.62145996 444.95554321 1189.62145996 444.27554321 1189.62145996 C443.28801257 1187.89705631 442.31085515 1186.1667097 441.33804321 1184.43395996 C440.52013306 1182.98956543 440.52013306 1182.98956543 439.68569946 1181.51599121 C438.36974988 1178.81483154 437.70252435 1176.57789895 437.27554321 1173.62145996 C436.61554321 1173.62145996 435.95554321 1173.62145996 435.27554321 1173.62145996 C432.97114308 1169.32689608 431.49369759 1165.30666911 430.27554321 1160.62145996 C429.61554321 1160.62145996 428.95554321 1160.62145996 428.27554321 1160.62145996 C427.87593384 1159.47032715 427.47632446 1158.31919434 427.06460571 1157.13317871 C425.08826727 1151.86023344 422.28527088 1147.18350982 419.41616821 1142.35778809 C417.34001539 1138.78639276 415.74691244 1135.80689358 415.27554321 1131.62145996 C414.61554321 1131.62145996 413.95554321 1131.62145996 413.27554321 1131.62145996 C413.15179321 1130.65208496 413.02804321 1129.68270996 412.90054321 1128.68395996 C412.69429321 1127.67333496 412.48804321 1126.66270996 412.27554321 1125.62145996 C411.61554321 1125.29145996 410.95554321 1124.96145996 410.27554321 1124.62145996 C409.03865547 1122.36647358 407.88773782 1120.12409309 406.77554321 1117.80895996 C406.46745728 1117.17925293 406.15937134 1116.5495459 405.84194946 1115.90075684 C404.98242287 1114.14296963 404.12879642 1112.3823009 403.27554321 1110.62145996 C402.87335571 1109.87509277 402.47116821 1109.12872559 402.05679321 1108.35974121 C401.27554321 1106.62145996 401.27554321 1106.62145996 401.27554321 1103.62145996 C400.61554321 1103.62145996 399.95554321 1103.62145996 399.27554321 1103.62145996 C399.27554321 1102.63145996 399.27554321 1101.64145996 399.27554321 1100.62145996 C398.61554321 1100.29145996 397.95554321 1099.96145996 397.27554321 1099.62145996 C395.91362579 1097.1187156 394.63747432 1094.62248818 393.40054321 1092.05895996 C393.06151978 1091.36737793 392.72249634 1090.6757959 392.37319946 1089.96325684 C391.68623643 1088.56190449 391.0029857 1087.15872644 390.32339478 1085.75378418 C389.6083978 1084.29880199 388.87509225 1082.85270979 388.12612915 1081.41491699 C387.57747192 1080.35893311 387.57747192 1080.35893311 387.01773071 1079.28161621 C386.68370239 1078.65005615 386.34967407 1078.01849609 386.00552368 1077.36779785 C385.27554321 1075.62145996 385.27554321 1075.62145996 385.27554321 1072.62145996 C384.61554321 1072.29145996 383.95554321 1071.96145996 383.27554321 1071.62145996 C382.94554321 1070.63145996 382.61554321 1069.64145996 382.27554321 1068.62145996 C381.61554321 1067.96145996 380.95554321 1067.30145996 380.27554321 1066.62145996 C379.54689008 1064.9503324 378.8221686 1063.27725152 378.12759399 1061.5916748 C376.68992706 1058.26732748 374.94242494 1055.11358389 373.21304321 1051.93395996 C371.89736204 1049.49813923 370.58540818 1047.06042298 369.27554321 1044.62145996 C368.86433228 1043.87251465 368.45312134 1043.12356934 368.02944946 1042.35192871 C367.27554321 1040.62145996 367.27554321 1040.62145996 367.27554321 1037.62145996 C366.61554321 1037.62145996 365.95554321 1037.62145996 365.27554321 1037.62145996 C364.94554321 1035.97145996 364.61554321 1034.32145996 364.27554321 1032.62145996 C363.61554321 1032.62145996 362.95554321 1032.62145996 362.27554321 1032.62145996 C362.04480103 1032.00399902 361.81405884 1031.38653809 361.57632446 1030.75036621 C359.51248604 1025.39091227 357.19378718 1020.45264197 354.22866821 1015.53161621 C353.27554321 1013.62145996 353.27554321 1013.62145996 353.27554321 1010.62145996 C352.61554321 1010.62145996 351.95554321 1010.62145996 351.27554321 1010.62145996 C350.8462854 1009.60052246 350.41702759 1008.57958496 349.97476196 1007.52770996 C345.89537619 998.01789549 340.93521353 988.87584702 336.02871704 979.77185059 C335.10555176 978.05797316 334.19039465 976.33978962 333.27554321 974.62145996 C332.70319946 973.54895996 332.13085571 972.47645996 331.54116821 971.37145996 C330.27554321 968.62145996 330.27554321 968.62145996 330.27554321 965.62145996 C329.61554321 965.62145996 328.95554321 965.62145996 328.27554321 965.62145996 C327.60146013 964.35454489 326.93653825 963.08275248 326.27554321 961.80895996 C325.90429321 961.10126465 325.53304321 960.39356934 325.15054321 959.66442871 C324.27554321 957.62145996 324.27554321 957.62145996 324.27554321 954.62145996 C323.61554321 954.62145996 322.95554321 954.62145996 322.27554321 954.62145996 C322.06800415 954.03880371 321.86046509 953.45614746 321.64663696 952.85583496 C319.86212979 948.10710458 317.85888722 943.76525749 315.21304321 939.43395996 C311.03319595 932.50967735 307.66862246 925.22806758 304.27139282 917.89416504 C301.88288119 912.78519967 299.41525982 907.99507543 296.18032837 903.36657715 C295.27554321 901.62145996 295.27554321 901.62145996 295.27554321 897.62145996 C294.61554321 897.29145996 293.95554321 896.96145996 293.27554321 896.62145996 C292.65054321 894.55895996 292.65054321 894.55895996 292.27554321 892.62145996 C291.61554321 892.62145996 290.95554321 892.62145996 290.27554321 892.62145996 C289.43568238 890.68678054 288.60386295 888.74860867 287.77554321 886.80895996 C287.31148071 885.73001465 286.84741821 884.65106934 286.36929321 883.53942871 C285.27554321 880.62145996 285.27554321 880.62145996 285.27554321 877.62145996 C284.61554321 877.62145996 283.95554321 877.62145996 283.27554321 877.62145996 C281.0074956 873.40037135 278.74776971 869.17505211 276.50991821 864.93786621 C276.13061157 864.2205835 275.75130493 863.50330078 275.36050415 862.76428223 C273.88159358 859.84340057 272.59250643 856.85082798 271.28799438 853.84899902 C270.29825481 851.67142877 269.2192701 849.58154386 268.07632446 847.48083496 C267.66962524 846.7247998 267.26292603 845.96876465 266.84390259 845.18981934 C266.02181201 843.67221201 265.19389961 842.15774047 264.35952759 840.64685059 C262.37329801 836.98589117 260.76401813 833.82731175 260.27554321 829.62145996 C259.61554321 829.62145996 258.95554321 829.62145996 258.27554321 829.62145996 C257.82823853 828.65466309 257.38093384 827.68786621 256.92007446 826.69177246 C256.30973739 825.37651046 255.69903531 824.0614178 255.08804321 822.74645996 C254.77214233 822.06623779 254.45624146 821.38601563 254.13076782 820.68518066 C251.8960325 815.89500768 249.56556732 811.1653326 247.12319946 806.47692871 C246.27554321 804.62145996 246.27554321 804.62145996 246.27554321 802.62145996 C245.61554321 802.62145996 244.95554321 802.62145996 244.27554321 802.62145996 C243.90042603 801.62565918 243.90042603 801.62565918 243.51773071 800.60974121 C241.98239235 796.91623856 240.20605836 793.37636257 238.40054321 789.80895996 C236.34585571 785.72692871 236.34585571 785.72692871 235.32339478 783.6932373 C234.59747147 782.25796583 233.86456404 780.82621352 233.12612915 779.39733887 C232.76035767 778.68368164 232.39458618 777.97002441 232.01773071 777.23474121 C231.68370239 776.58932373 231.34967407 775.94390625 231.00552368 775.27893066 C230.27554321 773.62145996 230.27554321 773.62145996 230.27554321 771.62145996 C229.61554321 771.29145996 228.95554321 770.96145996 228.27554321 770.62145996 C228.27554321 769.63145996 228.27554321 768.64145996 228.27554321 767.62145996 C227.61554321 767.29145996 226.95554321 766.96145996 226.27554321 766.62145996 C225.36172485 765.0267334 225.36172485 765.0267334 224.43569946 762.98083496 C224.09474243 762.23962402 223.7537854 761.49841309 223.40249634 760.73474121 C223.05122681 759.9548584 222.69995728 759.17497559 222.33804321 758.37145996 C220.182874 753.629288 218.02357914 749.05612111 215.27554321 744.62145996 C214.03348167 742.33562607 212.80377533 740.04615219 211.58804321 737.74645996 C210.87469775 736.40000183 210.16115061 735.05365053 209.44741821 733.70739746 C209.08583618 733.02516113 208.72425415 732.3429248 208.35171509 731.64001465 C207.34159018 729.74534297 206.3193164 727.85796081 205.29116821 725.97302246 C201.04351204 718.1561036 197.12066283 710.23417185 193.4203186 702.14196777 C191.35533506 697.67831372 189.05355943 693.69706336 186.27554321 689.62145996 C185.26382446 687.42614746 185.26382446 687.42614746 184.58804321 685.49645996 C184.35730103 684.85450684 184.12655884 684.21255371 183.88882446 683.55114746 C183.26554801 681.59001009 182.75147077 679.62302445 182.27554321 677.62145996 C181.61554321 677.62145996 180.95554321 677.62145996 180.27554321 677.62145996 C179.01889343 674.71545735 178.27554321 672.82541412 178.27554321 669.62145996 C177.61554321 669.62145996 176.95554321 669.62145996 176.27554321 669.62145996 C175.10147301 667.35418663 173.93614582 665.08311372 172.77554321 662.80895996 C172.27474243 661.84506348 172.27474243 661.84506348 171.76382446 660.86169434 C170.27315237 657.92598297 169.27554321 655.96019479 169.27554321 652.62145996 C168.61554321 652.62145996 167.95554321 652.62145996 167.27554321 652.62145996 C166.85530884 651.61599121 166.43507446 650.61052246 166.00210571 649.57458496 C164.36748222 645.75982321 162.5378999 642.0662006 160.65054321 638.37145996 C157.40947178 632.02324568 157.40947178 632.02324568 156.27554321 628.62145996 C155.50210571 627.90989746 155.50210571 627.90989746 154.71304321 627.18395996 C153.27554321 625.62145996 153.27554321 625.62145996 153.27554321 621.62145996 C152.61554321 621.62145996 151.95554321 621.62145996 151.27554321 621.62145996 C150.94554321 619.64145996 150.61554321 617.66145996 150.27554321 615.62145996 C149.61554321 615.62145996 148.95554321 615.62145996 148.27554321 615.62145996 C143.86779834 606.21143718 143.86779834 606.21143718 143.27554321 601.62145996 C142.61554321 601.62145996 141.95554321 601.62145996 141.27554321 601.62145996 C138.97114308 597.32689608 137.49369759 593.30666911 136.27554321 588.62145996 C135.61554321 588.62145996 134.95554321 588.62145996 134.27554321 588.62145996 C134.06800415 588.05040527 133.86046509 587.47935059 133.64663696 586.89099121 C131.1798535 580.39891256 128.09204798 574.44508916 124.66616821 568.40661621 C123.27554321 565.62145996 123.27554321 565.62145996 123.27554321 562.62145996 C122.61554321 562.62145996 121.95554321 562.62145996 121.27554321 562.62145996 C121.27554321 561.63145996 121.27554321 560.64145996 121.27554321 559.62145996 C120.61554321 559.62145996 119.95554321 559.62145996 119.27554321 559.62145996 C119.08991821 558.16739746 119.08991821 558.16739746 118.90054321 556.68395996 C118.69429321 555.67333496 118.48804321 554.66270996 118.27554321 553.62145996 C117.61554321 553.29145996 116.95554321 552.96145996 116.27554321 552.62145996 C115.32998657 550.99499512 115.32998657 550.99499512 114.36538696 548.91052246 C114.01540649 548.16028809 113.66542603 547.41005371 113.30484009 546.63708496 C112.94454712 545.84817871 112.58425415 545.05927246 112.21304321 544.24645996 C111.84888306 543.46528809 111.4847229 542.68411621 111.10952759 541.87927246 C109.68801475 538.81027616 108.34629338 535.83371047 107.27554321 532.62145996 C106.61554321 532.62145996 105.95554321 532.62145996 105.27554321 532.62145996 C105.04609009 531.8261084 104.81663696 531.03075684 104.58023071 530.21130371 C102.91599457 525.63216295 100.70013913 521.47139899 98.40054321 517.18395996 C97.96612915 516.36347168 97.53171509 515.5429834 97.08413696 514.69763184 C95.11948414 511.0013706 93.12254407 507.35512196 90.95523071 503.77380371 C89.27554321 500.62145996 89.27554321 500.62145996 89.27554321 496.62145996 C88.61554321 496.62145996 87.95554321 496.62145996 87.27554321 496.62145996 C86.10180149 494.18714358 84.93638558 491.74941814 83.77554321 489.30895996 C83.44167603 488.61866699 83.10780884 487.92837402 82.76382446 487.21716309 C80.27554321 481.96130371 80.27554321 481.96130371 80.27554321 478.62145996 C79.61554321 478.62145996 78.95554321 478.62145996 78.27554321 478.62145996 C77.79085571 477.6404834 77.30616821 476.65950684 76.80679321 475.64880371 C76.1302168 474.28527081 75.45309111 472.92201039 74.77554321 471.55895996 C74.42040649 470.84393311 74.06526978 470.12890625 73.69937134 469.39221191 C70.8343425 463.65900723 67.83806529 458.00526162 64.71499634 452.4083252 C63.17165936 449.58599039 62.27554321 447.89397885 62.27554321 444.62145996 C61.61554321 444.62145996 60.95554321 444.62145996 60.27554321 444.62145996 C60.00999634 443.93438965 59.74444946 443.24731934 59.47085571 442.53942871 C58.94105103 441.18784668 58.94105103 441.18784668 58.40054321 439.80895996 C57.8784729 438.46897949 57.8784729 438.46897949 57.34585571 437.10192871 C56.28722167 434.44434405 56.28722167 434.44434405 54.27554321 431.62145996 C54.27554321 430.63145996 54.27554321 429.64145996 54.27554321 428.62145996 C53.61554321 428.62145996 52.95554321 428.62145996 52.27554321 428.62145996 C51.79085571 427.65208496 51.30616821 426.68270996 50.80679321 425.68395996 C50.32629517 424.72332642 50.32629517 424.72332642 49.83609009 423.74328613 C49.12307075 422.31675504 48.41084395 420.88982756 47.69937134 419.46252441 C45.80551108 415.66606684 43.89882775 411.87720239 41.96304321 408.10192871 C41.59630493 407.3819873 41.22956665 406.6620459 40.85171509 405.92028809 C40.14429291 404.53240537 39.4321828 403.14690039 38.71499634 401.76403809 C37.23623507 398.85114617 36.27554321 396.93611253 36.27554321 393.62145996 C35.61554321 393.62145996 34.95554321 393.62145996 34.27554321 393.62145996 C33.93780884 392.87380371 33.60007446 392.12614746 33.25210571 391.35583496 C32.80609009 390.37099121 32.36007446 389.38614746 31.90054321 388.37145996 C31.45968384 387.39692871 31.01882446 386.42239746 30.56460571 385.41833496 C28.19788654 380.28327154 25.54352112 375.30557015 22.90054321 370.30895996 C22.51382446 369.57483887 22.12710571 368.84071777 21.72866821 368.08435059 C21.15245728 366.99477051 21.15245728 366.99477051 20.56460571 365.88317871 C20.1859436 365.16694336 19.80728149 364.45070801 19.41714478 363.71276855 C18.32643904 361.71469641 17.16531753 359.77538955 15.98648071 357.82849121 C14.27554321 354.62145996 14.27554321 354.62145996 14.27554321 350.62145996 C13.61554321 350.62145996 12.95554321 350.62145996 12.27554321 350.62145996 C11.89015381 349.79738647 11.89015381 349.79738647 11.49697876 348.95666504 C10.32176282 346.44779195 9.14244246 343.94086906 7.96304321 341.43395996 C7.55892212 340.56964355 7.15480103 339.70532715 6.73843384 338.81481934 C5.10133994 335.34098594 3.49095523 331.97297107 1.48257446 328.69567871 C0.27554321 326.62145996 0.27554321 326.62145996 0.27554321 323.62145996 C-0.38445679 323.62145996 -1.04445679 323.62145996 -1.72445679 323.62145996 C-2.13953491 322.6301709 -2.55461304 321.63888184 -2.98226929 320.61755371 C-4.71873744 316.56952685 -6.62919647 312.62259336 -8.59945679 308.68395996 C-9.12346069 307.63063477 -9.12346069 307.63063477 -9.65805054 306.55603027 C-11.51541949 302.86699396 -13.44828812 299.32473299 -15.72445679 295.87145996 C-17.72445679 292.62145996 -17.72445679 292.62145996 -17.72445679 288.62145996 C-18.38445679 288.62145996 -19.04445679 288.62145996 -19.72445679 288.62145996 C-20.10984619 287.79738647 -20.10984619 287.79738647 -20.50302124 286.95666504 C-21.67823718 284.44779195 -22.85755754 281.94086906 -24.03695679 279.43395996 C-24.44107788 278.56964355 -24.84519897 277.70532715 -25.26156616 276.81481934 C-26.89866006 273.34098594 -28.50904477 269.97297107 -30.51742554 266.69567871 C-31.72445679 264.62145996 -31.72445679 264.62145996 -31.72445679 261.62145996 C-32.38445679 261.29145996 -33.04445679 260.96145996 -33.72445679 260.62145996 C-33.72445679 259.63145996 -33.72445679 258.64145996 -33.72445679 257.62145996 C-34.38445679 257.62145996 -35.04445679 257.62145996 -35.72445679 257.62145996 C-36.13437866 256.62372559 -36.54430054 255.62599121 -36.96664429 254.59802246 C-38.975382 249.90782055 -41.44785149 245.49825006 -43.93930054 241.05114746 C-45.83220759 237.59145217 -47.22756294 234.55143857 -47.72445679 230.62145996 C-48.38445679 230.62145996 -49.04445679 230.62145996 -49.72445679 230.62145996 C-51.22266738 227.25048613 -51.72445679 225.41703877 -51.72445679 221.62145996 C-52.38445679 221.62145996 -53.04445679 221.62145996 -53.72445679 221.62145996 C-54.13437866 220.79903809 -54.54430054 219.97661621 -54.96664429 219.12927246 C-56.21382958 216.64044491 -57.46861696 214.15656111 -58.73226929 211.67614746 C-59.43805309 210.28294597 -60.14378145 208.88971639 -60.84945679 207.49645996 C-61.20910522 206.7939209 -61.56875366 206.09138184 -61.93930054 205.36755371 C-62.28348022 204.68563965 -62.62765991 204.00372559 -62.98226929 203.30114746 C-63.29309448 202.6899707 -63.60391968 202.07879395 -63.92416382 201.44909668 C-64.72445679 199.62145996 -64.72445679 199.62145996 -65.20834351 197.45397949 C-65.37866089 196.84924805 -65.54897827 196.2445166 -65.72445679 195.62145996 C-66.38445679 195.29145996 -67.04445679 194.96145996 -67.72445679 194.62145996 C-68.74641336 192.8228164 -69.69313813 190.98105679 -70.59945679 189.12145996 C-71.12797241 188.0373584 -71.65648804 186.95325684 -72.20101929 185.83630371 C-74.57576345 180.82498461 -76.90168628 175.81551466 -78.84945679 170.62145996 C-79.54840608 168.44274182 -79.54840608 168.44274182 -81.72445679 167.62145996 C-82.58383179 166.04724121 -82.58383179 166.04724121 -83.47445679 163.93395996 C-83.81992554 163.11927246 -84.16539429 162.30458496 -84.52133179 161.46520996 C-84.91836304 160.52677246 -85.31539429 159.58833496 -85.72445679 158.62145996 C-86.20398804 157.55927246 -86.68351929 156.49708496 -87.17758179 155.40270996 C-90.78630278 147.31042653 -93.63727333 139.23583531 -95.72445679 130.62145996 C-95.90323364 129.9714502 -96.0820105 129.32144043 -96.26620483 128.6517334 C-98.24681925 120.52459755 -98.06129291 112.28637354 -98.04013062 103.97351074 C-98.03698048 101.39088295 -98.06045678 98.80941482 -98.08578491 96.22692871 C-98.12196906 86.26876581 -97.35728897 77.28414333 -94.72445679 67.62145996 C-94.39445679 67.62145996 -94.06445679 67.62145996 -93.72445679 67.62145996 C-93.48662476 66.5869873 -93.48662476 66.5869873 -93.24398804 65.53161621 C-91.58554572 58.85203364 -89.29114965 53.473706 -85.72445679 47.62145996 C-85.31711304 46.85446777 -84.90976929 46.08747559 -84.49008179 45.29724121 C-78.72279857 34.76346805 -69.93466257 26.19429582 -60.72445679 18.62145996 C-60.39445679 17.96145996 -60.06445679 17.30145996 -59.72445679 16.62145996 C-58.73445679 16.62145996 -57.74445679 16.62145996 -56.72445679 16.62145996 C-56.72445679 15.96145996 -56.72445679 15.30145996 -56.72445679 14.62145996 C-54.72504956 13.6202753 -52.72492126 12.62053049 -50.72445679 11.62145996 C-49.78988647 11.14966309 -48.85531616 10.67786621 -47.89242554 10.19177246 C-31.90927192 2.44109508 -17.63366425 -0.12248426 0 0 Z " fill="#111117" transform="translate(97.72445678710938,0.3785400390625)"/>
<path d="M0 0 C2.02082301 -0.00461383 4.04164267 -0.01096997 6.06245536 -0.01890898 C11.59324719 -0.03555951 17.12376184 -0.02737523 22.65455449 -0.0149641 C28.62812023 -0.00589829 34.60163896 -0.01989107 40.57519531 -0.03088379 C51.59412581 -0.04763173 62.61297422 -0.04619549 73.63190788 -0.03523792 C83.81435474 -0.02516236 93.99676938 -0.02255507 104.1792202 -0.02732849 C104.85552838 -0.02763403 105.53183655 -0.02793957 106.22863891 -0.02825437 C108.97425873 -0.0294998 111.71987854 -0.03077341 114.46549832 -0.03209343 C140.20730611 -0.0443217 165.94905793 -0.03324861 191.69085707 -0.01170584 C214.53813129 0.00726926 237.3853163 0.00558261 260.23258972 -0.0135498 C285.92379251 -0.03499202 311.61494585 -0.04344791 337.30615634 -0.03110075 C340.04760689 -0.02981796 342.78905746 -0.0285666 345.53050804 -0.02732849 C346.20548243 -0.02701218 346.88045681 -0.02669587 347.57588497 -0.02636998 C357.74740954 -0.02182921 367.91889826 -0.02712427 378.09041786 -0.0372467 C389.66379029 -0.04870706 401.23706259 -0.04539202 412.81042317 -0.02412373 C418.71202708 -0.01363476 424.61345035 -0.00945478 430.5150528 -0.02272034 C435.92427116 -0.03469487 441.33314251 -0.02799835 446.74232968 -0.00681013 C448.69242339 -0.0023654 450.64254679 -0.00456202 452.59262118 -0.01431328 C478.99383731 -0.13613785 499.46949523 8.47022763 518.50871277 26.92199707 C531.07493151 39.42786578 531.07493151 39.42786578 532.05558777 45.50793457 C532.71558777 45.50793457 533.37558777 45.50793457 534.05558777 45.50793457 C549.4455903 75.7202756 557.13009895 109.18921841 547.05558777 142.57043457 C546.40206444 144.55397998 545.73590549 146.53341869 545.05558777 148.50793457 C544.38822597 150.50770273 543.72136271 152.50763755 543.05558777 154.50793457 C542.39558777 154.50793457 541.73558777 154.50793457 541.05558777 154.50793457 C540.97824402 155.33809082 540.90090027 156.16824707 540.82121277 157.02355957 C539.87441563 161.33245266 538.04500896 164.49766877 535.80558777 168.25793457 C534.98485785 169.67490876 534.16584184 171.09287706 533.34855652 172.51184082 C532.95329773 173.19520508 532.55803894 173.87856934 532.15080261 174.5826416 C529.03615484 180.057923 526.38765148 185.66405726 524.05558777 191.50793457 C523.40846205 192.93363341 522.74286997 194.35115382 522.05558777 195.75793457 C521.72558777 196.44371582 521.39558777 197.12949707 521.05558777 197.83605957 C520.05558777 199.50793457 520.05558777 199.50793457 518.05558777 200.50793457 C517.37319422 202.50262339 516.71188293 204.50450723 516.05558777 206.50793457 C514.44716409 210.20172775 512.75783322 213.85655311 511.05558777 217.50793457 C510.39558777 217.50793457 509.73558777 217.50793457 509.05558777 217.50793457 C508.99371277 218.31230957 508.93183777 219.11668457 508.86808777 219.94543457 C507.97343895 223.86812554 506.47700578 226.61360475 504.45793152 230.05480957 C502.51015626 233.46205989 500.8485602 236.99377779 499.16886902 240.53918457 C498.05558777 242.50793457 498.05558777 242.50793457 496.05558777 243.50793457 C495.40003658 246.03526692 495.40003658 246.03526692 495.05558777 248.50793457 C494.39558777 248.50793457 493.73558777 248.50793457 493.05558777 248.50793457 C493.05558777 249.82793457 493.05558777 251.14793457 493.05558777 252.50793457 C492.39558777 252.50793457 491.73558777 252.50793457 491.05558777 252.50793457 C490.93183777 253.22980957 490.80808777 253.95168457 490.68058777 254.69543457 C490.06509467 257.46515351 489.17114403 259.90496997 488.05558777 262.50793457 C487.39558777 262.50793457 486.73558777 262.50793457 486.05558777 262.50793457 C485.78746277 263.37418457 485.51933777 264.24043457 485.24308777 265.13293457 C484.08195439 268.43299786 482.64458625 271.39614588 481.05558777 274.50793457 C480.37030732 276.16703461 479.69666914 277.83126021 479.05558777 279.50793457 C478.39558777 279.50793457 477.73558777 279.50793457 477.05558777 279.50793457 C476.90090027 280.80730957 476.90090027 280.80730957 476.74308777 282.13293457 C476.02160363 285.6747658 474.78435516 288.35105499 473.05558777 291.50793457 C472.39558777 291.50793457 471.73558777 291.50793457 471.05558777 291.50793457 C470.93183777 292.46699707 470.93183777 292.46699707 470.80558777 293.44543457 C469.76038405 297.71334974 467.9146695 301.53901124 466.05558777 305.50793457 C465.39558777 305.50793457 464.73558777 305.50793457 464.05558777 305.50793457 C463.93183777 306.25043457 463.80808777 306.99293457 463.68058777 307.75793457 C463.10072076 310.30934942 462.31850038 312.23469187 461.05558777 314.50793457 C460.39558777 314.50793457 459.73558777 314.50793457 459.05558777 314.50793457 C459.01433777 315.29168457 458.97308777 316.07543457 458.93058777 316.88293457 C457.87542744 321.25431307 455.86808477 324.31729184 453.48918152 328.09387207 C451.88101033 330.80190966 450.85656246 333.46423073 450.05558777 336.50793457 C449.39558777 336.50793457 448.73558777 336.50793457 448.05558777 336.50793457 C447.93554382 337.2422168 447.81549988 337.97649902 447.69181824 338.73303223 C447.06505269 341.46665358 446.21039609 343.45371152 444.87590027 345.90637207 C444.44148621 346.71590332 444.00707214 347.52543457 443.55949402 348.35949707 C443.10445496 349.19223145 442.64941589 350.02496582 442.18058777 350.88293457 C439.21892514 356.34536709 436.39936602 361.74938007 434.05558777 367.50793457 C433.39558777 367.50793457 432.73558777 367.50793457 432.05558777 367.50793457 C431.98468933 368.1498877 431.91379089 368.79184082 431.84074402 369.45324707 C430.72395376 373.79817237 428.62512575 377.45475183 426.49308777 381.38293457 C425.82080139 382.64061646 425.82080139 382.64061646 425.13493347 383.92370605 C423.78082781 386.45487713 422.41867525 388.98159186 421.05558777 391.50793457 C419.61523657 394.19391394 418.17847217 396.88179809 416.74308777 399.57043457 C416.25654724 400.48151978 416.25654724 400.48151978 415.76017761 401.41101074 C410.5096443 410.59891796 410.5096443 410.59891796 407.05558777 420.50793457 C406.39558777 420.50793457 405.73558777 420.50793457 405.05558777 420.50793457 C404.80164246 421.34324707 404.54769714 422.17855957 404.28605652 423.03918457 C402.93059648 426.86029095 401.21369216 430.40847668 399.36808777 434.00793457 C398.65576669 435.41414329 397.94352889 436.8203942 397.23136902 438.22668457 C396.69117126 439.28822754 396.69117126 439.28822754 396.14006042 440.37121582 C394.42919183 443.74211225 392.7429812 447.12524423 391.05558777 450.50793457 C390.05558777 452.50793457 389.05558777 454.50793457 388.05558777 456.50793457 C387.39558777 456.50793457 386.73558777 456.50793457 386.05558777 456.50793457 C385.76683777 457.43605957 385.47808777 458.36418457 385.18058777 459.32043457 C384.05558777 462.50793457 384.05558777 462.50793457 382.05558777 465.50793457 C381.39558777 465.50793457 380.73558777 465.50793457 380.05558777 465.50793457 C379.72558777 466.82793457 379.39558777 468.14793457 379.05558777 469.50793457 C378.39558777 469.50793457 377.73558777 469.50793457 377.05558777 469.50793457 C377.05558777 470.16793457 377.05558777 470.82793457 377.05558777 471.50793457 C376.39558777 471.50793457 375.73558777 471.50793457 375.05558777 471.50793457 C374.80808777 472.06480957 374.56058777 472.62168457 374.30558777 473.19543457 C372.81688248 475.94953936 371.17148805 478.19967971 369.05558777 480.50793457 C368.06558777 480.50793457 367.07558777 480.50793457 366.05558777 480.50793457 C365.85191589 481.07512207 365.64824402 481.64230957 365.43840027 482.22668457 C363.5480199 485.34527817 360.91008117 487.03027224 357.93058777 489.00793457 C357.04391418 489.60493164 357.04391418 489.60493164 356.139328 490.21398926 C337.34319937 502.70184577 315.51103691 507.09056637 293.23136902 503.97277832 C290.11324107 503.28445816 287.10248883 502.46085799 284.05558777 501.50793457 C283.04367371 501.21789551 282.03175964 500.92785645 280.98918152 500.62902832 C273.81855136 498.44029191 267.477489 495.35487057 261.05558777 491.50793457 C260.38914246 491.11090332 259.72269714 490.71387207 259.03605652 490.30480957 C257.36808777 489.25793457 257.36808777 489.25793457 255.05558777 487.50793457 C255.05558777 486.84793457 255.05558777 486.18793457 255.05558777 485.50793457 C254.49871277 485.44605957 253.94183777 485.38418457 253.36808777 485.32043457 C250.04615629 484.15326946 248.45577686 482.07557872 246.05558777 479.50793457 C244.17720155 477.68824792 242.29614664 475.87145707 240.41105652 474.05871582 C239.05558777 472.50793457 239.05558777 472.50793457 239.05558777 470.50793457 C238.39558777 470.50793457 237.73558777 470.50793457 237.05558777 470.50793457 C235.43449402 468.24230957 235.43449402 468.24230957 233.61808777 465.25793457 C231.13513981 461.18599696 231.13513981 461.18599696 228.33293152 457.33605957 C227.05558777 455.50793457 227.05558777 455.50793457 227.05558777 452.50793457 C226.39558777 452.50793457 225.73558777 452.50793457 225.05558777 452.50793457 C219.89186339 441.049108 216.24885147 429.89223081 214.05558777 417.50793457 C213.76941589 415.93592285 213.76941589 415.93592285 213.47746277 414.33215332 C211.40988119 395.58990919 212.84603614 377.57391539 218.05558777 359.50793457 C218.71558777 359.50793457 219.37558777 359.50793457 220.05558777 359.50793457 C220.13808777 358.55918457 220.22058777 357.61043457 220.30558777 356.63293457 C220.99550543 351.6181599 223.05896421 347.12338531 225.05558777 342.50793457 C225.71558777 342.50793457 226.37558777 342.50793457 227.05558777 342.50793457 C227.30308777 341.66230957 227.55058777 340.81668457 227.80558777 339.94543457 C228.77057352 337.29172376 229.70050819 335.26962311 231.11808777 332.88293457 C232.63322251 330.24366759 233.58489808 328.44974514 234.05558777 325.50793457 C234.71558777 325.50793457 235.37558777 325.50793457 236.05558777 325.50793457 C236.17933777 324.76543457 236.30308777 324.02293457 236.43058777 323.25793457 C237.01045478 320.70651972 237.79267516 318.78117727 239.05558777 316.50793457 C239.71558777 316.50793457 240.37558777 316.50793457 241.05558777 316.50793457 C241.15097839 315.63910645 241.24636902 314.77027832 241.34465027 313.87512207 C242.12655701 310.17180551 243.42337421 307.8258439 245.43058777 304.63293457 C248.25412965 299.97899846 250.31173428 295.64771327 252.05558777 290.50793457 C253.23789245 287.86513587 253.99156515 286.57195719 256.05558777 284.50793457 C257.37356062 282.04364538 258.63745218 279.57771082 259.86808777 277.07043457 C260.22193542 276.35629395 260.57578308 275.64215332 260.94035339 274.90637207 C263.770725 269.16314081 266.47350495 263.36727636 269.05558777 257.50793457 C269.71558777 257.50793457 270.37558777 257.50793457 271.05558777 257.50793457 C271.18707214 256.49279785 271.18707214 256.49279785 271.32121277 255.45715332 C272.24624434 251.7422659 273.95646427 248.63747116 275.80558777 245.32043457 C276.53193274 243.99159973 277.25719089 242.66217026 277.98136902 241.33215332 C278.5123822 240.36028076 278.5123822 240.36028076 279.05412292 239.36877441 C280.84224757 236.04622785 282.4942057 232.65775673 284.14543152 229.26574707 C285.05558777 227.50793457 285.05558777 227.50793457 286.05558777 226.50793457 C286.12738741 224.98865419 286.13950784 223.46625975 286.11808777 221.94543457 C286.10455261 220.70600098 286.10455261 220.70600098 286.09074402 219.44152832 C286.07914246 218.80344238 286.06754089 218.16535645 286.05558777 217.50793457 C280.87093753 216.44912955 275.9041797 216.37012783 270.64033508 216.38768005 C269.70007504 216.38682563 268.759815 216.3859712 267.79106224 216.38509089 C264.6450057 216.38344568 261.49900266 216.38894178 258.35295105 216.39440918 C256.09593711 216.39469128 253.83892307 216.39453286 251.58190918 216.39396667 C245.45641874 216.39367961 239.33094787 216.39956174 233.20546198 216.40654063 C226.8032812 216.41278922 220.40109998 216.41337916 213.99891663 216.41456604 C203.25380551 216.41732163 192.50870296 216.42356909 181.76359558 216.43249512 C170.69751522 216.4416782 159.6314368 216.44875465 148.56535339 216.45300293 C147.88290775 216.45326565 147.2004621 216.45352838 146.49733628 216.45379906 C143.07360778 216.45510413 139.64987927 216.45636783 136.22615075 216.45761096 C107.83595815 216.46797278 79.44577334 216.48565615 51.05558777 216.50793457 C51.05558777 217.16793457 51.05558777 217.82793457 51.05558777 218.50793457 C50.39558777 218.50793457 49.73558777 218.50793457 49.05558777 218.50793457 C49.05558777 219.49793457 49.05558777 220.48793457 49.05558777 221.50793457 C48.39558777 221.50793457 47.73558777 221.50793457 47.05558777 221.50793457 C46.99371277 222.31230957 46.93183777 223.11668457 46.86808777 223.94543457 C45.78255941 228.7050589 43.51192093 232.32552946 41.05558777 236.50793457 C37.2440144 243.2912431 33.69253225 250.18139511 30.24357605 257.15344238 C27.25611408 263.16825613 24.12243986 269.10013829 20.93717957 275.0123291 C19.43296468 277.81979496 18.06497349 280.4797774 17.05558777 283.50793457 C16.39558777 283.50793457 15.73558777 283.50793457 15.05558777 283.50793457 C14.96084167 284.71062988 14.96084167 284.71062988 14.86418152 285.93762207 C13.78334225 290.71002346 11.5630595 294.42881769 9.11808777 298.63293457 C8.21257193 300.21854788 7.30760469 301.80447463 6.40324402 303.39074707 C6.00113708 304.08571289 5.59903015 304.78067871 5.18473816 305.4967041 C3.33026481 308.79987199 1.8525355 311.78884514 1.05558777 315.50793457 C0.39558777 315.50793457 -0.26441223 315.50793457 -0.94441223 315.50793457 C-1.06590637 316.24439209 -1.18740051 316.98084961 -1.31257629 317.73962402 C-1.92661595 320.42996239 -2.74759636 322.38555247 -4.05378723 324.80090332 C-4.47659973 325.5919043 -4.89941223 326.38290527 -5.33503723 327.19787598 C-6.00792786 328.43416748 -6.00792786 328.43416748 -6.69441223 329.69543457 C-7.60679202 331.39415873 -8.51825933 333.09337332 -9.42878723 334.79309082 C-9.86513489 335.60536133 -10.30148254 336.41763184 -10.75105286 337.2545166 C-12.60318637 340.75189637 -14.32203511 344.31038319 -16.00691223 347.89074707 C-16.94441223 349.50793457 -16.94441223 349.50793457 -18.94441223 350.50793457 C-19.05913879 351.17824707 -19.17386536 351.84855957 -19.29206848 352.53918457 C-20.22382775 356.77952617 -22.29550344 360.22693084 -24.38191223 364.00793457 C-28.00969176 370.59345861 -28.00969176 370.59345861 -30.94441223 377.50793457 C-31.60441223 377.50793457 -32.26441223 377.50793457 -32.94441223 377.50793457 C-33.05849426 378.4902002 -33.05849426 378.4902002 -33.17488098 379.49230957 C-34.22948961 383.6250906 -36.2035903 387.04004427 -38.25691223 390.75793457 C-41.41455398 396.58488438 -44.38496079 402.3875072 -46.94441223 408.50793457 C-47.60441223 408.50793457 -48.26441223 408.50793457 -48.94441223 408.50793457 C-48.94441223 409.82793457 -48.94441223 411.14793457 -48.94441223 412.50793457 C-49.60441223 412.50793457 -50.26441223 412.50793457 -50.94441223 412.50793457 C-51.05784973 413.22723145 -51.17128723 413.94652832 -51.28816223 414.68762207 C-51.97853099 417.65456401 -53.02928577 419.9425488 -54.44441223 422.63293457 C-55.82660341 425.27677699 -56.9989291 427.67148517 -57.94441223 430.50793457 C-58.60441223 430.50793457 -59.26441223 430.50793457 -59.94441223 430.50793457 C-60.12447815 431.60827026 -60.12447815 431.60827026 -60.30818176 432.73083496 C-60.9357951 435.47032142 -61.7954778 437.47823396 -63.12409973 439.94152832 C-63.55851379 440.75557129 -63.99292786 441.56961426 -64.44050598 442.4083252 C-64.89554504 443.24557129 -65.35058411 444.08281738 -65.81941223 444.94543457 C-66.71313241 446.6105357 -67.60637268 448.27589452 -68.49909973 449.94152832 C-68.9203009 450.72382813 -69.34150208 451.50612793 -69.77546692 452.31213379 C-71.21710499 455.02017322 -72.59222473 457.7543077 -73.94441223 460.50793457 C-74.60441223 460.50793457 -75.26441223 460.50793457 -75.94441223 460.50793457 C-76.03722473 461.18340332 -76.13003723 461.85887207 -76.22566223 462.55480957 C-77.12233433 466.23896234 -78.71639689 469.41054786 -80.44441223 472.75793457 C-80.79753479 473.45322266 -81.15065735 474.14851074 -81.51448059 474.86486816 C-84.49616056 480.70794108 -87.57065097 486.50203378 -90.65730286 492.29016113 C-93.57371818 497.76910662 -96.35462266 503.30271331 -99.10456848 508.86730957 C-101.65497374 513.97097769 -104.37614972 518.98771764 -107.10066223 524.00012207 C-109.20101295 527.5517074 -109.20101295 527.5517074 -109.94441223 531.50793457 C-110.60441223 531.50793457 -111.26441223 531.50793457 -111.94441223 531.50793457 C-112.0667926 532.07415527 -112.18917297 532.64037598 -112.31526184 533.22375488 C-112.98762627 535.66482653 -113.91601625 537.7726866 -115.01081848 540.05480957 C-115.61506653 541.32131348 -115.61506653 541.32131348 -116.23152161 542.61340332 C-116.65240051 543.48609863 -117.07327942 544.35879395 -117.50691223 545.25793457 C-118.14403137 546.59018066 -118.14403137 546.59018066 -118.79402161 547.94934082 C-119.84087072 550.13713783 -120.8911015 552.32324308 -121.94441223 554.50793457 C-122.60441223 554.50793457 -123.26441223 554.50793457 -123.94441223 554.50793457 C-124.01659973 555.15633301 -124.08878723 555.80473145 -124.16316223 556.47277832 C-125.25602845 560.71856356 -127.32715601 564.25216289 -129.44441223 568.07043457 C-130.27139494 569.56950074 -131.09445963 571.07073654 -131.91316223 572.57434082 C-132.46133606 573.56349487 -132.46133606 573.56349487 -133.02058411 574.57263184 C-133.95838535 576.53720648 -134.49263046 578.38355498 -134.94441223 580.50793457 C-135.60441223 580.50793457 -136.26441223 580.50793457 -136.94441223 580.50793457 C-137.27441223 582.15793457 -137.60441223 583.80793457 -137.94441223 585.50793457 C-138.60441223 585.50793457 -139.26441223 585.50793457 -139.94441223 585.50793457 C-140.02691223 586.16793457 -140.10941223 586.82793457 -140.19441223 587.50793457 C-141.44607838 592.51459917 -143.94417812 596.87792342 -146.63191223 601.25793457 C-147.87139636 603.38276451 -148.49928646 605.10425542 -148.94441223 607.50793457 C-149.60441223 607.50793457 -150.26441223 607.50793457 -150.94441223 607.50793457 C-151.93441223 610.47793457 -152.92441223 613.44793457 -153.94441223 616.50793457 C-154.60441223 616.50793457 -155.26441223 616.50793457 -155.94441223 616.50793457 C-156.02691223 617.16793457 -156.10941223 617.82793457 -156.19441223 618.50793457 C-157.19682997 622.51760554 -159.0328036 625.86136761 -160.94441223 629.50793457 C-161.84449558 631.27661148 -162.74026971 633.0474874 -163.63191223 634.82043457 C-164.04827942 635.64156738 -164.46464661 636.4627002 -164.89363098 637.30871582 C-166.04316996 639.59810696 -166.04316996 639.59810696 -166.94441223 642.50793457 C-167.60441223 642.50793457 -168.26441223 642.50793457 -168.94441223 642.50793457 C-169.27441223 644.15793457 -169.60441223 645.80793457 -169.94441223 647.50793457 C-170.60441223 647.50793457 -171.26441223 647.50793457 -171.94441223 647.50793457 C-171.94441223 648.82793457 -171.94441223 650.14793457 -171.94441223 651.50793457 C-172.60441223 651.50793457 -173.26441223 651.50793457 -173.94441223 651.50793457 C-173.98566223 652.29168457 -174.02691223 653.07543457 -174.06941223 653.88293457 C-175.14326663 658.33175993 -177.20613685 661.5143775 -179.66706848 665.33605957 C-181.11339636 667.3753172 -181.11339636 667.3753172 -180.94441223 669.50793457 C-181.60441223 669.50793457 -182.26441223 669.50793457 -182.94441223 669.50793457 C-183.03464661 670.18984863 -183.12488098 670.8717627 -183.21784973 671.57434082 C-184.11593214 675.20046927 -185.76238446 678.21145187 -187.56941223 681.44543457 C-188.30532558 682.79225139 -189.03966955 684.13992678 -189.77253723 685.48840332 C-190.14056458 686.16435547 -190.50859192 686.84030762 -190.88777161 687.53674316 C-192.42927214 690.41245372 -193.87547071 693.33223401 -195.31941223 696.25793457 C-198.16073673 701.98620116 -201.09219353 707.66162318 -204.06941223 713.32043457 C-204.68115295 714.48494141 -204.68115295 714.48494141 -205.30525208 715.67297363 C-207.33954904 719.52803619 -209.41470467 723.35105603 -211.56159973 727.14465332 C-213.62824771 730.83994449 -215.28290581 734.61140682 -216.94441223 738.50793457 C-218.76713672 742.11901953 -220.66797814 745.687794 -222.56941223 749.25793457 C-223.56366871 751.12662688 -224.55594839 752.9963727 -225.54597473 754.86730957 C-225.98248352 755.68683105 -226.41899231 756.50635254 -226.86872864 757.35070801 C-228.05255509 759.59845459 -228.05255509 759.59845459 -228.94441223 762.50793457 C-229.60441223 762.50793457 -230.26441223 762.50793457 -230.94441223 762.50793457 C-230.94441223 763.82793457 -230.94441223 765.14793457 -230.94441223 766.50793457 C-231.60441223 766.50793457 -232.26441223 766.50793457 -232.94441223 766.50793457 C-233.05075989 767.73383301 -233.05075989 767.73383301 -233.15925598 768.98449707 C-234.16684737 773.50612608 -236.17976395 776.91374908 -238.50691223 780.88293457 C-241.89396512 786.81210073 -245.16930169 792.76042087 -248.19441223 798.88293457 C-248.51691956 799.53383057 -248.83942688 800.18472656 -249.17170715 800.85534668 C-250.69528741 803.94273502 -252.20157326 807.03825776 -253.70222473 810.13684082 C-254.23589661 811.22867676 -254.76956848 812.3205127 -255.31941223 813.44543457 C-255.78089661 814.40320801 -256.24238098 815.36098145 -256.71784973 816.34777832 C-257.94441223 818.50793457 -257.94441223 818.50793457 -259.94441223 819.50793457 C-260.07718567 820.03902832 -260.20995911 820.57012207 -260.34675598 821.11730957 C-261.2115558 824.57650884 -262.88928272 827.60203097 -264.50691223 830.75793457 C-265.22708589 832.179748 -265.94713404 833.601625 -266.66706848 835.02355957 C-267.03976868 835.7563916 -267.41246887 836.48922363 -267.79646301 837.2442627 C-269.69614756 840.99030163 -271.56909406 844.74965601 -273.44441223 848.50793457 C-274.12137092 849.86216355 -274.79844261 851.21633606 -275.47566223 852.57043457 C-275.96034973 853.53980957 -276.44503723 854.50918457 -276.94441223 855.50793457 C-277.60441223 855.50793457 -278.26441223 855.50793457 -278.94441223 855.50793457 C-279.04882629 856.20918457 -279.15324036 856.91043457 -279.26081848 857.63293457 C-280.04138309 860.91576629 -281.3223558 863.51846698 -282.88191223 866.50793457 C-284.76008115 870.12583243 -286.49414336 873.69659994 -287.94441223 877.50793457 C-288.60441223 877.50793457 -289.26441223 877.50793457 -289.94441223 877.50793457 C-289.94441223 878.82793457 -289.94441223 880.14793457 -289.94441223 881.50793457 C-290.60441223 881.50793457 -291.26441223 881.50793457 -291.94441223 881.50793457 C-292.27441223 883.48793457 -292.60441223 885.46793457 -292.94441223 887.50793457 C-293.60441223 887.50793457 -294.26441223 887.50793457 -294.94441223 887.50793457 C-295.23316223 888.41543457 -295.52191223 889.32293457 -295.81941223 890.25793457 C-296.70972999 892.82996365 -297.65935636 895.12140223 -298.94441223 897.50793457 C-299.60441223 897.50793457 -300.26441223 897.50793457 -300.94441223 897.50793457 C-300.94441223 898.16793457 -300.94441223 898.82793457 -300.94441223 899.50793457 C-302.31525578 899.76077905 -303.69157652 899.98398454 -305.06941223 900.19543457 C-305.83511536 900.32305176 -306.60081848 900.45066895 -307.38972473 900.58215332 C-311.10390795 900.47424891 -312.88631918 899.66140847 -315.94441223 897.50793457 C-317.85822619 894.56054197 -319.2038238 891.42651435 -320.56941223 888.19543457 C-323.01963292 882.59676597 -325.53456168 877.59888908 -328.94441223 872.50793457 C-330.2796576 869.73978626 -331.44810764 866.90601697 -332.63191223 864.07043457 C-335.57097152 857.21966249 -338.88765793 850.83422365 -342.8865509 844.54333496 C-348.94441223 834.96579168 -348.94441223 834.96579168 -348.94441223 829.50793457 C-349.60441223 829.50793457 -350.26441223 829.50793457 -350.94441223 829.50793457 C-351.35691223 828.51793457 -351.76941223 827.52793457 -352.19441223 826.50793457 C-354.47100884 821.21725231 -356.82198281 816.11140518 -360.13191223 811.38293457 C-362.06258555 808.32048724 -362.6041494 806.08069428 -362.94441223 802.50793457 C-363.60441223 802.50793457 -364.26441223 802.50793457 -364.94441223 802.50793457 C-365.23831848 801.66875488 -365.23831848 801.66875488 -365.53816223 800.81262207 C-367.84968017 794.61536276 -370.782562 789.05129503 -374.21394348 783.41955566 C-376.18145025 780.12754886 -377.46431724 777.32719773 -377.94441223 773.50793457 C-378.60441223 773.50793457 -379.26441223 773.50793457 -379.94441223 773.50793457 C-380.43941223 770.53793457 -380.43941223 770.53793457 -380.94441223 767.50793457 C-381.60441223 767.50793457 -382.26441223 767.50793457 -382.94441223 767.50793457 C-383.18675598 766.86727051 -383.42909973 766.22660645 -383.67878723 765.56652832 C-385.74449086 760.23542395 -388.03325773 755.4205078 -390.94441223 750.50793457 C-391.70796222 749.07758578 -392.45791643 747.63989993 -393.19441223 746.19543457 C-393.69714661 745.21123535 -393.69714661 745.21123535 -394.21003723 744.20715332 C-394.94441223 742.50793457 -394.94441223 742.50793457 -394.94441223 740.50793457 C-395.60441223 740.17793457 -396.26441223 739.84793457 -396.94441223 739.50793457 C-398.04979319 737.52123637 -399.07765428 735.49122365 -400.06941223 733.44543457 C-400.68880003 732.17570623 -401.3086091 730.90618332 -401.92878723 729.63684082 C-402.25427551 728.96668945 -402.57976379 728.29653809 -402.91511536 727.6060791 C-403.97399597 725.44763033 -405.05685804 723.30282079 -406.14753723 721.16027832 C-406.69063538 720.09015503 -406.69063538 720.09015503 -407.2447052 718.99841309 C-407.94958084 717.61091936 -408.656857 716.22464197 -409.36677551 714.83972168 C-410.9126536 711.77773854 -412.34103889 708.90406453 -412.94441223 705.50793457 C-413.60441223 705.50793457 -414.26441223 705.50793457 -414.94441223 705.50793457 C-415.22156067 704.79766113 -415.49870911 704.0873877 -415.78425598 703.35559082 C-416.14648254 702.43648926 -416.50870911 701.5173877 -416.88191223 700.57043457 C-417.42138489 699.19564941 -417.42138489 699.19564941 -417.97175598 697.79309082 C-418.74403404 695.58374924 -418.74403404 695.58374924 -419.94441223 694.50793457 C-420.78523031 689.46302608 -421.43527733 684.4774849 -419.94441223 679.50793457 C-419.28441223 679.50793457 -418.62441223 679.50793457 -417.94441223 679.50793457 C-417.78972473 678.70355957 -417.78972473 678.70355957 -417.63191223 677.88293457 C-416.75773034 674.86303348 -415.39393255 672.29960333 -413.94441223 669.50793457 C-413.33808107 668.30068591 -412.73407087 667.09226983 -412.13191223 665.88293457 C-409.40274556 660.42460124 -406.6735789 654.9662679 -403.94441223 649.50793457 C-403.28441223 649.50793457 -402.62441223 649.50793457 -401.94441223 649.50793457 C-401.82066223 648.97168457 -401.69691223 648.43543457 -401.56941223 647.88293457 C-400.82235207 645.04410597 -399.89137859 642.28570255 -398.94441223 639.50793457 C-398.28441223 639.50793457 -397.62441223 639.50793457 -396.94441223 639.50793457 C-396.83742004 638.78090332 -396.73042786 638.05387207 -396.62019348 637.30480957 C-395.89214898 634.29163117 -394.80688171 632.35307715 -393.13191223 629.75793457 C-390.27066957 625.16615719 -387.99727675 620.50726345 -385.94441223 615.50793457 C-385.28441223 615.50793457 -384.62441223 615.50793457 -383.94441223 615.50793457 C-383.61441223 613.52793457 -383.28441223 611.54793457 -382.94441223 609.50793457 C-382.28441223 609.50793457 -381.62441223 609.50793457 -380.94441223 609.50793457 C-380.81292786 608.91754395 -380.68144348 608.32715332 -380.54597473 607.71887207 C-379.55629559 604.08147989 -377.65997032 600.84768967 -375.94441223 597.50793457 C-374.6893504 595.01045991 -373.44214832 592.50907542 -372.19441223 590.00793457 C-371.5747462 588.76828843 -370.95496403 587.52870033 -370.33503723 586.28918457 C-369.87613098 585.37137207 -369.41722473 584.45355957 -368.94441223 583.50793457 C-368.28441223 583.50793457 -367.62441223 583.50793457 -366.94441223 583.50793457 C-366.61441223 582.33230957 -366.28441223 581.15668457 -365.94441223 579.94543457 C-363.75564904 573.3160076 -360.24855766 567.35586106 -356.89363098 561.26428223 C-355.51336234 558.71035923 -354.22491883 556.11296519 -352.94441223 553.50793457 C-352.28441223 553.50793457 -351.62441223 553.50793457 -350.94441223 553.50793457 C-350.83484192 552.80023926 -350.72527161 552.09254395 -350.61238098 551.36340332 C-348.71418239 543.24888185 -343.5974231 535.81033281 -339.26863098 528.77746582 C-337.51869239 525.77830853 -336.20850756 522.73840041 -334.94441223 519.50793457 C-334.28441223 519.50793457 -333.62441223 519.50793457 -332.94441223 519.50793457 C-332.90316223 518.72418457 -332.86191223 517.94043457 -332.81941223 517.13293457 C-331.56752402 511.94654055 -328.78807844 507.97150019 -325.94441223 503.50793457 C-324.06820311 500.48293547 -322.59605581 498.0268099 -321.94441223 494.50793457 C-321.28441223 494.50793457 -320.62441223 494.50793457 -319.94441223 494.50793457 C-319.48034973 492.86824707 -319.48034973 492.86824707 -319.00691223 491.19543457 C-318.36103326 488.95385463 -317.68210053 486.72099947 -316.94441223 484.50793457 C-316.28441223 484.17793457 -315.62441223 483.84793457 -314.94441223 483.50793457 C-314.27867108 481.93117921 -313.617951 480.35220032 -312.97566223 478.76574707 C-311.74712209 476.07598873 -310.27736474 473.60682579 -308.75691223 471.07043457 C-304.77661578 464.3610319 -301.32846036 457.43928746 -297.89656067 450.44006348 C-296.98807345 448.59653325 -296.06723927 446.7599224 -295.13972473 444.92590332 C-294.60089661 443.85984863 -294.06206848 442.79379395 -293.50691223 441.69543457 C-292.79728333 440.2935791 -292.79728333 440.2935791 -292.07331848 438.86340332 C-290.85429052 436.44565203 -290.85429052 436.44565203 -289.94441223 433.50793457 C-289.28441223 433.50793457 -288.62441223 433.50793457 -287.94441223 433.50793457 C-287.61441223 431.85793457 -287.28441223 430.20793457 -286.94441223 428.50793457 C-286.28441223 428.50793457 -285.62441223 428.50793457 -284.94441223 428.50793457 C-284.85675598 427.82086426 -284.76909973 427.13379395 -284.67878723 426.42590332 C-283.77519166 422.83555282 -282.08583251 419.95929566 -280.19441223 416.82043457 C-279.46319681 415.57554194 -278.734036 414.32944025 -278.00691223 413.08215332 C-277.65242004 412.47419922 -277.29792786 411.86624512 -276.93269348 411.23986816 C-274.32455034 406.66917463 -272.08377578 401.901789 -269.82331848 397.15246582 C-267.1442372 391.60784706 -267.1442372 391.60784706 -264.94441223 390.50793457 C-264.94441223 389.51793457 -264.94441223 388.52793457 -264.94441223 387.50793457 C-264.28441223 387.50793457 -263.62441223 387.50793457 -262.94441223 387.50793457 C-262.82066223 386.78605957 -262.69691223 386.06418457 -262.56941223 385.32043457 C-261.95391913 382.55071563 -261.05996849 380.11089917 -259.94441223 377.50793457 C-259.28441223 377.50793457 -258.62441223 377.50793457 -257.94441223 377.50793457 C-257.82968567 376.77574707 -257.71495911 376.04355957 -257.59675598 375.28918457 C-256.93150704 372.45291364 -255.98647878 370.50168471 -254.50691223 368.00793457 C-252.71419731 364.90436163 -251.14719968 361.89760829 -249.94441223 358.50793457 C-249.28441223 358.50793457 -248.62441223 358.50793457 -247.94441223 358.50793457 C-247.73816223 357.57980957 -247.53191223 356.65168457 -247.31941223 355.69543457 C-245.72834472 350.20298234 -242.75766265 345.45138284 -239.94441223 340.50793457 C-238.31260472 337.6158913 -236.68897143 334.71935334 -235.06941223 331.82043457 C-234.63838196 331.04949463 -234.20735168 330.27855469 -233.76325989 329.48425293 C-230.62473791 323.83103285 -227.69918177 318.09754496 -224.85652161 312.2911377 C-222.01982463 306.5426377 -218.86466338 301.01616909 -215.60847473 295.49621582 C-214.14721383 292.87212054 -212.97833257 290.32249548 -211.94441223 287.50793457 C-211.28441223 287.50793457 -210.62441223 287.50793457 -209.94441223 287.50793457 C-209.86191223 286.68293457 -209.77941223 285.85793457 -209.69441223 285.00793457 C-208.77993954 280.74039536 -207.02218045 277.31556563 -204.94441223 273.50793457 C-204.28441223 273.50793457 -203.62441223 273.50793457 -202.94441223 273.50793457 C-202.78972473 272.45605957 -202.78972473 272.45605957 -202.63191223 271.38293457 C-201.85082221 268.1165581 -200.5238248 265.46074937 -198.94441223 262.50793457 C-198.28441223 262.50793457 -197.62441223 262.50793457 -196.94441223 262.50793457 C-196.73945129 261.8814502 -196.53449036 261.25496582 -196.32331848 260.60949707 C-195.91919739 259.38359863 -195.91919739 259.38359863 -195.50691223 258.13293457 C-195.24007629 257.3208252 -194.97324036 256.50871582 -194.69831848 255.67199707 C-193.94441223 253.50793457 -193.94441223 253.50793457 -192.94441223 251.50793457 C-192.28441223 251.50793457 -191.62441223 251.50793457 -190.94441223 251.50793457 C-190.79745911 250.9742627 -190.65050598 250.44059082 -190.49909973 249.89074707 C-188.88191741 244.51872764 -186.64031523 240.15342754 -183.67097473 235.41418457 C-181.64432574 232.0028116 -179.88138118 228.50469897 -178.13191223 224.94543457 C-174.82820429 218.2249886 -171.37819699 211.59630769 -167.82600403 205.00378418 C-166.32190348 202.19619681 -164.95381601 199.53614591 -163.94441223 196.50793457 C-163.28441223 196.50793457 -162.62441223 196.50793457 -161.94441223 196.50793457 C-161.84128723 195.99230957 -161.73816223 195.47668457 -161.63191223 194.94543457 C-160.70177357 191.64767022 -159.33045711 188.64160125 -157.94441223 185.50793457 C-157.28441223 185.50793457 -156.62441223 185.50793457 -155.94441223 185.50793457 C-155.61441223 183.52793457 -155.28441223 181.54793457 -154.94441223 179.50793457 C-154.28441223 179.50793457 -153.62441223 179.50793457 -152.94441223 179.50793457 C-152.28441223 176.86793457 -151.62441223 174.22793457 -150.94441223 171.50793457 C-150.28441223 171.50793457 -149.62441223 171.50793457 -148.94441223 171.50793457 C-148.61441223 169.85793457 -148.28441223 168.20793457 -147.94441223 166.50793457 C-147.28441223 166.50793457 -146.62441223 166.50793457 -145.94441223 166.50793457 C-145.83742004 165.79250488 -145.73042786 165.0770752 -145.62019348 164.33996582 C-144.87866621 161.23240935 -143.71495676 158.96476057 -142.13191223 156.19543457 C-140.36711826 153.05802307 -138.62870641 149.93988523 -137.06941223 146.69543457 C-135.27257154 143.03492853 -133.24213889 139.53368962 -131.19441223 136.00793457 C-127.88383553 130.29359802 -124.86846795 124.47474694 -121.94978333 118.55212402 C-117.46551766 109.46835826 -112.63272666 100.57415548 -107.75691223 91.69543457 C-105.94718144 88.39619344 -104.22138149 85.07620887 -102.56941223 81.69543457 C-100.1218329 76.71200256 -97.36021693 71.92959251 -94.53474426 67.15319824 C-92.57403297 64.04011247 -92.57403297 64.04011247 -91.94441223 60.50793457 C-91.28441223 60.50793457 -90.62441223 60.50793457 -89.94441223 60.50793457 C-89.61441223 58.85793457 -89.28441223 57.20793457 -88.94441223 55.50793457 C-88.28441223 55.50793457 -87.62441223 55.50793457 -86.94441223 55.50793457 C-86.94441223 54.18793457 -86.94441223 52.86793457 -86.94441223 51.50793457 C-86.28441223 51.50793457 -85.62441223 51.50793457 -84.94441223 51.50793457 C-84.67628723 50.80668457 -84.40816223 50.10543457 -84.13191223 49.38293457 C-82.87626733 46.34295217 -81.442061 43.43515717 -79.94441223 40.50793457 C-79.28441223 40.50793457 -78.62441223 40.50793457 -77.94441223 40.50793457 C-77.67628723 39.93043457 -77.40816223 39.35293457 -77.13191223 38.75793457 C-75.91512034 36.45243414 -74.64107344 34.48737265 -72.94441223 32.50793457 C-72.28441223 32.50793457 -71.62441223 32.50793457 -70.94441223 32.50793457 C-70.94441223 31.84793457 -70.94441223 31.18793457 -70.94441223 30.50793457 C-70.28441223 30.50793457 -69.62441223 30.50793457 -68.94441223 30.50793457 C-68.94441223 29.84793457 -68.94441223 29.18793457 -68.94441223 28.50793457 C-68.28441223 28.50793457 -67.62441223 28.50793457 -66.94441223 28.50793457 C-66.94441223 27.84793457 -66.94441223 27.18793457 -66.94441223 26.50793457 C-64.91797455 24.75149078 -62.8927994 23.12079435 -60.75691223 21.50793457 C-60.1787677 21.0567627 -59.60062317 20.60559082 -59.00495911 20.14074707 C-55.77906904 17.67667737 -52.84292168 15.80009589 -48.94441223 14.50793457 C-48.94441223 13.84793457 -48.94441223 13.18793457 -48.94441223 12.50793457 C-45.27096214 10.62156831 -41.55831105 8.82355066 -37.81941223 7.07043457 C-36.57804504 6.48455566 -36.57804504 6.48455566 -35.31159973 5.88684082 C-34.20042786 5.43180176 -33.08925598 4.9767627 -31.94441223 4.50793457 C-31.2010357 4.18064 -30.45765916 3.85334542 -29.69175607 3.51613283 C-19.87385128 -0.33182394 -10.37258307 -0.05167382 0 0 Z " fill="#111117" transform="translate(1168.9444122314453,0.4920654296875)"/>
<path d="" fill="#000000" transform="translate(0,0)"/>
<path d="" fill="#000000" transform="translate(0,0)"/>
</svg>
