<?xml version="1.0" encoding="UTF-8"?>
<!DOCTYPE svg PUBLIC "-//W3C//DTD SVG 1.1//EN" "http://www.w3.org/Graphics/SVG/1.1/DTD/svg11.dtd">
<svg xmlns="http://www.w3.org/2000/svg" version="1.1" width="5691px" height="1315px" style="shape-rendering:geometricPrecision; text-rendering:geometricPrecision; image-rendering:optimizeQuality; fill-rule:evenodd; clip-rule:evenodd" xmlns:xlink="http://www.w3.org/1999/xlink">
<g><path style="opacity:1" fill="#f9faf9" d="M 4227.5,0.5 C 4266.87,0.0691544 4293.7,18.0692 4308,54.5C 4309.39,59.7608 4310.39,65.0941 4311,70.5C 4311.67,284.5 4311.67,498.5 4311,712.5C 4306.04,749.455 4285.54,772.622 4249.5,782C 4206.76,788.052 4176.59,771.552 4159,732.5C 4157.03,726.987 4155.7,721.321 4155,715.5C 4154.33,499.833 4154.33,284.167 4155,68.5C 4159.03,39.2618 4174.53,18.7618 4201.5,7C 4210,3.60715 4218.66,1.44049 4227.5,0.5 Z"/></g>
<g><path style="opacity:1" fill="#f9faf9" d="M 2225.5,1.5 C 2344.85,1.02315 2464.18,1.52315 2583.5,3C 2619.76,11.2633 2640.93,33.7633 2647,70.5C 2649.75,102.295 2638.58,127.795 2613.5,147C 2603.17,153.777 2591.84,157.777 2579.5,159C 2487.83,159.5 2396.17,159.667 2304.5,159.5C 2304.5,208.167 2304.5,256.833 2304.5,305.5C 2374.17,305.333 2443.83,305.5 2513.5,306C 2546.54,310.711 2568.38,328.877 2579,360.5C 2588.61,408.479 2570.44,440.312 2524.5,456C 2519.88,456.958 2515.21,457.625 2510.5,458C 2441.83,458.5 2373.17,458.667 2304.5,458.5C 2304.5,512.5 2304.5,566.5 2304.5,620.5C 2395.5,620.333 2486.5,620.5 2577.5,621C 2617.95,626.785 2641.12,649.951 2647,690.5C 2650.58,730.042 2634.25,757.375 2598,772.5C 2593.3,774.217 2588.47,775.383 2583.5,776C 2459.83,776.667 2336.17,776.667 2212.5,776C 2182.1,769.599 2161.6,751.766 2151,722.5C 2149.22,715.953 2148.22,709.286 2148,702.5C 2147.33,494.167 2147.33,285.833 2148,77.5C 2150.89,39.2761 2170.72,14.7761 2207.5,4C 2213.63,3.08823 2219.63,2.2549 2225.5,1.5 Z"/></g>
<g><path style="opacity:1" fill="#f9faf9" d="M 3041.5,1.5 C 3096.09,0.81319 3147.42,13.3132 3195.5,39C 3256.84,76.4347 3297.34,129.935 3317,199.5C 3325.35,229.274 3330.35,259.607 3332,290.5C 3332.67,432.167 3332.67,573.833 3332,715.5C 3324.32,753.179 3301.49,775.346 3263.5,782C 3223.78,785.566 3194.95,769.733 3177,734.5C 3174.55,728.37 3172.88,722.037 3172,715.5C 3171.67,579.167 3171.33,442.833 3171,306.5C 3170.61,273.285 3162.28,242.285 3146,213.5C 3127.15,184.372 3100.32,167.872 3065.5,164C 2985.2,156.325 2938.7,192.158 2926,271.5C 2924.47,282.116 2923.47,292.783 2923,303.5C 2922.67,440.167 2922.33,576.833 2922,713.5C 2916,750.168 2894.83,772.668 2858.5,781C 2821.27,786.963 2792.11,774.463 2771,743.5C 2765.46,733.881 2762.13,723.548 2761,712.5C 2760.33,571.167 2760.33,429.833 2761,288.5C 2762.92,228.481 2779.25,172.814 2810,121.5C 2854.55,55.0433 2916.71,16.21 2996.5,5C 3011.62,3.36772 3026.62,2.20105 3041.5,1.5 Z"/></g>
<g><path style="opacity:1" fill="#f9faf9" d="M 3522.5,1.5 C 3672.5,1.33333 3822.5,1.5 3972.5,2C 4014.97,5.80373 4040.47,28.6371 4049,70.5C 4051.96,109.43 4035.79,136.93 4000.5,153C 3993.06,155.689 3985.39,157.355 3977.5,158C 3926.83,158.5 3876.17,158.667 3825.5,158.5C 3825.67,345.167 3825.5,531.834 3825,718.5C 3815.53,759.917 3789.53,781.917 3747,784.5C 3712.56,783.054 3688.9,766.388 3676,734.5C 3674.84,730.203 3673.84,725.869 3673,721.5C 3671.51,533.85 3671.01,346.183 3671.5,158.5C 3617.14,158.961 3562.81,158.461 3508.5,157C 3466,145.489 3445.17,117.656 3446,73.5C 3449.8,40.7158 3466.96,18.2158 3497.5,6C 3505.83,3.6313 3514.16,2.1313 3522.5,1.5 Z"/></g>
<g><path style="opacity:1" fill="#f9faf9" d="M 4549.5,1.5 C 4631.51,1.0688 4713.51,1.5688 4795.5,3C 4883.88,11.7582 4954.72,51.2582 5008,121.5C 5054.43,189.585 5071.43,264.585 5059,346.5C 5042.12,436.165 4994.62,504.165 4916.5,550.5C 4946.12,582.953 4976.28,614.953 5007,646.5C 5031.38,678.553 5032.71,711.553 5011,745.5C 4988.52,773.66 4959.69,783.494 4924.5,775C 4917.28,772.721 4910.61,769.388 4904.5,765C 4847.19,706.691 4790.19,648.024 4733.5,589C 4698.83,588.5 4664.17,588.333 4629.5,588.5C 4629.95,630.525 4629.45,672.525 4628,714.5C 4617.08,757.073 4589.58,778.24 4545.5,778C 4513.7,775.354 4491.2,759.521 4478,730.5C 4475.55,724.37 4473.88,718.037 4473,711.5C 4472.33,497.5 4472.33,283.5 4473,69.5C 4477.98,41.0329 4493.48,20.5329 4519.5,8C 4529.33,4.33706 4539.33,2.17039 4549.5,1.5 Z M 4629.5,159.5 C 4681.17,159.333 4732.83,159.5 4784.5,160C 4845.15,169.31 4883.98,203.477 4901,262.5C 4914,322.835 4895.84,371.335 4846.5,408C 4827.43,420.803 4806.43,428.47 4783.5,431C 4732.17,431.5 4680.83,431.667 4629.5,431.5C 4629.5,340.833 4629.5,250.167 4629.5,159.5 Z"/></g>
<g><path style="opacity:1" fill="#f9faf9" d="M 5267.5,1.5 C 5386.85,1.02315 5506.18,1.52315 5625.5,3C 5662.65,11.4854 5683.82,34.6521 5689,72.5C 5690.96,96.2919 5684.29,117.292 5669,135.5C 5655.81,149.342 5639.65,157.175 5620.5,159C 5529.17,159.5 5437.83,159.667 5346.5,159.5C 5346.5,208.167 5346.5,256.833 5346.5,305.5C 5416.17,305.333 5485.83,305.5 5555.5,306C 5593.1,312.27 5615.6,334.103 5623,371.5C 5626.66,402.227 5616.16,426.727 5591.5,445C 5579.59,452.525 5566.59,456.859 5552.5,458C 5483.83,458.5 5415.17,458.667 5346.5,458.5C 5346.5,512.5 5346.5,566.5 5346.5,620.5C 5440.19,620.022 5533.85,620.522 5627.5,622C 5663.47,631.314 5683.97,654.48 5689,691.5C 5691.67,732.463 5673.84,759.963 5635.5,774C 5632.21,774.882 5628.88,775.548 5625.5,776C 5501.83,776.667 5378.17,776.667 5254.5,776C 5223.95,769.653 5203.45,751.819 5193,722.5C 5191.27,716.963 5190.27,711.296 5190,705.5C 5189.33,495.167 5189.33,284.833 5190,74.5C 5194.36,37.8194 5214.19,14.3194 5249.5,4C 5255.63,3.08823 5261.63,2.2549 5267.5,1.5 Z"/></g>
<g><path style="opacity:1" fill="#f9f9f9" d="M 1189.5,1314.5 C 1007.17,1314.5 824.833,1314.5 642.5,1314.5C 612.022,1305.88 588.522,1287.88 572,1260.5C 388.238,901.645 203.905,542.979 19,184.5C 9.20472,166.614 2.70472,147.614 -0.5,127.5C -0.5,116.5 -0.5,105.5 -0.5,94.5C 4.19759,60.5823 20.8643,34.4156 49.5,16C 60.8513,10.1596 72.8513,6.15956 85.5,4C 258.833,3.33333 432.167,3.33333 605.5,4C 636.978,11.6561 661.312,29.1561 678.5,56.5C 710.813,119.965 743.313,183.299 776,246.5C 789.249,279.628 789.916,312.961 778,346.5C 764.05,379.456 739.884,400.623 705.5,410C 658.486,416.117 623.32,398.617 600,357.5C 578.736,316.639 557.736,275.639 537,234.5C 535.745,233.789 534.579,232.956 533.5,232C 452.167,231.333 370.833,231.333 289.5,232C 285,233.663 283.167,236.83 284,241.5C 428.21,521.851 572.21,802.184 716,1082.5C 717.167,1083.67 718.333,1084.83 719.5,1086C 850.753,1087.66 982.086,1088 1113.5,1087C 1116.33,1085.5 1118.5,1083.33 1120,1080.5C 1161.23,998.939 1202.9,917.606 1245,836.5C 1273.78,792.874 1313.28,778.707 1363.5,794C 1399.9,812.079 1421.4,841.246 1428,881.5C 1431.05,904.519 1428.38,926.852 1420,948.5C 1364.48,1056.83 1308.64,1165.16 1252.5,1273.5C 1236.17,1294.49 1215.17,1308.16 1189.5,1314.5 Z"/></g>
<g><path style="opacity:1" fill="#f9f9f9" d="M 1226.5,3.5 C 1399.17,3.33333 1571.83,3.5 1744.5,4C 1770.95,9.62182 1791.95,23.4552 1807.5,45.5C 1831.54,82.1781 1836.71,121.511 1823,163.5C 1766.87,274.005 1710.2,384.338 1653,494.5C 1619.72,539.147 1577.56,550.313 1526.5,528C 1495.07,507.66 1476.9,478.827 1472,441.5C 1469.73,420.173 1472.4,399.507 1480,379.5C 1503.28,334.195 1526.62,288.862 1550,243.5C 1551.78,237.891 1549.94,234.057 1544.5,232C 1462.75,231.006 1381.09,231.339 1299.5,233C 1298.33,234.167 1297.17,235.333 1296,236.5C 1172.57,478.181 1048.4,719.347 923.5,960C 917.33,962.792 912.163,961.625 908,956.5C 871.387,885.198 834.72,813.864 798,742.5C 797.333,737.5 797.333,732.5 798,727.5C 916.8,504.573 1035.13,281.24 1153,57.5C 1170.37,29.5855 1194.87,11.5855 1226.5,3.5 Z"/></g>
<g><path style="opacity:1" fill="#f9faf9" d="M 2241.5,982.5 C 2272.64,979.27 2299.8,987.936 2323,1008.5C 2353.87,981.797 2388.7,975.297 2427.5,989C 2463.97,1005.06 2485.13,1032.89 2491,1072.5C 2491.67,1141.17 2491.67,1209.83 2491,1278.5C 2487.95,1292.55 2479.45,1301.39 2465.5,1305C 2444.46,1308.07 2430.63,1299.57 2424,1279.5C 2423.67,1213.83 2423.33,1148.17 2423,1082.5C 2419.18,1064.02 2407.85,1054.02 2389,1052.5C 2372.74,1054.13 2362.41,1062.79 2358,1078.5C 2356.69,1145.81 2356.02,1213.14 2356,1280.5C 2352.5,1293.33 2344.33,1301.5 2331.5,1305C 2310.9,1308.03 2297.07,1299.86 2290,1280.5C 2289.97,1212.81 2289.31,1145.14 2288,1077.5C 2280.05,1056.61 2265.21,1049.11 2243.5,1055C 2232.64,1060.2 2225.81,1068.7 2223,1080.5C 2222.67,1146.5 2222.33,1212.5 2222,1278.5C 2218.95,1292.55 2210.45,1301.39 2196.5,1305C 2174.33,1308.18 2160.5,1299.01 2155,1277.5C 2154.33,1209.83 2154.33,1142.17 2155,1074.5C 2162.46,1023.55 2191.29,992.881 2241.5,982.5 Z"/></g>
<g><path style="opacity:1" fill="#f9faf9" d="M 2582.5,982.5 C 2634.17,982.333 2685.83,982.5 2737.5,983C 2754.28,987.283 2763.28,998.116 2764.5,1015.5C 2763.31,1032.5 2754.65,1043.34 2738.5,1048C 2699.5,1048.5 2660.5,1048.67 2621.5,1048.5C 2621.5,1068.5 2621.5,1088.5 2621.5,1108.5C 2651.86,1108.06 2682.2,1108.56 2712.5,1110C 2731.44,1116.36 2739.27,1129.52 2736,1149.5C 2732.53,1160.97 2725.03,1168.47 2713.5,1172C 2682.87,1173.44 2652.2,1173.94 2621.5,1173.5C 2621.5,1195.83 2621.5,1218.17 2621.5,1240.5C 2660.5,1240.33 2699.5,1240.5 2738.5,1241C 2754.65,1245.66 2763.31,1256.5 2764.5,1273.5C 2763.81,1289.68 2755.81,1300.18 2740.5,1305C 2686.83,1305.67 2633.17,1305.67 2579.5,1305C 2566.79,1300.96 2558.96,1292.46 2556,1279.5C 2555.33,1189.5 2555.33,1099.5 2556,1009.5C 2559.35,994.986 2568.18,985.986 2582.5,982.5 Z"/></g>
<g><path style="opacity:1" fill="#f9faf9" d="M 2877.5,982.5 C 2910.83,982.333 2944.17,982.5 2977.5,983C 2996.27,985.268 3006.27,995.768 3007.5,1014.5C 3006.42,1033.74 2996.42,1044.91 2977.5,1048C 2943.5,1048.33 2909.5,1048.67 2875.5,1049C 2863.66,1052.85 2856.82,1061.02 2855,1073.5C 2853.4,1089.47 2859.57,1101.3 2873.5,1109C 2893.19,1109.21 2912.85,1109.87 2932.5,1111C 2980.52,1118.35 3008.68,1145.85 3017,1193.5C 3019.15,1240.37 2999.65,1274.87 2958.5,1297C 2951.36,1299.94 2944.02,1302.27 2936.5,1304C 2899.87,1305.63 2863.2,1305.96 2826.5,1305C 2805.62,1300.09 2796.45,1286.92 2799,1265.5C 2802.51,1249.96 2812.34,1241.8 2828.5,1241C 2862.17,1240.67 2895.83,1240.33 2929.5,1240C 2940.07,1236.43 2946.9,1229.26 2950,1218.5C 2954.42,1199.18 2947.92,1185.02 2930.5,1176C 2910.47,1175.9 2890.47,1175.23 2870.5,1174C 2819.58,1164.75 2792.24,1134.42 2788.5,1083C 2790.25,1035.61 2813.25,1003.61 2857.5,987C 2864.26,985.285 2870.93,983.785 2877.5,982.5 Z"/></g>
<g><path style="opacity:1" fill="#f9faf9" d="M 3094.5,982.5 C 3114.3,979.474 3127.8,987.141 3135,1005.5C 3136.46,1043.8 3136.96,1082.14 3136.5,1120.5C 3173.5,1120.5 3210.5,1120.5 3247.5,1120.5C 3247.33,1083.5 3247.5,1046.5 3248,1009.5C 3252.05,991.978 3263.05,982.978 3281,982.5C 3292.4,982.032 3301.4,986.366 3308,995.5C 3310.66,999.814 3312.33,1004.48 3313,1009.5C 3313.67,1099.83 3313.67,1190.17 3313,1280.5C 3308.11,1301.37 3294.94,1310.54 3273.5,1308C 3259.22,1304.72 3250.72,1295.89 3248,1281.5C 3247.5,1249.84 3247.33,1218.17 3247.5,1186.5C 3210.5,1186.5 3173.5,1186.5 3136.5,1186.5C 3136.67,1217.17 3136.5,1247.84 3136,1278.5C 3131.84,1300.98 3118.34,1310.81 3095.5,1308C 3082.67,1304.5 3074.5,1296.33 3071,1283.5C 3070.33,1191.5 3070.33,1099.5 3071,1007.5C 3074.32,994.822 3082.15,986.488 3094.5,982.5 Z"/></g>
</svg>
