<svg xmlns="http://www.w3.org/2000/svg" width="1720" height="1233"><path fill="#fefefe" d="M98.01.612q3.06-.006 6.12-.016c5.588-.014 11.176-.01 16.764-.003 6.034.005 12.067-.008 18.1-.018 11.13-.016 22.26-.018 33.391-.014a30632 30632 0 0 0 41.23-.007c19.333-.01 38.666-.016 58-.008l2.206.001 17.743.008q34.614.014 69.226-.022a60824 60824 0 0 1 86.112-.03l2.063.001q15.414.002 30.827-.019 17.527-.023 35.056.002c5.961.009 11.923.011 17.885-.004q8.187-.02 16.374.01 2.96.006 5.921-.01C573.1.395 573.1.395 582 5c1.533.526 3.074 1.03 4.625 1.5C597.683 10.141 609.001 16.565 617 25l2.676 2.605 2.637 2.582 2.675 2.606C627 35 627 35 627 37h2a264 264 0 0 1 3 5l2 1v3l2 1c2.31 3.514 4.154 7.227 6 11l1.188 2.187C644 62 644 62 644 65h2c2.304 4.295 3.782 8.315 5 13h2l1.5 3.5c2.388 5.406 5.065 10.66 7.77 15.914 1.614 3.174 2.96 6.112 3.73 9.586h2l.691 1.914c2.188 5.159 4.94 10.027 7.588 14.961C683 136.495 683 136.495 683 140l2 1a104 104 0 0 1 2.875 5.562l1.492 3.067L691 153q1.49 2.988 2.987 5.971a825 825 0 0 1 2.872 5.818c3.893 7.914 7.995 15.626 12.477 23.223 1.468 2.637 2.584 5.178 3.664 7.988 3.604 7.588 7.577 14.959 11.68 22.285C726 221 726 221 726 224h2c2.372 6.32 4.7 12.654 7 19l1.063 2.89c9.493 28.284 3.654 60.634-8.762 86.941-3.553 7.122-8.173 13.104-13.301 19.169l-1.342 1.694c-1.176 1.471-2.413 2.893-3.658 4.306h-2l-2 4h-2v2l-4 1v2c-7.227 5.62-15.634 9.416-24 13l-2.395 1.066c-18.337 6.571-40.787 5.747-58.851-1.34a77 77 0 0 1-4.586-2.48c-2.305-1.388-2.305-1.388-5.512-2.621-3.754-1.575-7.033-3.71-10.343-6.063l-1.682-1.158c-3.172-2.221-6.08-4.48-8.631-7.404v-2h-2c-2.125-1.875-2.125-1.875-4-4v-2h-2c-3-4.385-3-4.385-3-7h-2a118 118 0 0 1-4.562-7.125l-1.249-2.016c-2.367-3.952-3.773-7.178-4.189-11.859h-2l-3-6-.954-1.905a2602 2602 0 0 1-4.976-9.99c-3.418-6.893-6.902-13.745-10.507-20.543l-1.12-2.111q-2.955-5.564-5.978-11.092c-.413-.76-.825-1.522-1.25-2.307a482 482 0 0 0-2.385-4.345c-2.113-3.913-3.382-7.206-3.83-11.707h-2l-1-5h-2a715 715 0 0 1-3-5.75l-1.687-3.234C513 237 513 237 513 233h-2q-.938-2.093-1.875-4.188l-1.117-2.484C507 224 507 224 506 221.062c-1.277-2.633-2.324-2.979-5-4.062-1.99-.299-1.99-.299-4.084-.262l-2.452-.022-2.677.006-2.856-.018c-3.166-.017-6.332-.02-9.498-.023l-6.8-.03c-6.16-.028-12.322-.043-18.482-.056-6.436-.015-12.871-.042-19.307-.068q-16.206-.061-32.412-.105-16.693-.045-33.385-.105l-2.079-.007-10.324-.037Q313.822 216.118 271 216v2h-2v2h-2a295 295 0 0 0 .875 3.937l.492 2.215c.463 2.055.463 2.055 2.633 2.848a121 121 0 0 1 3.125 6.062l1.883 3.844.99 2.035c1.647 3.384 3.322 6.754 5.002 10.121l1.005 2.017c2.742 5.477 5.616 10.872 8.55 16.25L293 272l1.195 2.172C295 276 295 276 295 279l2 1c1.04 1.98 2.029 3.986 3 6q1.984 3.486 4.012 6.95C305 295 305 295 305 298l2 1c.733 1.666 1.46 3.335 2.137 5.023.881 2.018 1.915 3.842 3.05 5.727C314 313 314 313 314 316h2l1.5 3.5c4.036 9.06 8.567 17.906 13.242 26.652l1.388 2.602q1.352 2.524 2.72 5.038l1.244 2.321 1.115 2.056C338 360 338 360 338 363h2l.988 2.23 1.325 2.957 1.3 2.918c1.32 2.755 2.79 5.293 4.387 7.895a525 525 0 0 1 3.688 6.562l1.886 3.38C355 392 355 392 355 396h2l.883 1.984C363.29 410.342 363.29 410.342 370 422v3h2l1 6h2v3l2 1a132 132 0 0 1 3 6l2.188 4.187 1.042 1.981C384 449 384 449 384 452h2l.813 3.312c1.136 3.529 1.69 4.304 4.187 6.688v4h2l.734 1.723c1.641 3.78 3.302 7.47 5.391 11.027 1.574 2.729 2.711 5.34 3.875 8.25l2 2v4h2a1533 1533 0 0 1 3.5 7.312l1.012 2.092C414 507.66 414 507.66 414 511h2c6 12 6 12 7.445 14.926 2.146 4.243 4.412 8.418 6.682 12.595 1.85 3.437 3.452 6.838 4.873 10.479a119 119 0 0 0 2.188 3.937c2.307 4.098 4.494 8.246 6.625 12.438l.951 1.84C446.18 570.023 447 571.808 447 575h2c2.89 6.532 2.89 6.532 3.563 9.375L453 586l2 1c1.078 1.863 1.078 1.863 2.25 4.312l1.324 2.731L460 597q1.527 3.065 3.063 6.125l1.511 3.031q1.334 2.663 2.696 5.313C470 616.795 470 616.795 470 619h2l.391 1.784c.95 3.454 2.769 6.468 4.484 9.591l2.117 3.898 1.037 1.912c1.379 2.578 2.678 5.193 3.971 7.815l1.36 2.719 1.39 2.781 1.563 3.121q1.787 3.579 3.562 7.164l.946 1.906q1.334 2.687 2.663 5.375c1.487 3.01 1.487 3.01 3.516 5.934q1.095 1.984 2.125 4l1.07 2.062C503 681 503 681 503 684h2l6 12c.56 1.06 1.121 2.12 1.7 3.21C514 702 514 702 514 705l2 1a99 99 0 0 1 2.75 5.375c2.03 4.183 4.144 8.268 6.438 12.312 2.58 4.662 4.305 9.207 5.812 14.313h2c1.257 2.906 2 4.796 2 8h2l.813 1.844c5.05 11.298 10.311 22.586 16.96 33.043 1.337 2.302 2.253 4.638 3.227 7.113a132 132 0 0 0 2.313 4.187c4.342 7.725 8.156 15.296 10.687 23.813h2l.988 2.45 1.325 3.237 1.3 3.2c1.285 2.885 2.73 5.43 4.387 8.113a448 448 0 0 1 4.188 7.625l1.115 2.023C589 847.653 589 847.653 589 851l2 1a139 139 0 0 1 3.375 6.625c2.783 5.738 2.783 5.738 5.875 11.312 1.527 2.672 2.712 5.337 3.907 8.165 1.384 3.116 3.023 6.095 4.656 9.085 4.03 7.47 7.857 15.029 11.574 22.66 3.266 6.649 6.78 13.118 10.454 19.547C637 940.189 637 940.189 637 944h2l.84 2.172c1.133 2.763 2.384 5.408 3.723 8.078.519 1.036 1.038 2.073 1.574 3.14 1.378 2.7 2.809 5.369 4.258 8.032l1.241 2.296q1.224 2.253 2.468 4.494l1.138 2.1 1.027 1.864C656 978 656 978 656 982h2q1.979 3.839 3.938 7.687l1.13 2.186c1.872 3.692 3.415 6.964 3.932 11.127h2q1.256 2.685 2.5 5.375l1.406 3.023C674 1014 674 1014 674 1016c3.286 1.095 5.703 1.13 9.163 1.139l3.934.016 4.348.003 4.599.015q6.334.02 12.67.028 6.825.013 13.65.034 11.83.033 23.66.056 17.106.035 34.21.08 27.75.071 55.5.132 26.962.058 53.922.125l3.356.008 16.666.041q69.161.17 138.322.323l2-5h2l.309-2.105c.808-3.386 2.158-6.118 3.754-9.208l1.66-3.238L1059 996h2l-1-3c1.328-2.707 1.328-2.707 3.25-5.813 2.451-3.995 4.679-7.983 6.75-12.187a939 939 0 0 1 2.41-4.566l1.31-2.471q1.346-2.532 2.696-5.063c2.068-3.904 4.077-7.736 5.584-11.9h2l.25-2.563c.723-3.314 1.89-5.57 3.596-8.464 2.023-3.459 3.893-7 5.779-10.536l1.195-2.208c2.132-4.002 3.895-7.857 5.18-12.229h2l.813-2.625c1.901-5.406 4.696-10.352 7.398-15.39 3.868-7.218 7.553-14.457 10.789-21.985h2v-4h2l.258-2.035c.952-3.804 2.725-7.002 4.617-10.403l2.117-3.87 1.042-1.9c1.384-2.567 2.665-5.183 3.966-7.792a973 973 0 0 1 5.04-9.346c2.226-4.134 4.136-8.322 5.96-12.654.88-1.82 1.773-3.634 2.688-5.438.436-.864.873-1.73 1.324-2.62L1153 813h2l.176-2.395c1.134-4.962 3.494-8.9 6.012-13.293q1.528-2.698 3.054-5.398l1.472-2.593c1.475-2.662 2.78-5.39 4.099-8.134 4.032-7.49 10.704-14.686 17.187-20.187h2v-2h2v-2a123 123 0 0 1 6.875-4.625l1.973-1.273C1204.732 748 1204.732 748 1207 748v-2h4v-2q4.245-1.482 8.5-2.938l2.398-.841c18.49-6.29 42.413-5.249 60.102 2.779l3 1v2l2.313.437C1290 747 1290 747 1293 748v2l2.2.773c11.042 4.836 24.192 17.867 28.995 28.997L1325 782h2l3 6 .936 1.778c2.558 4.924 4.478 9.887 6.189 15.16l.762 2.263c8.886 26.96 7.451 58.66-4.664 84.412-1.992 3.888-4.067 7.73-6.144 11.572-3.783 7.033-7.55 14.23-10.079 21.815l-2 1c-.959 1.737-.959 1.737-1.812 3.875a488 488 0 0 1-4.938 11.187l-1.297 2.848L1306 946h-2c-.13.583-.258 1.167-.391 1.768-.59 2.161-1.346 3.95-2.351 5.947l-1.043 2.08-1.09 2.142-1.066 2.131A160 160 0 0 1 1292 971a237 237 0 0 0-2.172 5.02c-.97 2.321-1.99 4.619-3.015 6.917l-1.043 2.34L1285 987h-2l-.445 1.617c-1.637 5.437-3.932 9.846-6.942 14.64-2.406 4.09-4.295 8.385-6.242 12.708-1.687 3.735-3.513 7.384-5.371 11.035l-2.75 5.5-2.25 4.5h-2l-.344 2.18c-.69 2.967-1.74 5.255-3.156 7.945-1.382 2.644-2.555 5.039-3.5 7.875h-2l-1 6h-2l-2 8h-2l-.387 1.763c-.602 2.198-1.387 4-2.425 6.022l-1.07 2.108-1.118 2.17q-1.097 2.14-2.187 4.285l-.981 1.906c-.957 1.916-.957 1.916-1.832 4.746h-2l-.437 1.812c-.45 1.75-.992 3.475-1.563 5.188h-2l-.309 2.602c-.749 3.683-2.017 6.448-3.753 9.773l-1.66 3.21L1218 1117h-2l-.25 2.562c-.918 4.209-2.413 6.827-4.75 10.438l-2 1-.437 2.812c-.593 3.358-1.44 4.622-3.563 7.188l-1 3h-2l-.371 2.227c-.611 2.694-1.427 4.704-2.691 7.148l-1.336 2.598a1397 1397 0 0 1-3.641 6.836l-1.074 2.004a873 873 0 0 1-2.12 3.92c-1.812 3.357-3.438 6.69-4.767 10.267h-2l-.25 2.625c-.864 3.886-2.34 6.234-4.75 9.375l-2 1a78 78 0 0 0-2 5h-2l-.937 1.875L1170 1203h-2l-1 3h-2v2a133 133 0 0 1-6 5l-2.625 2.125L1154 1217l-2.125 1.75C1150 1220 1150 1220 1147 1220l-1 2c-12.23 6.73-25.563 11.156-39.548 11.14l-2.617.009q-4.36.01-8.721.012l-6.3.015q-8.673.02-17.347.028-7.434.01-14.87.027c-16.333.033-32.666.054-49 .073l-12.76.015a146434 146434 0 0 1-97.603.086l-2.304.002c-24.632.016-49.264.054-73.896.105a42772 42772 0 0 1-86.75.096l-2.137.001c-11.323.005-22.645.03-33.968.062q-17.09.047-34.18.03a3169 3169 0 0 0-18.501.028q-8.481.039-16.963.004-3.056-.005-6.111.022c-23.41.197-45.24-8.02-62.799-23.903C558 1208 558 1208 558 1206h-2c-1.625-1.375-1.625-1.375-3-3v-2h-2v-2h-2c-1.29-1.46-1.29-1.46-2.625-3.375l-1.352-1.898C544 1192 544 1192 544 1190h-2v-3h-2c-3.773-6.533-6.862-12.756-9-20h-2l-1-6h-2l-.805-2.148c-1.662-3.966-3.819-7.602-5.953-11.329C518 1145 518 1145 518 1142h-2l-1.312-3.125a101 101 0 0 0-3.375-7.125C510 1129 510 1129 510 1126h-2l-.816-2.125c-1.25-3.034-2.651-5.942-4.121-8.875-.505-1.01-1.009-2.021-1.528-3.063-1.418-2.714-2.944-5.321-4.535-7.937a399 399 0 0 1-3-6l-1.3-2.5-1.387-2.688-1.325-2.542C489 1088 489 1088 489 1085h-2l-1.437-2.938c-1.265-2.867-1.265-2.867-2.563-4.062a100 100 0 0 1 0-5h-2a948 948 0 0 1-3.5-6.75l-1.012-1.922c-1.76-3.448-2.488-5.376-2.488-9.328l-3-1a88 88 0 0 1-2-5 553 553 0 0 0-2.848-4.965c-1.359-2.4-2.641-4.831-3.902-7.285l-1.297-2.516C460 1032 460 1032 460 1029h-2l-1.25-3.063a66 66 0 0 0-3.812-7.562C451 1015 451 1015 450.063 1012.625c-1.356-3.35-3.183-6.345-5.04-9.441C444 1001 444 1001 444 997h-2a875 875 0 0 1-2-4.375l-1.125-2.46C438 988 438 988 438 986l-2-1-1-3-2-2a86 86 0 0 1-2.094-4.281l-1.183-2.551-2.446-5.336-1.183-2.55-1.073-2.343c-.982-2.098-.982-2.098-3.021-3.939-3-6.346-3-6.346-3-10l-2-1c-3-5.308-3-5.308-3-9h-2a1834 1834 0 0 1-3-6.375l-1.687-3.586C406 926 406 926 406 924l-2-1c-1.07-1.742-1.07-1.742-2.125-3.875l-1.07-2.117C400 915 400 915 400 912h-2l-.953-2.125c-2.902-6.434-5.901-12.79-9.184-19.04l-1.113-2.148-1.016-1.925C385 885 385 885 385 882h-2l-1-5h-2l-.793-2.078c-1.366-3.306-2.917-6.474-4.52-9.672l-.93-1.86a205 205 0 0 0-6.91-12.62C366 849 366 849 366 846h-2a563 563 0 0 1-2-4.313l-1.125-2.425C360 837 360 837 360 834h-2v-4h-2l-.953-2.195c-2.728-6.3-2.728-6.3-6.234-12.18-1.757-2.544-2.681-4.764-3.813-7.625q-1.474-3.044-3-6.063l-1.562-3.097a192 192 0 0 0-2.625-5.024C337 792 337 792 337 789h-2a4659 4659 0 0 1-3.555-7.121 474 474 0 0 0-2.89-5.664l-1.367-2.653-1.27-2.433C325 769 325 769 325 766h-2c-4.567-8.971-4.567-8.971-6.5-13.563a81 81 0 0 0-3.812-7.625c-8.297-14.707-8.297-14.707-9.938-21L302 721l-2-1-1-4-2-1c-.625-2.563-.625-2.563-1-5h-2c-4.408-9.41-4.408-9.41-5-14h-2c-2.88-6.386-2.88-6.386-3.562-9.875L283 684l-2-1c-2.328-2.732-3.653-5.33-4.875-8.688-1.605-4.161-3.497-7.928-5.719-11.789-1.993-3.577-3.784-7.25-5.593-10.924a288 288 0 0 0-5.04-9.728l-1.116-2.054a532 532 0 0 0-2.168-3.93C254.934 633.036 254 631.3 254 628h-2l-1.312-3.125a101 101 0 0 0-3.375-7.125C246 615 246 615 246 612h-2q-2.375-4.739-4.727-9.488a857 857 0 0 0-12.127-23.576 596 596 0 0 1-6.347-12.174C219.798 564.553 219.3 562.4 219 560h-2l-.77-2.047-1.042-2.703-1.02-2.672c-1.058-2.609-1.058-2.609-2.805-4.656C210 546 210 546 210 542h-2c-4.812-9.625-4.812-9.625-5.816-11.645a524 524 0 0 0-2.774-5.43l-1.66-3.238-1.578-3.05C195 516 195 516 195 513l-2-1c-.625-2.063-.625-2.063-1-4h-2l-1.125-2.75c-1.911-4.472-4.132-8.78-6.328-13.117-1.468-2.974-2.833-5.974-4.172-9.008-1.793-4.01-3.897-7.49-6.375-11.125a234 234 0 0 1-2.086-4.945c-2.001-4.498-4.536-8.748-6.914-13.055-3-5.6-3-5.6-3-9h-2l-1.375-3.25c-1.501-3.493-3.052-6.828-5.062-10.063-1.82-3.128-3.16-6.353-4.563-9.687l-1.687-3.313C144 416 144 416 144 414l-2-1-1-4-2-1a170 170 0 0 1-3.625-7.563q-1.076-2.333-2.156-4.664l-1.114-2.407c-4.21-9.011-8.597-17.913-13.878-26.35C117.03 365.052 116 363.068 115 361l-.895-1.79q-.978-1.956-1.953-3.917a401 401 0 0 0-2.523-4.93l-1.379-2.676-1.297-2.488C106 343 106 343 106 340h-2l-.812-1.844a460 460 0 0 0-8.313-17.531l-1.02-2.053c-1.44-2.872-2.893-5.633-4.597-8.361C88 308 88 308 88 305h-2l-1-6h-2l-1-6h-2l-.734-1.723c-1.668-3.841-3.36-7.557-5.516-11.152C72 277 72 277 72 274h-2v-4h-2c-12.187-24.375-12.187-24.375-13.09-26.191a265 265 0 0 0-2.039-3.961l-1.121-2.16-1.016-1.926C50 234 50 234 50 231h-2l-1.125-2.75c-2.827-6.6-5.89-13.271-9.875-19.25v-3l-2-1-1-3-2-1a323 323 0 0 1-1.95-5.348C27.782 189.924 24.8 184.483 22 179l-1.531-3.117c-1.403-2.842-1.403-2.842-2.938-5.297-1.906-3.218-3.47-6.567-5.031-9.961l-.895-1.922A767 767 0 0 1 9 153l-.922-1.966C7.325 149.382 6.655 147.693 6 146l1-2-2-1c-.786-2.379-1.454-4.7-2.062-7.125l-.526-1.977c-1.806-6.976-2.576-13.834-2.65-21.043l-.025-2.329q-.02-2.436-.032-4.873a430 430 0 0 0-.062-4.872c-.284-15.566 1.718-30.403 8.17-44.719l1.04-2.383C12.727 45.026 17.165 37.621 24 31l2.535-2.535L34 21l2.047-2.156c1.963-1.853 3.76-3.028 6.14-4.282 2.369-1.255 4.716-2.503 7.012-3.886C54.934 7.248 60.545 5.578 67 4l2.012-.718C78.522.134 88.114.579 98.01.612"/><path fill="#fefefe" d="M1170.332.379q3.04-.007 6.079-.02a2530 2530 0 0 1 16.595.017c5.98.015 11.959.002 17.938-.008 11.024-.014 22.047-.005 33.07.015q15.276.028 30.55.026h2.05l8.242-.002c25.741-.005 51.483.018 77.224.054a41098 41098 0 0 0 72.968.037h2.2l10.962-.003 2.184-.001c19.118-.004 38.237.006 57.355.02l2.061.002 2.058.002 6.148.004q14.256.012 28.512.008 18.37-.004 36.74.032c5.903.012 11.806.019 17.709.013q8.108-.007 16.217.023 2.93.008 5.86-.001C1641.797.547 1641.797.547 1651 4l2.728 1.005c5.268 1.997 10.274 4.403 15.272 6.995v2l1.797.359c3.571 1.04 6.217 3.475 9.078 5.766l1.891 1.502c4.272 3.452 7.999 6.9 11.234 11.373v2h2c1.508 1.898 1.508 1.898 3.125 4.375l1.633 2.46C1701 44 1701 44 1701 46h2q1.788 3.574 3.566 7.152 1.354 2.693 2.774 5.352c4.513 8.546 6.849 16.94 7.351 26.598L1717 87l2 1c2.8 13.895 1.41 29.977 0 44h-2l.687 2c.357 3.422-.482 5.591-1.785 8.73-1.588 3.996-2.71 8.143-3.902 12.27h-2l-.273 2.562c-.827 3.91-2.405 7-4.352 10.438q-1.092 1.985-2.18 3.973l-1.112 2.024c-1.682 3.111-3.263 6.271-4.833 9.44l-1.723 3.473L1694 190q-1.544 3.094-3.098 6.184a271 271 0 0 0-1.96 4.039c-.353.73-.704 1.461-1.067 2.214l-.945 1.997C1686 206 1686 206 1684 207l-.688 2.812c-1.235 4.733-3.797 8.564-6.304 12.723-3.383 5.717-6.218 11.733-9.139 17.694-1.275 2.598-2.572 5.184-3.869 7.771l-1.934 3.871q-2.042 4.086-4.101 8.164l-1.014 2.014q-1.017 2.02-2.039 4.039A202 202 0 0 0 1649 279h-2l-.75 2.496c-1.444 4.048-3.284 7.753-5.25 11.566-2.182 4.257-4.32 8.45-6 12.938h-2l-.375 2.25c-.58 2.551-1.362 4.477-2.625 6.75h-2l-.281 2.617c-.803 3.78-2.18 6.24-4.219 9.508-2.937 4.66-2.937 4.66-4.5 9.875h-2l-.313 2.125c-.788 3.297-2.1 5.883-3.687 8.875l-1.688 3.375L1610 354h-2l-.25 1.937c-1.045 4.268-2.89 8.094-4.75 12.063h-2l-.366 1.702c-1.227 4.447-3.46 8.523-5.447 12.673l-1.33 2.828c-2.327 4.883-4.787 9.351-7.857 13.797a76 76 0 0 0-2.063 4.437l-.988 2.305L1582 408q-.874 2.032-1.75 4.062L1579 415h-2l-.773 2.54c-1.339 3.775-3.028 7.28-4.852 10.835l-2.148 4.234-1.113 2.186a645 645 0 0 0-3.278 6.596l-1.06 2.15q-.998 2.025-1.985 4.054c-1.991 4.022-4.254 7.707-6.791 11.405a86 86 0 0 0-2 4h-2v3h-2v3a139 139 0 0 1-5 5 386 386 0 0 0-2.563 3.25c-10.355 12.178-26.14 20.907-41.437 24.75l-2.969.902c-21.337 5.967-42.07 1.573-61.406-7.965l-2.093-1.031c-6.776-3.412-6.776-3.412-9.532-5.906v-2l-1.688-.188c-3.263-1.146-4.953-3.332-7.312-5.812l-3-2v-3l-1.813-.75c-2.503-1.43-3.668-2.82-5.187-5.25v-2h-2l-1.313-2.813c-1.416-3.067-1.416-3.067-3.144-4.613-9.575-9.769-13.95-29.38-15.543-42.574l-.5-2.86c-2.03-11.781-1.827-22.543.062-34.34.49-2.657.49-2.657.438-4.8h2l.312-3.813c1.089-9.542 3.732-23.23 10.688-30.187a195 195 0 0 0 3-6 704 704 0 0 1 11.84-22.948A142 142 0 0 0 1417 299h2l.277-2.074c.885-3.582 2.5-6.546 4.285-9.739q1.088-1.988 2.168-3.98c.373-.686.747-1.372 1.13-2.08 1.903-3.552 3.714-7.148 5.515-10.752l1.01-2.007c1.697-3.404 3.266-6.811 4.615-10.368h2l.371-2.262c.601-2.616 1.323-4.272 2.691-6.55 2.995-5.173 5.624-10.505 8.259-15.867 2.578-5.22 2.578-5.22 3.679-6.321.514-4.628.514-4.628-1.269-8.703-3.106-2.327-7.06-1.714-10.797-1.691l-2.845-.019c-3.16-.017-6.32-.012-9.48-.007q-3.39-.01-6.78-.026c-6.148-.022-12.296-.025-18.445-.023q-7.69-.002-15.381-.017c-12.784-.02-25.568-.021-38.352-.014-11.107.006-22.213-.015-33.32-.048q-17.1-.051-34.2-.044c-6.401.002-12.803-.004-19.205-.028-6.019-.023-12.037-.02-18.056 0q-3.319.005-6.637-.016a707 707 0 0 0-9.04.015l-2.67-.038c-2.288.033-4.305.101-6.523.659-2.473 2.39-2.473 2.39-4 5h-2l-.25 2.562c-.702 3.216-1.727 5.38-3.43 8.16-1.835 3.166-3.446 6.439-5.07 9.715l-.963 1.94A2935 2935 0 0 0 1204 249h-2l-.324 2.14c-.756 3.197-1.969 5.701-3.489 8.61A244 244 0 0 0 1191 275h-2l-.382 1.733c-1.104 4.05-3.069 7.738-4.868 11.517l-1.16 2.488a118 118 0 0 1-7.529 13.525c-1.317 2.155-2.157 4.382-3.061 6.737-1.891 3.714-3.905 7.365-5.898 11.025l-1.204 2.237-1.104 2.03c-.935 1.696-.935 1.696-.794 3.708h-2l-.48 1.687c-1.465 4.791-3.24 8.661-5.997 12.82-5.297 8.668-9.528 18.17-13.523 27.493h-2l-.348 2.172c-.686 2.977-1.716 5.355-3.09 8.078l-1.308 2.64C1133 387 1133 387 1131 388v4h-2l-.875 3.187c-.897 3.041-1.89 5.9-3.125 8.813h-2c-1.748 4.304-3.377 8.648-5 13h-2l-.313 2.187c-.763 3.123-2.022 5.063-3.687 7.813a580 580 0 0 0-3.75 7.5 467 467 0 0 1-9.805 18.73c-1.332 2.553-2.42 5.083-3.445 7.77-.986 2.34-1.994 4.669-3 7h-2l-.188 2c-.75 2.774-1.472 4.166-3.03 6.496-3.175 4.973-5.611 10.224-8.095 15.566-4.752 10.084-9.58 20.13-15.343 29.684-1.406 2.358-2.347 4.7-3.344 7.254-1.41 2.943-2.863 5.776-4.563 8.562-1.47 2.334-1.47 2.334-2.269 4.637-1.471 3.528-3.375 6.755-5.293 10.051-3.692 6.438-6.961 12.989-10.058 19.73-2.277 4.937-4.77 9.695-7.43 14.438-2.371 4.415-4.38 8.992-6.387 13.582h-2l-1 6h-2l-.742 2.508c-1.45 4.027-3.336 7.618-5.383 11.367-4.158 7.728-8.128 15.534-12.02 23.399a1818 1818 0 0 1-3.543 7.101l-1.171 2.344-4.832 9.66q-1.362 2.728-2.711 5.46c-3.202 6.464-6.555 12.83-9.989 19.173-4.009 7.21-4.009 7.21-6.609 14.988h-2l-.813 2.625c-1.158 3.293-2.57 6.286-4.187 9.375h-2l1 3-1 2h-2l-.813 2.562c-1.235 3.577-2.664 6.977-4.187 10.438h-2l-.25 2.562c-.918 4.209-2.413 6.827-4.75 10.438l-2 1a79 79 0 0 0-1 4 141 141 0 0 1-2.063 4.75l-1.097 2.422L942 759h-2l-.32 2.129c-.77 3.254-2.02 5.84-3.555 8.808l-1.555 3.028L933 776a2147 2147 0 0 0-3 6l-6 12h-2l-.25 2.562c-.915 4.193-2.513 6.778-4.75 10.438a707 707 0 0 0-2 4q-1.328 2.487-2.664 4.972a669 669 0 0 0-10.422 20.235c-2.225 4.452-4.577 8.836-6.914 13.23a370 370 0 0 0-10.527 21.461c-1.342 2.826-2.86 5.427-4.473 8.102l-1 3h-2l-.309 2.137c-.79 3.274-2.096 5.749-3.754 8.675l-1.66 2.958L870 898h-2v2c-7.887 1.426-7.887 1.426-11.938-.125-2.35-2.136-3.164-3.855-4.062-6.875h-2l-.988-2.23-1.325-2.958-1.3-2.917c-1.317-2.749-2.809-5.292-4.387-7.895a589 589 0 0 1-3-7c-2.659-5.47-5.615-10.762-8.574-16.074C829 851 829 851 829 848h-2l-1.023-2.266-1.352-2.984c-.44-.975-.882-1.95-1.336-2.953a92 92 0 0 0-2.453-4.969C820 833 820 833 820 830h-2c-.26-.706-.52-1.413-.79-2.14-1.295-3.06-2.864-5.768-4.585-8.61A120 120 0 0 1 805 804c-3.01-7.07-6.412-13.788-10.438-20.34-1.816-3.092-3.408-6.258-5-9.473l-.939-1.888a769 769 0 0 1-3.72-7.569c-2.497-5.133-5.38-10.005-8.317-14.898-1.442-2.574-2.509-5.093-3.586-7.832a176 176 0 0 0-2.563-4.438c-2.005-3.526-3.121-6.458-3.437-10.562h-2l-.875-2.375c-.974-2.722-.974-2.722-3.125-4.625-.68-1.6-1.357-3.2-2.016-4.809-1.19-2.649-2.573-5.153-3.984-7.691-3.968-7.237-7.559-14.031-7-22.5 2.054-6.495 5.124-12.372 8.312-18.375l1.397-2.672c2.82-5.35 5.804-10.56 8.983-15.706 1.669-2.867 2.948-5.833 4.238-8.884 1.682-3.714 3.7-7.236 5.703-10.785 1.314-2.478 2.377-4.956 3.367-7.578h2l.687-2.96c1.337-4.677 3.77-8.554 6.313-12.665 3.955-6.456 3.955-6.456 7-13.375a197 197 0 0 1 2.125-4.313l1.07-2.113L800 584h2l.312-2.188c.752-3.072 2.04-5.133 3.688-7.812.696-2.191.696-2.191 1-4h2l.812-3.125c.998-3.524 2.454-6.644 4.188-9.875h2l.812-2.61c1.18-3.369 2.586-6.452 4.188-9.64l1.562-3.14C824 539 824 539 826 537c.888-1.965.888-1.965 1.625-4.125.26-.724.52-1.449.79-2.195L829 529h2l.285-1.559c.986-3.367 2.565-6.39 4.152-9.504l1.063-2.102c6.624-13.053 13.523-25.967 20.5-38.835h2l.168-2.418c1.137-4.896 3.54-8.634 6.144-12.895 3.682-6.08 6.963-12.114 9.688-18.687h2l.32-2.656c.705-3.468 1.793-5.794 3.555-8.844 1.659-2.919 3.27-5.797 4.75-8.813C887 420 887 420 888.832 417.332c2.384-3.665 4.317-7.409 6.23-11.332l1.026-2.078 1.01-2.047.977-1.98c.864-1.77 1.706-3.551 2.546-5.333C902 392 902 392 904 391v-4h2l.328-1.645c2.156-7.557 6.784-14.628 10.637-21.44 1.21-2.24 2.184-4.517 3.035-6.915h2l1-5h2l.309-2.105c.808-3.386 2.158-6.118 3.753-9.208l1.66-3.238L932 335h2l.437-2.313C935 330 935 330 936 327h2l.398-1.783c.94-3.458 2.663-6.541 4.29-9.717l2.167-4.281 1.092-2.145c1.532-3.017 3.042-6.046 4.553-9.074l2.5-5h2l.238-2.031c.997-3.884 2.924-7.051 4.95-10.469 4.053-7 7.573-14.082 10.812-21.5h2l.312-1.625c1.685-5.82 5.164-11.216 8-16.563l1.211-2.286a781 781 0 0 1 6.54-12.089c2.442-4.439 4.697-8.956 6.937-13.5 2.182-4.42 4.398-8.744 7-12.937 3.766-6.083 6.83-12.511 9.98-18.928 1.657-3.365 3.34-6.718 5.02-10.072l1.75-3.5 1.25-2.5h2l.437-2.313C1024 162 1024 162 1025 159h2l.375-1.688c.685-2.533 1.616-4.891 2.625-7.312h2l.254-2.016c.984-3.934 2.753-7.187 4.683-10.734l1.092-2.074c2.714-5.047 2.714-5.047 4.971-6.176q.525-2.495 1-5c1.016-2.172 1.016-2.172 2.25-4.32l1.344-2.371 1.406-2.434q1.379-2.408 2.75-4.82l1.234-2.141c1.149-2.037 1.149-2.037 2.016-4.914h2l.437-2.875C1058 97 1058 97 1059 95h2l.3-2.152c.804-3.273 2.12-5.544 3.887-8.41 4.017-6.693 7.476-13.59 10.864-20.618 4.693-9.617 10.54-18.267 16.949-26.82l1.613-2.32L1096 33h2v-2h2v-2h2l1-3c1.392-1.331 1.392-1.331 3.176-2.672l1.993-1.505 2.143-1.573 2.18-1.615c14.66-10.716 14.66-10.716 20.256-12.053 2.405-.572 2.405-.572 5.21-1.752C1148.851.642 1158.754.298 1170.331.38"/></svg>