<svg xmlns="http://www.w3.org/2000/svg" width="7686" height="1243"><path fill="#fefefe" d="M5901.057 1.608c4.614.007 9.227-.004 13.84-.012 9.018-.013 18.036-.01 27.054-.002q11.017.01 22.036.005l3.181-.002 6.402-.003c19.977-.008 39.954.001 59.93.018q25.597.018 51.193-.003a46880 46880 0 0 1 66.046-.01l3.175.001q10.965.003 21.93-.009 13.422-.013 26.844.01 6.82.014 13.642.001c17.752-.036 35.372.28 53.069 1.778l2.199.185C6325.222 8.201 6377.153 22.548 6426 45q2.486 1.12 4.973 2.238c26.501 12.073 52.374 27.417 75.285 45.4a369 369 0 0 0 5.148 3.94c11.562 8.732 22.458 18.146 33.063 28.008a493 493 0 0 0 4.75 4.316c7.191 6.496 13.863 13.304 20.34 20.509 1.4 1.544 2.82 3.068 4.25 4.585 6.326 6.737 12.12 13.773 17.734 21.11a642 642 0 0 0 4.547 5.824A401 401 0 0 1 6629 230l1.35 2.375c52.688 93.386 70.794 202.38 44.46 364.954-8.426 29.842-19.99 57.95-33.81 85.671l-1.182 2.376c-10.17 20.262-22.493 39.312-35.818 57.624l-1.602 2.207c-8.748 11.996-18.127 23.31-28.132 34.281a216 216 0 0 0-3.721 4.212c-5.059 5.896-10.48 11.383-15.983 16.863l-2.736 2.748c-5.113 5.106-10.323 10.007-15.826 14.689l-2.922 2.563c-22.977 19.803-48.383 37.04-75.078 51.437 4.044 4.918 8.372 9.413 12.904 13.885 2.602 2.58 5.101 5.195 7.471 7.99 3.186 3.74 6.634 7.173 10.125 10.625 4.055 4.01 7.94 8.059 11.629 12.41 3.013 3.365 6.257 6.495 9.469 9.668 3.333 3.308 6.454 6.719 9.496 10.297 2.529 2.819 5.212 5.464 7.906 8.125 3.877 3.83 7.562 7.72 11.094 11.875 2.529 2.819 5.212 5.464 7.906 8.125 3.877 3.83 7.562 7.72 11.094 11.875 2.529 2.819 5.212 5.464 7.906 8.125 3.877 3.83 7.562 7.72 11.094 11.875 2.529 2.819 5.213 5.464 7.906 8.125 3.909 3.866 7.684 7.769 11.238 11.969a128 128 0 0 0 4.055 4.437c24.624 25.96 34.526 58.245 34.02 93.551-1.055 32.627-17.227 62.57-40.313 85.043-27.643 25.387-59.334 34.31-96.372 33.195-31.39-1.69-56.401-17.491-77.082-40.19-5.55-6.088-11.368-11.888-17.242-17.664-3.363-3.324-6.635-6.661-9.714-10.251-4.267-4.96-8.932-9.502-13.59-14.09-9.63-9.485-9.63-9.485-13.469-13.969-4.392-5.123-9.228-9.796-14.031-14.531-5.42-5.344-10.734-10.68-15.686-16.463-3.74-4.2-7.809-8.091-11.814-12.037-9.63-9.485-9.63-9.485-13.469-13.969-4.392-5.123-9.228-9.796-14.031-14.531-5.41-5.334-10.712-10.66-15.654-16.432-3.911-4.383-8.164-8.445-12.346-12.568-5.42-5.344-10.734-10.68-15.686-16.463-3.74-4.2-7.809-8.091-11.814-12.037-9.63-9.485-9.63-9.485-13.469-13.969-4.392-5.123-9.228-9.796-14.031-14.531-5.42-5.344-10.734-10.68-15.686-16.463-3.74-4.2-7.809-8.091-11.814-12.037q-2.597-2.559-5.188-5.125l-2.292-2.258C6176 941 6176 941 6174.786 939.03c-2.565-3.791-4.528-5.746-9.074-6.774-4.267-.283-8.472-.312-12.745-.256q-2.454-.012-4.91-.033c-4.43-.03-8.857-.009-13.287.02-4.634.022-9.268-.001-13.901-.02-8.77-.028-17.538-.016-26.307.011a6093 6093 0 0 1-29.956-.007c-20.535-.04-41.07-.025-61.606.029l.006 2.876q.066 34.72.098 69.44.014 16.791.047 33.582.03 14.643.037 29.287.003 7.746.023 15.492.02 7.308.015 14.616 0 2.666.012 5.33c.058 13.86-.44 27.774-4.3 41.19l-.632 2.22c-5.897 19.525-16.864 35.878-30.306 50.967l-1.8 2.023c-19.04 20.127-47.857 33.037-75.47 34.103-34.104.71-64.78-4.611-91.73-27.126l-2.98-2.484c-24.92-21.461-39.37-52.117-41.807-84.712-.39-6.95-.351-13.9-.342-20.859l-.005-5.108q-.006-7.002 0-14.003 0-7.625-.007-15.248-.007-13.358-.005-26.714 0-19.862-.008-39.724a206525 206525 0 0 1-.013-83.356v-2.075q-.001-22.775-.005-45.55l-.003-18.767v-2.095a693856 693856 0 0 1-.01-156.737 458238 458238 0 0 0-.031-177.268v-2.219q-.01-33.864-.012-67.729v-69.716q0-33.087-.015-66.174-.013-34.263-.004-68.526.006-19.743-.007-39.487-.009-13.196.002-26.392.007-7.514-.003-15.027-.011-6.85.003-13.701.003-2.448-.005-4.896c-.027-8.576.282-17.027 1.163-25.562l.241-2.341c3.736-33.125 22.773-62.881 48.431-83.487 29.137-22.221 62.214-24.513 97.48-24.435M6003 251v433l116.687.125 36.757.055c10.934.007 10.934.007 21.869.01q7.268.005 14.537.021 9.306.02 18.613.015 3.393 0 6.787.012c17.977.06 35.994-.53 53.625-4.363l3-.646c37.352-8.456 71.705-27.622 99.125-54.229l1.793-1.715c8.362-8.017 16.055-16.244 22.94-25.569a475 475 0 0 1 3.814-5.071c6.759-9.035 12.27-18.637 17.453-28.645l1.298-2.498c25.91-50.455 26.732-106.33 9.994-159.892-7.51-22.998-18.205-44.932-32.292-64.61l-1.191-1.687c-12.65-17.7-29-32.926-46.809-45.313l-1.72-1.218c-17.18-12.05-36.459-21.069-56.28-27.782l-2.191-.752c-24.145-8.14-48.797-9.404-74.04-9.362h-7.124q-9.493.001-18.987.013-8.925.007-17.85.006c-17.373.006-34.747.02-52.12.033zM2200.796 1.619q3.531-.005 7.062-.014 8.625-.015 17.248 0c6.898.01 13.795.002 20.693-.007 13.511-.015 27.023-.014 40.534-.005q17.738.011 35.474.006l2.382-.001 9.575-.003c29.905-.01 59.81 0 89.714.015q39.801.021 79.602-.001a105487 105487 0 0 1 99.113-.01h2.377q17.72.005 35.44-.008 20.16-.013 40.321.01c6.852.008 13.704.011 20.556.001q9.423-.013 18.845.012 3.394.005 6.789-.006C2764.09 1.496 2794.253 10.956 2822 37l1.79 1.559c21.075 19.227 32.324 51.967 34.085 79.707L2858 121l.125 2.297c.945 34.256-12.217 68.309-35.631 93.191-3.858 3.905-8.087 7.256-12.494 10.512l-2.383 1.82a116.6 116.6 0 0 1-31.492 16.493l-1.992.697c-14 4.52-28.144 5.43-42.73 5.35l-5.439.009c-4.933.006-9.865-.006-14.798-.02-5.338-.014-10.676-.01-16.013-.007q-13.848.001-27.696-.025a25830 25830 0 0 0-40.042-.036q-32.489-.01-64.977-.055a89680 89680 0 0 0-67.065-.064l-30.764-.018c-50.203-.028-100.406-.088-150.609-.144v233l71.555-.105a158850 158850 0 0 1 68.447-.06l2.985-.002q23.81-.021 47.62-.064 24.459-.043 48.919-.051 15.076-.005 30.153-.042 10.358-.023 20.714-.017c3.976.002 7.952 0 11.927-.017 37.355-.145 37.355-.145 54.617 5.92l2.197.757c30.807 11.148 55.984 34.025 69.971 63.652 2.864 6.493 4.977 13.206 6.895 20.029l1.035 3.574c7.125 30.124 2.136 64.876-13.976 91.254-3.046 4.693-6.379 8.963-10.059 13.172l-2.457 2.895c-22.783 26.294-54.223 38.483-88.302 40.926-10.865.6-21.768.442-32.648.411-3.9-.009-7.799-.006-11.698-.004q-10.096.001-20.193-.017c-9.731-.016-19.463-.021-29.194-.024q-23.693-.007-47.384-.036-22.993-.029-45.986-.041l-2.9-.002-22.457-.012c-36.594-.018-73.187-.059-109.781-.096v258l93.797-.105a272888 272888 0 0 1 89.675-.06l3.91-.002c20.805-.013 41.61-.037 62.415-.064q32.05-.043 64.099-.051 19.762-.005 39.523-.042 13.567-.023 27.136-.017c5.212.002 10.423 0 15.635-.017q7.177-.02 14.355-.005 2.576.003 5.153-.012c36.11-.188 67.533 10.87 93.614 36.25 21.418 21.694 33.664 53.864 34.688 84.125l.121 2.469c.892 34.004-10.54 64.966-33.583 89.925-18.646 19.468-47.602 33.55-74.732 34.699-2.558.039-5.114.045-7.672.041l-2.975.007q-4.946.009-9.892.006l-7.155.011q-8.808.014-17.617.016-10.553.005-21.105.02-25.506.03-51.014.04l-24.145.015a218012 218012 0 0 1-106.132.047q-41.927.013-83.854.064a84487 84487 0 0 1-98.45.058h-2.423c-12.85.003-25.698.019-38.547.04q-19.392.03-38.784.016-11.505-.01-23.01.022c-5.743.015-11.486.01-17.23-.005q-3.466-.003-6.934.014c-35.404.171-66.482-10.207-91.992-35.192-32.686-33.05-36.357-71.508-36.254-115.756.008-5.128 0-10.255-.007-15.383q-.014-13.457.001-26.915c.014-13.34.01-26.682.004-40.022q-.017-33.675.003-67.35a115823 115823 0 0 0 .014-87.739v-49.276q.001-34.155.014-68.31v-2.237l.015-35.958q.027-71.32.02-142.64l-.002-9.017v-2.251l-.003-24.69v-2.237a369771 369771 0 0 1 .01-123.795l.001-2.105.003-14.68a149330 149330 0 0 0 .003-58.38q-.004-37.61.017-75.222.014-19.887.006-39.775-.004-13.287.011-26.573.01-7.567.002-15.136a3840 3840 0 0 1 .009-13.79q.003-2.469-.004-4.938c-.036-13.462.59-27.004 4.387-40.013l.637-2.227C2074.941 72.656 2083.426 57.742 2095 44l1.898-2.309c26.571-31.288 64.625-40.199 103.898-40.072M7028.796 1.619q3.531-.005 7.062-.014 8.625-.015 17.248 0c6.898.01 13.795.002 20.693-.007 13.511-.015 27.023-.014 40.534-.005q17.738.011 35.474.006l2.382-.001 9.575-.003c29.905-.01 59.81 0 89.714.015q39.801.021 79.602-.001a105487 105487 0 0 1 99.113-.01h2.377q17.72.005 35.44-.008 20.16-.013 40.321.01c6.852.008 13.704.011 20.556.001q9.422-.013 18.845.012 3.395.005 6.789-.006c37.54-.112 67.77 9.33 95.479 35.392l1.86 1.664c5.726 5.333 9.875 11.833 14.14 18.336l1.66 2.465c18.045 28.15 21.851 64.108 15.126 96.307-7.434 32.715-26.716 60.418-55.075 78.302-17.267 10.396-37.075 17.127-57.382 17.049l-2.255.004q-3.735.002-7.468-.007l-5.413.003q-7.433.002-14.866-.007-8.017-.005-16.035-.002-13.888 0-27.778-.008-20.08-.011-40.162-.012-32.58-.004-65.16-.019a271643 271643 0 0 0-98.101-.027c-50.364-.01-100.727-.03-151.091-.048v233l71.555-.105a158850 158850 0 0 1 68.447-.06l2.985-.002q23.81-.021 47.62-.064 24.459-.043 48.919-.051 15.076-.005 30.153-.042 10.358-.023 20.714-.017c3.976.002 7.952 0 11.927-.017 37.359-.145 37.359-.145 54.617 5.92l2.199.76c30.758 11.144 56 34.059 69.969 63.65 2.864 6.492 4.977 13.205 6.895 20.028l1.035 3.574c6.933 29.313 2.424 63.564-12.973 89.426-3.675 5.634-7.688 10.893-12.062 16l-2.082 2.488c-19.842 22.988-49.135 37.186-79.302 39.806-8.518.586-16.99.847-25.53.826l-3.987.003q-5.404.002-10.81-.007-5.855-.005-11.71-.002-10.122 0-20.242-.008-14.634-.011-29.267-.012-23.746-.004-47.493-.019-23.055-.014-46.11-.02h-2.904l-22.493-.007c-36.69-.01-73.38-.03-110.07-.048v258l93.797-.105a272888 272888 0 0 1 89.675-.06l3.91-.002c20.805-.013 41.61-.037 62.415-.064q32.05-.043 64.099-.051 19.762-.005 39.523-.042 13.567-.023 27.136-.017c5.212.002 10.423 0 15.635-.017q7.177-.02 14.355-.005 2.576.003 5.153-.012c35.97-.187 67.087 10.75 93.177 35.875 23.55 24.377 35.256 58.163 35.156 91.723-.617 29.61-9.272 57.405-29.031 79.777l-1.629 2.063c-17.747 22.061-47.915 34.662-75.371 37.937-3.292.139-6.58.138-9.875.131l-2.977.007q-4.95.006-9.901.002l-7.161.01q-8.816.01-17.633.01-10.56.002-21.123.014c-17.018.016-34.036.022-51.054.027q-12.08.004-24.16.01a243046 243046 0 0 1-103.568.03h-2.615c-27.972.003-55.945.02-83.917.042a112133 112133 0 0 1-100.93.04q-19.29.005-38.582.027-19.401.022-38.803.01-11.516-.007-23.032.015c-5.743.011-11.487.006-17.23-.005q-3.473-.002-6.947.01c-34.907.124-65.086-9.846-90.492-34.38l-2.406-2.215c-21.67-20.487-33.702-50.27-34.764-79.791-.304-11.113-.235-22.234-.21-33.35.01-5.132 0-10.265-.006-15.398q-.014-13.472.001-26.945c.014-13.356.01-26.712.004-40.068q-.016-33.713.003-67.425a116103 116103 0 0 0 .014-87.84V794.64a206826 206826 0 0 1 .015-70.627l.014-36q.027-71.403.02-142.804l-.002-9.026v-2.255q0-12.358-.003-24.716v-2.24a370582 370582 0 0 1 .01-123.93l.001-2.108.003-14.696q.007-22.971.004-45.941v-12.504q-.006-37.654.016-75.31a39614 39614 0 0 0 .006-39.822q-.004-13.302.011-26.603.01-7.577.002-15.155-.008-6.903.009-13.806.003-2.472-.004-4.944c-.038-14.103.834-27.987 4.887-41.59l.782-2.664c9.816-32.064 32.128-57.524 61.535-73.191 21.912-11.206 44.597-13.167 68.854-13.089M3485.75 1.813l3.266.001c17.413.027 34.646.457 51.984 2.186l3.864.375C3614.571 11.275 3683.697 32.17 3743 70l1.99 1.263c16.23 10.366 31.644 21.916 46.01 34.737l2.555 2.254A665 665 0 0 1 3801 115c.585.534 1.17 1.068 1.771 1.619 13.635 12.48 13.635 12.48 18.51 18.35 1.787 2.111 3.66 4.126 5.553 6.142 6.511 6.962 12.413 14.294 18.166 21.889l1.653 2.169C3901.37 237.188 3929.361 325.113 3944 452l.249 3.762c.877 14.127.897 28.232.891 42.382q.003 4.077.01 8.153.01 9.973.01 19.947.002 11.961.014 23.922c.016 19.258.022 38.516.027 57.774q.004 13.676.01 27.351a312345 312345 0 0 1 .03 117.282v2.957c.003 31.661.02 63.323.042 94.984a143899 143899 0 0 1 .04 111.582v2.746q.005 21.84.027 43.678.022 21.954.01 43.907-.007 13.029.015 26.058.015 8.717-.001 17.435-.01 4.958.006 9.914c.12 38.463-8.847 70.279-36.38 98.166-24.013 24.052-57.996 36.838-91.687 37.313-37.782-.16-69.693-15.198-96.178-41.812-28.74-29.739-32.292-66.975-32.273-106.425l-.009-7.939q-.009-8.61-.01-17.218-.001-12.805-.014-25.609-.017-20.235-.027-40.468c-.01-21.434-.03-42.867-.052-64.3l-.025-24.777-.002-2.78q-.033-32.743-.06-65.485l-.003-2.893a220337 220337 0 0 1-.063-92.774 141901 141901 0 0 0-.1-109.032l-.002-2.686c-.017-14.21-.022-28.42-.023-42.631q-.003-21.465-.037-42.932-.021-12.718-.012-25.436a4983 4983 0 0 0-.019-17.072q-.013-4.836-.003-9.673c.153-70.08-15.298-143.948-66.23-195.27-38.928-37.12-90.257-47.457-142.33-46.334-37.172 1.016-77.72 10.37-107.841 33.233l-2.512 1.883c-10.722 8.315-20.304 17.273-28.488 28.117l-1.758 2.316c-1.83 2.515-3.548 5.076-5.242 7.684l-1.112 1.707c-33.998 52.904-38.055 119.965-38.026 181.07q-.003 3.98-.009 7.96-.009 8.6-.01 17.2-.001 12.787-.014 25.575-.017 20.211-.027 40.422c-.01 21.387-.03 42.774-.052 64.16l-.025 24.732-.002 2.775a434195 434195 0 0 0-.063 68.17 217944 217944 0 0 0-.063 92.615 140826 140826 0 0 1-.102 111.5c-.017 14.198-.022 28.394-.023 42.59q-.003 21.406-.037 42.812-.022 12.702-.012 25.404.005 8.5-.019 17a1910 1910 0 0 0-.003 9.664c.085 39.102-10.452 71.043-38.092 99.406-25.322 24.038-60.316 35.871-94.872 35.39-36.368-.96-67.86-17.273-92.703-43.078-28.606-30.63-31.9-67.646-31.861-107.635l-.005-7.748q-.005-8.392 0-16.783.004-12.48-.002-24.96-.007-22.305-.002-44.61.004-19.539.002-39.077v-2.623l-.001-10.544q-.003-49.441.005-98.883.007-43.818 0-87.636a383575 383575 0 0 1-.004-109.16v-2.622q.002-19.494-.002-38.988-.004-22.215.003-44.432.005-11.314 0-22.628c-.034-79.856-.034-79.856 2.383-107.307l.19-2.243c7.293-85.627 31.92-171.5 148.7-323.957a323 323 0 0 1 5.25-4.187c2.425-1.905 4.754-3.893 7.078-5.918C3214.55 83.92 3230.068 73.624 3246 64l2.415-1.463c71.66-43.071 154.374-60.81 237.335-60.724M97.68 1.379q3.06-.007 6.119-.02c5.56-.017 11.118-.003 16.678.017 6.013.015 12.026.002 18.039-.008 11.082-.014 22.163-.005 33.245.015q15.356.028 30.71.026h2.063l8.289-.002c25.882-.005 51.764.018 77.646.054a41533 41533 0 0 0 73.356.037h2.211l11.022-.003 2.196-.001a58180 58180 0 0 1 59.748.022l2.07.002 2.065.001 4.117.003q14.333.012 28.664.008a16901 16901 0 0 1 36.933.032q8.901.02 17.801.013 8.153-.006 16.304.023 2.945.008 5.888-.001C562.97 1.57 572.276 1.747 582 5v2l3.125.312c3.921.696 6.426 1.748 9.875 3.688l3.25 1.75c3.948 2.272 7.622 4.914 11.32 7.566 2.415 1.724 2.415 1.724 5.035 3.184 2.353 1.474 3.812 2.821 5.583 4.937l1.789 2.13L624 33l2.46 2.84c5.188 6.052 9.753 12.119 13.54 19.16l1.25 2.293C644 62.535 644 62.535 644 66h2l.779 1.665q1.763 3.763 3.534 7.522l1.224 2.62c1.637 3.473 3.248 6.841 5.256 10.119C658 90 658 90 658 93h2l1.117 2.773c2.794 6.523 6.318 12.71 9.676 18.954l1.59 3 1.45 2.705C675 123 675 123 675.539 125.767L676 128l2 1a159 159 0 0 1 3 6 1541 1541 0 0 0 3.813 7.125C688.33 148.691 691.7 155.321 695 162q2.248 4.5 4.5 8.996a1635 1635 0 0 1 3 6.04c2.394 4.83 4.832 9.618 7.438 14.339 2.841 5.155 5.46 10.404 8.07 15.68 1.866 3.733 3.828 7.412 5.795 11.093C731.401 232.389 736.981 245.85 739 262l.515 2.297c.544 3.035.615 5.874.618 8.957l.004 3.588-.012 3.72.012 3.733-.004 3.584-.004 3.268c-.112 2.488-.443 4.479-1.129 6.853l-.656 3.625c-2.864 15.28-8.378 30.24-18.031 42.598-1.51 1.852-1.51 1.852-2.313 4.777h-2l-.812 1.766c-1.203 2.262-2.526 4.04-4.188 5.984l-1.562 1.86C708 360 708 360 706 360v2c-5.968 5.638-12.846 10.04-20 14l-2.29 1.34c-7.473 4.112-15.445 5.849-23.71 7.66l-2.426.594c-20.353 3.212-41.157-1.98-58.574-12.594l-2.258-1.355c-5.394-3.297-5.394-3.297-7.742-5.645l-2.875-2.313c-2.79-2.303-4.905-4.822-7.125-7.687l-2.32-2.227c-2.924-3.025-5.192-6.143-7.492-9.648-.43-.648-.858-1.297-1.3-1.965-5.109-7.858-9.744-16.081-13.392-24.723-1.453-3.337-3.12-6.321-4.996-9.437-4.43-7.517-8.118-15.372-11.818-23.268l-1.362-2.9-1.21-2.602c-1.148-2.423-1.148-2.423-3.11-5.23v-3l-2-1c-4-6.235-4-6.235-4-11h-2l-1.187-2.875c-3.526-8.5-3.526-8.5-8.47-16.176C513 238 513 238 513 234l-2-1a153 153 0 0 1-3.625-7.063l-1.753-3.605L504 219a828 828 0 0 0-43.604-1.161l-6.162-.015q-8.252-.019-16.503-.024l-10.33-.012q-16.192-.02-32.383-.027a19056 19056 0 0 1-37.283-.05q-14.466-.033-28.931-.034-8.622 0-17.242-.025-8.08-.023-16.161-.01-2.965.002-5.93-.013a942 942 0 0 0-8.083.004l-2.375-.025c-4.52.041-7.372.67-11.013 3.392.552 4.933 2.162 8.84 4.438 13.187l1.05 2.054A1101 1101 0 0 0 277 243l1.324 2.548q3.268 6.292 6.574 12.565l1.084 2.056c.923 1.66 1.965 3.251 3.018 4.831v4h2l.851 2.216c1.05 2.545 2.217 4.907 3.532 7.323l1.347 2.508a1845 1845 0 0 0 2.813 5.18l1.34 2.5 1.23 2.268C303 293 303 293 303 296h2l1.27 3.031c1.67 3.895 3.513 7.685 5.418 11.469l1.035 2.071a386 386 0 0 0 5.578 10.699l1.116 2.058a473 473 0 0 0 2.144 3.887c1.544 2.822 2.439 4.513 2.439 7.785h2l1.574 3.437c4.572 10.186 4.572 10.186 10.32 19.727 1.324 2.198 2.265 4.51 3.252 6.874 1.847 4.243 4.04 8.328 6.157 12.44C350 384.789 350 384.789 350 387h2l1 6h2l1.238 3.531c1.598 4.255 3.65 8.06 5.95 11.969 4.262 7.405 8.133 14.958 11.893 22.628a523 523 0 0 0 10.095 19.491c1.833 3.402 3.393 6.797 4.824 10.381q1.33 2.31 2.75 4.562a154.5 154.5 0 0 1 10.672 20.833c1.967 4.495 4.303 8.725 6.705 13 2.266 4.137 3.734 8.024 4.873 12.605h2l1.355 2.965c3.032 6.586 6.049 13.081 9.797 19.3C428 536 428 536 428 539h2l.854 1.817q1.945 4.125 3.896 8.245l1.344 2.858c1.95 4.115 3.9 8.164 6.234 12.076C444 567 444 567 444 570l2 1c.873 1.53 1.676 3.1 2.438 4.687.435.903.87 1.805 1.32 2.735L451 581l1.813 3.437C454 587 454 587 454 590h2l1.645 3.543 2.168 4.644 1.08 2.33c1.855 3.967 3.788 7.761 6.107 11.483q1.122 2.048 2.188 4.125l1.042 2.008C471 620 471 620 471 623h2l.779 1.665q1.763 3.763 3.534 7.522l1.224 2.62c1.98 4.202 4.023 8.235 6.463 12.193a402 402 0 0 1 3.688 7.125l.97 1.879c1.446 2.867 2.342 4.74 2.342 7.996h2l1.54 3.113c3.154 6.357 6.304 12.693 9.773 18.887 1.7 3.058 3.15 6.013 4.312 9.312 1.396 3.745 3.15 6.381 5.375 9.688 6 11.071 6 11.071 6 15l2 1a172 172 0 0 1 2.648 5.27 180 180 0 0 0 3.391 6.492l1.1 2.017a685 685 0 0 0 2.219 4.028C535 743.667 535 743.667 535 747h2l.523 1.555c2.517 6.856 5.96 13.018 9.556 19.346a208 208 0 0 1 8.046 15.849c2.399 5.25 4.953 10.27 7.875 15.25 3.358 5.726 6.22 11.566 8.991 17.594 2.825 6.11 5.931 12.03 9.15 17.941 1.656 3.086 3.231 6.197 4.788 9.334 1.964 3.908 4.024 7.766 6.071 11.631 3.072 5.8 6.088 11.619 9 17.5l1.113 2.041C603 877 603 877 603 880h2q1.76 3.4 3.5 6.812l1.012 1.948c1.49 2.935 2.488 4.901 2.488 8.24h2l1 6h2c.27.576.54 1.153.82 1.746a982 982 0 0 0 21.026 42.054 170 170 0 0 1 2.181 4.3c1.05 2.139 1.05 2.139 2.973 4.9v3h2l.375 2.937L647 965l2 1a173 173 0 0 1 3.875 7.562l1.027 2.096q1.035 2.112 2.066 4.227a488 488 0 0 0 8.97 17.49C674 1014.304 674 1014.304 674 1017c3.299 1.1 5.72 1.124 9.194 1.123l3.956.006 4.371-.009 4.624.003q6.369.002 12.738-.007 6.861-.005 13.724-.002 11.895 0 23.788-.008 17.197-.011 34.395-.012 27.9-.004 55.8-.019 27.105-.014 54.212-.02h3.374l16.756-.005q69.534-.016 139.068-.05v-4h2l.246-1.98c1.024-4.1 2.881-7.593 4.817-11.333l1.142-2.244q1.39-2.725 2.795-5.443h2l.344-2.172c.698-3.01 1.744-5.332 3.156-8.078l1.613-3.152c1.38-2.645 2.779-5.28 4.18-7.914l1.2-2.255q1.167-2.191 2.347-4.377A142 142 0 0 0 1082 952h2l.125-2.375c1.031-4.271 2.918-7.19 5.242-10.879 2.614-4.396 4.616-9.052 6.633-13.746h2l.438-2.813C1099 919 1099 919 1100 916h2l.75-2.527c1.411-3.921 3.237-7.4 5.25-11.036 2.245-4.078 4.385-8.056 6-12.437h2l.125-2.375c1.045-4.33 2.992-7.328 5.34-11.074 1.73-2.875 3.031-5.787 4.344-8.867 3.552-8.002 7.377-16.072 12.129-23.434 1.731-2.729 2.436-4.22 3.062-7.25h2l1-6h2l.227-2.012c1.044-4.034 3.03-7.237 5.148-10.8 2.314-3.901 4.523-7.656 6-11.958 2.027-5.73 5.217-10.86 8.25-16.105l3.54-6.18 1.576-2.734A89 89 0 0 0 1173 777h2l.688-1.625c1.768-3.2 3.849-5.665 6.312-8.375h2l.813-1.938C1186 763 1186 763 1189 762v-2a139 139 0 0 1 6.75-4.938l3.797-2.652 1.826-1.257c1.318-.934 2.584-1.942 3.83-2.97C1207 747 1207 747 1211 747v-2c13.564-5.903 25.704-7.155 40.313-7.25l3.362-.029c8.655.035 15.917.6 23.325 5.279 2.317.722 4.648 1.4 7 2v2l1.64.309c2.966.869 5.415 2.246 8.11 3.753l2.984 1.66L1300 754v2h3v2l1.742.762c13.366 7.33 22.31 24.131 28.449 37.495a145 145 0 0 0 2.157 4.407c2.648 5.372 3.403 10.37 3.652 16.336h2c2.407 19.383 4.824 41.223-2 60a1143 1143 0 0 0-1.297 3.953c-2.435 7.269-4.884 13.911-9.09 20.367-2.049 3.403-3.657 6.943-5.3 10.555-3.49 7.63-7.418 14.958-11.544 22.261-2.552 4.54-4.727 9.067-6.769 13.864-1.842 3.674-3.766 7.304-5.687 10.937-5.462 10.395-10.893 20.812-15.903 31.434C1282 993 1282 993 1280 994a332 332 0 0 0-2 6 248 248 0 0 1-3.562 7.187c-2.474 4.793-2.474 4.793-4.438 9.813h-2l-.437 1.812c-.45 1.75-.992 3.475-1.563 5.188h-2l-1 7h-2l-.23 2.016c-1.034 4.01-2.988 7.187-5.082 10.734-2.886 4.994-5.572 9.923-7.801 15.25-1.333 3.005-2.974 5.819-4.594 8.676-3.484 6.262-6.558 12.703-9.293 19.324h-2l-.371 1.703c-.681 2.487-1.623 4.702-2.691 7.047l-1.098 2.422-.84 1.828h-2l-.309 2.602c-.749 3.683-2.017 6.448-3.753 9.773l-1.66 3.21L1218 1118h-2l-.187 2.5c-.83 3.572-2.218 5.882-4.223 8.91-5.723 9.322-10.187 19.6-14.59 29.59h-2l-.246 1.98c-1.024 4.1-2.881 7.593-4.816 11.332l-1.143 2.245q-1.39 2.725-2.795 5.443h-2l-.312 2.687c-.705 3.396-1.643 5.532-3.688 8.313h-2l-.375 1.812C1177 1195 1177 1195 1175 1198h-2l-.824 1.781c-2.813 5.309-7.268 9.81-12.176 13.219h-2v2c-5.154 4.397-10.334 7.696-17 9v2q-3.998 1.444-8 2.875l-2.254.816-2.246.801-2.031.73c-6.642 2.093-12.434 3.071-19.366 3.032l-2.62.01c-2.894.008-5.788.003-8.681-.003l-6.292.011c-5.76.01-11.52.008-17.28.004-6.214-.002-12.427.007-18.64.014q-18.26.018-36.519.012a47915 47915 0 0 0-40.38.01q-29.885.013-59.77.008h-2.276l-18.296-.005q-35.67-.007-71.34.021a86592 86592 0 0 1-90.854.026q-15.88 0-31.76.016-18.068.019-36.136.002-9.216-.011-18.433.005-8.443.014-16.886-.007-3.049-.003-6.097.008c-13.255.049-25.566-.374-37.718-6.324l-3.258-1.59c-6.51-3.343-13.12-6.91-18.867-11.472v-2h-3a91 91 0 0 1-4-4l-2-1v-3l-3-1v-2h-2v-2h-2l-2-5h-2l-1-4h-2a700 700 0 0 1-2.937-5.188l-1.653-2.917c-1.316-2.702-1.983-4.939-2.41-7.895h-2c-2.304-4.295-3.782-8.315-5-13h-2l-1.125-3.313c-1.739-4.704-4.157-8.938-6.668-13.269C517 1143 517 1143 517 1140h-2c-1.46-2.647-2-3.894-2-7h-2l-.375-2.938L510 1127l-2-1a141 141 0 0 1-3.5-6.813l-.934-1.908q-1.288-2.637-2.566-5.279l-1.219-2.262C499 1108 499 1108 499 1105h-2v-3l-2-1a173 173 0 0 1-3.875-7.563l-1.027-2.095a891 891 0 0 1-2.05-4.21 207 207 0 0 0-2.197-4.339l-1.109-2.133-1.012-1.914C483 1077 483 1077 483 1074l-2-1a90 90 0 0 1-2.625-5.125c-2.76-5.671-5.672-11.242-8.659-16.797q-1.361-2.537-2.716-5.078l-1.234-2.25C465 1042 465 1042 465 1039h-2l-1-5h-2l-.7-1.871c-2.063-5.36-4.382-10.298-7.347-15.219C451 1015 451 1015 451 1012h-2l-1.125-2.75c-1.868-4.352-3.994-8.563-6.129-12.79a1148 1148 0 0 1-3.773-7.546l-1.054-2.123q-1.016-2.048-2.027-4.095c-1.61-3.236-3.283-6.384-5.134-9.489C428 970 428 970 428 967h-2a418 418 0 0 1-2-3.813l-1.125-2.144C422 959 422 959 422 956h-2l-.629-1.73c-2.832-7.453-6.536-14.293-10.371-21.27-4-7.464-4-7.464-4-11h-2l-1.68-3.395-2.195-4.418-1.105-2.236-1.075-2.158-.984-1.984c-1.054-2.056-1.054-2.056-2.961-4.809v-4l-2-1c-.625-2.063-.625-2.063-1-4h-2l-1.137-3c-3.6-9.362-3.6-9.362-8.574-18.043-1.606-2.439-3.008-4.96-4.414-7.52l-1.445-2.628c-1.32-2.592-2.448-5.222-3.573-7.902-1.97-4.385-4.393-8.56-6.716-12.766-2.002-3.698-3.654-6.894-4.141-11.141h-2l-1.215-2.684a404 404 0 0 0-11.37-22.895c-3.633-6.789-7.077-13.664-10.49-20.565q-1.365-2.734-2.757-5.454l-1.668-3.277-1.469-2.867C326 771 326 771 326 769l-2-1c-.914-1.595-.914-1.595-1.84-3.64-.34-.742-.682-1.483-1.033-2.247l-1.064-2.363c-2.156-4.742-4.315-9.315-7.063-13.75a683 683 0 0 1-3.687-6.875l-2.133-4.023-1.095-2.066a794 794 0 0 0-3.14-5.825 332 332 0 0 1-10.433-20.922c-2.106-4.578-4.563-8.805-7.227-13.074-2.586-4.456-4.086-9.22-5.285-14.215h-2c-1.257-2.906-2-4.796-2-8h-2a1293 1293 0 0 1-3.5-6.813l-1.012-1.947c-1.49-2.935-2.488-4.901-2.488-8.24h-2l-.629-1.73c-3.063-8.063-6.65-16.642-12.086-23.403C251 627 251 627 251 623h-2l-1-6h-2c-4.408-9.41-4.408-9.41-5-14h-2c-2.304-4.295-3.782-8.315-5-13h-2l-.629-1.73c-2.467-6.493-5.554-12.446-8.98-18.485C221 567 221 567 221 564h-2v-3h-2l-.375-2.938L216 555l-2-1c-.946-1.626-.946-1.626-1.91-3.71l-1.06-2.274-1.092-2.391-1.104-2.367c-1.422-3.07-2.763-6.046-3.834-9.258h-2l-.695-2.41c-1.665-4.58-3.88-8.74-6.18-13.028l-1.316-2.486c-1.965-3.696-3.962-7.342-6.13-10.924C187 502 187 502 187 498h-2c-3-6.625-3-6.625-3-10h-2l-1.437-3.438c-4.026-9.064-8.907-17.77-13.704-26.445l-1.921-3.492-1.723-3.086C160 449 160 449 160 446h-2l-.805-2.082-1.07-2.73-1.055-2.708c-1.058-2.657-1.058-2.657-3.07-5.48v-3h-2c-4.777-9.437-9.437-18.914-13.853-28.527A83 83 0 0 0 129 389c-.707-1.65-1.38-3.316-2-5-2.023-4.156-4.214-8.227-6.375-12.313l-1.172-2.224-1.164-2.201-1.147-2.17c-1.091-1.999-2.252-3.938-3.431-5.885C112 356 112 356 112 352h-2l-.779-1.665a4983 4983 0 0 0-3.533-7.523l-1.225-2.619c-1.637-3.473-3.248-6.841-5.256-10.119C98 328 98 328 98 325h-2l-1.258-3.004c-1.736-4.048-3.647-7.995-5.617-11.934l-1.059-2.127c-1.857-3.69-3.79-7.232-6.066-10.685-2-3.25-2-3.25-2-7.25h-2l-.779-1.665a4983 4983 0 0 0-3.533-7.523l-1.225-2.619c-1.637-3.473-3.248-6.841-5.256-10.119C66 266 66 266 66 263l-2-1v-3h-2l-1.242-3.023c-2.009-4.69-4.481-9.1-6.973-13.547-1.893-3.46-3.288-6.5-3.785-10.43h-2c-1.498-3.371-2-5.204-2-9h-2l-3-6-1.187-2.188C39 213 39 213 39 210h-2q-1.256-2.685-2.5-5.375l-1.406-3.023C32 199 32 199 32 197l-2-1a98 98 0 0 1-2.875-5.5l-1.602-3.285c-2.374-5.011-4.7-10.02-6.648-15.215-.699-2.179-.699-2.179-2.875-3-.86-1.574-.86-1.574-1.75-3.688l-1.047-2.468L12 160c-.48-1.062-.96-2.124-1.453-3.219C6.938 148.69 4.087 140.614 2 132l-.542-1.97c-1.98-8.127-1.795-16.365-1.774-24.678.003-2.583-.02-5.164-.045-7.747C-.398 87.647.367 78.663 3 69h1l.48-1.836C6.292 60.66 8.767 54.918 12 49l1.234-2.395C18.995 36.117 27.824 27.545 37 20l1-2C56.366 5.697 76 1.228 97.68 1.379M4248.397 1.869l3.767-.007q5.175-.006 10.348-.003 5.63-.001 11.26-.008 11.164-.011 22.33-.01 13.374-.004 26.749-.015c21.55-.016 43.1-.022 64.651-.027q15.296-.003 30.59-.01a389536 389536 0 0 1 131.121-.03h3.311c35.421-.003 70.842-.02 106.263-.042a179795 179795 0 0 1 124.715-.04h3.07q24.43-.005 48.86-.027 24.564-.022 49.13-.01 14.584.007 29.17-.015 9.755-.014 19.511.001 5.55.01 11.1-.006c40.343-.13 74.717 8.818 104.16 37.849 24.083 25.799 35.566 58.753 34.782 93.683-1.323 33.965-17.99 64.428-42.597 87.347-11.51 10.238-26.17 17.902-40.688 22.876l-1.97.686c-15.96 5.107-31.946 5.362-48.542 5.28h-7.278c-5.86.002-11.721-.011-17.582-.03a7696 7696 0 0 0-20.487-.03q-18.263-.01-36.526-.055a28124 28124 0 0 0-48.653-.075q-45.48-.048-90.962-.151l.001 2.306c.051 82.845.098 165.69.126 248.537l.001 3.75a1599877 1599877 0 0 1 .037 120.285l.001 3.978q.02 63.813.063 127.626a258047 258047 0 0 1 .056 153.385q.008 29.34.035 58.679.027 29.506.02 59.013-.004 17.524.022 35.048.017 11.718.003 23.438c-.004 4.445-.004 8.891.01 13.337.122 42.605-6.392 78.238-37.375 109.618-23.264 23.301-56.047 34.52-88.5 35.25-32.46-.654-60.436-11.41-83.5-34.25l-2.23-2.047c-21.33-19.925-31.664-50.128-32.936-78.68-.257-9.897-.23-19.794-.2-29.692.01-4.536.002-9.073-.003-13.61q-.007-11.898.011-23.797c.019-11.795.02-23.59.017-35.385q-.005-29.77.024-59.537.028-29.46.032-58.921l.001-3.705.003-18.63q.01-65.919.055-131.839.041-64.026.061-128.052l.001-3.99.012-39.663.025-80.794.001-3.752c.028-82.635.075-165.27.126-247.906l-3.88.011a59960 59960 0 0 1-102.687.209l-2.268.003c-12.08.017-24.158.049-36.237.086q-18.625.056-37.25.067-11.47.008-22.94.056c-5.887.024-11.775.026-17.663.02q-3.596.003-7.192.025c-17.894.11-35.541-.99-52.196-8.165l-2.484-1.037c-13.343-5.743-24.556-13.453-35.203-23.275l-2.902-2.652c-22.743-21.722-35.311-51.934-36.301-83.25-.552-35.674 11.002-68.183 36.004-93.996 23.674-23.506 54.53-35.284 87.596-35.233"/><path fill="#fefefe" d="M1168.944 1.492q3.032-.006 6.063-.019c5.53-.016 11.061-.008 16.592.004 5.974.01 11.947-.005 17.92-.016 11.02-.017 22.038-.015 33.057-.004a20947 20947 0 0 0 32.597.007l8.237-.004c25.742-.012 51.483-.001 77.225.02q34.272.029 68.542-.001a58602 58602 0 0 1 85.298-.014h2.045q15.258.006 30.515-.01 17.36-.018 34.72.013c5.901.01 11.803.015 17.704.001q8.115-.017 16.228.016 2.925.008 5.85-.007c26.401-.122 46.877 8.484 65.916 26.936C1700.02 40.92 1700.02 40.92 1701 47h2c15.39 30.212 23.075 63.681 13 97.062a463 463 0 0 1-2 5.938l-2 6h-2l-.234 2.516c-.947 4.309-2.777 7.474-5.016 11.234a2080 2080 0 0 0-2.453 4.25l-1.197 2.07c-4.377 7.63-4.377 7.63-7.1 15.93h-2l-.937 3.312A170 170 0 0 1 1689 202h-2l-.687 2.312c-1.795 5.041-4.054 9.841-6.313 14.688h-2l-1 6h-2l-.285 2.047c-.888 3.67-2.45 6.86-4.152 10.203l-.948 1.93c-2.362 4.693-2.362 4.693-4.615 5.82-.656 2.527-.656 2.527-1 5h-2v4h-2l-.375 2.187c-.615 2.77-1.51 5.21-2.625 7.813h-2l-.812 2.625c-1.162 3.3-2.599 6.263-4.188 9.375a203 203 0 0 0-2 5h-2l-.312 2.625c-.722 3.542-1.96 6.218-3.688 9.375h-2l-.25 1.937c-1.045 4.268-2.89 8.094-4.75 12.063h-2l-.375 2.25c-.58 2.551-1.362 4.477-2.625 6.75h-2l-.125 2.375c-1.055 4.371-3.063 7.434-5.441 11.21-1.609 2.709-2.633 5.371-3.434 8.415h-2l-.364 2.225c-.627 2.734-1.481 4.72-2.816 7.173l-1.316 2.454-1.379 2.523c-2.962 5.462-5.781 10.866-8.125 16.625h-2l-.498 1.661c-1.8 5.721-4.133 10.834-7.002 16.089l-2.652 4.957-1.398 2.596c-2.527 4.7-5.022 9.416-7.512 14.134l-1.446 2.709-1.34 2.538-1.187 2.236c-.937 2.02-1.506 3.906-1.965 6.08h-2l-.707 2.398c-1.651 4.6-3.779 8.87-5.98 13.227l-1.35 2.686c-3.41 6.725-7.06 13.238-10.963 19.689-1.345 2.327-2.672 4.663-4 7h-2l-1 4h-2v2h-2l-.75 1.687c-1.489 2.755-3.134 5.005-5.25 7.313h-3l-.719 1.797c-1.56 2.684-3.18 3.781-5.781 5.453l-2.406 1.578C1524 492 1524 492 1522 492v2c-20.221 10.95-43.464 16.187-66.09 9.91L1453 503l-3.066-.879c-7.171-2.189-13.512-5.274-19.934-9.121l-2.02-1.203c-1.667-1.047-1.667-1.047-3.98-2.797v-2l-1.75-.813c-2.306-1.216-4.27-2.49-6.25-4.187v-2h-2v-2l-1.687-.61c-3.212-1.93-5.123-4.673-7.313-7.64l-1.29-1.7c-4.6-6.11-8.376-12.119-11.335-19.175q-.893-2.098-1.79-4.195l-.779-1.852a63 63 0 0 0-1.84-3.803c-.977-2.049-1.517-3.894-2.001-6.107l-.514-2.326-.513-2.405-.526-2.369c-4.73-21.693-3.54-43.566 2.588-64.818h2l.25-2.875c.69-5.015 2.753-9.51 4.75-14.125h2l.75-2.563c.965-2.653 1.895-4.675 3.313-7.062 1.515-2.64 2.466-4.433 2.937-7.375h2l.375-2.25c.58-2.551 1.362-4.477 2.625-6.75h2l.188-2.438c.904-3.966 2.449-6.78 4.484-10.265 1.544-2.67 2.9-5.403 4.238-8.18.936-1.818 1.944-3.599 2.965-5.37 2.175-3.78 4.133-7.65 6.063-11.56l3.109-6.269c1.661-3.343 3.353-6.671 5.043-10 1.024-2.058 1.024-2.058 1.91-4.918h2l.266-2.05c.925-3.716 2.635-6.82 4.484-10.138q1.09-1.992 2.176-3.988c.53-.972.53-.972 1.073-1.963 1.788-3.323 3.44-6.711 5.09-10.103C1454 229 1454 229 1455 228c.072-1.52.084-3.042.063-4.563l-.028-2.503L1455 219c-5.085-1.03-9.941-1.14-15.102-1.127l-2.748-.005c-3.033-.004-6.066 0-9.099.003l-6.53-.006q-8.864-.005-17.727 0c-6.184.003-12.368 0-18.552 0q-15.58-.004-31.159.005-18.009.006-36.018-.002-15.462-.007-30.925-.003-9.235.003-18.47-.001-8.684-.004-17.367.005-3.186 0-6.372-.002-4.35-.002-8.702.006l-2.543-.007c-4.658.016-9.114.192-13.686 1.134-1.513 1.936-1.513 1.936-2 4h-2l-.187 2.437c-1.086 4.76-3.357 8.38-5.813 12.563-3.812 6.783-7.363 13.673-10.812 20.646-2.987 6.014-6.121 11.946-9.306 17.858-1.505 2.808-2.873 5.468-3.882 8.496h-2l-.191 2.43c-1.081 4.772-3.302 8.49-5.746 12.695l-2.715 4.758-1.219 2.106c-1.854 3.303-3.332 6.292-4.129 10.011h-2l-.368 2.232c-.614 2.69-1.435 4.646-2.741 7.061l-1.282 2.397-1.359 2.497-2.734 5.098-1.323 2.462c-1.852 3.497-3.57 7.055-5.255 10.636C1152 351 1152 351 1150 352l-.437 2.25c-.563 2.75-.563 2.75-1.836 4.871-2.262 3.77-4.067 7.706-5.914 11.691l-1.116 2.39q-1.352 2.897-2.697 5.798h-2l-.23 1.984c-1.055 4.133-3.03 7.548-5.082 11.266-3.158 5.827-6.129 11.63-8.688 17.75h-2v4h-2l-.316 2.11c-.791 3.342-2.077 6.074-3.621 9.14l-1.59 3.203C1111 431 1111 431 1109 432a692 692 0 0 0-1 5 84 84 0 0 1-2.687 5.195l-1.618 2.918-1.695 3.012q-1.659 2.97-3.312 5.945l-1.489 2.65c-1.308 2.34-1.308 2.34-2.199 5.28h-2l-.281 2.047c-.897 3.684-2.491 6.856-4.219 10.203l-1.07 2.107c-2.982 5.843-6.056 11.637-9.143 17.425-2.916 5.48-5.697 11.013-8.447 16.577-2.55 5.104-5.272 10.12-7.996 15.133-2.1 3.552-2.1 3.552-2.844 7.508h-2l-.387 1.763c-.602 2.198-1.387 4-2.425 6.022l-1.07 2.108-1.118 2.17q-1.096 2.14-2.187 4.285l-.981 1.906c-.957 1.916-.957 1.916-1.832 4.746h-2l-.219 1.965c-1.093 4.246-3.164 7.78-5.281 11.597q-1.24 2.249-2.469 4.504l-1.107 1.999c-.938 1.964-1.472 3.81-1.924 5.935h-2l-1 5h-2l-.25 2c-1.252 5.007-3.75 9.37-6.437 13.75-1.24 2.125-1.868 3.846-2.313 6.25h-2l-3 9h-2l-.25 2c-1.002 4.01-2.838 7.353-4.75 11q-1.35 2.654-2.687 5.312l-1.262 2.489c-1.15 2.29-1.15 2.29-2.051 5.199h-2l-1 5h-2v4h-2l-.254 2.555c-.869 4.01-2.58 7.107-4.683 10.57a178 178 0 0 0-8.727 16.66c-3.203 6.932-6.604 13.576-10.55 20.121-2.489 4.312-4.669 8.758-6.865 13.223a285 285 0 0 1-7.597 14.344c-1.403 2.59-1.403 2.59-2.64 5.664-2.113 5.032-4.745 9.8-7.309 14.613q-1.491 2.803-2.977 5.61l-1.322 2.483c-1.184 2.248-1.184 2.248-2.076 5.157h-2v4h-2l-.187 2.426c-1.091 4.799-3.347 8.538-5.813 12.761q-1.379 2.396-2.75 4.793l-1.234 2.122c-1.151 2.022-1.151 2.022-2.016 4.898h-2l-.184 2.422c-1.1 4.825-3.39 8.585-5.878 12.828q-1.399 2.411-2.786 4.828l-1.25 2.138c-1.052 1.748-1.052 1.748-.902 3.784h-2l-.277 1.547c-1.014 3.44-2.656 6.524-4.285 9.703l-2.16 4.266-1.13 2.22c-1.9 3.746-3.773 7.506-5.648 11.264l-2.031 4.062L892 857h-2l-.316 2.125c-.781 3.283-2.062 5.886-3.621 8.875-1.879 3.618-3.613 7.189-5.063 11h-2v4h-2l-1 6h-2l-.875 2.75c-.89 2.572-1.84 4.863-3.125 7.25h-2v2c-1.37.253-2.747.476-4.125.687l-2.32.387c-3.714-.108-5.497-.92-8.555-3.074-1.914-2.947-3.26-6.081-4.625-9.313-2.45-5.598-4.965-10.596-8.375-15.687-1.335-2.768-2.504-5.602-3.687-8.438-2.94-6.85-6.256-13.236-10.255-19.527C820 836.458 820 836.458 820 831h-2l-1.25-3c-2.277-5.29-4.628-10.397-7.937-15.125-1.931-3.062-2.473-5.302-2.813-8.875h-2l-.594-1.695c-2.311-6.198-5.244-11.762-8.676-17.393-1.967-3.292-3.25-6.093-3.73-9.912h-2l-1-6h-2l-.734-1.941C783.2 761.727 780.91 756.913 778 752a259 259 0 0 1-2.25-4.313l-1.016-1.988C774 744 774 744 774 742l-2-1a121 121 0 0 1-3.125-6.063l-1.887-3.851-.99-2.036c-1.626-3.339-3.28-6.664-4.935-9.988l-.995-2.014c-1.691-3.4-3.439-6.745-5.318-10.044-4.577-8.073-7.638-14.664-6.312-24.129L749 681h2l.313-1.625c.874-3.02 2.237-5.583 3.687-8.375q.909-1.811 1.813-3.625L765 651h2l.938-3.313A170 170 0 0 1 770 641h2l.324-2.203c.728-3.013 1.814-4.952 3.489-7.547 2.86-4.592 5.134-9.25 7.187-14.25h2l.305-2.129c.806-3.33 2.141-5.823 3.82-8.809 3.828-6.927 7.374-13.964 10.875-21.062h2l1-3.563c2.189-6.629 5.696-12.59 9.05-18.68 1.381-2.555 2.67-5.152 3.95-7.757h2l.34-2.16c2.002-8.611 7.578-16.618 12.031-24.207 1.48-2.534 2.697-4.838 3.629-7.633h2l.125-2.375c1.252-5.186 4.031-9.161 6.875-13.625 1.876-3.025 3.348-5.481 4-9h2l3-9h2l.773-3.098c1.092-3.81 2.802-6.937 4.852-10.34a227 227 0 0 0 8.313-15.375c3.261-6.637 6.673-13.181 10.18-19.692 1.505-2.807 2.873-5.467 3.882-8.495h2l.266-2.082c.903-3.59 2.593-6.467 4.484-9.606q1.096-1.866 2.188-3.738l1.074-1.842c2.608-4.57 4.849-9.338 7.11-14.087C901.8 393.1 901.8 393.1 904 392v-3h2l.375-2.188c.615-2.77 1.51-5.209 2.625-7.812h2l.313-2.184c.76-3.116 1.957-5.188 3.687-7.879 1.912-2.983 3.353-5.435 4-8.937h2l.625-2.875c1.2-4.207 3.359-7.562 5.664-11.25 1.925-3.235 3.616-6.56 5.274-9.938 1.897-3.861 3.811-7.694 5.937-11.437 2.103-3.705 3.995-7.49 5.875-11.313 2.795-5.683 5.86-11.146 9.145-16.566 1.405-2.489 2.488-4.944 3.48-7.621h2c.095-.868.19-1.735.29-2.629.782-3.713 2.085-6.098 4.085-9.309 2.596-4.28 4.823-8.397 6.625-13.062h2l.621-1.898.817-2.477.808-2.46C975 255 975 255 976 253h2l.445-1.617c1.66-5.511 4.003-10.014 7.059-14.875 2.196-3.682 3.87-7.548 5.496-11.508h2l.125-2.375c1.043-4.322 2.966-7.35 5.313-11.09 2.653-4.305 4.96-8.728 6.562-13.535h2l.313-1.625c.87-3.008 2.265-5.585 3.687-8.375a366 366 0 0 0 3-7h2l2-8h2l.813-2.063L1022 168l1.188-3.063c1.959-4.595 4.613-8.801 7.19-13.07 1.637-2.744 1.637-2.744 2.61-5.34 1.26-3.145 2.916-5.922 4.637-8.84a255 255 0 0 0 8.375-15.625c4.81-9.763 9.948-19.334 15.188-28.875 1.81-3.299 3.535-6.619 5.187-10 2.448-4.983 5.21-9.765 8.035-14.542 1.96-3.113 1.96-3.113 2.59-6.645h2l1-5h2v-4h2l.813-2.125c1.255-3.04 2.69-5.948 4.187-8.875h2l.688-1.625c1.768-3.2 3.849-5.665 6.312-8.375h2v-2h2v-2a117 117 0 0 1 6.188-5l1.751-1.367c3.226-2.464 6.162-4.34 10.061-5.633v-2c2.58-1.26 5.163-2.507 7.75-3.75l2.152-1.055c2.345-1.12 4.713-2.163 7.098-3.195l2.401-1.066c9.747-3.799 19.252-3.493 29.543-3.442M5457.363 29.809C5469.497 40.372 5478.613 52.768 5486 67l1.426 2.727c2.627 5.385 4.527 10.926 6.261 16.648l.615 1.997c3.54 12.259 3.988 24.531 3.952 37.188l.01 5.274c.009 4.821.005 9.642 0 14.463-.005 5.248.002 10.497.008 15.746q.012 13.794.007 27.588c-.006 13.675 0 27.35.009 41.024a109960 109960 0 0 1 .014 86.08v2.143q-.002 23.518.004 47.036l.002 10.744.003 10.795q.014 61.332.009 122.664v2.294l-.003 25.321v2.31l-.002 9.244q-.007 73.11.021 146.218l.014 36.843v2.292a216089 216089 0 0 1 .015 72.155 443083 443083 0 0 1-.003 69.757q0 34.17.017 68.34.019 35.38 0 70.757-.01 20.391.01 40.782.01 13.623-.007 27.247c-.006 5.173-.008 10.347.004 15.52q.014 7.071-.007 14.142-.004 2.531.007 5.062c.156 35.283-13.302 66.226-38.077 91.326-21.322 20.049-48.98 31.97-78.309 33.273l-3.496.16c-32.091.743-61.953-9.534-86.504-30.16l-2.238-1.793c-17.114-14.257-29.219-35.686-35.574-56.832l-.591-1.95c-3.437-12.185-3.887-24.388-3.851-36.95l-.01-5.264c-.009-4.81-.005-9.621 0-14.432.005-5.237-.002-10.475-.008-15.712q-.012-13.765-.007-27.53c.006-13.645 0-27.291-.009-40.937a109496 109496 0 0 1-.014-85.899v-2.138q.002-23.469-.004-46.938l-.002-10.722-.001-4.304v-2.154l-.002-4.315q-.014-61.207-.009-122.413v-2.29l.004-27.573v-9.226q.009-72.956-.02-145.911l-.014-36.764v-2.287q-.014-34.896-.015-69.791v-2.214a441305 441305 0 0 1 .003-69.617q0-34.098-.017-68.195-.019-35.305 0-70.611.01-20.347-.01-40.695-.01-13.596.007-27.193c.006-5.162.008-10.324-.004-15.486q-.014-7.058.007-14.115.004-2.524-.007-5.049c-.064-14.432 1.169-29.05 6.011-42.762l.765-2.212C5261.342 66.02 5268.658 54.112 5278 43l2.14-2.637c19.413-22.9 50.43-36.82 79.907-40.082 35.934-2.556 69.532 6.074 97.316 29.528"/></svg>