<svg xmlns="http://www.w3.org/2000/svg" width="1720" height="1233"><path fill="#111117" d="M97.724.379q3.068-.007 6.134-.02c5.573-.017 11.145-.003 16.718.017 6.027.015 12.055.002 18.082-.008 11.108-.014 22.216-.005 33.324.015q15.39.028 30.78.026h2.067l8.308-.002c25.94-.005 51.88.018 77.82.054a41724 41724 0 0 0 73.526.037h2.217l13.25-.004c19.268-.004 38.536.006 57.804.02l2.078.002 2.073.002 2.07.001 4.126.003q14.366.012 28.732.008 18.51-.004 37.018.032c5.948.012 11.895.019 17.843.013q8.17-.007 16.339.023 2.952.008 5.904-.001C572.836.547 572.836.547 582 4v2l3.187.375c5.085.834 8.84 2.465 13.063 5.375l2.344 1.598L603 15q2.372 1.598 4.75 3.187l2.258 1.52c2.056 1.378 2.056 1.378 4.617 2.668 3.799 2.599 6.448 6.104 9.375 9.625a1595 1595 0 0 0 2.637 3.05l2.738 3.2 2.586 3.016c1.807 2.423 2.66 3.792 3.039 6.734h2l1.023 2.082 1.352 2.73 1.336 2.708c1.308 2.626 1.308 2.626 3.289 5.48v4h2l.779 1.665q1.764 3.763 3.533 7.522l1.225 2.62c1.637 3.473 3.248 6.841 5.256 10.119C658 89 658 89 658 92h2l.823 1.769c6.398 14.081 6.398 14.081 14.216 27.391C676 123 676 123 676 127l2 1a159 159 0 0 1 3 6q1.897 3.568 3.812 7.125c3.519 6.566 6.889 13.196 10.188 19.875q2.248 4.5 4.5 8.996 1.506 3.016 3 6.04c2.394 4.83 4.832 9.618 7.437 14.339 2.842 5.155 5.462 10.404 8.07 15.68 1.867 3.733 3.829 7.412 5.796 11.093C731.418 231.42 736.892 244.839 739 261l1 3c.095 2.164.13 4.33.133 6.496l.004 3.881-.007 2.02c-.005 2.03 0 4.06.007 6.09l-.004 3.884-.004 3.56c-.109 2.586-.403 4.612-1.129 7.069l-.727 3.73c-2.962 14.977-7.617 28.376-16.574 40.852A39.5 39.5 0 0 0 718 348h-2l-.813 1.766c-1.202 2.262-2.525 4.04-4.187 5.984l-1.563 1.86C708 359 708 359 706 359v2c-5.968 5.638-12.846 10.04-20 14l-2.29 1.34c-7.473 4.112-15.445 5.849-23.71 7.66l-2.426.594c-20.353 3.212-41.157-1.98-58.574-12.594l-2.258-1.355c-5.394-3.297-5.394-3.297-7.742-5.645l-2.875-2.313c-2.79-2.303-4.905-4.822-7.125-7.687-.763-.73-1.526-1.46-2.313-2.21-2.986-3.1-5.28-6.322-7.625-9.915l-1.308-1.987C558 325.904 558 325.904 558 321h-2l-.625-2.375c-1.169-3.08-2.38-5.369-4.113-8.129-3.351-5.51-6.11-11.214-8.825-17.059-2.959-6.341-5.953-12.56-9.534-18.577C532 273 532 273 532 270l-2-1c-4-6.235-4-6.235-4-11h-2l-1.188-2.875c-3.525-8.5-3.525-8.5-8.468-16.176C513 237 513 237 513 233l-2-1a153 153 0 0 1-3.625-7.063l-1.753-3.605L504 218a828 828 0 0 0-43.604-1.161l-6.162-.015q-8.252-.019-16.503-.024l-10.33-.012q-16.191-.02-32.383-.027a19056 19056 0 0 1-37.283-.05q-14.466-.033-28.931-.034-8.622 0-17.242-.025-8.08-.023-16.161-.01-2.965.002-5.93-.013a942 942 0 0 0-8.083.004l-2.375-.025c-4.52.041-7.372.67-11.013 3.392.552 4.933 2.162 8.84 4.437 13.187l1.052 2.054A1101 1101 0 0 0 277 242l1.324 2.548q3.268 6.292 6.574 12.565l1.084 2.056c.923 1.66 1.965 3.251 3.018 4.831v4h2l.851 2.216c1.05 2.545 2.217 4.907 3.532 7.323l1.347 2.508q1.403 2.592 2.813 5.18l1.34 2.5 1.23 2.268C303 292 303 292 303 295h2l1.27 3.031c1.67 3.895 3.513 7.685 5.417 11.469l1.036 2.071a386 386 0 0 0 5.578 10.699l1.116 2.058a473 473 0 0 0 2.144 3.887c1.544 2.822 2.439 4.513 2.439 7.785h2l1.574 3.437c4.572 10.186 4.572 10.186 10.32 19.727 1.33 2.208 2.261 4.535 3.252 6.91 1.784 4.023 4.011 7.832 6.157 11.672C350 382.68 350 382.68 350 386h2l1 6h2l1.238 3.531c1.598 4.255 3.65 8.06 5.95 11.969 4.262 7.405 8.133 14.958 11.893 22.628a523 523 0 0 0 10.095 19.491c1.382 2.566 2.711 5.089 3.762 7.81 1.074 2.599 2.354 4.812 3.851 7.188 3.256 5.337 5.948 10.847 8.586 16.508a5314 5314 0 0 0 4.263 9.03c2.277 4.757 4.659 9.461 7.076 14.148C414 508.79 414 508.79 414 511h2l1.355 2.965c3.032 6.586 6.049 13.081 9.797 19.3C428 535 428 535 428 538h2l.854 1.817q1.945 4.125 3.896 8.245l1.344 2.858c1.95 4.115 3.9 8.164 6.234 12.076C444 566 444 566 444 569l2 1v3l2 1a108 108 0 0 1 3.125 5.875l1.633 3.242C454 586 454 586 454 589h2l1.645 3.543 2.167 4.644 1.08 2.33c1.856 3.967 3.79 7.761 6.108 11.483q1.123 2.048 2.187 4.125l1.043 2.008C471 619 471 619 471 622h2l.779 1.665q1.764 3.763 3.533 7.522l1.225 2.62c1.98 4.203 4.033 8.229 6.463 12.193a529 529 0 0 1 3.562 7.125 855 855 0 0 0 9.625 18.812l1.223 2.327 1.195 2.263 1.174 2.223q1.281 2.357 2.634 4.676l1.388 2.39 1.274 2.143C508 690 508 690 508 694h2l1.238 3.016c2.036 4.752 4.546 9.221 7.065 13.73C521 715.68 521 715.68 521 719l2 1a182 182 0 0 1 3.875 7.625q1.024 2.115 2.055 4.227l1.022 2.098c1.03 2.014 2.147 3.945 3.306 5.886C535 743 535 743 535 746h2l.523 1.555c2.517 6.856 5.96 13.018 9.556 19.346a208 208 0 0 1 8.046 15.849c2.399 5.25 4.953 10.27 7.875 15.25 3.358 5.726 6.22 11.566 8.991 17.594 2.825 6.11 5.931 12.03 9.15 17.941a329 329 0 0 1 4.788 9.33c1.97 3.927 4.023 7.81 6.071 11.697l1.29 2.46c1.928 3.664 3.877 7.307 5.944 10.896 2.17 3.789 3.766 6.687 3.766 11.082h2q1.76 3.4 3.5 6.812l1.012 1.948c1.49 2.935 2.488 4.901 2.488 8.24h2l1 6h2l1.469 3.156c6.467 13.851 13.042 27.56 20.77 40.758C644 954.255 644 954.255 644 958h2l.375 2.937L647 964l2 1a173 173 0 0 1 3.875 7.562l1.027 2.096q1.035 2.112 2.066 4.227a488 488 0 0 0 8.97 17.49C674 1013.304 674 1013.304 674 1016c3.299 1.1 5.72 1.124 9.194 1.123l3.956.006 4.371-.009 4.624.003q6.369.002 12.738-.007 6.861-.005 13.724-.002 11.895 0 23.788-.008 17.197-.011 34.395-.012 27.9-.004 55.8-.019 27.105-.014 54.212-.02h3.374l16.756-.005q69.534-.016 139.068-.05v-4h2l.246-1.98c1.024-4.1 2.881-7.593 4.816-11.333A1249.197 1249.197 0 0 1 1061 992h2l.344-2.172c.698-3.01 1.744-5.332 3.156-8.078l1.613-3.152c1.38-2.645 2.779-5.28 4.18-7.914l1.2-2.255q1.167-2.191 2.347-4.377A142 142 0 0 0 1082 951h2l.125-2.375c1.031-4.271 2.918-7.19 5.242-10.879 2.614-4.396 4.616-9.052 6.633-13.746h2l.32-2.652c.706-3.478 1.801-5.843 3.555-8.91l1.555-2.754a306 306 0 0 1 3.222-5.38c1.259-2.151 1.897-3.87 2.348-6.304h2l3-9h2l.187-2.438c.899-3.939 2.423-6.767 4.461-10.218 1.573-2.727 2.95-5.526 4.352-8.344 1.297-2.467 2.618-4.92 3.937-7.375 2.77-5.171 5.478-10.359 8.063-15.625l1.687-3.313C1140.074 839 1140.074 839 1141 836h2l1-6h2l.227-2.012c1.044-4.034 3.03-7.237 5.148-10.8 2.766-4.663 5.068-9.149 6.878-14.261 1.218-3.142 2.916-5.966 4.622-8.865l2.121-3.636L1167 787a788 788 0 0 0 2.937-5.25l1.153-2.078c.66-1.212 1.293-2.438 1.91-3.672h2l.785-1.746c1.311-2.432 2.811-4.261 4.652-6.317l1.81-2.035L1184 764l1.598-1.746C1187 761 1187 761 1189 761v-2h2v-2a133 133 0 0 1 7.187-5.063l2.042-1.392c3.547-2.357 6.426-4.132 10.771-4.545v-2c13.564-5.903 25.704-7.155 40.312-7.25l3.363-.029c9.01.036 16.326 1.013 24.325 5.279 1.989.7 3.986 1.377 6 2v2l1.64.309c2.966.869 5.415 2.246 8.11 3.753l2.984 1.66L1300 753v2h3v2l1.742.762c13.2 7.24 22.365 23.975 28.363 37.259a205 205 0 0 0 1.77 3.813c10.062 21.128 12.065 51.59 5.227 74.127L1339 876q-.652 1.976-1.297 3.953c-2.429 7.251-4.866 13.89-9.066 20.328-2.178 3.618-3.927 7.39-5.7 11.219l-1.033 2.227q-.995 2.148-1.987 4.296a463 463 0 0 1-3.792 7.977l-1.117 2.312C1314 930 1314 930 1312 931c-.7 1.988-1.362 3.99-2 6a149 149 0 0 1-2.625 5.375 639 639 0 0 0-5.477 10.926l-1.08 2.203a795 795 0 0 0-2.102 4.328c-2.491 5.056-2.491 5.056-4.716 6.168l-1.125 3.687c-1.626 5.268-4.263 9.746-7.094 14.439-1.742 2.913-3.23 5.496-3.781 8.874h-2l-.266 2.05c-.925 3.716-2.635 6.82-4.484 10.137l-2.172 3.985-1.072 1.963c-2.105 3.903-4.057 7.883-6.006 11.865h-2l-1 7h-2l-.219 1.996c-1.071 4.12-3.123 7.422-5.281 11.066a763 763 0 0 0-2.469 4.223l-1.107 1.871c-.967 1.93-1.48 3.737-1.924 5.844h-2l-1 6h-2l-.375 2.25c-.931 4.097-2.994 7.434-5.063 11.062-2.134 3.814-3.925 7.638-5.562 11.688h-2l-.371 1.703c-.681 2.487-1.623 4.702-2.692 7.047l-1.097 2.422-.84 1.828h-2l-.309 2.602c-.749 3.683-2.017 6.448-3.754 9.773-.547 1.06-1.095 2.12-1.66 3.21L1218 1117h-2l-.188 2.5c-.829 3.572-2.217 5.882-4.222 8.91-5.723 9.322-10.187 19.6-14.59 29.59h-2l-.246 1.98c-1.024 4.1-2.881 7.593-4.817 11.332l-1.142 2.245q-1.39 2.725-2.795 5.443h-2l-.313 2.687c-.704 3.396-1.642 5.532-3.687 8.313h-2l-.375 1.812C1177 1194 1177 1194 1175 1197h-2l-.824 1.781c-2.813 5.309-7.268 9.81-12.176 13.219h-2v2c-2.047 1.656-2.047 1.656-4.75 3.5l-2.672 1.844c-5.691 3.656-5.691 3.656-9.578 3.656v2q-3.998 1.444-8 2.875l-2.254.816-2.246.801-2.031.73c-6.646 2.094-12.443 3.071-19.38 3.035l-2.624.01c-2.898.01-5.796.005-8.694 0l-6.302.014c-5.77.012-11.54.012-17.31.01-6.223 0-12.447.01-18.67.02q-18.29.023-36.58.023a54148 54148 0 0 0-38.3.017l-2.15.001q-29.938.02-59.878.02h-2.28l-11.44-.001h-6.889q-35.73-.002-71.46.04a65956 65956 0 0 1-88.882.046h-2.132c-11.303 0-22.607.013-33.91.03a13022 13022 0 0 1-34.102.006c-6.154-.006-12.309-.007-18.463.01q-8.46.024-16.918-.004-3.053-.005-6.105.012c-21.838.112-41.598-5.7-59-19.511v-2h-3c-1.875-1.688-1.875-1.688-4-4l-2.75-2.625C553 1203 553 1203 553 1201h-2v-2h-2l-2-5h-2l-1-4h-2a700 700 0 0 1-2.938-5.188l-1.652-2.917c-1.316-2.702-1.983-4.939-2.41-7.895h-2c-2.304-4.295-3.782-8.315-5-13h-2c-.4-1.151-.8-2.302-1.21-3.488-1.977-5.273-4.78-9.95-7.65-14.776-2.076-3.571-3.669-6.55-4.14-10.736h-2l-.375-2.938L510 1126l-2-1a141 141 0 0 1-3.5-6.813l-.934-1.908q-1.288-2.637-2.566-5.279l-1.219-2.262C499 1107 499 1107 499 1104h-2v-3l-2-1a173 173 0 0 1-3.875-7.563l-1.027-2.095a891 891 0 0 1-2.05-4.21 207 207 0 0 0-2.197-4.339l-1.109-2.133-1.012-1.914C483 1076 483 1076 483 1073l-2-1-1-3-2-2a269 269 0 0 1-2.148-5.03c-1.438-3.324-3.185-6.478-4.915-9.658A3478 3478 0 0 1 467 1045l-1.246-2.27C465 1041 465 1041 465 1038h-2l-1-5h-2l-.7-1.871c-2.063-5.36-4.382-10.298-7.347-15.219C451 1014 451 1014 451 1011h-2c-.43-1.02-.859-2.042-1.3-3.094-4.08-9.51-9.04-18.652-13.947-27.756Q432.371 977.58 431 975l-1.734-3.25C428 969 428 969 428 966h-2a418 418 0 0 1-2-3.813l-1.125-2.144C422 958 422 958 422 955h-2l-.629-1.766c-1.784-4.748-3.788-9.09-6.434-13.422-4.18-6.924-7.544-14.205-10.941-21.54-2.389-5.108-4.856-9.898-8.091-14.527C393 902 393 902 393 898l-2-1c-.625-2.063-.625-2.063-1-4h-2q-1.259-2.903-2.5-5.813l-1.406-3.269C383 881 383 881 383 878h-2a2013 2013 0 0 1-6.766-12.684l-1.149-2.173c-1.479-2.921-2.768-5.914-4.073-8.915-.99-2.178-2.068-4.268-3.211-6.369l-1.233-2.29a638 638 0 0 0-2.484-4.544c-1.986-3.66-3.596-6.82-4.084-11.025h-2l-1.355-2.93-1.833-3.945-.957-2.061a362 362 0 0 0-7.007-14.209C344 805 344 805 344 803h-2l-.758-2.012c-1.535-3.693-3.311-7.233-5.117-10.8l-3.077-6.116a552 552 0 0 0-2.197-4.296l-1.109-2.163-1.012-1.956C328 774 328 774 328 772l-2-1v-3l-2-1c-.914-1.595-.914-1.595-1.84-3.64-.34-.742-.682-1.483-1.033-2.247l-1.065-2.363c-2.155-4.742-4.314-9.315-7.062-13.75a682 682 0 0 1-3.688-6.875l-2.14-4.04-1.096-2.066a675 675 0 0 0-3.06-5.667c-4.248-7.817-8.17-15.74-11.871-23.831-2.065-4.464-4.367-8.445-7.145-12.521-1.012-2.195-1.012-2.195-1.688-4.125l-.699-1.945c-.623-1.961-1.137-3.928-1.613-5.93h-2c-1.257-2.906-2-4.796-2-8h-2q-1.76-3.4-3.5-6.813l-1.012-1.947c-1.49-2.935-2.488-4.901-2.488-8.24h-2l-1.273-3.047c-1.635-3.815-3.465-7.508-5.352-11.203-3.241-6.348-3.241-6.348-4.375-9.75l-1.563-1.438C251 626 251 626 251 622h-2l-1-6h-2c-4.408-9.41-4.408-9.41-5-14h-2c-2.304-4.295-3.782-8.315-5-13h-2l-.629-1.73c-2.467-6.493-5.554-12.446-8.98-18.485C221 566 221 566 221 563h-2v-3h-2l-.375-2.938L216 554l-2-1c-.946-1.626-.946-1.626-1.91-3.71l-1.06-2.274-1.093-2.391-1.103-2.367c-1.422-3.07-2.763-6.046-3.834-9.258h-2l-.695-2.41c-1.665-4.58-3.88-8.74-6.18-13.028l-1.316-2.486c-1.965-3.696-3.962-7.342-6.13-10.924C187 501 187 501 187 497h-2a1533 1533 0 0 1-3.5-7.313l-1.012-2.091C178 482.34 178 482.34 178 479h-2l-1.469-2.973-2.031-4.09-1.076-2.166a422 422 0 0 0-8.985-16.984C160.896 449.965 160 448.273 160 445h-2l-.805-2.082-1.07-2.73-1.055-2.708c-1.058-2.657-1.058-2.657-3.07-5.48v-3h-2l-1.469-2.938-.97-1.94-2.137-4.28c-1.894-3.797-3.8-7.586-5.737-11.362l-1.11-2.181a663 663 0 0 0-2.138-4.156C134.961 399.23 134 397.315 134 394h-2l-1.023-2.266-1.352-2.984c-.44-.975-.882-1.95-1.336-2.953-2.367-5.135-5.021-10.113-7.664-15.11l-1.172-2.224-1.164-2.201-1.147-2.17c-1.091-1.999-2.252-3.938-3.431-5.885C112 355 112 355 112 351h-2l-.779-1.665a4983 4983 0 0 0-3.534-7.523l-1.224-2.619c-1.637-3.473-3.248-6.841-5.256-10.119C98 327 98 327 98 324h-2l-1.258-3.004c-1.736-4.048-3.647-7.995-5.617-11.934l-1.059-2.127c-1.857-3.69-3.79-7.232-6.066-10.685-2-3.25-2-3.25-2-7.25h-2l-.779-1.665a4983 4983 0 0 0-3.534-7.523l-1.224-2.619c-1.637-3.473-3.248-6.841-5.256-10.119C66 265 66 265 66 262l-2-1v-3h-2l-1.242-3.023c-2.009-4.69-4.481-9.1-6.973-13.547-1.893-3.46-3.288-6.5-3.785-10.43h-2c-1.498-3.371-2-5.204-2-9h-2l-1.242-2.492a1257 1257 0 0 0-3.766-7.453l-2.117-4.18-1.09-2.129-1.043-2.066-.942-1.852C33 200 33 200 32.516 197.833L32 196l-2-1a98 98 0 0 1-2.875-5.5l-1.602-3.285c-2.374-5.011-4.7-10.02-6.648-15.215-.699-2.179-.699-2.179-2.875-3-.86-1.574-.86-1.574-1.75-3.688l-1.047-2.468L12 159c-.48-1.062-.96-2.124-1.453-3.219C6.938 147.69 4.087 139.614 2 131l-.542-1.97c-1.98-8.127-1.795-16.365-1.774-24.678.003-2.583-.02-5.164-.045-7.747C-.398 86.647.367 77.663 3 68h1l.48-2.09C6.14 59.23 8.433 53.852 12 48l1.234-2.324C19.002 35.142 27.79 26.573 37 19l1-2h3v-2l6-3 2.832-1.43C65.815 2.82 80.091.256 97.724.38"/><path fill="#111117" d="M1168.944.492q3.032-.007 6.063-.019c5.53-.016 11.061-.008 16.592.004 5.974.01 11.947-.005 17.92-.016 11.02-.017 22.038-.015 33.057-.004a20947 20947 0 0 0 32.597.007l8.237-.004c25.742-.012 51.483-.001 77.225.02q34.272.029 68.542-.001a58602 58602 0 0 1 85.298-.014h2.045q15.258.006 30.515-.01 17.36-.018 34.72.013c5.901.01 11.803.015 17.704.001q8.115-.017 16.228.016 2.925.008 5.85-.007c26.401-.122 46.877 8.484 65.916 26.936C1700.02 39.92 1700.02 39.92 1701 46h2c15.39 30.212 23.075 63.681 13 97.062a463 463 0 0 1-2 5.938l-2 6h-2l-.234 2.516c-.947 4.309-2.777 7.474-5.016 11.234q-1.23 2.126-2.457 4.254l-1.198 2.07c-3.114 5.476-5.763 11.082-8.095 16.926a166 166 0 0 1-2 4.25l-1 2.078c-1 1.672-1 1.672-3 2.672a485 485 0 0 0-2 6c-1.608 3.694-3.298 7.349-5 11h-2l-.187 2.437c-.895 3.923-2.392 6.669-4.41 10.11-1.948 3.407-3.61 6.939-5.29 10.484C1667 243 1667 243 1665 244c-.656 2.527-.656 2.527-1 5h-2v4h-2l-.375 2.187c-.615 2.77-1.51 5.21-2.625 7.813h-2l-.812 2.625c-1.162 3.3-2.599 6.263-4.188 9.375a203 203 0 0 0-2 5h-2l-.312 2.625c-.722 3.542-1.96 6.218-3.688 9.375h-2l-.25 1.937c-1.045 4.268-2.89 8.094-4.75 12.063h-2l-.375 2.25c-.58 2.551-1.362 4.477-2.625 6.75h-2l-.125 2.375c-1.055 4.371-3.063 7.434-5.441 11.21-1.609 2.709-2.633 5.371-3.434 8.415h-2l-.364 2.225c-.627 2.734-1.481 4.72-2.816 7.173l-1.316 2.454-1.379 2.523c-2.962 5.462-5.781 10.866-8.125 16.625h-2l-.215 1.945c-1.117 4.345-3.215 8.002-5.347 11.93l-1.359 2.54A2424 2424 0 0 1 1590 392q-2.16 4.03-4.312 8.062l-.983 1.841c-5.25 9.188-5.25 9.188-8.705 19.097h-2l-.77 2.531c-1.355 3.821-3.072 7.37-4.917 10.969l-2.137 4.219-1.092 2.144c-1.71 3.371-3.397 6.754-5.084 10.137l-3 6h-2l-.875 2.812C1553 463 1553 463 1551 466h-2l-1 4h-2v2h-2l-.75 1.687c-1.489 2.755-3.134 5.005-5.25 7.313h-3l-.617 1.719c-1.89 3.118-4.529 4.803-7.508 6.781l-1.791 1.206c-18.796 12.488-40.629 16.877-62.908 13.759A110 110 0 0 1 1453 502l-3.066-.879c-7.171-2.189-13.512-5.274-19.934-9.121l-2.02-1.203c-1.667-1.047-1.667-1.047-3.98-2.797v-2l-1.687-.188c-3.322-1.167-4.913-3.244-7.313-5.812q-2.817-2.73-5.645-5.45C1408 473 1408 473 1408 471h-2c-1.621-2.266-1.621-2.266-3.437-5.25-2.483-4.072-2.483-4.072-5.286-7.922C1396 456 1396 456 1396 453h-2c-5.164-11.459-8.807-22.616-11-35l-.578-3.176c-2.068-18.742-.632-36.758 4.578-54.824h2l.25-2.875c.69-5.015 2.753-9.51 4.75-14.125h2l.75-2.563c.965-2.653 1.895-4.675 3.313-7.062 1.515-2.64 2.466-4.433 2.937-7.375h2l.375-2.25c.58-2.551 1.362-4.477 2.625-6.75h2c.095-.869.19-1.738.29-2.633.781-3.703 2.078-6.05 4.085-9.242 2.824-4.654 4.881-8.985 6.625-14.125 1.182-2.643 1.936-3.936 4-6a239 239 0 0 0 3.813-7.438l1.072-2.164A448 448 0 0 0 1438 258h2l.266-2.05c.925-3.716 2.635-6.82 4.484-10.138q1.09-1.992 2.176-3.988c.53-.972.53-.972 1.073-1.963 1.788-3.323 3.44-6.711 5.09-10.103C1454 228 1454 228 1455 227c.072-1.52.084-3.042.063-4.563l-.028-2.503L1455 218c-5.185-1.059-10.151-1.138-15.415-1.12l-2.85-.003q-4.719 0-9.438.01l-6.77-.001q-9.19.001-18.377.013c-6.402.006-12.804.006-19.207.008q-16.118.004-32.235.018-16.599.014-33.198.02h-2.068l-10.271.005q-42.585.016-85.171.05v2h-2v3h-2l-.187 2.437c-1.086 4.76-3.357 8.38-5.813 12.563-3.812 6.783-7.363 13.673-10.812 20.646-2.987 6.014-6.121 11.946-9.306 17.858-1.505 2.808-2.873 5.468-3.882 8.496h-2l-.191 2.43c-1.081 4.772-3.302 8.49-5.746 12.695l-2.715 4.758-1.219 2.106c-1.854 3.303-3.332 6.292-4.129 10.011h-2l-.368 2.232c-.614 2.69-1.435 4.646-2.741 7.061l-1.282 2.397-1.359 2.497-2.734 5.098-1.323 2.462c-1.852 3.497-3.57 7.055-5.255 10.636C1152 350 1152 350 1150 351l-.348 2.031c-.931 4.24-3.003 7.688-5.09 11.469-3.627 6.586-3.627 6.586-6.562 13.5h-2l-.23 1.984c-1.055 4.133-3.03 7.548-5.082 11.266-3.158 5.827-6.129 11.63-8.688 17.75h-2v4h-2l-.344 2.18c-.69 2.967-1.74 5.255-3.156 7.945-1.382 2.644-2.555 5.039-3.5 7.875h-2l-.364 2.223c-.627 2.74-1.487 4.747-2.816 7.21l-1.316 2.467-1.379 2.537-2.68 4.997-1.276 2.37A281 281 0 0 0 1095 461h-2l-.281 2.047c-.897 3.684-2.491 6.856-4.219 10.203l-1.07 2.107c-2.982 5.843-6.056 11.637-9.143 17.425-2.916 5.48-5.697 11.013-8.447 16.577-2.55 5.104-5.272 10.12-7.996 15.133-2.1 3.552-2.1 3.552-2.844 7.508h-2l-.37 1.716c-.673 2.44-1.602 4.549-2.696 6.83l-1.221 2.56-1.275 2.644-1.288 2.691A2462 2462 0 0 1 1047 555h-2l-.219 1.965c-1.093 4.246-3.164 7.78-5.281 11.597q-1.24 2.249-2.469 4.504l-1.107 1.999c-.938 1.964-1.472 3.81-1.924 5.935h-2l-1 5h-2l-.25 2c-1.252 5.007-3.75 9.37-6.437 13.75-1.24 2.125-1.868 3.846-2.313 6.25h-2l-3 9h-2l-.25 2c-1.002 4.01-2.838 7.353-4.75 11q-1.35 2.654-2.687 5.312l-1.262 2.489c-1.15 2.29-1.15 2.29-2.051 5.199h-2l-1 5h-2v4h-2l-.125 2.375c-1.074 4.449-3.137 7.631-5.598 11.453-1.446 2.04-1.446 2.04-1.277 4.172h-2l-.273 2.066c-.899 3.627-2.545 6.638-4.352 9.871q-1.104 2.02-2.203 4.043l-1.115 2.049c-1.542 2.876-2.988 5.795-4.432 8.721-2.841 5.728-5.773 11.404-8.75 17.062l-1.236 2.353a444 444 0 0 1-6.256 11.472c-2.067 3.695-3.721 7.466-5.383 11.363-1.823 3.611-3.724 7.18-5.625 10.75q-1.491 2.803-2.977 5.61l-1.322 2.483c-1.184 2.248-1.184 2.248-2.076 5.157h-2v4h-2l-.215 2.477c-1.007 4.521-3.02 7.929-5.347 11.898-3.388 5.93-6.663 11.877-9.688 18l-.977 1.972c-1.524 3.088-3.03 6.183-4.53 9.282l-1.618 3.308-1.398 2.903C911 819 911 819 909 820l-.402 1.61c-.865 3.459-2.543 6.484-4.16 9.64l-2.16 4.266-1.13 2.22c-1.9 3.746-3.773 7.506-5.648 11.264l-2.031 4.062L892 856h-2l-.316 2.125c-.781 3.283-2.062 5.886-3.621 8.875-1.879 3.618-3.613 7.189-5.063 11h-2v4h-2l-1 6h-2l-.875 2.75c-.89 2.572-1.84 4.863-3.125 7.25h-2v2c-1.37.253-2.747.476-4.125.687l-2.32.387c-3.714-.108-5.497-.92-8.555-3.074-1.914-2.947-3.26-6.081-4.625-9.313-2.45-5.598-4.965-10.596-8.375-15.687-1.335-2.768-2.504-5.602-3.687-8.438-2.94-6.85-6.256-13.236-10.255-19.527C820 835.458 820 835.458 820 830h-2l-1.25-3c-2.277-5.29-4.628-10.397-7.937-15.125-1.931-3.062-2.473-5.302-2.813-8.875h-2l-.594-1.695c-2.311-6.198-5.244-11.762-8.676-17.393-1.967-3.292-3.25-6.093-3.73-9.912h-2l-1-6h-2l-.734-1.941C783.2 760.727 780.91 755.913 778 751a259 259 0 0 1-2.25-4.313l-1.016-1.988C774 743 774 743 774 741l-2-1a121 121 0 0 1-3.125-6.063l-1.86-3.808-.986-2.03a488 488 0 0 0-3.232-6.447l-1.097-2.162a1283 1283 0 0 0-2.122-4.158c-1.546-3.062-2.975-5.936-3.578-9.332h-2l-.84-2.152-1.097-2.786-1.09-2.777c-.773-2.21-.773-2.21-1.973-3.285-.84-5.045-1.49-10.03 0-15h2l.313-1.625c.874-3.02 2.237-5.583 3.687-8.375q.909-1.811 1.813-3.625L765 650h2l.375-1.625c.747-2.839 1.678-5.597 2.625-8.375h2l.324-2.203c.728-3.013 1.814-4.952 3.489-7.547 2.86-4.592 5.134-9.25 7.187-14.25h2l1-6h2l.398-1.79c.99-3.636 2.886-6.87 4.602-10.21 1.255-2.497 2.502-4.999 3.75-7.5l1.86-3.719L800 584h2l1-3.563c2.189-6.629 5.696-12.59 9.05-18.68 1.381-2.555 2.67-5.152 3.95-7.757h2l.332-2.145c1.898-8.114 7.015-15.553 11.344-22.585 1.75-3 3.06-6.04 4.324-9.27h2l.125-2.375c1.252-5.186 4.031-9.161 6.875-13.625 1.876-3.025 3.348-5.481 4-9h2l.938-3.313A170 170 0 0 1 852 485l2-1a346 346 0 0 0 1.969-4.742c1.228-2.69 2.698-5.16 4.219-7.696 3.98-6.709 7.428-13.63 10.86-20.63a596 596 0 0 1 2.757-5.514l1.633-3.23 1.433-2.833c1.22-2.417 1.22-2.417 2.129-5.355h2l1-5h2l.266-2.082c.903-3.59 2.593-6.467 4.484-9.606q1.096-1.866 2.188-3.738l1.074-1.842c2.608-4.57 4.849-9.338 7.11-14.087C901.8 392.1 901.8 392.1 904 391v-3h2l.375-2.188c.615-2.77 1.51-5.209 2.625-7.812h2l.348-2.219c.665-2.836 1.61-4.787 3.09-7.281 1.792-3.104 3.36-6.11 4.562-9.5h2l.625-2.813c1.591-5.492 4.562-10.244 7.375-15.187a2355 2355 0 0 0 4.875-8.688l1.306-2.336c3.139-5.653 6.064-11.386 8.907-17.193 2.837-5.748 5.992-11.275 9.248-16.795A55 55 0 0 0 957 288h2l.25-2.5c.914-4.268 2.672-7.692 4.75-11.5h2l.313-2.125c.78-3.266 2.108-5.922 3.687-8.875h2l.621-1.898.817-2.477.808-2.46C975 254 975 254 976 252h2l.445-1.617c1.617-5.372 3.86-9.738 6.828-14.477 2.027-3.411 3.79-6.91 5.54-10.469 3.303-6.72 6.753-13.349 10.305-19.941 1.505-2.808 2.873-5.468 3.882-8.496h2l.313-1.563c.93-3.297 2.301-6.303 3.687-9.437h2l1-6h2l2-8h2l1-5h2l.324-2.168c.742-3.108 1.905-5.375 3.489-8.145 1.764-3.137 3.503-6.255 5.062-9.5 1.797-3.66 3.827-7.161 5.875-10.687 3.31-5.714 6.326-11.533 9.245-17.456 4.484-9.084 9.317-17.978 14.193-26.857 1.81-3.299 3.535-6.619 5.187-10 2.448-4.983 5.21-9.765 8.035-14.542 1.96-3.113 1.96-3.113 2.59-6.645h2l1-5h2v-4h2l.813-2.125c1.255-3.04 2.69-5.948 4.187-8.875h2l.813-1.75c1.216-2.306 2.49-4.27 4.187-6.25h2v-2h2v-2h2v-2a117 117 0 0 1 6.188-5l1.751-1.367c3.226-2.464 6.162-4.34 10.061-5.633v-2a344 344 0 0 1 11.125-5.438l2.508-1.183L1137 5l2.253-.992C1149.07.16 1158.572.44 1168.944.492"/></svg>