<svg xmlns="http://www.w3.org/2000/svg" width="1831" height="1831" style="shape-rendering:geometricPrecision;text-rendering:geometricPrecision;image-rendering:optimizeQuality;fill-rule:evenodd;clip-rule:evenodd"><path fill="#f9f9f9" d="M-.5 383.5v-33q7.047-50.876 50-78.5 17.027-8.76 36-12 260-1 520 0 47.217 11.484 73 52.5a33538 33538 0 0 0 97.5 190q21.399 53.853-1 107-40.37 73.455-121.5 52.5-34.806-15.303-53.5-48.5a10669 10669 0 0 1-63-123 20.5 20.5 0 0 1-3.5-2.5q-122-1-244 0-5.384 1.824-6 7.5 216.315 421.634 432.5 843c1.167 1.17 2.333 2.33 3.5 3.5a9892 9892 0 0 0 198 1.5q99.12.24 198-1.5a18.8 18.8 0 0 0 4.5-5.5c42.23-82.79 84.73-165.46 127.5-248 29.27-40.7 67.93-53.53 116-38.5 32.99 16 53.83 41.83 62.5 77.5 5.53 26.24 3.53 51.91-6 77-53.27 103.88-106.61 207.88-160 312-16.22 29.21-40.72 47.37-73.5 54.5q-270 1.005-540 0c-32.406-7.73-57.24-25.9-74.5-54.5a411287 411287 0 0 0-553-1076q-14.692-26.829-19.5-57" style="opacity:1"/><path fill="#f9f9f9" d="M1830.5 364.5v22q-2.4 20.605-10.5 40c-55.64 107.942-111.31 215.942-167 324-33.28 44.647-75.44 55.813-126.5 33.5-31.43-20.34-49.6-49.173-54.5-86.5-2.27-21.327.4-41.993 8-62 23.28-45.305 46.62-90.638 70-136 1.78-5.609-.06-9.443-5.5-11.5-81.75-.994-163.41-.661-245 1-1.17 1.167-2.33 2.333-3.5 3.5A124183 124183 0 0 1 923.5 1216c-6.17 2.79-11.337 1.63-15.5-3.5-36.613-71.3-73.28-142.64-110-214q-2.067-11.159 3-21c117.31-221.196 234.64-442.529 352-664q25.725-41.978 73.5-53.5c172.67-.667 345.33-.667 518 0q35.43 7.704 58.5 35.5c15.54 20.449 24.71 43.449 27.5 69" style="opacity:1"/></svg>