<svg xmlns="http://www.w3.org/2000/svg" width="5691" height="1315" style="shape-rendering:geometricPrecision;text-rendering:geometricPrecision;image-rendering:optimizeQuality;fill-rule:evenodd;clip-rule:evenodd"><path fill="#4a5063" d="M4227.5.5c39.37-.43 66.2 17.57 80.5 54q2.085 7.89 3 16 1.005 321 0 642-7.44 55.433-61.5 69.5c-42.74 6.052-72.91-10.448-90.5-49.5a78 78 0 0 1-4-17q-1.005-323.5 0-647 6.045-43.857 46.5-61.5c8.5-3.393 17.16-5.56 26-6.5M2225.5 1.5c119.35-.477 238.68.023 358 1.5 36.26 8.263 57.43 30.763 63.5 67.5 2.75 31.795-8.42 57.295-33.5 76.5-10.33 6.777-21.66 10.777-34 12-91.67.5-183.33.667-275 .5v146c69.67-.167 139.33 0 209 .5 33.04 4.711 54.88 22.877 65.5 54.5 9.61 47.979-8.56 79.812-54.5 95.5a113 113 0 0 1-14 2c-68.67.5-137.33.667-206 .5v162q136.5-.25 273 .5c40.45 5.785 63.62 28.951 69.5 69.5 3.58 39.542-12.75 66.875-49 82a65.7 65.7 0 0 1-14.5 3.5c-123.67.667-247.33.667-371 0q-45.6-9.601-61.5-53.5a86.7 86.7 0 0 1-3-20 97171 97171 0 0 1 0-625c2.89-38.224 22.72-62.724 59.5-73.5q9.195-1.368 18-2.5M3041.5 1.5c54.59-.687 105.92 11.813 154 37.5q92.01 56.153 121.5 160.5a418.7 418.7 0 0 1 15 91q1.005 212.5 0 425c-7.68 37.679-30.51 59.846-68.5 66.5-39.72 3.566-68.55-12.267-86.5-47.5a79.6 79.6 0 0 1-5-19c-.33-136.333-.67-272.667-1-409-.39-33.215-8.72-64.215-25-93-18.85-29.128-45.68-45.628-80.5-49.5q-120.45-11.513-139.5 107.5a324 324 0 0 0-3 32c-.33 136.667-.67 273.333-1 410-6 36.668-27.17 59.168-63.5 67.5-37.23 5.963-66.39-6.537-87.5-37.5-5.54-9.619-8.87-19.952-10-31a44721 44721 0 0 1 0-424c1.92-60.019 18.25-115.686 49-167C2854.55 55.043 2916.71 16.21 2996.5 5a747 747 0 0 1 45-3.5M3522.5 1.5q225-.25 450 .5 63.705 5.706 76.5 68.5c2.96 38.93-13.21 66.43-48.5 82.5a88.6 88.6 0 0 1-23 5c-50.67.5-101.33.667-152 .5.17 186.667 0 373.334-.5 560q-14.205 62.126-78 66c-34.44-1.446-58.1-18.112-71-50a181 181 0 0 1-3-13q-2.235-281.475-1.5-563c-54.36.461-108.69-.039-163-1.5-42.5-11.511-63.33-39.344-62.5-83.5 3.8-32.784 20.96-55.284 51.5-67.5 8.33-2.369 16.66-3.869 25-4.5M4549.5 1.5q123.015-.647 246 1.5c88.38 8.758 159.22 48.258 212.5 118.5q69.645 102.128 51 225-25.32 134.498-142.5 204a4081 4081 0 0 0 90.5 96c24.38 32.053 25.71 65.053 4 99-22.48 28.16-51.31 37.994-86.5 29.5a70.4 70.4 0 0 1-20-10 21288 21288 0 0 1-171-176c-34.67-.5-69.33-.667-104-.5q.675 63.037-1.5 126-16.38 63.86-82.5 63.5-47.7-3.969-67.5-47.5a79.6 79.6 0 0 1-5-19q-1.005-321 0-642 7.47-42.7 46.5-61.5 14.745-5.495 30-6.5m80 158c51.67-.167 103.33 0 155 .5 60.65 9.31 99.48 43.477 116.5 102.5 13 60.335-5.16 108.835-54.5 145.5q-28.605 19.205-63 23c-51.33.5-102.67.667-154 .5zM5267.5 1.5c119.35-.477 238.68.023 358 1.5 37.15 8.485 58.32 31.652 63.5 69.5 1.96 23.792-4.71 44.792-20 63-13.19 13.842-29.35 21.675-48.5 23.5-91.33.5-182.67.667-274 .5v146c69.67-.167 139.33 0 209 .5q56.4 9.405 67.5 65.5 5.49 46.09-31.5 73.5-17.865 11.288-39 13c-68.67.5-137.33.667-206 .5v162c93.69-.478 187.35.022 281 1.5q53.955 13.97 61.5 69.5c2.67 40.963-15.16 68.463-53.5 82.5a79 79 0 0 1-10 2c-123.67.667-247.33.667-371 0q-45.825-9.521-61.5-53.5a67.3 67.3 0 0 1-3-17q-1.005-315.5 0-631c4.36-36.68 24.19-60.18 59.5-70.5q9.195-1.368 18-2.5" style="opacity:1"/><path fill="#4b5164" d="M1189.5 1314.5h-547q-45.717-12.93-70.5-54a410496 410496 0 0 0-553-1076q-14.692-26.829-19.5-57v-33q7.047-50.876 50-78.5 17.027-8.76 36-12 260-1 520 0 47.217 11.484 73 52.5a33538 33538 0 0 0 97.5 190q19.874 49.692 2 100-20.925 49.434-72.5 63.5-70.52 9.176-105.5-52.5a10669 10669 0 0 1-63-123 20.5 20.5 0 0 1-3.5-2.5q-122-1-244 0-6.75 2.495-5.5 9.5a833241 833241 0 0 1 432 841c1.167 1.17 2.333 2.33 3.5 3.5 131.253 1.66 262.586 2 394 1 2.83-1.5 5-3.67 6.5-6.5a25519 25519 0 0 1 125-244q43.17-65.44 118.5-42.5 54.6 27.119 64.5 87.5c3.05 23.019.38 45.352-8 67a81533 81533 0 0 1-167.5 325c-16.33 20.99-37.33 34.66-63 41" style="opacity:1"/><path fill="#4b5164" d="M1226.5 3.5c172.67-.167 345.33 0 518 .5q39.675 8.433 63 41.5c24.04 36.678 29.21 76.011 15.5 118a41636 41636 0 0 1-170 331c-33.28 44.647-75.44 55.813-126.5 33.5-31.43-20.34-49.6-49.173-54.5-86.5-2.27-21.327.4-41.993 8-62 23.28-45.305 46.62-90.638 70-136 1.78-5.609-.06-9.443-5.5-11.5-81.75-.994-163.41-.661-245 1-1.17 1.167-2.33 2.333-3.5 3.5A124183 124183 0 0 1 923.5 960q-9.255 4.188-15.5-3.5a288815 288815 0 0 0-110-214q-1-7.5 0-15c118.8-222.927 237.13-446.26 355-670q26.055-41.872 73.5-54" style="opacity:1"/><path fill="#4a5063" d="M2241.5 982.5c31.14-3.23 58.3 5.436 81.5 26 30.87-26.703 65.7-33.203 104.5-19.5 36.47 16.06 57.63 43.89 63.5 83.5.67 68.67.67 137.33 0 206-3.05 14.05-11.55 22.89-25.5 26.5-21.04 3.07-34.87-5.43-41.5-25.5-.33-65.67-.67-131.33-1-197-3.82-18.48-15.15-28.48-34-30-16.26 1.63-26.59 10.29-31 26-1.31 67.31-1.98 134.64-2 202-3.5 12.83-11.67 21-24.5 24.5-20.6 3.03-34.43-5.14-41.5-24.5-.03-67.69-.69-135.36-2-203-7.95-20.89-22.79-28.39-44.5-22.5-10.86 5.2-17.69 13.7-20.5 25.5-.33 66-.67 132-1 198-3.05 14.05-11.55 22.89-25.5 26.5-22.17 3.18-36-5.99-41.5-27.5-.67-67.67-.67-135.33 0-203 7.46-50.95 36.29-81.619 86.5-92M2582.5 982.5c51.67-.167 103.33 0 155 .5q25.17 6.424 27 32.5c-1.19 17-9.85 27.84-26 32.5-39 .5-78 .67-117 .5v60c30.36-.44 60.7.06 91 1.5 18.94 6.36 26.77 19.52 23.5 39.5q-5.205 17.205-22.5 22.5c-30.63 1.44-61.3 1.94-92 1.5v67c39-.17 78 0 117 .5 16.15 4.66 24.81 15.5 26 32.5q-1.035 24.27-24 31.5c-53.67.67-107.33.67-161 0-12.71-4.04-20.54-12.54-23.5-25.5q-1.005-135 0-270c3.35-14.514 12.18-23.514 26.5-27M2877.5 982.5c33.33-.167 66.67 0 100 .5q28.155 3.402 30 31.5c-1.08 19.24-11.08 30.41-30 33.5-34 .33-68 .67-102 1-11.84 3.85-18.68 12.02-20.5 24.5-1.6 15.97 4.57 27.8 18.5 35.5 19.69.21 39.35.87 59 2 48.02 7.35 76.18 34.85 84.5 82.5q3.225 70.305-58.5 103.5c-7.14 2.94-14.48 5.27-22 7-36.63 1.63-73.3 1.96-110 1-20.88-4.91-30.05-18.08-27.5-39.5 3.51-15.54 13.34-23.7 29.5-24.5 33.67-.33 67.33-.67 101-1 10.57-3.57 17.4-10.74 20.5-21.5 4.42-19.32-2.08-33.48-19.5-42.5-20.03-.1-40.03-.77-60-2-50.92-9.25-78.26-39.58-82-91q2.625-71.085 69-96a371 371 0 0 1 20-4.5M3094.5 982.5q29.7-4.539 40.5 23c1.46 38.3 1.96 76.64 1.5 115h111c-.17-37 0-74 .5-111q6.075-26.283 33-27 17.1-.702 27 13a35.3 35.3 0 0 1 5 14c.67 90.33.67 180.67 0 271-4.89 20.87-18.06 30.04-39.5 27.5-14.28-3.28-22.78-12.11-25.5-26.5-.5-31.66-.67-63.33-.5-95h-111c.17 30.67 0 61.34-.5 92-4.16 22.48-17.66 32.31-40.5 29.5-12.83-3.5-21-11.67-24.5-24.5q-1.005-138 0-276c3.32-12.678 11.15-21.012 23.5-25" style="opacity:1"/></svg>