<svg xmlns="http://www.w3.org/2000/svg" width="5691" height="1315"><path fill="#fe6a3d" d="m106.99 3.74 6.44-.012c5.882-.01 11.765-.008 17.648-.004 6.35.002 12.7-.007 19.051-.014q18.652-.018 37.303-.012a49991 49991 0 0 0 41.246-.01 98611 98611 0 0 1 82.057-.003q36.435.007 72.871-.021a90399 90399 0 0 1 90.644-.027h2.172q16.225.002 32.45-.015 18.45-.019 36.902-.002c6.276.006 12.552.007 18.828-.005q8.619-.014 17.239.007 3.115.003 6.231-.008C607.82 3.544 607.82 3.544 617 7l1.977.658C630.172 11.472 641.99 17.243 651 25v2l2.105.633c3.801 1.795 6.284 4.266 9.208 7.242l1.719 1.734C677 50.03 677 50.03 677 56h2l4.594 9.185c1.818 3.635 3.634 7.27 5.437 10.913A708 708 0 0 0 700 97.356c2.772 5.165 5.393 10.397 7.993 15.65a492 492 0 0 0 7.195 13.869c4.658 8.688 4.658 8.688 6.812 12.875l1.188 2.297C724 144 724 144 724 147h2l4.596 9.19c1.806 3.61 3.609 7.22 5.4 10.837a855 855 0 0 0 11.648 22.617c2.874 5.4 5.623 10.855 8.336 16.336 2.428 4.884 4.953 9.709 7.52 14.52 17.315 32.565 17.315 32.565 21.5 50.5l.549 2.332c1.602 7.707 1.79 15.31 1.767 23.145-.003 2.19.02 4.378.045 6.568.121 26.854-9.003 53.306-26.361 73.955h-2l-.7 1.68c-1.655 2.954-3.725 5.046-6.112 7.445l-2.583 2.633c-2.514 2.164-4.472 3.24-7.605 4.242v2c-3.83 2.612-7.94 4.767-12 7l-2.531 1.43c-20.745 11.133-46.755 11.114-68.969 4.82-10.448-3.379-20.752-8.568-29.5-15.25v-2l-1.75-.813c-2.306-1.216-4.27-2.49-6.25-4.187v-2h-2c-1.508-1.46-1.508-1.46-3.125-3.375l-1.633-1.898C613 377 613 377 613 375h-2c-1.433-1.964-2.712-3.941-4-6l-1.535-2.285c-4.387-6.625-7.945-13.486-11.43-20.606-1.923-3.919-3.96-7.768-6.035-11.609-3.118-5.784-6.084-11.631-9-17.52a460 460 0 0 0-7-13.48c-4.175-7.747-8.098-15.613-12-23.5l-1.227-2.27C558 276 558 276 558 273h-2c-16-32-16-32-17.543-35.336-1.324-2.91-1.324-2.91-4.457-4.664-1.976-.298-1.976-.298-4.166-.252l-2.584-.015-2.84.013-3.017-.01c-3.35-.007-6.702-.001-10.053.005q-3.594-.004-7.188-.01-8.765-.012-17.528-.002-7.125.007-14.246.003h-2.047l-4.115-.003q-19.309-.006-38.618.012-16.569.012-33.138-.002a29284 29284 0 0 0-42.57-.007l-2.039.001q-7.113.003-14.226-.006-9.576-.008-19.152.01-3.519.004-7.038-.002c-3.197-.006-6.394.001-9.59.011l-2.827-.013c-4.45.027-7.977.157-12.018 2.267-.4 5.617.7 9.185 3.5 13.937a1496 1496 0 0 1 2.227 3.981c.38.676.76 1.352 1.153 2.048 1.768 3.21 3.38 6.495 4.995 9.784 5.208 10.518 10.704 20.887 16.258 31.227C317.927 304.903 322.5 313.92 327 323c5.692 11.476 11.432 22.913 17.437 34.229 2.978 5.622 5.843 11.293 8.665 16.995 2.221 4.47 4.531 8.882 6.898 13.276 2.67 4.96 5.251 9.952 7.75 15 3.324 6.716 6.771 13.363 10.25 20 3.812 7.272 7.561 14.567 11.203 21.926 2.5 5.032 5.132 9.985 7.798 14.931 2.774 5.17 5.396 10.406 7.999 15.663a460 460 0 0 0 7 13.48c3.118 5.784 6.084 11.631 9 17.52a460 460 0 0 0 7 13.48c3.118 5.784 6.084 11.631 9 17.52a461 461 0 0 0 7 13.48c3.816 7.089 7.427 14.27 11 21.484 1.992 4.015 4 8.022 6.009 12.029 1.629 3.253 3.25 6.51 4.85 9.776 3.859 7.846 7.928 15.55 12.141 23.211a598 598 0 0 1 13.047 25.062c1.715 3.488 3.461 6.962 5.203 10.438l1.89 3.781.927 1.852q.948 1.896 1.89 3.797c2.515 5.068 5.14 10.072 7.793 15.07 3.11 5.884 6.173 11.785 9.125 17.75 3.782 7.642 7.736 15.191 11.694 22.743a945 945 0 0 1 9.634 18.933c2.5 5.032 5.132 9.985 7.798 14.931 2.774 5.17 5.396 10.406 7.999 15.663a460 460 0 0 0 7 13.48c3.118 5.784 6.084 11.631 9 17.52a460 460 0 0 0 7 13.48c3.118 5.784 6.084 11.631 9 17.52a461 461 0 0 0 7 13.48c4.17 7.75 8.093 15.615 12 23.5 5.74 11.572 11.531 23.106 17.582 34.519a612 612 0 0 1 7.8 15.278c2.111 4.18 4.303 8.315 6.493 12.453 3.069 5.8 6.09 11.618 9 17.5 3.782 7.642 7.736 15.191 11.694 22.743a945 945 0 0 1 9.634 18.933c2.5 5.032 5.132 9.985 7.798 14.931 2.774 5.17 5.396 10.406 7.999 15.663a460 460 0 0 0 7 13.48c3.117 5.783 6.083 11.628 8.998 17.515 2.588 5.207 5.295 10.342 8.064 15.455a230 230 0 0 1 4.856 9.475l.935 1.935c.844 1.76 1.676 3.526 2.506 5.292 1.726 2.974 2.706 4.116 5.641 5.828 3.094.453 3.094.453 6.6.383l2.015.015c2.238.013 4.476.005 6.714-.004q2.426.007 4.85.019c4.451.016 8.902.014 13.353.008 4.797-.002 9.594.012 14.39.025q14.102.028 28.202.023a20023 20023 0 0 1 29.51.017l3.315.003c20.7.019 41.4.018 62.1.01 18.95-.005 37.9.016 56.85.05q29.166.05 58.332.043c10.922-.002 21.844.003 32.766.028q13.946.033 27.892.006c4.746-.01 9.492-.01 14.238.01q6.513.028 13.025-.008 2.36-.006 4.72.013c2.135.018 4.267.004 6.402-.017h3.596c4.055-.809 5.519-2.496 8.13-5.624 1.463-2.156 1.463-2.156 2.57-4.398l1.278-2.454 1.277-2.523 1.3-2.5c2.393-4.637 4.586-9.302 6.575-14.125h2l.281-2.047c.897-3.684 2.491-6.856 4.219-10.203l1.057-2.083c3.11-6.097 6.315-12.144 9.56-18.17 1.505-2.808 2.873-5.468 3.883-8.497h2l.246-2.012c1.003-3.975 2.845-7.225 4.817-10.8q1.236-2.287 2.468-4.575l1.258-2.333c1.825-3.436 3.552-6.917 5.274-10.405 2.872-5.804 5.865-11.53 8.937-17.231 2.42-4.507 4.73-9.06 7-13.644a505 505 0 0 1 8-15.5c4.516-8.39 8.743-16.917 12.968-25.456q1.45-2.93 2.907-5.857l.969-1.947c3.203-6.4 6.548-12.723 9.92-19.034l1.232-2.32 1.1-2.055c1.03-1.98 1.03-1.98 1.904-4.831h2l.23-1.984c1.055-4.133 3.03-7.548 5.083-11.266 3.157-5.827 6.128-11.63 8.687-17.75h2l.34-2.2c.69-2.926 1.715-5.023 3.223-7.613l1.378-2.394c.35-.592.7-1.183 1.059-1.793h2l.938-2.375C1252 827 1252 827 1253 825h2l.75-1.688c2.717-5.026 6.476-8.55 10.875-12.125l2.914-2.394C1272 807 1272 807 1274 807v-2c3-2 3-2 6-2v-2c24.645-13.074 50.305-16.808 77.375-9.375 7.723 2.5 14.617 6.342 21.625 10.375l2.727 1.559c1.803 1.073 3.548 2.244 5.273 3.441v2l1.688.687c2.97 1.687 4.957 3.843 7.312 6.313l2.813 2.687C1401 821 1401 821 1401 823h2a127 127 0 0 1 5.188 7.125l1.492 2.194c12.37 18.535 19.674 40.348 20.32 62.681l.086 2.754c.04 2.754-.007 5.493-.086 8.246-.017 1.02-.034 2.042-.05 3.094-.856 20.912-8.615 39.934-18.4 58.133a451 451 0 0 0-6.675 12.96l-.982 1.976q-1.922 3.87-3.836 7.743c-6.602 13.334-13.488 26.515-20.479 39.649-5.01 9.41-9.85 18.89-14.578 28.445q-1.995 4.034-4 8.062l-.985 1.98c-2.726 5.448-5.576 10.825-8.49 16.175-1.396 2.578-2.595 4.994-3.525 7.783h-2l-.281 2.047c-.897 3.684-2.491 6.856-4.219 10.203l-1.057 2.083c-3.11 6.097-6.315 12.144-9.56 18.17-1.505 2.808-2.873 5.468-3.883 8.497h-2l-.23 1.984c-1.055 4.133-3.03 7.548-5.082 11.266-3.158 5.827-6.129 11.63-8.688 17.75h-2l-.281 2.047c-.897 3.684-2.491 6.856-4.219 10.203l-1.057 2.083c-3.11 6.097-6.315 12.144-9.56 18.17-1.505 2.808-2.873 5.468-3.883 8.497h-2l-.246 2.012c-1.003 3.975-2.845 7.225-4.816 10.8q-1.237 2.287-2.47 4.575l-1.257 2.333c-1.825 3.436-3.552 6.917-5.273 10.405-2.916 5.89-5.95 11.704-9.068 17.49-2.623 4.881-5.112 9.82-7.546 14.8-1.34 2.617-2.68 5.143-4.324 7.585h-2l-.719 2.2c-1.48 3.235-3.245 5.13-5.781 7.612l-2.406 2.395C1240 1289 1240 1289 1238 1289l-1 3a90 90 0 0 1-6.187 4.75l-1.899 1.339c-14.455 9.953-30.492 17.076-48.156 17.045l-2.807.007q-4.673.009-9.345.006l-6.754.011q-9.294.014-18.588.017-8.99.005-17.98.02c-16.058.02-32.115.03-48.172.04l-22.794.014a194220 194220 0 0 1-82.944.042h-2.454l-14.774.005q-39.589.013-79.178.064a75335 75335 0 0 1-92.93.058h-2.287q-18.203.006-36.405.04-18.304.03-36.609.016c-6.608-.005-13.216-.003-19.825.016q-9.08.026-18.161.001-3.28-.004-6.557.014c-14.828.076-27.468-1.033-40.819-8.13l-3.414-1.79L615 1304a458 458 0 0 0-4-2v-2l-1.875-.438C607 1299 607 1299 605 1298v-2l-1.703-.781c-2.564-1.36-4.75-2.947-7.047-4.719l-2.422-1.844L592 1287v-2l-3-1v-2h-2v-2h-2a96 96 0 0 1-4.312-5.938l-1.233-1.812A149 149 0 0 1 571 1258l-2.888-5.359a611 611 0 0 1-9.424-18.297c-2.134-4.227-4.348-8.41-6.563-12.594-4.837-9.148-9.48-18.382-14.068-27.656-6.676-13.483-13.666-26.796-20.702-40.094-4.196-7.938-8.333-15.895-12.317-23.943-3.005-6.048-6.16-12.014-9.323-17.982-3.025-5.725-5.944-11.495-8.817-17.298A455 455 0 0 0 480 1081.5c-3.816-7.089-7.427-14.27-11-21.484-1.99-4.01-3.996-8.013-6.002-12.016a1348 1348 0 0 1-4.963-10 403 403 0 0 0-11.675-21.996c-4.082-7.19-7.721-14.583-11.36-22.004a937 937 0 0 0-11.937-23.375c-4.812-9.095-9.429-18.276-13.99-27.499-7.504-15.16-15.318-30.162-23.323-45.064-4.437-8.267-8.588-16.674-12.75-25.083-3.886-7.843-7.847-15.629-12-23.335-2.773-5.166-5.394-10.4-7.996-15.655-2.617-5.266-5.362-10.456-8.149-15.635a373 373 0 0 1-5.73-11.104c-2.58-5.215-5.278-10.359-8-15.5-4.506-8.52-8.85-17.111-13.125-25.75-4.219-8.525-8.499-16.998-13.009-25.373a449 449 0 0 1-6.741-13.127c-3.324-6.716-6.771-13.363-10.25-20-3.812-7.272-7.561-14.567-11.203-21.926-2.5-5.032-5.132-9.985-7.798-14.931-2.774-5.17-5.396-10.406-7.999-15.663a460 460 0 0 0-7-13.48c-3.118-5.784-6.084-11.631-9-17.52a460 460 0 0 0-7-13.48c-3.118-5.784-6.084-11.631-9-17.52a461 461 0 0 0-7-13.48c-3.816-7.089-7.427-14.27-11-21.484-1.992-4.015-4-8.022-6.009-12.029-1.629-3.253-3.25-6.51-4.85-9.776-3.859-7.846-7.928-15.55-12.141-23.211a600 600 0 0 1-13.064-25.092 1777 1777 0 0 0-4.936-9.97l-1.001-2.01c-2.577-5.144-5.27-10.22-7.999-15.284-2.775-5.169-5.397-10.406-8-15.664a460 460 0 0 0-7-13.48c-3.118-5.784-6.084-11.631-9-17.52a461 461 0 0 0-7-13.48c-4.702-8.733-9.095-17.615-13.484-26.508a613 613 0 0 0-8.041-15.635c-4.385-8.243-8.554-16.543-12.431-25.039C94.013 328.92 91.728 325.02 89 321a230 230 0 0 1-3.562-7l-2.106-4.262-1.134-2.306A1593 1593 0 0 0 60 264c-5.138-9.691-10.235-19.393-15.102-29.223A454 454 0 0 0 38 221.5c-4.715-8.756-9.118-17.662-13.52-26.578l-1.417-2.86-1.442-2.917a174 174 0 0 0-3.71-6.82C11.184 170.44 6.741 158.114 3 145l-.634-2.199C-4.454 117.675-1.604 86.513 9 63l1.559-3.484C14.519 51.137 19.287 44.226 25 37l2-3h2v-2c4.364-4.908 10.082-8.549 15.5-12.188.616-.415 1.233-.83 1.867-1.26 6.636-4.375 13.39-7.662 20.946-10.177l3.613-1.227C82.9 3.62 94.616 3.715 106.99 3.74"/><path fill="#fe6a3d" d="m1236.167 3.746 2.671-.01c2.945-.008 5.89-.003 8.836.003l6.41-.011c5.864-.01 11.728-.008 17.593-.004 6.327.002 12.654-.007 18.982-.014q18.59-.018 37.179-.012a49655 49655 0 0 0 41.106-.01 97921 97921 0 0 1 81.779-.003q36.315.007 72.628-.021a89765 89765 0 0 1 90.326-.027h2.164q16.17.002 32.34-.015 18.39-.019 36.782-.002c6.256.006 12.51.007 18.766-.005q8.592-.014 17.184.007 3.105.003 6.212-.008c19.681-.07 19.681-.07 28.875 3.386l2.353.801a180 180 0 0 1 6.022 2.199l2.035.75c3.769 1.421 7.297 2.91 10.59 5.25v2l1.875.437C1781 19 1781 19 1783 20v2l2 .562c4.27 2.046 7.742 5.01 11 8.438v2h2c1.945 2.117 1.945 2.117 4.125 4.875l2.195 2.742C1806 43 1806 43 1806 45h2c4 6.75 4 6.75 4 9h2c16.36 33.533 23.218 69.526 11.477 105.91-2.195 6.346-5.316 12.182-8.477 18.09-1.33 2.617-2.633 5.246-3.938 7.875q-1.018 2.037-2.039 4.074-1.969 3.938-3.921 7.883c-6.291 12.687-12.87 25.223-19.524 37.723-5.01 9.41-9.85 18.89-14.578 28.445a4203 4203 0 0 1-4.985 10.042c-2.726 5.448-5.576 10.825-8.49 16.175-1.396 2.578-2.595 4.994-3.525 7.783h-2l-.281 2.047c-.897 3.684-2.491 6.856-4.219 10.203l-1.057 2.083c-3.11 6.097-6.315 12.144-9.56 18.17-1.505 2.808-2.873 5.468-3.883 8.497h-2l-.23 1.984c-1.055 4.133-3.03 7.548-5.083 11.266-3.157 5.827-6.128 11.63-8.687 17.75h-2l-.281 2.047c-.897 3.684-2.491 6.856-4.219 10.203l-1.057 2.083c-3.11 6.097-6.315 12.144-9.56 18.17-1.505 2.808-2.873 5.468-3.883 8.497h-2l-.246 2.012c-1.003 3.975-2.845 7.225-4.817 10.8a2637 2637 0 0 0-2.468 4.579l-1.258 2.334c-1.818 3.416-3.553 6.871-5.274 10.337l-.986 1.984q-1.478 2.976-2.951 5.954c-5.162 10.43-10.47 20.76-16 31l-1.59 2.996c-5.913 11.059-12.242 21.338-21.41 30.004h-2v2c-5.476 5-5.476 5-8 5v2a89 89 0 0 1-6.5 4.25l-2.039 1.213c-7.184 4.142-14.582 7.01-22.461 9.537l-3.02 1.031c-22.278 6.442-47.281 1.827-67.382-8.836-6.055-3.405-6.055-3.405-8.598-5.195v-2h-3v-2l-1.75-.813c-2.306-1.216-4.27-2.49-6.25-4.187v-2l-1.938-.813C1504 511 1504 511 1503 508h-2c-8.443-9.852-15.55-20.812-20-33q-1.027-2.47-2.063-4.938c-5.522-13.883-7.315-27.945-7.25-42.812l.006-2c.047-10.112.605-19.464 3.307-29.25l.504-1.938c2.824-10.746 7.27-20.296 12.496-30.062l2.234-4.223q1.699-3.21 3.407-6.417c2.9-5.445 5.671-10.945 8.405-16.475 2.272-4.574 4.648-9.081 7.079-13.573 3.592-6.643 6.803-13.41 9.875-20.312h2l.246-2.012c1.003-3.975 2.845-7.225 4.816-10.8q1.237-2.289 2.47-4.579l1.257-2.334c1.818-3.416 3.553-6.871 5.273-10.338l.976-1.96q1.483-2.988 2.962-5.977a6000 6000 0 0 1 4.312-8.688l.987-1.998c1.367-2.748 2.751-5.391 4.42-7.97 1.444-2.642 1.602-4.179 1.468-7.157l-.082-2.394L1550 235c-4.842-2.522-9.473-2.285-14.793-2.267l-3.01-.014c-3.33-.013-6.66-.011-9.992-.01q-3.58-.008-7.16-.02a6879 6879 0 0 0-17.435-.023q-7.085-.001-14.17-.012-20.088-.026-40.176-.025h-4.377c-11.717.001-23.434-.018-35.15-.046q-18.047-.043-36.095-.04c-6.755 0-13.509-.006-20.264-.027q-9.525-.029-19.048-.005-3.5.003-6.999-.015c-3.18-.015-6.358-.006-9.538.01l-2.81-.032c-4.121.045-6.39.165-9.973 2.349-2.624 2.842-4.215 5.951-5.823 9.427q-1.04 2.163-2.082 4.324l-1.057 2.228c-1.641 3.441-3.342 6.851-5.048 10.26l-1 2.005c-2.575 5.147-5.27 10.223-8 15.289-2.42 4.507-4.73 9.06-7 13.644a566 566 0 0 1-9 17.355c-2.419 4.508-4.73 9.06-7 13.645a566 566 0 0 1-9 17.355c-2.419 4.508-4.73 9.06-7 13.645a505 505 0 0 1-8 15.5c-3.816 7.089-7.427 14.27-11 21.484-1.99 4.012-3.998 8.016-6.004 12.02-1.654 3.303-3.3 6.61-4.926 9.926-3.897 7.92-8.029 15.66-12.354 23.354-3.81 6.807-7.314 13.742-10.748 20.744A1866 1866 0 0 1 1178 469.07c-2.577 5.145-5.273 10.22-8 15.287-3.472 6.473-6.74 13.044-10 19.626-1.99 4.012-3.998 8.016-6.004 12.02-1.654 3.303-3.3 6.61-4.926 9.926-3.895 7.916-8.025 15.655-12.35 23.345-4.169 7.449-7.967 15.06-11.72 22.725a834 834 0 0 1-10.875 21.25c-4.505 8.52-8.85 17.111-13.125 25.75-4.264 8.615-8.59 17.18-13.145 25.646a372 372 0 0 0-5.73 11.104c-2.58 5.215-5.278 10.359-8 15.5-3.113 5.883-6.173 11.785-9.125 17.75-2.911 5.882-5.928 11.7-9 17.5-5.146 9.722-10.078 19.542-14.922 29.418-3.902 7.922-8.035 15.669-12.362 23.366-3.81 6.809-7.314 13.744-10.748 20.748-1.639 3.332-3.305 6.649-4.968 9.968-2.007 4.008-4.01 8.018-6 12.035a722 722 0 0 1-11 21.323 508 508 0 0 0-7 13.58l-1.004 2.016q-2.476 4.983-4.926 9.98c-3.899 7.916-8.03 15.658-12.354 23.35-3.81 6.809-7.314 13.744-10.748 20.748-1.639 3.332-3.305 6.649-4.968 9.968-2.007 4.008-4.01 8.018-6 12.035-3.6 7.257-7.287 14.452-11.132 21.582a360 360 0 0 0-6.118 11.945c-5.056 10.153-5.056 10.153-8.563 12.813-4.207 1.202-8.069.998-12.187-.375-2.323-2.58-3-3.452-3-7h-2l-11.018-22.035-1.98-3.959q-2.511-5.015-5.002-10.041c-3.655-7.368-7.394-14.68-11.299-21.918-.906-1.68-1.803-3.363-2.701-5.047l-1.73-3.242C871 885 871 885 871 882h-2l-11.018-22.035-1.98-3.959q-2.511-5.015-5.002-10.041a711 711 0 0 0-11-21.32c-2.772-5.166-5.393-10.398-7.993-15.651a492 492 0 0 0-7.195-13.869c-4.658-8.688-4.658-8.688-6.812-12.875l-1.188-2.297C816 778 816 778 816 775h-2l-1.469-2.938-.97-1.937a897 897 0 0 1-2.137-4.31c-1.826-3.693-3.693-7.335-5.737-10.913-4.953-8.829-8.005-16.572-5.687-26.902 2.018-4.99 4.919-9.468 7.786-14.001 1.911-3.147 3.493-6.435 5.089-9.749 3.027-6.189 6.276-12.23 9.625-18.25 3.594-6.466 7.037-12.967 10.285-19.612 3.745-7.588 7.84-14.989 11.912-22.405l1.643-3.003 1.48-2.69c1.286-2.351 1.286-2.351 2.18-5.29h2c.07-.638.14-1.276.21-1.934 1.135-4.406 3.262-8.14 5.415-12.129l1.373-2.577a346 346 0 0 1 7.627-13.548c2.998-5.039 5.604-10.209 8.184-15.469 2.574-5.207 5.34-10.283 8.191-15.343 3.13-5.559 6.13-11.146 8.937-16.875 3.441-7.023 7.186-13.853 10.988-20.685 3.267-5.898 6.331-11.867 9.295-17.922a159 159 0 0 1 6.342-11.58C920.59 498.21 923.79 491.141 927 484h2l.238-2.027c1.01-3.94 2.895-7.05 4.95-10.536 3.247-5.637 6.305-11.306 9.171-17.148 2.46-4.93 5.043-9.794 7.617-14.665 2.266-4.288 4.525-8.579 6.762-12.882 4.82-9.263 9.73-18.457 14.842-27.562 2.782-4.974 5.365-10.015 7.865-15.137 1.884-3.687 3.933-7.264 5.992-10.856C990.75 365.655 994.461 357.92 998 350h2l.31-2.128c.794-3.307 2.09-5.832 3.717-8.817l1.886-3.485 2.024-3.695q1.035-1.905 2.068-3.813 1.55-2.863 3.103-5.722a1015 1015 0 0 0 8.142-15.34c3.908-7.481 7.957-14.88 12.085-22.242 2.505-4.502 4.73-8.982 6.665-13.758h2l.223-1.96c1.089-4.258 3.123-7.819 5.214-11.665l2.735-5.105 1.42-2.639a772 772 0 0 0 4.049-7.682c3.551-6.817 7.091-13.604 11.046-20.199 3.976-6.664 7.136-13.681 10.313-20.75h2l.238-2.027c1.01-3.94 2.895-7.05 4.95-10.536 3.244-5.633 6.3-11.3 9.167-17.136 5.746-11.533 11.863-22.883 18.246-34.075 2.792-4.947 5.175-10 7.399-15.226h2l.219-1.95c1.106-4.318 3.169-7.955 5.281-11.863l1.355-2.541c3.228-6.028 6.571-11.988 9.955-17.93 3.034-5.358 5.785-10.82 8.514-16.341C1156.953 49.969 1171.252 30.592 1192 18h3v-2c25.96-12.338 25.96-12.338 41.167-12.254"/><path fill="#ff693c" d="M4571.468 1.87q3.242-.001 6.484-.005 8.77-.005 17.537 0c6.146.003 12.292 0 18.438 0q15.495-.003 30.99.005 17.834.006 35.667-.002 15.373-.007 30.746-.003 9.153.003 18.306-.001 8.627-.004 17.255.005 3.137 0 6.274-.002c86.34-.083 164.3 24.637 226.835 86.133a269 269 0 0 1 25 29l1.264 1.681c31.9 42.661 49.968 92.56 55.736 145.319l.29 2.546c1.026 10.33.954 20.708.96 31.079l.002 3.035c-.017 15.64-.548 30.898-3.252 46.34l-.52 3.002c-4.164 23.229-10.911 45.437-20.48 66.998l-1.118 2.527c-18.194 40.715-47.745 81.002-84.218 107.266a273 273 0 0 0-5.32 3.984c-9.616 7.28-19.93 15.066-31.344 19.223 4.032 5.702 8.425 10.65 13.437 15.5 4.44 4.362 8.749 8.72 12.762 13.48 2.984 3.346 6.211 6.45 9.4 9.599 3.332 3.307 6.453 6.718 9.495 10.296 2.529 2.819 5.212 5.464 7.906 8.125 3.877 3.83 7.562 7.72 11.094 11.875 2.529 2.819 5.213 5.464 7.906 8.125 3.907 3.864 7.683 7.762 11.23 11.965a114 114 0 0 0 4.133 4.476c15.316 15.967 23.213 36.124 22.99 58.28-.749 23.514-12.29 43.02-29.013 58.787-12.48 10.843-28.726 17.788-45.34 18.492l-2.277.121c-21.61.596-39.301-6.957-55.02-21.398a118 118 0 0 1-5.875-6.383c-4.507-5.215-9.422-10.004-14.328-14.84-5.42-5.344-10.734-10.68-15.686-16.463-3.74-4.2-7.809-8.091-11.814-12.037-9.63-9.485-9.63-9.485-13.469-13.969-4.392-5.123-9.228-9.796-14.031-14.531-5.42-5.344-10.734-10.68-15.686-16.463-3.74-4.2-7.809-8.091-11.814-12.037-9.63-9.485-9.63-9.485-13.469-13.969-4.392-5.123-9.228-9.796-14.031-14.531-10.164-10.02-10.164-10.02-13.781-14.281l-1.6-1.777c-1.15-1.326-2.288-2.667-3.344-4.07-4.853-6.423-9.796-12.221-18.049-13.646-6.28-.612-12.544-.46-18.843-.312q-3.468.005-6.935-.007c-6.042-.006-12.08.072-18.12.168-6.18.083-12.361.087-18.543.097-12.096.032-24.19.151-36.285.328l.006 1.788q.066 21.625.098 43.251.014 10.46.047 20.917.032 10.106.039 20.21.005 3.843.021 7.686c.118 28.966-3.075 52.7-23.742 74.67-14.475 14.561-34.411 21.19-54.594 21.665-23.481-.327-42.58-8.567-58.875-25.187-5.075-5.34-8.853-11.126-12.25-17.625l-.962-1.788c-7.698-15.553-7.36-31.856-7.296-48.776q-.007-3.975-.019-7.952-.02-8.613-.004-17.226c.016-8.539.008-17.078-.004-25.617-.022-15.254-.02-30.509-.008-45.763a36006 36006 0 0 0 .007-42.736l-.004-10.798c-.012-33.742-.001-67.485.02-101.227q.029-44.936-.001-89.872a100736 100736 0 0 1-.013-114.505q.005-20.008-.011-40.017-.019-22.757.013-45.515.019-12.726-.003-25.452-.012-8.512.014-17.025.016-4.842-.001-9.684c-.058-16.455.308-32.02 8.334-46.86l1.054-2.012c2.859-5.324 6.048-10.08 10.134-14.55l2.426-2.703c21.461-22.735 47.729-24.457 77.042-24.426M4630 160v272l75.875.187 23.867.083c7.123.01 7.123.01 14.247.016q4.721.005 9.442.03c38.645.194 74.661-5.576 104.569-32.316l2.8-2.402c6.49-5.682 11.99-11.734 17.2-18.598l1.23-1.593c21.657-28.195 30.017-61.213 26.457-96.515-4.131-30.86-18.006-59.685-39.687-81.892l-1.98-2.168c-19.45-20.776-50.858-34.592-79.02-36.832-5.045-.141-10.09-.127-15.137-.114h-4.658q-6.213.001-12.424.013-5.839.007-11.677.006c-11.368.006-22.736.02-34.104.032zM2240.584 1.866l4.28-.007q5.823-.008 11.648-.004c4.201 0 8.403-.006 12.605-.01q12.328-.012 24.655-.012 10.028 0 20.054-.006a113219 113219 0 0 1 60.048-.012h3.1q24.861-.002 49.723-.023 25.573-.023 51.147-.02 14.34.001 28.678-.014 12.21-.014 24.417-.005 6.219.007 12.438-.005c58.12-.114 58.12-.114 80.314 20.943 16.172 16.172 24.369 35.252 24.622 58.122-.1 21.846-7.877 41.854-22.88 57.843-15.802 15.22-35.207 21.524-56.715 21.464l-3.42.003q-5.67 0-11.337-.01l-8.13.001q-8.75 0-17.5-.008-12.65-.011-25.3-.012-20.526-.004-41.052-.019a107641 107641 0 0 0-61.806-.027c-31.724-.01-63.449-.03-95.173-.048v146l45.191-.105q14.185-.024 28.37-.041c15.004-.018 30.009-.04 45.013-.08q16.394-.046 32.787-.056a5567 5567 0 0 0 17.347-.035q8.18-.03 16.357-.022 2.988-.001 5.975-.019c14.19-.078 28.108.417 41.21 6.546l2.008.914c19.06 9.008 32.563 25.115 39.77 44.668 6.416 21.31 4.487 44.154-5.919 63.808-11.082 18.757-29.068 30.077-49.73 35.73-7.069 1.447-14.082 1.84-21.282 1.812l-2.572.003q-4.23 0-8.457-.01l-6.092.001q-8.243-.001-16.486-.013c-5.75-.006-11.499-.006-17.249-.008q-16.319-.005-32.638-.021-22.06-.018-44.121-.024c-23.161-.01-46.321-.03-69.482-.048v162l59.156-.105a108584 108584 0 0 1 59.071-.062c13.124-.013 26.248-.037 39.371-.064q20.226-.043 40.45-.051 12.465-.005 24.93-.042 8.565-.023 17.13-.017 4.93.004 9.861-.017c26.94-.113 50.158 2.794 70.808 21.983 17.225 18.405 23.093 41.16 22.35 65.885-.99 19.341-9.783 36.623-23.635 49.892-13.243 11.093-29.512 18.704-46.982 18.732l-3.925.014h-4.29q-2.288.004-4.575.01-6.28.014-12.562.017-6.776.007-13.553.022c-10.909.02-21.818.03-32.727.039l-15.423.015a89784 89784 0 0 1-64.592.044l-3.34.002c-17.847.008-35.694.033-53.54.066q-27.503.049-55.004.054c-10.29.002-20.58.01-30.869.036q-13.146.034-26.294.02c-4.467-.004-8.935-.002-13.402.017q-6.15.026-12.298.001-2.211-.004-4.422.014c-12.952.099-25.27-2.057-36.881-8.067l-1.997-1.018c-6.968-3.747-12.363-8.755-17.816-14.42l-2.234-2.21c-19.92-20.77-20.073-47.335-20.02-74.334q-.003-3.87-.01-7.741-.01-8.384-.001-16.767c.007-8.31.003-16.622-.003-24.933q-.014-22.272-.004-44.543.008-19.49.004-38.98v-2.616l-.002-10.511q-.007-49.266.01-98.533.014-43.738 0-87.475a190886 190886 0 0 1-.008-108.848v-2.61q.004-19.474-.005-38.949-.008-22.151.007-44.302.01-12.387-.001-24.772-.006-9.263.01-18.524.003-3.736-.004-7.473c-.048-26.7 1.6-50.975 20.261-71.879l2.02-2.305c19.047-20.425 43.93-23.86 70.564-23.829M5282.584 1.866l4.28-.007q5.823-.008 11.648-.004c4.201 0 8.403-.006 12.605-.01q12.328-.012 24.655-.012 10.028 0 20.054-.006a113219 113219 0 0 1 60.048-.012h3.1q24.861-.002 49.723-.023 25.574-.023 51.147-.02 14.34.001 28.678-.014 12.21-.014 24.417-.005 6.219.007 12.438-.005c58.788-.116 58.788-.116 81.94 22.514 15.352 15.665 23.137 36.701 22.98 58.533-.565 21.002-8.933 42.513-24.297 57.205-16.572 14.223-34.662 20.18-56.244 20.12l-3.409.003q-5.647 0-11.294-.01l-8.102.001q-8.717 0-17.435-.008-12.604-.011-25.208-.012-20.451-.004-40.902-.019a106856 106856 0 0 0-61.58-.027c-31.609-.01-63.217-.03-94.826-.048v146l45.086-.14q14.164-.032 28.328-.055c14.978-.024 29.956-.052 44.934-.107q16.365-.06 32.73-.074c5.771-.006 11.542-.018 17.313-.047q8.167-.039 16.335-.03 2.978 0 5.957-.024c15.192-.112 31.2.692 44.817 8.227l1.969 1.037c5.708 3.104 10.739 6.822 15.531 11.213l1.914 1.707c13.718 12.903 21.5 31.095 22.399 49.723.659 22.107-4.306 40.508-19.625 57.07L5602 437l-1.969 2.02c-14.872 14.55-35.403 20.177-55.814 20.1l-2.57.003q-4.232 0-8.465-.01l-6.092.001q-8.25-.001-16.499-.013c-5.752-.006-11.504-.006-17.256-.008a51275 51275 0 0 1-32.66-.021q-22.072-.018-44.146-.024c-23.176-.01-46.353-.03-69.529-.048v162l59.043-.07a162201 162201 0 0 1 56.454-.04l2.461-.001q19.645-.015 39.29-.043 20.175-.028 40.352-.034 12.44-.004 24.879-.028 8.543-.015 17.084-.011 4.92.002 9.841-.011c3.57-.01 7.138-.008 10.707-.003l3.092-.017c22.48.092 42.563 7.435 58.797 23.258 15.783 17.331 21.926 39.699 21.136 62.744-1.218 20.175-9.5 37.686-24.09 51.65-15.998 14.118-34.257 18.922-55.232 18.873l-4.585.014a3601 3601 0 0 1-12.535.01c-4.515 0-9.03.01-13.545.02q-13.256.023-26.513.023-10.78.002-21.56.012a65313 65313 0 0 1-64.515.025h-3.333c-17.82-.001-35.641.018-53.462.046q-27.475.043-54.95.04c-10.276 0-20.552.005-30.828.027q-13.125.028-26.25.009c-4.46-.006-8.919-.007-13.378.01q-6.137.024-12.275-.004-2.206-.005-4.413.012c-12.918.092-25.231-2.043-36.797-8.073l-1.993-1.027c-18.265-9.847-30.272-26.1-36.94-45.49-2.683-9.187-3.09-18.313-3.073-27.836l-.007-3.244q-.006-5.382-.002-10.764l-.01-7.795q-.01-9.59-.01-19.178-.002-11.49-.014-22.978c-.016-18.51-.022-37.02-.027-55.53q-.004-13.14-.01-26.28a287648 287648 0 0 1-.03-115.497c-.003-30.426-.02-60.852-.042-91.277a132695 132695 0 0 1-.04-107.153v-2.637q-.005-20.984-.027-41.968-.022-21.1-.01-42.203.007-12.525-.015-25.051c-.011-6.246-.006-12.492.005-18.738q.002-3.779-.01-7.557c-.086-26.27 2.625-50.952 21.259-71.204 20.594-19.721 44.082-24.198 71.705-24.165M3228 61l1.616 1.309c14.839 12.066 28.803 25.526 40.122 40.98a286 286 0 0 0 3.985 5.242c17.512 22.88 29.912 49.351 39.277 76.469l.87 2.502c15.923 46.365 19.614 94.406 19.537 143.024-.005 5.16.008 10.319.018 15.478.017 10.054.018 20.107.013 30.16q-.006 12.261.002 24.521l.003 3.547.004 7.136c.014 22.202.009 44.403-.003 66.604-.01 20.283.003 40.565.027 60.847q.037 31.34.027 62.679-.006 17.555.017 35.11.022 14.922-.002 29.842a3231 3231 0 0 0 .004 15.202q.02 6.971-.01 13.942-.006 2.507.01 5.014c.08 13.817-1.573 27.304-8.204 39.705-.342.656-.683 1.313-1.034 1.99-10.799 20.053-29.028 32.047-50.283 38.603-20.79 5.892-43.4 2.584-62.168-7.64-19.136-11.004-31.298-27.065-37.918-47.891-1.494-5.542-2.036-10.697-2.043-16.434l-.007-2.092q-.007-3.468-.005-6.936l-.01-5.026q-.014-6.904-.016-13.81-.008-7.447-.023-14.897-.022-12.912-.036-25.826-.022-18.71-.058-37.419a198360 198360 0 0 1-.184-116.05l-.005-3.66-.005-3.657q-.04-30.26-.101-60.52-.038-18.64-.054-37.28-.011-12.803-.042-25.604-.019-7.37-.019-14.737c0-48.549-2.002-100.135-34.302-139.427-.748-.924-1.495-1.849-2.266-2.8-17.54-20.533-44.332-32.2-71.015-34.387-32.676-2.38-68.418 1.508-94.887 22.726-32.016 27.82-41.515 67.898-44.433 108.842-.894 14.968-.686 29.99-.672 44.978.003 4.985-.006 9.97-.014 14.955q-.017 12.915-.018 25.832c-.001 12.464-.016 24.928-.035 37.393a95969 95969 0 0 0-.077 64.41 159243 159243 0 0 0-.04 55.197c0 1.21 0 2.42-.002 3.667q-.02 30.292-.071 60.583a20318 20318 0 0 0-.028 37.296q0 12.768-.027 25.536-.017 7.358-.007 14.716.01 6.745-.017 13.49-.006 2.43.004 4.858c.087 22.403-6.017 43.665-21.766 60.267-18.528 17.206-40.77 24.577-65.848 23.816-20.629-1.076-40.573-11.147-54.808-26.055-12.69-14.925-20.09-31.966-20.102-51.73l-.005-2.17c-.005-2.395-.002-4.79 0-7.184l-.007-5.209q-.008-7.152-.004-14.305-.002-7.717-.01-15.434-.012-15.124-.012-30.25 0-12.307-.006-24.615-.014-34.935-.012-69.87v-7.615q-.002-30.498-.023-60.996-.023-31.356-.02-62.71.001-17.588-.014-35.174-.015-14.99-.005-29.98.007-7.632-.005-15.266c-.04-25.385.248-50.58 4.002-75.75l.51-3.469c7.801-50.804 26.088-100.733 57.74-141.593l2.078-2.723C2838.511 84.05 2854.304 67.837 2872 55l1.627-1.189c8.467-6.145 17.301-11.619 26.373-16.811l1.919-1.109C2991.347-15.285 3119.577-9.283 3228 61M3541.412 1.866l5.564-.007q7.605-.008 15.212-.004c5.479 0 10.957-.006 16.436-.01q16.087-.012 32.173-.012 13.08 0 26.161-.006 31.083-.012 62.165-.013h18.131q31.431.001 62.862-.02 35.354-.024 70.708-.023 18.703.002 37.407-.013 15.925-.014 31.85-.005 8.118.007 16.235-.005 7.446-.011 14.892.002 2.68.003 5.357-.005c8.611-.026 17.11.16 25.672 1.134l2.052.23C4001.937 5.355 4016.746 14.598 4029 27l1.8 1.77c14.599 15.542 19.925 37.224 19.505 57.906-.764 17.69-8.413 34.328-20.305 47.324-.59.682-1.18 1.364-1.79 2.066-14.014 15.238-33.983 21.837-54.18 23.202-3.973.096-7.94.105-11.913.073h-4.5c-4.012.002-8.023-.016-12.034-.037-4.215-.019-8.43-.02-12.644-.024-7.954-.01-15.908-.034-23.861-.064-9.067-.034-18.134-.05-27.2-.065q-27.94-.048-55.878-.151l.005 3.573a267333 267333 0 0 1 .215 234.86l.001 2.532q.027 40.584.084 81.168a78263 78263 0 0 1 .075 95.222v2.344c.005 12.438.024 24.876.047 37.315q.036 18.77.027 37.539c-.003 6.776.001 13.552.023 20.329q.028 9.313.007 18.627-.003 3.36.016 6.723c.08 15.383-.896 29.208-8.25 43.08l-1.037 2.01c-3.086 5.793-6.787 10.827-11.213 15.678l-1.566 1.844c-13.585 14.98-34.709 22.057-54.34 23.117-21.014.476-39.379-6.167-54.754-20.668L3693 762l-2.121-2.012c-15.273-15.63-19.066-37.957-19.002-58.962l-.004-2.863q-.002-4.721.007-9.442l-.003-6.859q-.002-9.404.007-18.806.005-9.105.002-18.21-.001-18.62.008-37.237.01-18.428.011-36.857v-2.317l.001-11.648q.004-41.228.019-82.457.014-40.047.02-80.094v-2.495l.013-75.329v-2.346q.016-77.533.042-155.066l-2.366.006q-28.573.066-57.146.098-13.818.014-27.636.047-12.053.03-24.104.037-6.373.003-12.748.023-6.015.02-12.03.015-2.193 0-4.385.012c-25.582.13-45.232-5.874-64.05-23.61-15.222-15.784-22.017-36.276-21.742-57.948 1.017-18.075 6.673-33.613 18.207-47.68l2.344-2.965c12.355-14.716 30.913-22.781 49.723-24.558 8.445-.683 16.88-.619 25.345-.61M4284.748 19.008c2.483 2.269 4.87 4.617 7.252 6.992l2.027 1.957c13.812 14.376 18.138 34.614 18.104 53.886l.007 3.295q.006 5.484.002 10.969l.01 7.928q.01 9.765.01 19.53.002 11.698.014 23.395c.016 18.848.022 37.696.027 56.544q.003 13.378.01 26.756a297982 297982 0 0 1 .03 117.577c.003 30.98.02 61.96.042 92.939a137531 137531 0 0 1 .04 109.078v2.684q.005 21.367.027 42.733.022 21.486.01 42.97-.007 12.757.015 25.512.015 8.533-.001 17.066-.01 4.854.006 9.708c.087 27.27-3.472 51.253-23.43 71.649-15.78 15.443-35.073 22.084-56.828 22.073-20.782-.292-39.895-8.194-54.935-22.436-15.111-15.98-22.537-35.297-22.441-57.23l-.01-3.334c-.008-3.678-.003-7.356.003-11.033l-.011-8.003q-.013-8.693-.007-17.384c.006-8.618 0-17.235-.009-25.852-.015-16.287-.017-32.575-.014-48.862a77437 77437 0 0 0-.01-51.333q-.013-37.992-.008-75.983v-2.893q.002-7.257.003-14.515v-2.911l.002-5.83q.007-45.347-.021-90.694a139972 139972 0 0 1-.027-112.8v-2.703q.002-20.19-.015-40.382-.019-22.967-.002-45.935.011-12.846-.008-25.692-.012-8.592.006-17.182.01-4.89-.004-9.776c-.069-23.81 1.912-43.27 17.386-62.486l1.422-1.918c11.613-14.926 31.878-23.322 50.14-25.77 21.98-1.89 44.334 2.857 61.186 17.696M3048.537 982.725l3.108-.015c3.376-.014 6.752-.013 10.128-.01l7.1-.014q7.443-.01 14.884-.002c6.312.006 12.623-.01 18.935-.034 4.892-.015 9.784-.016 14.676-.013q3.486 0 6.972-.015c37.716-.145 70.435 9.204 98.146 35.804 23.551 23.375 34.683 54.774 34.889 87.574-.249 35.585-13.624 65.173-38.707 90.34-6.323 5.976-13.158 10.34-20.668 14.66 3.887 8.842 12.684 15.728 19.43 22.398 2.79 2.824 5.39 5.756 7.957 8.782 1.637 1.847 3.375 3.508 5.176 5.195 7.218 7.12 11.354 15.752 11.812 25.875-.235 10.095-4.318 18.61-11.375 25.75-8.523 7.143-17.039 8.958-28 8-9.292-1.559-16.196-7.68-22.18-14.645-4.346-5.049-9.076-9.682-13.82-14.355-9.63-9.485-9.63-9.485-13.469-13.969-4.392-5.123-9.228-9.796-14.031-14.531-5.57-5.491-11.07-10.965-16.143-16.924-2.153-2.718-2.153-2.718-5.268-3.854l-2.355-.04-2.67-.061-2.884-.035-2.951-.059c-3.118-.06-6.236-.106-9.354-.152l-6.332-.117q-7.77-.143-15.543-.258l.027 1.983c.089 6.846.149 13.692.193 20.539q.03 3.826.082 7.652c.049 3.68.071 7.358.089 11.037l.062 3.423c.003 10.168-2.481 18.167-9.535 25.612-7.725 7.065-15.793 9.253-26.121 8.996-8.834-.765-15.502-3.995-21.797-10.242-6.75-8.312-8.299-15.55-8.267-26.063l-.014-3.387c-.013-3.747-.011-7.494-.01-11.24q-.008-4.029-.02-8.058a8287 8287 0 0 1-.023-19.618q-.002-7.976-.012-15.95a35708 35708 0 0 1-.025-47.708v-2.465c.001-13.186-.018-26.37-.046-39.556q-.043-20.318-.04-40.637c0-7.602-.006-15.204-.027-22.806a3953 3953 0 0 1-.009-19.418q.01-4.95-.01-9.901c-.016-3.583-.007-7.166.009-10.749l-.032-3.139c.094-9.91 3.688-18.103 10.526-25.305 8.462-7.08 16.825-8.303 27.537-8.275M3076 1049v113l32.25.187 10.11.083q4.016.014 8.03.023l2.057.024c17.417.19 32.39-3.572 45.237-15.903 11.426-11.908 17.72-24.43 17.687-41.066-.462-16.744-7.465-30.788-19.371-42.348-13.416-11.926-29.02-14.499-46.488-14.293l-3.833.01c-4.664.015-9.328.057-13.991.095zM2868 989l2.988.984c13.777 4.912 26.201 12.155 37.012 22.016l2.32 2.074c14.47 13.638 24.079 32.008 29.68 50.926l.66 2.219c2.908 10.102 4.72 20.134 5.468 30.619.083 1.152.166 2.303.25 3.49 1.009 15.638.915 31.298.89 46.962-.005 4.462 0 8.923.003 13.385q.005 11.199-.01 22.399-.015 12.903.003 25.806.014 11.166.006 22.33-.007 6.633.003 13.265.007 6.216-.01 12.431-.004 2.268.002 4.534c.037 13.56-.258 27.282-10.265 37.56-7.68 6.298-16.674 9.711-26.684 9.281-11.084-1.346-18.989-5.694-26-14.367-13.105-19.056-6.316-51.98-6.316-69.914h-103c.158 19.012.158 19.012.36 38.023q.018 3.596.03 7.192l.063 3.72c.004 10.447-2.379 17.629-9.543 25.28-6.918 6.465-15.452 9.82-24.91 10.16-9.038-.34-17.204-3.347-24-9.375-6.317-7.414-9.313-14.041-9.26-23.845-.005-.771-.008-1.543-.012-2.338-.01-2.577-.007-5.153-.003-7.73q-.007-2.778-.015-5.555c-.014-5.028-.014-10.055-.012-15.083q0-6.313-.008-12.626-.016-14.917-.006-29.836c.006-10.22-.006-20.44-.027-30.66q-.026-13.2-.02-26.398c.001-5.244-.001-10.487-.015-15.731q-.018-7.417.002-14.836.004-2.7-.009-5.4c-.155-36.048 10.34-70.309 35.905-96.548 32.41-30.844 82.66-38.333 124.48-24.414m-78.285 75.254C2768.76 1088.655 2775 1128.792 2775 1157h103l.25-27.437.11-8.55c.153-20.122-.91-42.018-15.712-57.564-13.095-11.513-27.333-13.22-44.1-12.624-10.907.749-21.093 5.794-28.833 13.429M2457.088 982.839l3.073-.015q5.032-.021 10.066-.027l3.491-.009q9.165-.022 18.33-.028c6.266-.006 12.532-.03 18.797-.058 4.855-.019 9.71-.024 14.564-.026q3.46-.004 6.919-.024c39.453-.21 72.269 10.319 100.672 38.348 23.03 22.989 32.595 54.227 33.25 86.125-.555 29.82-10.653 57.327-30.25 79.875a858 858 0 0 0-2.563 3.25c-19.557 22.065-48.743 34.152-77.437 37.75-2.436.083-4.875.118-7.312.114h-2.102q-3.4-.002-6.8-.016l-4.746-.005q-6.218-.006-12.434-.024-6.354-.014-12.71-.02-12.447-.016-24.896-.049l.02 1.945c.067 6.716.112 13.433.145 20.15q.022 3.753.061 7.507c.037 3.609.054 7.218.067 10.828.015 1.107.03 2.215.047 3.356.002 10.783-2.267 19.88-9.34 28.214-7.728 7.328-15.549 9.507-25.996 9.42-9.105-.331-15.671-3.269-22.25-9.502-7.912-8.652-9.056-17.793-9.021-29.132l-.014-3.363c-.013-3.709-.011-7.417-.01-11.125q-.008-3.995-.02-7.99-.023-9.716-.023-19.43-.002-7.902-.012-15.802-.026-22.423-.025-44.847v-4.882c.001-13.06-.018-26.122-.046-39.182a17740 17740 0 0 1-.04-40.278c0-7.532-.005-15.064-.027-22.595a3880 3880 0 0 1-.009-19.238q.01-4.902-.01-9.804c-.016-3.552-.007-7.103.009-10.655l-.032-3.093c.105-10.947 3.424-19.451 11.018-27.334 8.399-7.26 16.928-8.317 27.596-8.33M2485 1049v113l32.812.187 10.297.083q4.08.014 8.16.023l2.097.024c17.127.184 31.733-3.795 44.384-15.899 11.845-12.73 16.943-26.67 16.562-43.805-.839-16.906-9.372-30.375-21.468-41.617-12.58-10.552-27.118-12.314-42.942-12.191l-3.844.006c-4.707.01-9.414.038-14.12.064zM3363.813 989.188c6.963 5.476 10.507 13.3 12.187 21.812.592 6.353.49 12.758.512 19.133l.054 5.54c.047 4.83.077 9.66.104 14.49.03 4.94.076 9.88.121 14.821q.127 14.508.209 29.016l2.917-2.716 5.744-5.344a408 408 0 0 1 11.284-10.135c2.724-2.393 5.388-4.85 8.055-7.305 3.91-3.6 7.859-7.144 11.875-10.625 2.743-2.42 5.434-4.897 8.125-7.375 3.933-3.62 7.902-7.19 11.941-10.691 2.549-2.24 5.053-4.523 7.559-6.809 3.12-2.845 6.248-5.672 9.438-8.437 3.949-3.43 7.792-6.973 11.64-10.516a427 427 0 0 1 10.309-9.172c2.173-1.929 4.276-3.924 6.384-5.924 9.944-9.359 19.62-16.575 33.827-16.264 8.213.885 16.11 4.375 21.902 10.313 7.277 9.52 10.007 18.047 9 30-.61 2.932-1.597 5.36-3 8l-1.078 2.066c-4.527 7.623-11.321 13.161-17.922 18.934l-2.234 1.969a789 789 0 0 1-3.743 3.258c-2.538 2.224-5.03 4.498-7.523 6.773a643 643 0 0 1-11.473 10.223 652 652 0 0 0-7.027 6.277 637 637 0 0 1-8.937 7.938c-3.229 2.81-6.4 5.678-9.563 8.562a643 643 0 0 1-11.473 10.223 652 652 0 0 0-7.027 6.277 637 637 0 0 1-8.937 7.938c-4.231 3.68-8.36 7.471-12.497 11.257a142 142 0 0 1-6.253 5.305l-2.313 2v2c1.55 1.569 1.55 1.569 3.563 3.188 2.762 2.345 5.404 4.72 7.937 7.312 3.03 3.086 6.23 5.908 9.508 8.727 2.638 2.348 5.096 4.849 7.547 7.39 1.416 1.492 1.416 1.492 3.445 2.383v2l1.71.715c2.81 1.577 4.686 3.526 6.915 5.848 2.886 3.127 2.886 3.127 6.375 5.437v2l1.71.715c2.81 1.577 4.686 3.526 6.915 5.848 2.886 3.127 2.886 3.127 6.375 5.437v2l1.734.738c2.67 1.487 4.404 3.243 6.516 5.45 2.85 2.919 5.714 5.722 8.813 8.374 3.49 2.994 6.708 6.19 9.933 9.465 2.586 2.546 5.32 4.893 8.07 7.258 2.5 2.216 4.816 4.585 7.153 6.969 1.858 1.822 3.796 3.5 5.781 5.184 8.336 7.235 14.324 14.367 15.16 25.742.366 10.201-2.25 18.259-9.16 25.82-6.932 7.34-14.515 10.198-24.562 10.5-13.981-.45-22.931-8.526-32.258-18.348-1.917-1.892-3.877-3.654-5.91-5.418-4.26-3.697-8.366-7.54-12.457-11.421-5.122-4.84-10.252-9.668-15.438-14.438A2362 2362 0 0 1 3437.5 1244a2628 2628 0 0 0-14-13 2636 2636 0 0 1-14-13 3764 3764 0 0 0-26.718-24.7l-1.687-1.546L3377 1188l-.018 3.35q-.086 15.667-.218 31.336c-.044 5.369-.084 10.738-.11 16.107a3356 3356 0 0 1-.117 15.562q-.025 2.96-.035 5.92c-.048 13.734-.185 25.747-9.502 36.725-7.725 7.325-15.552 9.516-25.998 9.417-9.564-.355-16.118-3.603-23.022-10.128-5.175-5.982-8.097-13.077-8.114-20.967l-.014-2.854v-3.125l-.01-3.328q-.015-5.54-.019-11.08l-.02-7.928c-.02-7.94-.03-15.881-.039-23.822q-.007-5.613-.015-11.225a47553 47553 0 0 1-.046-49.445c-.008-12.99-.033-25.98-.066-38.97q-.049-20.018-.054-40.034c-.002-7.489-.01-14.978-.036-22.467q-.034-9.57-.02-19.14.007-4.877-.017-9.755c-.018-3.535-.01-7.068.002-10.603l-.033-3.078c.085-9.504 2.668-19.51 9.521-26.468 13.484-11.118 29.928-12.213 44.813-2.812M2249.59 982.664l6.581-.02q6.872-.017 13.745-.015c5.841 0 11.682-.027 17.523-.061 4.526-.022 9.051-.026 13.577-.025q3.228-.004 6.457-.027c15.05-.099 29.533-.007 41.527 10.484 6.03 6.563 7.89 14.235 8 23-.596 7.34-2.066 13.74-6 20l-1.687 2.688c-7.833 7.832-19.26 10.62-30.055 10.704l-2.727-.023-2.976.011q-3.166.01-6.333 0c-3.347-.01-6.694.001-10.041.017-9.51.04-19.018.041-28.527.039q-8.753.002-17.506.05c-3.286.01-6.572-.002-9.859-.015l-6.079.03-2.74-.029c-6.31.07-10.91 1.602-16.47 4.528l-2.187 1.018c-2.388 1.294-2.81 2.486-3.813 4.982l-1.035 2.438-1.028 2.562-1.035 2.563c-3.055 8.252-3 16.536.223 24.75 3.57 7.673 7.86 13.355 15.875 16.687 3.281.555 6.502.558 9.824.54.942.01 1.883.023 2.853.035 3.004.035 6.007.044 9.01.05 11.46.064 22.858.152 34.27 1.285l2.415.238c19.68 2.15 38.477 10.153 53.628 22.852l2.172 1.695c17.4 14.253 27.317 36.271 29.828 58.305 1.738 27.15-4.572 53.48-22.223 74.668-2.205 2.5-4.471 4.924-6.777 7.332l-1.89 2.082c-14.265 15.194-37.193 27.045-58.276 28.018-2.624.051-5.247.07-7.872.077l-3.018.02c-3.286.02-6.572.031-9.858.041l-3.415.013q-8.949.03-17.898.044c-6.14.011-12.279.046-18.419.085-4.74.027-9.481.035-14.222.038q-3.393.008-6.786.035c-28.682.222-28.682.222-40.283-11.156-6.882-7.664-8.533-16.214-8.305-26.274.618-7.713 2.753-13.642 8.164-19.27 9.233-7.792 20.664-9.067 32.326-8.993l2.941-.006q3.134-.004 6.267.002c3.314.006 6.628-.003 9.941-.017 9.416-.037 18.83-.056 28.246-.044q8.663.006 17.327-.046 3.286-.012 6.574.004c3.07.014 6.138-.002 9.208-.025l2.705.035c7.665-.112 14.113-2.663 19.91-7.733 7.044-9.599 10.047-18.975 8.633-30.93-1.842-8.241-5.782-16.267-12.782-21.275-6.335-3.91-11.496-4.421-18.84-4.327l-3.329-.024c-3.496-.023-6.99-.014-10.486.001-35.361.04-65.549-4.915-92.25-29.625-18.739-19.947-25.2-44.178-24.445-71.067.621-12.643 4.197-24.109 9.132-35.683l1.184-2.8c3.273-7.103 7.973-13.1 12.816-19.2l1.527-2c14.345-17.962 38.257-28.934 60.535-32.564 8.8-.974 17.684-.766 26.528-.772"/></svg>